<?xml version="1.0" encoding="utf-8"?>
<!-- Generator: Adobe Illustrator 22.1.0, SVG Export Plug-In . SVG Version: 6.00 Build 0)  -->
<svg version="1.1" id="Camada_1" xmlns="http://www.w3.org/2000/svg" xmlns:xlink="http://www.w3.org/1999/xlink" x="0px" y="0px"
	 viewBox="0 0 100 100" style="enable-background:new 0 0 100 100;" xml:space="preserve">
<style type="text/css">
	.st0{opacity:0.5;}
	.st1{fill:#9DE591;}
</style>
<g class="st0">
	<circle class="st1" cx="83.1" cy="3.9" r="2.6"/>
	<circle class="st1" cx="83.1" cy="22.5" r="2.6"/>
	<circle class="st1" cx="83.1" cy="41" r="2.6"/>
	<circle class="st1" cx="83.1" cy="59.6" r="2.6"/>
	<circle class="st1" cx="83.1" cy="78.1" r="2.6"/>
	<circle class="st1" cx="83.1" cy="96.6" r="2.6"/>
	<circle class="st1" cx="60.5" cy="3.9" r="2.6"/>
	<circle class="st1" cx="60.5" cy="22.5" r="2.6"/>
	<circle class="st1" cx="60.5" cy="41" r="2.6"/>
	<circle class="st1" cx="60.5" cy="59.6" r="2.6"/>
	<circle class="st1" cx="60.5" cy="78.1" r="2.6"/>
	<circle class="st1" cx="60.5" cy="96.6" r="2.6"/>
	<circle class="st1" cx="38" cy="3.9" r="2.6"/>
	<circle class="st1" cx="38" cy="22.5" r="2.6"/>
	<circle class="st1" cx="38" cy="41" r="2.6"/>
	<circle class="st1" cx="38" cy="59.6" r="2.6"/>
	<circle class="st1" cx="38" cy="78.1" r="2.6"/>
	<circle class="st1" cx="38" cy="96.6" r="2.6"/>
	<circle class="st1" cx="15.4" cy="3.9" r="2.6"/>
	<circle class="st1" cx="15.4" cy="22.5" r="2.6"/>
	<circle class="st1" cx="15.4" cy="41" r="2.6"/>
	<circle class="st1" cx="15.4" cy="59.6" r="2.6"/>
	<circle class="st1" cx="15.4" cy="78.1" r="2.6"/>
	<circle class="st1" cx="15.4" cy="96.6" r="2.6"/>
</g>
</svg>
