<?xml version="1.0" encoding="utf-8"?>
<!-- Generator: Adobe Illustrator 22.1.0, SVG Export Plug-In . SVG Version: 6.00 Build 0)  -->
<svg version="1.1" id="Camada_1" xmlns="http://www.w3.org/2000/svg" xmlns:xlink="http://www.w3.org/1999/xlink" x="0px" y="0px"
	 viewBox="0 0 100 100" style="enable-background:new 0 0 100 100;" xml:space="preserve">
<style type="text/css">
	.st0{fill:#1B234B;}
	.st1{opacity:0.4;}
	.st2{fill:#CAE6FF;}
	.st3{fill:#122F49;}
	.st4{fill:#36F400;}
</style>
<g>
	<g>
		<path class="st0" d="M18,39.1v-4.5l0.6-0.4v-0.3c0,0-0.4,0-0.6-0.1s-0.6,0.1-0.6,0.1s-1.3,0-1.3-0.1s-1.6-1-2.2-0.4
			c-0.6,0.6-1,0.3-1,0.3s0.7-0.6,0.6-0.7s-1.1-0.7-1.1-0.7s0.6-0.4,1.4,0c0.9,0.4,1.3-0.1,1.3-0.1s0.7,0,1.1,0.4
			c0.4,0.4,1.4,0.1,1.4,0.1s0.6-0.6,0.9-0.4c0.3,0.1,0-0.4,0-0.4L18,31.2l0.1-1.9c0,0,0.4-0.6,0.4-0.7c0-0.1,0-3,0-3s-0.7-1.7-0.7-2
			s0-4.3,0-4.3v-0.6c0,0-1.6-2.7-0.9-4.6s0.6-6.2,3.6-9.5L21,4.2V3.3V3.1h-0.3V2.8H21V2.3h0.4v0.4h0.4v0.3h-0.4v1.1
			c0,0,4.7,5,4.9,8.6c0.1,3.6,0.3,4.5-1,5.5l-0.2,0.6l0.1,12.2l-0.4,0.6v0.4l0.4,0.1c0,0,0.9,0.4,1.3,0.4s1-0.7,1.6-0.7
			c0.6,0,0.9,0.4,0.9,0.4s0.4-0.6,0.6-0.6S31,32,31,32l-0.9,0.7c0,0-0.4,0.1,0.1,0.7c0,0,0,0.6-1.4-0.3c0,0-0.7,0-1.7,0.7
			c-1.1,0-2.3-0.1-2.3-0.1v0.6l0.4,0.3V36l-0.4,0.9V39L18,39.1z"/>
	</g>
	<g class="st1">
		<path class="st2" d="M22.8,17.9v2.3c0,0-1.1,3.3-2.7,4.6l-1.9-2.9v-2.4l-0.4-0.9v4.9l0.7,2v3l-0.4,0.7l-0.1,1.9l4-0.1l3.3,0.1l0-2
			c0,0-0.4,1.6-1.4,1.6c-2.2-0.9-2.2-2.6-2.2-2.6V25l2.2-3c0,0,0.6-3.2,0.4-4H22.8z"/>
	</g>
	<g>
		<path class="st3" d="M19.9,26.3c0,0-0.7,0.7-0.1,2C20.4,29.3,20.6,26.3,19.9,26.3z"/>
	</g>
	<g>
		<polygon class="st0" points="18,39.1 18,87.4 24.8,87.4 24.8,39 		"/>
	</g>
	<g class="st1">
		<path class="st2" d="M22.4,34.5v2.3c0,0-1,3.3-2.4,4.6l-1.7-2.9v-2.4L18,35.2v4.9l0.6,2v3l-0.4,0.7l-0.1,1.9l3.6-0.1l2.9,0.1l0-2
			c0,0-0.4,1.6-1.2,1.6c-1.9-0.9-1.9-2.6-1.9-2.6v-3.2l1.9-3c0,0,0.5-3.2,0.4-4H22.4z"/>
	</g>
	<g class="st1">
		<path class="st2" d="M20.3,47.6v2.3c0,0,1,3.3,2.4,4.6l1.6-2.9v-2.4l0.4-0.9v4.9l-0.6,2v3l0.4,0.7l0.1,1.9L21,60.7l-2.9,0.1l0-2
			c0,0,0.4,1.6,1.2,1.6c1.9-0.9,1.9-2.6,1.9-2.6v-3.2l-1.9-3c0,0-0.5-3.2-0.4-4H20.3z"/>
	</g>
	<g class="st1">
		<path class="st2" d="M22.5,60.8v2.3c0,0-1,3.3-2.4,4.6l-1.6-2.9v-2.4l-0.4-0.9v4.9l0.6,2v3l-0.4,0.7L18.3,74l3.5-0.1l2.9,0.1l0-2
			c0,0-0.4,1.6-1.2,1.6c-1.9-0.9-1.9-2.6-1.9-2.6v-3.2l1.9-3c0,0,0.5-3.2,0.4-4H22.5z"/>
	</g>
	<g class="st1">
		<path class="st2" d="M20.3,74.2v2.3c0,0,1,3.3,2.4,4.6l1.6-2.9v-2.4l0.4-0.9v4.9l-0.6,2v3l0.4,0.7l0.1,1.9L21,87.2l-2.9,0.1l0-2
			c0,0,0.4,1.6,1.2,1.6c1.9-0.9,1.9-2.6,1.9-2.6v-3.2l-1.9-3c0,0-0.5-3.2-0.4-4H20.3z"/>
	</g>
	<g class="st1">
		<circle class="st2" cx="22.3" cy="50.2" r="1.4"/>
	</g>
	<g class="st1">
		<circle class="st2" cx="20.2" cy="64" r="1.4"/>
	</g>
	<g class="st1">
		<circle class="st2" cx="20.2" cy="37.1" r="1.4"/>
	</g>
	<g class="st1">
		<circle class="st2" cx="22.3" cy="76.6" r="1.4"/>
	</g>
	<g>
		<path class="st0" d="M24.8,87.4c0,0-1.1,2.7-0.1,3.9v5.5h-6.3v-5.2c0,0,1-2.3-0.1-4.2"/>
	</g>
	<g>
		<path class="st0" d="M23.7,89v1.6c0,0,1,0.3,2.3,0.1c0,0,1-0.6,1.7-0.7c0,0,1.4,0.9,1.4,0.3c0,0-0.4-0.3-0.1-0.7
			c0,0,0.9-0.4,0.9-0.7c0,0-1.2-0.5-1.9,0.5c0,0-0.8-1-2.2,0.3C25.7,89.6,25.1,89.7,23.7,89z"/>
	</g>
	<g>
		<path class="st0" d="M19.4,89v1.6c0,0-1,0.3-2.3,0.1c0,0-1-0.6-1.7-0.7c0,0-1.4,0.9-1.4,0.3c0,0,0.4-0.3,0.1-0.7
			c0,0-0.9-0.4-0.9-0.7c0,0,1.2-0.5,1.9,0.5c0,0,0.8-1,2.2,0.3C17.5,89.6,18.1,89.7,19.4,89z"/>
	</g>
	<g>
		<path class="st0" d="M21,4.2c0,0-7.6,6.6-3.2,14.4c0,0.1,2.9-1.3,3.4-1.4c0.6-0.1,4,1.1,4,1.1S30.6,11.2,21,4.2z"/>
	</g>
	<g>
		<g>
			<path class="st4" d="M18.7,38.9v-4.5l0.6-0.4v-0.2c-0.1,0-0.4,0-0.6-0.2c-0.1-0.1-0.4,0.1-0.5,0.2l0,0h0c-1.3,0-1.3-0.1-1.3-0.2
				c0-0.1-0.6-0.4-1.2-0.5c-0.3,0-0.6-0.1-0.8,0.2c-0.6,0.6-1.1,0.3-1.1,0.3l-0.1,0l0.1,0c0.2-0.2,0.6-0.5,0.6-0.6c0,0,0,0,0,0
				c-0.1-0.1-0.9-0.6-1.1-0.7l-0.1,0l0.1,0c0,0,0.6-0.4,1.5,0c0.8,0.4,1.2-0.1,1.2-0.1l0,0h0c0,0,0.7,0,1.2,0.4
				c0.4,0.4,1.3,0.2,1.4,0.1c0.1-0.1,0.6-0.6,0.9-0.4c0,0,0.1,0,0.1,0c0,0,0-0.2-0.1-0.4l-0.6-0.6l0.1-1.9l0,0
				c0.2-0.3,0.4-0.6,0.4-0.7v-3c-0.1-0.2-0.7-1.7-0.7-2v-4.9c-0.1-0.2-1.6-2.8-0.9-4.6c0.2-0.5,0.3-1.2,0.5-2.1
				c0.4-2.1,0.9-5,3.1-7.4l0.4-0.4V2.8h-0.3V2.4h0.3V2h0.5v0.4h0.4v0.4h-0.4v1.1c0.3,0.3,4.7,5.2,4.9,8.6c0,0.3,0,0.5,0,0.8
				c0.1,3,0.2,3.8-1,4.7l-0.2,0.6L26,30.9l-0.4,0.6v0.4l0.4,0.1c0,0,0.9,0.4,1.3,0.4c0.2,0,0.4-0.2,0.6-0.3c0.3-0.2,0.6-0.4,0.9-0.4
				c0.5,0,0.8,0.3,0.9,0.4c0.1-0.2,0.4-0.5,0.6-0.5c0.1,0,1.4,0.1,1.4,0.1l0.1,0l-1,0.8c0,0-0.1,0-0.1,0.1c0,0.1,0,0.2,0.3,0.5l0,0
				v0c0,0,0,0.1-0.1,0.2c-0.2,0.1-0.7,0-1.4-0.4c-0.1,0-0.8,0.1-1.7,0.7l0,0h0c-1,0-2-0.1-2.2-0.1V34l0.4,0.3v1.5l-0.4,0.9v2.2
				L18.7,38.9z M18.8,34.4v4.4l6.7-0.1v-2.1l0.4-0.9v-1.4L25.5,34v-0.7l0.1,0c0,0,1.1,0.1,2.3,0.1c1-0.7,1.7-0.7,1.7-0.7h0l0,0
				c0.9,0.5,1.2,0.5,1.3,0.4c0,0,0.1-0.1,0.1-0.1c-0.2-0.2-0.3-0.4-0.3-0.6c0-0.1,0.1-0.2,0.2-0.2l0.8-0.6c-0.5-0.1-1.2-0.1-1.3-0.1
				c-0.1,0-0.3,0.3-0.5,0.6l0,0.1l0-0.1c0,0-0.3-0.4-0.8-0.4c-0.3,0-0.6,0.2-0.9,0.4c-0.3,0.2-0.5,0.3-0.7,0.3
				c-0.4,0-1.3-0.4-1.3-0.4l-0.5-0.2v-0.5l0.4-0.6l-0.1-12.2L26,18l0,0c1.2-0.9,1.1-1.7,1-4.7c0-0.2,0-0.5,0-0.8
				C26.9,9,22.2,4,22.1,4l0,0V2.7h0.4V2.5h-0.4V2.1h-0.3v0.4h-0.3v0.2h0.3v1.2l-0.4,0.4c-2.2,2.4-2.7,5.3-3.1,7.4
				c-0.2,0.8-0.3,1.6-0.5,2.1c-0.7,1.8,0.8,4.5,0.9,4.6l0,0v4.9c0,0.2,0.5,1.5,0.7,2l0,0v3c0,0.1-0.3,0.6-0.4,0.7l-0.1,1.8l0.6,0.6
				c0.1,0.2,0.2,0.4,0.1,0.5c0,0-0.1,0-0.2,0c-0.2-0.1-0.6,0.3-0.8,0.4l0,0l0,0c0,0-1,0.3-1.5-0.2c-0.4-0.4-1-0.4-1.1-0.4
				c-0.1,0.1-0.5,0.5-1.3,0.1c-0.7-0.3-1.1-0.1-1.3,0c0.2,0.1,1,0.6,1.1,0.7c0,0,0,0.1,0,0.1c0,0.2-0.4,0.5-0.5,0.6
				c0.1,0,0.5,0.1,0.9-0.3c0.4-0.4,1.2-0.1,1.5,0c0.2,0.1,0.7,0.3,0.7,0.4c0.1,0.1,0.7,0.1,1.2,0.1c0.1-0.1,0.5-0.3,0.6-0.1
				c0.1,0.1,0.4,0.1,0.5,0.1h0.1V34L18.8,34.4z M16.9,33.5C16.9,33.5,16.9,33.5,16.9,33.5C16.9,33.5,16.9,33.5,16.9,33.5z"/>
		</g>
		<g class="st1">
			<path class="st4" d="M26,30.9l-3.4-0.1l-4.1,0.1l0.1-1.9l0.4-0.7v-3l-0.7-2v-5.1l0.5,1.1v2.4l1.8,2.8c1.5-1.3,2.6-4.3,2.7-4.5
				v-2.3H25l0,0c0.1,0.9-0.4,3.9-0.4,4l0,0l-2.1,3v3.1c0,0,0,1.7,2.1,2.5c0.9,0,1.3-1.5,1.4-1.5l0.1-0.4L26,30.9z M18.9,29l-0.1,1.8
				l4-0.1l3.3,0.1l0-1.6c-0.2,0.5-0.6,1.3-1.4,1.3l0,0c-2.2-0.9-2.2-2.6-2.2-2.6v-3.2l2.2-3c0-0.2,0.5-3.1,0.4-3.9h-1.3l0,2.3
				c0,0-1.2,3.3-2.7,4.6l0,0l-1.9-2.9v-2.4l-0.3-0.6v4.6l0.7,2v3L18.9,29z"/>
		</g>
		<g class="st1">
			<path class="st4" d="M20.7,28.4c-0.1,0-0.2-0.1-0.3-0.3l0,0c-0.7-1.5,0.2-2.3,0.2-2.3l0,0h0c0.2,0,0.4,0.2,0.5,0.7
				C21.2,27.3,21.1,28.3,20.7,28.4C20.7,28.4,20.7,28.4,20.7,28.4z M20.4,28.1c0.1,0.1,0.2,0.2,0.3,0.2c0.3-0.1,0.4-1,0.2-1.8
				c-0.1-0.4-0.2-0.6-0.4-0.6C20.4,26.1,19.8,26.8,20.4,28.1z"/>
		</g>
		<g>
			<path class="st4" d="M20.7,28.3c-0.1,0-0.2-0.1-0.3-0.2l0,0c-0.6-1.3,0.1-2.1,0.2-2.1l0,0h0c0.2,0,0.4,0.2,0.5,0.6
				C21.2,27.2,21.1,28.1,20.7,28.3C20.8,28.3,20.8,28.3,20.7,28.3z M20.5,28c0.1,0.1,0.2,0.2,0.3,0.2c0.2-0.1,0.3-0.9,0.2-1.6
				c-0.1-0.3-0.2-0.5-0.3-0.5C20.5,26.2,20,26.9,20.5,28z"/>
		</g>
		<g>
			<path class="st4" d="M25.5,87.1h-6.9V38.7l6.9-0.1V87.1z M18.8,87h6.6V38.7l-6.6,0.1V87z"/>
		</g>
		<g class="st1">
			<path class="st4" d="M25.4,47.5l-3-0.1l-3.6,0.1l0.1-1.9l0.4-0.7v-3l-0.6-2v-5.1l0.5,1.1v2.4l1.6,2.8c1.3-1.3,2.3-4.3,2.3-4.5
				v-2.3h1.4l0,0c0.1,0.9-0.4,3.9-0.4,4l0,0l-1.9,3v3.1c0,0,0,1.7,1.9,2.5c0.8,0,1.2-1.5,1.2-1.5l0.1-0.4L25.4,47.5z M19,45.6
				l-0.1,1.8l3.5-0.1l2.9,0.1l0-1.6c-0.2,0.5-0.5,1.3-1.2,1.3l0,0c-1.9-0.9-1.9-2.6-1.9-2.6v-3.2l1.9-3c0-0.2,0.5-3.1,0.4-3.9h-1.2
				l0,2.3c0,0-1,3.3-2.4,4.6l0,0l-1.7-2.9v-2.4l-0.3-0.6v4.6l0.6,2v3L19,45.6z"/>
		</g>
		<g class="st1">
			<path class="st4" d="M18.8,60.6l0-2.5l0.1,0.5c0,0,0.3,1.5,1.2,1.5c1.8-0.8,1.8-2.5,1.8-2.5v-3.1l-1.9-3l0,0c0-0.1-0.5-3.2-0.4-4
				l0,0h1.3v2.3c0.1,0.2,1,3.2,2.3,4.5l1.6-2.8l0-2.4l0.5-1.1l0,5.2l-0.6,2v3l0.4,0.7l0.1,1.9l-3.5-0.1L18.8,60.6z M21.7,60.3
				l3.4,0.1L25,58.7l-0.4-0.7l0-3l0.6-2v-4.6L25,48.9v2.4l-1.7,2.9l-0.1,0c-1.4-1.3-2.4-4.6-2.4-4.6l0,0v-2.2h-1.1
				c-0.1,0.9,0.3,3.7,0.4,3.9l1.9,3v3.2c0,0,0,1.8-1.9,2.6l0,0c-0.6,0-1-0.8-1.2-1.3l0,1.6L21.7,60.3z"/>
		</g>
		<g class="st1">
			<path class="st4" d="M25.4,73.8l-2.9-0.1l-3.5,0.1l0.1-1.9l0.4-0.7v-3l-0.6-2V61l0.5,1.1v2.4l1.6,2.8c1.3-1.3,2.2-4.3,2.3-4.5
				v-2.3h1.3l0,0c0.1,0.9-0.4,3.9-0.4,4l0,0l-1.9,3v3.1c0,0,0,1.7,1.8,2.5c0.8,0,1.2-1.5,1.2-1.5l0.1-0.5L25.4,73.8z M19.2,71.9
				l-0.1,1.8l3.4-0.1l2.8,0.1l0-1.6c-0.2,0.5-0.5,1.3-1.2,1.3l0,0c-1.9-0.9-1.9-2.6-1.9-2.6v-3.2l1.9-3c0-0.2,0.5-3.1,0.4-3.9h-1.1
				l0,2.3c0,0-1,3.3-2.4,4.6l-0.1,0l-1.7-2.9v-2.4l-0.3-0.6v4.6l0.6,2v3L19.2,71.9z"/>
		</g>
		<g class="st1">
			<path class="st4" d="M18.8,87.1l0-2.5l0.1,0.5c0,0,0.3,1.5,1.2,1.5c1.8-0.8,1.8-2.5,1.8-2.5v-3.1l-1.9-3l0,0c0-0.1-0.5-3.2-0.4-4
				l0,0h1.3v2.3c0.1,0.2,1,3.2,2.3,4.5l1.6-2.8l0-2.4l0.5-1.1l0,5.2l-0.6,2v3l0.4,0.7l0.1,1.9L21.7,87L18.8,87.1z M21.7,86.9
				l3.4,0.1L25,85.2l-0.4-0.7l0-3l0.6-2v-4.6L25,75.5v2.4l0,0l-1.6,2.9l-0.1,0c-1.4-1.3-2.4-4.6-2.4-4.6l0,0v-2.2h-1.1
				c-0.1,0.9,0.3,3.7,0.4,3.9l1.9,3v3.2c0,0,0,1.8-1.9,2.6l0,0c-0.6,0-1-0.8-1.2-1.3l0,1.6L21.7,86.9z"/>
		</g>
		<g class="st1">
			<path class="st4" d="M23,51.4c-0.8,0-1.5-0.7-1.5-1.5c0-0.8,0.7-1.5,1.5-1.5c0.8,0,1.5,0.7,1.5,1.5C24.5,50.7,23.9,51.4,23,51.4z
				 M23,48.5c-0.8,0-1.4,0.6-1.4,1.4c0,0.8,0.6,1.4,1.4,1.4c0.8,0,1.4-0.6,1.4-1.4C24.4,49.1,23.8,48.5,23,48.5z"/>
		</g>
		<g class="st1">
			<path class="st4" d="M20.9,65.2c-0.8,0-1.5-0.7-1.5-1.5c0-0.8,0.7-1.5,1.5-1.5c0.8,0,1.5,0.7,1.5,1.5
				C22.4,64.5,21.7,65.2,20.9,65.2z M20.9,62.3c-0.8,0-1.4,0.6-1.4,1.4c0,0.8,0.6,1.4,1.4,1.4c0.8,0,1.4-0.6,1.4-1.4
				C22.3,62.9,21.7,62.3,20.9,62.3z"/>
		</g>
		<g class="st1">
			<path class="st4" d="M20.9,38.3c-0.8,0-1.5-0.7-1.5-1.5c0-0.8,0.7-1.5,1.5-1.5c0.8,0,1.5,0.7,1.5,1.5
				C22.4,37.6,21.7,38.3,20.9,38.3z M20.9,35.4c-0.8,0-1.4,0.6-1.4,1.4c0,0.8,0.6,1.4,1.4,1.4c0.8,0,1.4-0.6,1.4-1.4
				C22.3,36,21.7,35.4,20.9,35.4z"/>
		</g>
		<g class="st1">
			<path class="st4" d="M23,77.8c-0.8,0-1.5-0.7-1.5-1.5c0-0.8,0.7-1.5,1.5-1.5c0.8,0,1.5,0.7,1.5,1.5C24.5,77.1,23.9,77.8,23,77.8z
				 M23,74.9c-0.8,0-1.4,0.6-1.4,1.4c0,0.8,0.6,1.4,1.4,1.4c0.8,0,1.4-0.6,1.4-1.4C24.4,75.5,23.8,74.9,23,74.9z"/>
		</g>
		<g>
			<path class="st4" d="M25.4,96.7H19l0-5.5c0,0,1-2.3-0.1-4.1l0.1-0.1c1.1,1.8,0.2,4,0.2,4.2v5.3h6.2V91c-1-1.2,0.1-3.8,0.1-3.9
				l0.1,0c0,0-1.1,2.7-0.2,3.8l0,0V96.7z"/>
		</g>
		<g>
			<path class="st4" d="M26.1,90.5c-0.9,0-1.6-0.2-1.6-0.2l0,0v-1.7l0.1,0c1.3,0.8,1.9,0.6,1.9,0.6c0.6-0.5,1.1-0.7,1.6-0.7
				c0.4,0,0.6,0.3,0.7,0.4c0.7-1,1.9-0.5,2-0.5l0,0v0c0,0.3-0.7,0.7-0.9,0.8c-0.1,0.2-0.1,0.3,0,0.5c0.1,0.1,0.2,0.2,0.2,0.2l0,0v0
				c0,0.1-0.1,0.2-0.1,0.2c-0.3,0.2-1.2-0.3-1.4-0.4c-0.7,0.1-1.7,0.7-1.7,0.7l0,0C26.5,90.5,26.3,90.5,26.1,90.5z M24.5,90.2
				c0.2,0,1.1,0.3,2.2,0.1c0.1-0.1,1-0.6,1.7-0.7l0,0l0,0c0.3,0.2,1.1,0.6,1.3,0.5c0,0,0,0,0.1-0.1c0,0-0.1-0.1-0.2-0.2
				c-0.1-0.1-0.1-0.3,0-0.6l0,0l0,0c0.3-0.2,0.8-0.4,0.8-0.6c-0.2-0.1-1.2-0.4-1.8,0.5l0,0.1l0-0.1c0,0-0.2-0.3-0.7-0.4
				c-0.4,0-0.9,0.2-1.5,0.6l0,0c-0.1,0-0.6,0.2-2-0.6V90.2z"/>
		</g>
		<g>
			<path class="st4" d="M18.6,90.5c-0.2,0-0.5,0-0.7,0l0,0c0,0-1-0.6-1.7-0.7c-0.2,0.1-1.1,0.6-1.4,0.4c-0.1,0-0.1-0.1-0.1-0.2v0
				l0,0c0,0,0.4-0.3,0.1-0.6c-0.1-0.1-0.9-0.5-0.9-0.8v0l0,0c0,0,1.2-0.5,2,0.5c0.1-0.1,0.3-0.3,0.7-0.4c0.5-0.1,1,0.2,1.6,0.7
				c0.1,0,0.6,0.1,1.9-0.6l0.1,0v1.7l0,0C20.2,90.3,19.5,90.5,18.6,90.5z M17.9,90.3c1.1,0.1,2-0.1,2.2-0.1v-1.4
				c-1.3,0.8-1.9,0.6-2,0.6l0,0c-0.5-0.5-1-0.7-1.5-0.6C16.2,88.7,16,89,16,89l0,0.1l0-0.1c-0.6-0.9-1.6-0.6-1.8-0.5
				c0.1,0.2,0.5,0.5,0.8,0.6l0,0l0,0c0.3,0.4,0,0.7-0.1,0.8c0,0.1,0,0.1,0.1,0.1c0.2,0.1,1-0.3,1.3-0.5l0,0l0,0
				C16.9,89.7,17.8,90.3,17.9,90.3z"/>
		</g>
		<g>
			<path class="st4" d="M18.6,18.3C18.6,18.3,18.6,18.3,18.6,18.3L18.6,18.3L18.6,18.3c-2.4-4.1-1.4-7.8-0.2-10.2
				c1.3-2.6,3.2-4.3,3.3-4.3l0,0l0,0c3.4,2.5,5.3,5.2,5.7,8.1c0.5,3.5-1.4,6-1.4,6.1l0,0l0,0c-1.2-0.4-3.5-1.3-4-1.1
				c-0.3,0.1-1.1,0.4-1.8,0.8C19.1,18.2,18.7,18.3,18.6,18.3z M21.8,4c-0.3,0.2-2,1.8-3.2,4.2c-1.2,2.4-2.2,6,0.1,10
				c0.2,0,0.9-0.4,1.6-0.7c0.8-0.3,1.6-0.7,1.8-0.8c0.6-0.1,3.6,1,4,1.1c0.2-0.3,1.8-2.7,1.3-6C27,9.1,25.1,6.4,21.8,4z"/>
		</g>
	</g>
</g>
</svg>
