<?xml version="1.0" encoding="utf-8"?>
<!-- Generator: Adobe Illustrator 24.0.1, SVG Export Plug-In . SVG Version: 6.00 Build 0)  -->
<svg version="1.1" id="Camada_1" xmlns="http://www.w3.org/2000/svg" xmlns:xlink="http://www.w3.org/1999/xlink" x="0px" y="0px"
	 viewBox="0 0 100 76.5" style="enable-background:new 0 0 100 76.5;" xml:space="preserve">
<style type="text/css">
	.st0{fill:#122F49;}
	.st1{fill:#36F400;}
</style>
<g>
	<g>
		<g>
			<g>
				<path class="st0" d="M70.6,12.2l2.5,2.5l-0.1,1l2.8,1.5l1,1.2l0.6,0.1l1.1,1.1l-3.2,3.3l0.6,0.7c0,0-3.2,1.5-3.2,1.9
					c0,0-3,0.8-3.1,1c-0.1,0.2-2.5,1.9-2.4,1c0,0,3.7-3.8,2.5-3.9l-21.4-0.4L34,22.9c0,0-1.6,1.8,4.9,7c0,0-1.5,3-2.7,4.1
					c0,0,0.1,1.6-0.9,2c0,0,0,1.2-0.4,1.9c0,0,2.8,1.9,4,5.5c0,0,21.5,35.9,47.2,31.9c0,0-2.4-2.5-2.5-4.5c0,0-4.6,2.8-4.7,2.2
					c-0.1-0.6-1.3-2.4-1.3-2.4l-2.8-1.1l-1.3-1.7l-2.3-0.6l0.8-1.5l-2.3-0.6l-0.8-1.9l-2.9-1l-0.2-3.4l-4.3-0.5l-1-3.8l2.9-1.1
					l7.9,3.2l0.3-0.7l3-0.1l2.4,2.8l2.9-1.1l1,1.5l0.7,0.7l1.2-1.2l2.3,2.5l0.7-0.7c0,0-4.8-9.2-28.3-14.4l-14.9-3.2
					c0,0-1.5-2.4-1.3-4.9l-1-0.5l1.7-1l-0.4-1.6l-2.1,1.7c0,0-1.4-2.3,0.5-3.9l1.3-3c0,0,2.5,2.8,5.6,3.8h13.6c0,0,5.8-1.3,7-2.2
					c0,0,3.9-1.3,5.2-2.8l0.6-0.1l0.7-1c0,0,3.7-2,3.9-3.1l0.5-1.1c0,0,2.5-1.8,2.3-3.8c0,0-1.2-6-0.8-8.1l-0.4-6.8
					c0,0,0.2-0.6-0.9-0.7c0,0-2.6-1.9-2.8-2.6c0,0-2.5-1.6-5.1-0.2c0,0,0.5,0.3,0.6,1v0.1c0,0,1.1,1.7,1.9,1.2c0,0,0.9,1.4,1.1,1
					l0.1,2.4c0,0,0.5,0.8,0.7,0.6l0.1,1.4l1.2,0.1c0,0,0,2.3,0.5,2.6l-1.3,1.6c0,0-1.7-0.8-1.9-1.8c0,0.3-0.2-3.6-1.2-3.7h-0.8
					c0,0-2-2.1-1.7-3.2c0.1,0.2,0.3-1.2,0.3-1.2s-2-0.6-2.1,0.1l0.2,0.9c0,0,0.2,3,1.5,4.6c0.2,0.1,0.7,2.8,1,3.6"/>
			</g>
			<g>
				<path class="st0" d="M48.1,23.7l1.2,0.1c-0.5-0.1-0.4-1-0.4-1l-0.7-7.4c0.4-0.3,0.2-0.9,0.2-0.9c-1.5-0.3-1,1-1,1s0.8,7,0.7,6.9
					C48.3,23.6,48.1,23.7,48.1,23.7z M47.8,15.2c-0.2,0-0.3-0.1-0.3-0.3c0-0.2,0.1-0.3,0.3-0.3s0.3,0.1,0.3,0.3
					C48.1,15.1,48,15.2,47.8,15.2z"/>
			</g>
			<g>
				<path class="st0" d="M56.3,23.9l1.1,0.5c-0.4-0.3,0-1.1,0-1.1l1.9-7.2c0.5-0.1,0.5-0.7,0.5-0.7c-1.3-0.8-1.2,0.6-1.2,0.6
					s-1.7,6.9-1.8,6.7C56.5,23.8,56.3,23.9,56.3,23.9z M59,15.8c-0.1-0.1-0.2-0.2-0.2-0.4c0-0.2,0.2-0.2,0.4-0.2
					c0.1,0.1,0.2,0.2,0.2,0.4C59.4,15.8,59.1,15.9,59,15.8z"/>
			</g>
		</g>
		<g>
			<g>
				<g>
					<polygon class="st0" points="11.5,76.4 11.2,56 28.1,34.5 43.7,29.4 43.9,30.3 28.7,35.3 12.1,56.4 12.4,76.3 					"/>
				</g>
			</g>
			<g>
				<g>
					<polygon class="st0" points="3.8,71 2.9,70.8 5.9,52.2 26,28.8 47,31.7 46.8,32.6 26.3,29.7 6.7,52.6 					"/>
				</g>
			</g>
			<g>
				<g>
					<polygon class="st0" points="0.9,69.9 0,69.8 3.1,53.8 3.3,53.7 26.6,38.1 48,30.9 48.3,31.9 27,39 3.9,54.3 					"/>
				</g>
			</g>
			<g>
				<g>
					<polygon class="st0" points="9,68 8.1,68 8.1,53.7 23.8,31.1 42.7,31.9 42.7,32.8 24.3,32.1 9,54 					"/>
				</g>
			</g>
			<g>
				<g>
					<polygon class="st0" points="73.2,64.1 72.3,63.6 78.4,51.4 73.6,33.1 60.4,32.9 60.4,32 74.3,32.2 79.5,51.5 					"/>
				</g>
			</g>
			<g>
				<g>
					<polygon class="st0" points="94.3,65.3 91.3,53.5 75.9,36.3 60.9,33.3 61,32.4 76.4,35.5 76.5,35.6 92.1,53.1 95.2,65.1 					
						"/>
				</g>
			</g>
			<g>
				<g>
					<polygon class="st0" points="91.2,68.4 90.3,68.2 92.9,55.2 79.7,37.4 64,31.4 64.4,30.4 80.3,36.7 93.9,55 					"/>
				</g>
			</g>
			<g>
				<g>
					<polygon class="st0" points="98.1,66.9 97.2,66.8 98.4,55.7 95.4,41.5 77.1,28.8 67.1,31.1 66.9,30.2 77.3,27.8 96.4,41 
						99.4,55.7 					"/>
				</g>
			</g>
		</g>
	</g>
	<g>
		<path class="st1" d="M11.9,76.4L11.6,56l0,0l10.4-13.3l-8.6,5.7L9.6,54v14.1H8.5V53.7l2.5-3.6l-3.5,2.4l-0.2,0.2L4.5,71.1
			l-1.1-0.2l2.7-17.5l-1.5,1L1.5,70l-1.1-0.2l3.1-16.1l3.1-2.1L23.6,32l0.7-1h0.2l2-2.3L39,30.4c0.1-0.1,0.1-0.3,0.2-0.3
			c-4-3.2-5-5.2-5.1-6.2c-0.1-0.6,0.2-0.9,0.2-0.9l0,0l0,0l14.3,0.4c0-0.2,0-0.5,0-1v-0.2l0,0c0-0.8-0.4-4.4-0.7-6.7
			c0-0.1-0.2-0.6,0-0.9c0.2-0.2,0.5-0.3,1-0.2l0,0l0,0c0,0,0.2,0.6-0.2,0.9l0.7,7.4c0,0,0,0.4,0.1,0.7l7.3,0.1
			c0.1-0.2,0.2-0.5,0.3-0.9l0.1-0.2l0,0c0.2-0.8,1.1-4.1,1.7-6.5c0-0.1,0-0.6,0.3-0.8c0.2-0.1,0.6-0.1,1,0.2l0,0l0,0
			c0,0,0,0.6-0.5,0.8l-1.9,7.1c0,0-0.1,0.1-0.1,0.3l12.1,0.2c0.2,0,0.3,0.1,0.3,0.2c0.3,0.7-2.3,3.4-2.7,3.8c0,0.1,0,0.1,0.1,0.1
			c0.4,0.1,2.1-1.1,2.2-1.2c0.1-0.2,1.8-0.6,3.1-1c0.2-0.4,2.3-1.5,3.2-1.9l-0.5-0.6l3.2-3.3l-1.1-1.1l-0.6-0.1L76,17.4l-2.8-1.5
			l0.1-1.1l-2.5-2.5l0.2-0.5c-0.2-0.4-0.4-1.3-0.6-2.1C70.1,9,70,8.2,69.9,8.1l0,0c-1.3-1.4-1.5-4.5-1.5-4.6l-0.2-0.9l0,0
			c0-0.1,0.1-0.2,0.2-0.3c0.5-0.3,2,0.1,2,0.1h0.1v0.1c-0.1,1.1-0.2,1.3-0.3,1.3C70,4.8,71.8,6.7,72,7h0.7c0.8,0.1,1.2,2,1.3,3.7
			c0,0,0,0,0,0.1l0,0c0.2,0.9,1.5,1.6,1.8,1.7L77,11c-0.4-0.4-0.4-2.1-0.4-2.5l-1.2-0.1L75.3,7l0,0c-0.2,0-0.6-0.5-0.6-0.6l0,0
			l0.1-2.1l0,0c-0.3,0-0.9-0.8-1-1.1c-0.8,0.4-1.9-1.2-1.9-1.3l0,0l0,0V1.7c-0.1-0.7-0.6-0.9-0.6-0.9l-0.1-0.1l0.1-0.1
			c2.6-1.4,5.2,0.2,5.2,0.2l0,0l0,0c0.1,0.5,2,2,2.7,2.5c0.4,0,0.7,0.2,0.8,0.4c0.1,0.2,0.1,0.3,0.1,0.4l0.5,6.8l0,0
			c-0.5,2,0.7,8,0.8,8c0.2,2-2,3.7-2.3,3.9L78.5,24c-0.2,1.1-3.6,3-3.9,3.2l-0.7,1.1l-0.6,0.1c-0.1,0.1-0.3,0.3-0.4,0.4l5.1-1.2l0,0
			l19,13.2l0,0l3,14.8L98.7,67l-1.1-0.1l1.2-11.1l-2.9-14.3L77.6,28.9l-8.7,2c-0.5,0.2-0.8,0.3-0.9,0.3c-0.1,0.1-0.2,0.1-0.4,0.2
			l1.3,0.5l5.9,0.1l0.6,2.4l5.3,2l13.7,18.4l-0.6,2.8l1.9,7.3l-1,0.3l-1.3-5.1l-1.7,8.3l-1.1-0.2L92.6,58l-1.1-4.3L76.4,36.4
			L76,36.3l4,15.2l-1,2c5.8,3.5,7.5,6.7,7.5,6.7v0.1l-0.8,0.8l-2.3-2.5l-1.2,1.2l-0.7-0.6l-1-1.5l-2.8,1.1L76.8,58l-3.1,6.3l-1-0.5
			l3.3-6.7l-0.9-1.1L72.2,56l-0.3,0.7L64,53.5l-2.8,1.1l0.9,3.7l4.3,0.5l0.2,3.4l2.9,0.9l0.8,1.9l2.3,0.6l-0.8,1.5l2.2,0.6l1.2,1.8
			l2.8,1.1l0,0c0.1,0.1,1.2,1.8,1.3,2.4c0.2,0.2,2.5-1,4.5-2.2l0.1-0.1V71c0.1,1.8,2.4,4.4,2.4,4.4l0.1,0.1h-0.2
			c-5.9,0.9-12-0.1-18.2-3.2c-5-2.4-10-6.3-15-11.1c-8.4-8.3-13.8-17.3-13.9-17.4c-1.2-3.5-3.9-5.5-4-5.5H35v-0.1
			c0.3-0.5,0.4-1.4,0.4-1.8L27.5,39l-2.6,1.7L12.8,56.5l0.3,20L11.9,76.4z M11.8,56.1l0.3,20.1h0.7l-0.3-19.8l0,0l12.2-15.7l0,0
			l2.6-1.7l8.1-2.7l0.1,0.2l0,0l0,0c0,0.2,0,1.2-0.4,1.8c0.4,0.3,2.8,2.2,4,5.5c0,0.1,5.5,9.1,13.9,17.4c7.8,7.7,19.8,16.4,33,14.4
			c-0.5-0.5-2.2-2.5-2.4-4.3c-0.8,0.5-3.6,2.2-4.5,2.2h-0.1c-0.1,0-0.1-0.1-0.1-0.1c-0.1-0.5-1.2-2.1-1.3-2.3L74.9,70l-1.2-1.8
			l-2.4-0.6l0.8-1.5l-2.2-0.6L69,63.5l-3-1l0-3.5l-4.3-0.5l-1-3.9l3-1.2l7.8,3.2l0.3-0.6l3.1-0.1l1.1,1.2l-3.3,6.6l0.7,0.3l3.1-6.3
			l0.8,0.9l2.9-1.1l1.1,1.6l0.6,0.6l1.2-1.2l2.3,2.5l0.6-0.6c-0.2-0.4-2-3.3-7.4-6.6h-0.1l1.1-2.1l-4-15.4l0.7,0.1l0,0l15.3,17.2
			l1.1,4.4l0,0l-2.1,10.3l0.7,0.1l1.8-8.8l1.5,5.7l0.7-0.2L93.7,58l0.6-2.7L80.7,36.7l-5.3-2l-0.6-2.4L69,32.2l-1.7-0.7l0.2-0.1
			c0.2-0.1,0.4-0.2,0.6-0.3l0,0c0,0,0.4-0.1,0.9-0.3l8.8-2l0,0l18.3,12.7l0,0l2.9,14.3l-1.2,11l0.7,0.1l1.2-11.1l-3-14.8l-18.9-13
			l-5.8,1.3l0.4-0.2c0.3-0.2,0.6-0.5,0.8-0.7l0,0l0.6-0.1l0.7-1l0,0c0,0,3.7-2,3.9-3.1l0,0l0.5-1.2l0,0c0,0,2.4-1.8,2.2-3.7
			c0-0.2-1.2-6-0.8-8.1L80,4.1l0,0c0,0,0-0.1,0-0.3c-0.1-0.2-0.4-0.3-0.7-0.3l0,0l0,0c-0.1-0.1-2.5-1.9-2.8-2.6
			c-0.3-0.2-2.5-1.4-4.9-0.2c0.2,0.1,0.5,0.4,0.6,1v0.1C72.5,2.3,73.4,3.3,74,3h0.1v0.1c0.2,0.4,0.7,1.1,0.9,1.1c0,0,0,0,0.1,0
			L75.3,4L75,6.4c0.1,0.2,0.4,0.5,0.5,0.5l0,0l0.1-0.1l0.1,1.5l1.2,0.1v0.1c0,0.9,0.1,2.3,0.4,2.5l0.1,0.1L76,12.8h-0.1
			c-0.1,0-1.7-0.8-1.9-1.8v-0.1c-0.2-2.2-0.6-3.5-1.1-3.5h-0.8l0,0C72,7.3,70,5.2,70.3,4l0.1-0.2v0.1c0.1-0.2,0.1-0.6,0.2-1
			c-0.4-0.1-1.5-0.3-1.8-0.1c-0.1,0-0.1,0.1-0.1,0.1l0.2,0.8c0,0,0.2,3,1.5,4.5c0.1,0.1,0.2,0.4,0.5,1.5c0.2,0.8,0.4,1.7,0.6,2.1
			l0,0l-0.2,0.5l2.5,2.5l-0.1,1l2.7,1.5l1,1.2l0.6,0.1l1.2,1.2l-3.2,3.3l0.6,0.7h-0.1c-1.5,0.7-3.1,1.6-3.2,1.8v0.1h-0.1
			c-1.4,0.4-3,0.8-3.1,0.9c-0.1,0.2-1.8,1.5-2.4,1.3c-0.1,0-0.2-0.1-0.2-0.3l0,0l0,0c1.1-1.2,2.9-3.2,2.7-3.7c0,0,0-0.1-0.2-0.1
			l-12.3-0.2v-0.1c0.1-0.2,0.1-0.4,0.2-0.4l2-7.2l0,0c0.3-0.1,0.4-0.5,0.4-0.6c-0.3-0.2-0.5-0.2-0.7-0.2h0.1c0.1,0,0.2,0.1,0.2,0.2
			c0,0.1,0,0.2,0,0.3c-0.1,0.2-0.3,0.3-0.5,0.2c-0.1,0-0.2-0.1-0.2-0.2c0,0.1,0,0.2,0,0.2l0,0l0,0c-1.3,5.4-1.7,6.5-1.8,6.7l0,0
			c-0.1,0.5-0.3,0.8-0.4,1l0,0l-7.5-0.1l0,0c-0.1-0.3-0.1-0.8-0.1-0.8l-0.7-7.4l0,0c0.3-0.2,0.2-0.6,0.2-0.7c-0.3-0.1-0.6,0-0.7,0.1
			h0.1c0.2,0,0.4,0.2,0.4,0.4s-0.2,0.4-0.4,0.4c-0.1,0-0.2,0-0.3-0.1c0,0.1,0.1,0.2,0.1,0.2l0,0c0.6,5.5,0.7,6.7,0.7,6.9l0,0
			c0,0.5,0,0.9,0,1.2v0.1h-0.1l-14.3-0.4c0,0.1-0.2,0.3-0.1,0.7c0.1,1,1,2.9,5.1,6.1h0.1v0.1c0,0-0.1,0.2-0.2,0.4v0.1l-12.6-1.7
			l-2,2.3h-0.2l-0.7,0.9L6.9,51.8l0,0l-3,2L0.6,69.7l0.7,0.1l3-15.5l1.9-1.2L3.5,70.7l0.7,0.1l2.8-18.3l0.2-0.2l4.4-2.9l-3,4.4v14.2
			h0.7V54l3.9-5.7l9.5-6.3L11.8,56.1z M59.6,15.4C59.5,15.4,59.5,15.4,59.6,15.4c-0.1,0-0.2,0.1-0.2,0.1l0,0c0,0.1,0,0.2,0.1,0.3
			c0.1,0,0.2,0,0.3-0.1c0-0.1,0-0.1,0-0.2C59.7,15.4,59.7,15.4,59.6,15.4L59.6,15.4z M48.3,14.7c-0.1,0-0.2,0.1-0.2,0.2
			c0,0.1,0.1,0.2,0.2,0.2s0.2-0.1,0.2-0.2C48.5,14.8,48.4,14.7,48.3,14.7z M93.3,56.1l-0.5-1.8l0.7,0.9L93.3,56.1z M93.2,55.1
			l0.1,0.3v-0.2L93.2,55.1z M78.1,53.3L78.1,53.3c-5.3-3-12-5.5-20.1-7.2l-14.9-3.3l0,0c0,0-1.5-2.4-1.3-4.8l-1-0.5l1.8-1l-0.3-1.4
			l-2.2,1.6L40,36.6c0,0-0.5-0.7-0.5-1.6v-0.1l6.6-2.2l0,0c0.5,0.3,1,0.5,1.4,0.6H61c0,0,0.2,0,0.4-0.1l0,0l0,0l13.5,2.7L79,51.4
			L78.1,53.3z M43.2,42.7l14.9,3.2c8.1,1.7,14.8,4.1,20,7.2l0.8-1.6l-4-15.4l-13.4-2.7c-0.3,0.1-0.4,0.1-0.4,0.1l0,0H47.5l0,0
			c-0.5-0.2-0.9-0.4-1.4-0.6L39.7,35c0.1,0.7,0.3,1.2,0.4,1.4l2.1-1.7l0.4,1.8L41,37.4l0.9,0.4v0.1C41.7,40.2,43,42.4,43.2,42.7z
			 M9.1,50.3l9.3-10.8l0.1,0.1l-5.8,8.3l0,0L9.1,50.3z M17.5,40.8l-7.4,8.7l2.6-1.7L17.5,40.8z M87.7,47.7L77.5,36.4l2.6,1l7.6,10.2
			L87.7,47.7z M78.2,36.7l8.3,9.3l-6.4-8.6L78.2,36.7z M14.6,46.6l9.7-14.1l0.6-0.6l0,0l10.5,0.4l-6.7,2.1l-4.4,5.6L14.6,46.6z
			 M24.9,32.2l-0.5,0.6L15.2,46l9-6l4.4-5.6l0,0l5.8-1.9L24.9,32.2z M26.3,38.8l2.8-3.6l0,0l8.4-2.7H38l-0.1,0.2
			c-0.5,0.7-0.9,1.3-1.3,1.7c0,0.1,0,0.4-0.1,0.7l0,0l0,0l-9.3,3.1L26.3,38.8z M29.3,35.4l-2.1,2.7l9.2-3.1c0.1-0.4,0-0.7,0-0.7l0,0
			l0,0c0.4-0.3,0.8-0.8,1.2-1.5h-0.1L29.3,35.4z M73.2,34.8L64.4,33v-0.2l4.5,0.1l4.4,1.7L73.2,34.8z M65.4,33.1l6.9,1.4l-3.4-1.3
			L65.4,33.1z M74.6,34.4L71.1,33h3.2L74.6,34.4z M72,33.2l2.4,0.9l-0.2-0.9H72z M39.5,34.1v-0.2c0.1-0.5,0.4-0.9,0.8-1.3l0,0
			l2.7,0.1v-0.8l1.8,0.3l-1.9,0.6l0,0L39.5,34.1z M40.5,32.8c-0.3,0.3-0.6,0.6-0.7,1l2.7-0.9L40.5,32.8z M43.3,32.2v0.5l1-0.3
			L43.3,32.2z M66.8,32.2h-1.4l0.5-0.2c0.1,0,0.1,0,0.2-0.1l0,0L66.8,32.2z M41.6,31.9h-0.8l0.1-0.2l0.8,0.1L41.6,31.9z M37.4,31.8
			L37.4,31.8l-11.9-0.5l1.3-1.6l11.8,1.6L37.4,31.8z M25.8,31l11.6,0.5l0.5-0.2l-11-1.5L25.8,31z M43.9,31.2L42,31l1.1-0.4l0,0
			c0.1,0.1,0.3,0.3,0.5,0.4L43.9,31.2z M42.8,30.9l0.5,0.1c-0.1-0.1-0.1-0.1-0.2-0.2L42.8,30.9z M41.4,30.4l0.5-1l0.1,0.1
			c0,0,0.2,0.2,0.5,0.5l0.1,0.1L41.4,30.4z M41.9,29.7l-0.2,0.5l0.5-0.2C42.1,29.8,42,29.7,41.9,29.7z"/>
	</g>
</g>
</svg>
