<?xml version="1.0" encoding="utf-8"?>
<!-- Generator: Adobe Illustrator 24.0.1, SVG Export Plug-In . SVG Version: 6.00 Build 0)  -->
<svg version="1.1" id="Camada_1" xmlns="http://www.w3.org/2000/svg" xmlns:xlink="http://www.w3.org/1999/xlink" x="0px" y="0px"
	 viewBox="0 0 800 497.79" style="enable-background:new 0 0 800 497.79;" xml:space="preserve">
<style type="text/css">
	.st0{fill:#35302A;}
	.st1{opacity:0.36;fill:#35302A;}
	.st2{opacity:0.63;fill:#3A2819;}
	.st3{fill:#51473A;}
	.st4{opacity:0.36;fill:#51473A;}
	.st5{opacity:0.45;fill:#4C4C38;}
	.st6{opacity:0.81;}
	.st7{fill:#7C684D;}
	.st8{fill:#BCA284;}
	.st9{fill:#819E4D;}
	.st10{fill:#A9C671;}
	.st11{fill:#718946;}
	.st12{fill:#A8C66D;}
	.st13{fill:#C7EA8B;}
	.st14{fill:#B2D67E;}
	.st15{opacity:0.36;fill:#BCA284;}
	.st16{fill:#839B5A;}
	.st17{fill:#B2D66B;}
	.st18{opacity:0.13;fill:#3A2819;}
</style>
<g>
	<path class="st0" d="M142.8,359.41"/>
	<path class="st0" d="M238.1,120.78c0,0,1.67,195.8,6.69,218.05c0,0,1.11,26.7,2.23,26.7s16.16,22.25,16.16,22.25h-3.34
		c0,0-10.59-16.69-12.26-17.24c-1.67-0.56-12.26,1.11-13.38,18.36h-3.9c0,0,2.79-20.58,10.59-22.81l-0.84-25.31
		c0,0-22.29,5.01-25.64,18.36c-3.34,13.35,0,21.14,0,21.14l5.02,4.45l-1.11,3.89h-11.15c0,0-3.9-35.6,13.38-47.84
		c17.28-12.24,17.28-10.57,17.28-10.57s-6.13-138.5-4.46-143.51c1.67-5.01-1.11-60.63-1.11-60.63l-7.25-7.23h5.02l3.9,2.78v-4.45
		h4.46L238.1,120.78z"/>
	<path class="st0" d="M276,165.83l2.79,188.57c0,0,0.56,9.46,2.23,11.12c1.67,1.67,23.41,7.23,25.08,12.79l0.56,6.12
		c0,0,0,1.11-3.34-1.67c-3.34-2.78-11.15-11.68-18.95-10.57s-16.72,3.34-23.41,12.24v1.67h-5.02c0,0,2.51-11.4,17-16.97
		c0,0-22.29,6.12-26.75,16.69l-6.69-0.56c0,0,10.59-18.36,31.21-23.92l-0.56-32.26c0,0-1.11-157.42,0.56-163.54l-0.56-7.23
		L276,165.83z"/>
	<polygon class="st0" points="270.41,168.62 270.42,272.08 269.94,292.38 273.21,292.1 273.21,287.65 274.6,164.17 	"/>
	<polygon class="st0" points="261.23,168.89 270.34,170.04 274.6,167.23 279.62,164.44 282.96,164.44 292.44,167.23 292.99,164.44 
		298.57,167.23 300.24,167.23 300.24,160.55 305.26,160.55 305.26,156.66 300.24,154.99 303.58,148.87 302.47,147.76 306.93,141.64 
		304.7,131.63 304.7,123.28 306.93,113.27 297.45,111.6 295.78,113.83 290.21,121.06 287.42,122.73 280.18,121.61 278.5,124.95 
		274.6,132.18 271.82,134.41 268.47,136.08 266.8,136.63 261.23,139.41 260.11,142.75 258.44,146.09 258.44,149.43 256.21,152.76 
		252.31,154.99 247.29,160.55 252.31,161.11 250.08,163.33 252.87,163.89 253.43,166.11 255.65,166.67 256.21,171.12 259,171.67 
		259.56,168.89 	"/>
	<path class="st0" d="M286.03,108.54h3.9l1.67,4.45h6.69l1.67,7.79h2.23l2.79,4.45l-2.79,8.34h-3.34h-4.46l-2.79,4.45l-7.25,5.01
		v5.56l-1.11,3.89l-8.36-1.67l-1.11-2.78l-3.9,4.45h-1.11l-2.79,3.89l-1.67,0.56l-5.57,2.78v1.67l-2.79,6.12l-3.34,1.11l-1.67-2.78
		v-3.89v-3.34l-5.57-1.11c0,0,0-1.11-1.67,0.56c-1.67,1.67-3.34,1.67-3.34,1.67l-6.69-3.34l-2.79,2.22l-1.11,1.11l-1.67-9.46
		c0,0-2.79-5.56,0-6.67s9.47-5.01,9.47-5.01c-1.11-2.22-1.67-5.01-1.67-5.01l-0.56-3.89l1.11-11.68l-3.34-0.56v-3.34l5.57-5.56h3.9
		c3.34-0.56,8.36-3.34,8.36-3.34h1.67l6.13,1.11l2.79,0.56l4.46-1.67l5.57,2.78c1.67,2.22,7.8,1.67,7.8,1.67l3.34-1.11H286.03z"/>
	<path class="st0" d="M182.94,122.85l4.45,224.41c0,0,0.89,11.25,3.56,13.24s37.42,8.61,40.09,15.23l0.89,7.28c0,0,0,1.32-5.35-1.99
		c-5.35-3.31-17.82-13.9-30.29-12.58c-12.47,1.32-26.73,3.97-37.42,14.56v1.99h-8.02c0,0,4.01-13.57,27.17-20.19
		c0,0-35.64,7.28-42.76,19.86L124.59,384c0,0,16.93-21.85,49.89-28.47l-0.89-38.4c0,0-1.78-187.34,0.89-194.62l-0.89-8.61
		L182.94,122.85z"/>
	<polygon class="st0" points="174.01,126.16 174.03,249.29 173.25,273.45 178.49,273.12 178.49,267.82 180.71,120.86 	"/>
	<polygon class="st0" points="157.55,125.84 174.99,127.47 183.14,123.46 192.74,119.5 199.14,119.5 217.27,123.46 218.33,119.5 
		229,123.46 232.2,123.46 232.2,113.95 241.79,113.95 241.79,108.41 232.2,106.03 238.59,97.31 236.46,95.73 244.99,87.01 
		240.73,72.75 240.73,60.87 244.99,46.61 226.86,44.23 223.66,47.4 213,57.7 207.67,60.08 193.81,58.49 190.61,63.24 183.14,73.54 
		177.81,76.71 171.42,79.09 168.22,79.88 157.55,83.84 155.42,88.6 152.22,93.35 152.22,98.11 147.96,102.86 140.49,106.03 
		130.9,113.95 140.49,114.75 136.23,117.91 141.56,118.71 142.62,121.88 146.89,122.67 147.96,129.01 153.29,129.8 154.35,125.84 	
		"/>
	<path class="st0" d="M205,39.87h7.46l3.2,6.34h12.8l3.2,11.09h4.27l5.33,6.34l-5.33,11.88h-6.4H221l-5.33,6.34l-13.86,7.13v7.92
		l-2.13,5.55l-15.99-2.38l-2.13-3.96l-7.46,6.34h-2.13l-5.33,5.55l-3.2,0.79l-10.66,3.96v2.38l-5.33,8.72l-6.4,1.58l-3.2-3.96v-5.55
		v-4.75l-10.66-1.58c0,0,0-1.58-3.2,0.79c-3.2,2.38-6.4,2.38-6.4,2.38l-12.8-4.75l-5.33,3.17l-2.13,1.58l-3.2-13.47
		c0,0-5.33-7.92,0-9.51s18.13-7.13,18.13-7.13c-2.13-3.17-3.2-7.13-3.2-7.13l-1.07-5.55l2.13-16.64l-6.4-0.79v-4.75l10.66-7.92h7.46
		c6.4-0.79,15.99-4.75,15.99-4.75h3.2l11.73,1.58l5.33,0.79l8.53-2.38l10.66,3.96c3.2,3.17,14.93,2.38,14.93,2.38l6.4-1.58H205z"/>
	<path class="st0" d="M187.03,133.42l2.37-7.62l-1.17-1.47l1.19-3.81l2.65,0.66l2.06-0.07l2.3-4.77l0.62-0.69l4.44,1.44l2.45-1.34
		l2-2.5l5.23-1.1l1.93,0.35l2.45-1.34l3.5,0.55c0,0,4.74-0.83,6.48-2.48c1.74-1.65,1.74-1.65,1.74-1.65s0.17-1.85,1.08,0.47
		s1.1,4.32,1.1,4.32l3.23,1.4l4.32-3.42l2.68-0.76l0.65,3.16l-1.87,2.07l-5.36,1.52l-0.92,2.96l1.27,2.47l2.61,2.09l1.5,3.05
		l-1.9,3.5l-3.01-0.82l1.04,1.89c0,0,0.81,1.31,1.23,3.9c0.42,2.58,0.42,2.58,0.42,2.58l0,0l-7.23,3.6l-0.92,2.96l1.95,4.21
		l-0.04,1.43l-4.65,1.84c0,0-1.44-0.62-1.66-1.2c-0.23-0.58-2.84-2.67-2.84-2.67l-1.96,1.07c0,0,6.1,7.92,0.78,2.74
		s-5.45-4.76-5.45-4.76l-0.89,1.54l-0.96,4.39l3.01,0.82l-5.36,1.52l-0.06-2.43l-1.37-3.47l-8.04-2.99l-4.19,2.99l-0.68-1.74
		l-4.54-2.44l-0.32-1.58l0.73-4.97l-1.8-0.78l0.07-2.85l-0.1-1L187.03,133.42z"/>
	<path class="st0" d="M95.09,389.08c0,0-18.7-9.59-18.7-13.62s-8.59-207.85-6.07-228.03c0,0,3.54-9.08,6.07-11.1
		c2.53-2.02,1.52-8.58,1.52-8.58l-6.57,10.09l-1.52-10.09h-3.03v13.62l-13.14-8.58l1.52,8.58l7.58,7.06c0,0,5.05,203.81,5.56,216.42
		c0,0-27.8,14.63-27.29,26.23l8.59,0.5c0,0,13.65-19.67,17.19-18.67s5.05,8.07,8.59,8.58c3.54,0.5,13.14,7.57,14.15,8.07
		S95.09,389.08,95.09,389.08z"/>
	<path class="st0" d="M70.32,93.45H59.71l-3.54-3.53h-5.05l-2.02,1.51h-5.56l-6.07,3.03l-2.02,3.03l-5.05,2.02l-3.54,3.03v4.04h5.05
		l1.52,4.04l-4.04,2.02v2.02l-2.53,1.51l-1.52,4.54l-0.51,4.54l0.51,4.04l3.03,8.07h4.04h5.56l1.52-1.01l1.52,1.01h3.03l8.59-2.02
		l-3.03,7.57l4.04,1.51l3.14-1.51l3.43-2.02l6.57-6.05l3.54,2.02c1.52,0,6.07,0,6.07,0l2.02-1.01l4.55,0.5v-2.02l3.03-1.51
		l2.53-1.51h2.02l10.11,1.51v-2.02l1.52-5.04l-1.52-4.04c2.02-1.01,6.57-1.51,6.57-1.51l0.51,1.51l6.57,2.52
		c3.03-2.52,3.54-5.04,3.54-5.04l4.04-2.02l-1.52-5.04l-4.04-4.54l-4.04-3.53l-2.53-6.56h-2.02l-4.55,0.5l-4.04,0.5l-2.02-2.02
		l-2.02-1.51h-2.53l-1.52,0.5l-4.55-2.52l-3.03-3.03h-3.54l-2.53,2.02l-2.02,0.5L70.32,93.45z"/>
	<path class="st0" d="M89.08,107.09l-3.13-8.53l1.55-1.64l-1.57-4.26l-3.5,0.74l-2.72-0.08l-3.04-5.34l-0.82-0.77l-5.87,1.61
		l-3.24-1.5l-2.64-2.79l-6.91-1.23l-2.55,0.39l-3.24-1.5l-4.62,0.62c0,0-6.26-0.93-8.56-2.78c-2.29-1.85-2.29-1.85-2.29-1.85
		s-0.22-2.07-1.42,0.52c-1.2,2.59-1.46,4.83-1.46,4.83l-4.27,1.56l-5.71-3.82l-3.54-0.85l-0.85,3.54l2.47,2.32l7.09,1.71l1.22,3.32
		l-1.68,2.76l-3.45,2.34l-1.98,3.41l2.51,3.92l3.97-0.92l-1.38,2.12c0,0-1.08,1.47-1.63,4.36c-0.55,2.89-0.55,2.89-0.55,2.89l0,0
		l9.55,4.03l1.22,3.32l-2.58,4.7l0.05,1.59l6.14,2.05c0,0,1.9-0.69,2.2-1.34c0.3-0.65,3.75-2.98,3.75-2.98l2.59,1.2
		c0,0-8.05,8.86-1.03,3.06c7.02-5.79,7.2-5.32,7.2-5.32l1.17,1.72l1.27,4.91l-3.97,0.92l7.09,1.71l0.08-2.72l1.8-3.88l10.61-3.35
		l5.54,3.35l0.9-1.94l6-2.73l0.43-1.77l-0.96-5.56l2.37-0.87l-0.09-3.19l0.13-1.12L89.08,107.09z"/>
	<polygon class="st1" points="62.74,148.44 67.8,364.87 70.32,341.16 67.8,148.44 	"/>
	<path class="st0" d="M182.48,385.52c0,0,14.16-8.57,14.16-12.18c0-3.61,6.5-185.81,4.59-203.85c0,0-2.68-8.12-4.59-9.92
		c-1.91-1.8-1.15-7.67-1.15-7.67l4.97,9.02l1.15-9.02h2.3v12.18l9.95-7.67l-1.15,7.67l-5.74,6.31c0,0-3.83,182.21-4.21,193.48
		c0,0,21.04,13.08,20.66,23.45l-6.5,0.45c0,0-10.33-17.59-13.01-16.69s-3.83,7.22-6.5,7.67c-2.68,0.45-9.95,6.77-10.71,7.22
		C185.93,386.42,182.48,385.52,182.48,385.52z"/>
	<path class="st0" d="M201.23,121.23h8.04l2.68-3.16h3.83l1.53,1.35h4.21l4.59,2.71l1.53,2.71l3.83,1.8l2.68,2.71v3.61h-3.83
		l-1.15,3.61l3.06,1.8v1.8l1.91,1.35l1.15,4.06l0.38,4.06l-0.38,3.61l-2.3,7.22h-3.06h-4.21l-1.15-0.9l-1.15,0.9h-2.3l-6.5-1.8
		l2.3,6.77l-3.06,1.35l-2.38-1.35l-2.6-1.8l-4.97-5.41l-2.68,1.8c-1.15,0-4.59,0-4.59,0l-1.53-0.9l-3.44,0.45v-1.8l-2.3-1.35
		l-1.91-1.35h-1.53l-7.65,1.35v-1.8l-1.15-4.51l1.15-3.61c-1.53-0.9-4.97-1.35-4.97-1.35l-0.38,1.35l-4.97,2.26
		c-2.3-2.26-2.68-4.51-2.68-4.51l-3.06-1.8l1.15-4.51l3.06-4.06l3.06-3.16l1.91-5.86h1.53l3.44,0.45l3.06,0.45l1.53-1.8l1.53-1.35
		h1.91l1.15,0.45l3.44-2.26l2.3-2.71h2.68l1.91,1.8l1.53,0.45L201.23,121.23z"/>
	<path class="st0" d="M226.4,120.22l6.13,5.56c0,0,1.11,100.12,2.23,104.02l0.32,33.57l2.46-12.99v-19.47l-2.79-65.64l1.67-11.68
		v-13.91l-2.23-7.79C234.2,131.9,236.43,126.9,226.4,120.22z"/>
	<path class="st0" d="M138.3,132c0,0,1.76,201.01,7.05,223.85c0,0,1.17,27.41,2.35,27.41s17.04,22.84,17.04,22.84h-3.52
		c0,0-11.16-17.13-12.92-17.7s-12.92,1.14-14.1,18.84h-4.11c0,0,2.94-21.13,11.16-23.41l-0.88-25.98c0,0-23.5,5.14-27.02,18.84
		s0,21.7,0,21.7l5.29,4.57l-1.17,4h-11.75c0,0-4.11-36.55,14.1-49.11S138,347,138,347s-6.46-142.19-4.7-147.33
		c1.76-5.14-1.18-62.24-1.18-62.24l-7.64-7.42h5.29l4.11,2.86v-4.57h4.7L138.3,132z"/>
	<path class="st0" d="M186.74,141.48c0,0-11.23-32.59-27.16-33.05s-54.38-0.53-57.94,3.37c-3.56,3.9-17.55,7.15-17.55,7.15l7.57,6.9
		l5.31,10.87l5.11,2.89l-4.12,4.89l3.19,5.08l5.67-1.06l3.1-5.47l3.4-0.05l0.07,4.63l0.18,2.07l3.17-0.83l1.64-1.7l4.14,1.03
		l4.3-2.82l-1.15-3.93l2.77-3.69l5.73,0.61l5.3,0.62l5.87,4.49l7.67,0.94l3.53,3.3l0.13,3.35l2.05,1.16l3.88,7.44l3.81,2.81
		l3.45-1.33l-0.64-3.64l-2.17-4.51l-2.4-5.29l-0.87-4.43l-0.92-3.14l3.68-0.54l3.58,2.02l5.24,6.24l2.15-1.41l1.13-1.99l2.38-0.62
		l4.14,1.03l1.41-2.49L186.74,141.48z"/>
	<path class="st0" d="M157.23,134c0,0-3.07-1.73-4.6-2.6c-1.53-0.87-7.16-4.04-7.16-4.04l-8.9,0.22l-6.57,0.88l-2.12-5.79
		l-2.86-6.86l1.41-2.49l-3.58-2.02l-6.91,2.66l-0.77,6.13l-3.74,1.83l-4.19,0.26l-0.88,8.69l-3.17,0.83l-2.33-0.66l-5.62-3.18
		l-2.07-7.07l2.54-4.47l-5.96-1.4l-5.25,6.88l-2.48,3.19c0,0,0.79-0.21-5.27,0.96c-6.06,1.17-4.48,0.75-4.48,0.75l-5.55,1.46
		l-4.94-0.82l-2.05-1.16l-1.27-7.28L60.9,117l8.26-3.86l5.09-3.03l2.97-8.82l1.74-4.26l8.34,0.77c0,0,1.59-0.42,2.15-1.41
		c0.56-0.99-0.87-4.43-0.87-4.43L87.9,89.6l4.76-1.25l1.64-1.7l4.74-7.17l4.19-0.26l7.65-1.59l1.53,0.87l3.58,2.02l3.91,0.24
		l-1.51,5.05l5.11,2.89l7.14-1.87l3.66-6.46l4.3-2.82l3.76,4.09l4.94,0.82c0,0,1.99,2.44,3.58,2.02c1.59-0.42,4.6,2.6,4.6,2.6
		l4.09,2.31l3.07,1.73l-1.41,2.49l-3.74,1.83L150,93.17l2.45,4.01l5.39,2.39l-2.36,6.54l-1.92,2.2l-1.92,2.2l2.58,7.36l3.17-0.83
		c2.38-0.62,6.68-3.45,6.68-3.45l3.58,2.02l2.84,0.95l-1.13,1.99l2.12,5.79c-1.18,3.27-1.69,2.98-1.69,2.98l-8.67,1.01l-2.89,0.34
		L157.23,134z"/>
	<path class="st0" d="M125.96,131.43l6.46,5.71c0,0,1.17,102.79,2.35,106.79l0.34,34.46l2.6-13.33v-19.99l-2.94-67.38l1.76-11.99
		v-14.28l-2.35-7.99C134.18,143.42,136.53,138.28,125.96,131.43z"/>
	<polygon class="st0" points="201.32,168.62 205.22,180.85 202.99,278.2 199.61,278.2 	"/>
	<path class="st0" d="M287.7,99.64c0,0-24.52-22.25-37.9-15.02c-13.38,7.23-45.14,25.59-46.26,30.59s-11.15,14.46-11.15,14.46
		l9.47,2.22l9.47,6.67h5.57l-1.11,6.12l5.02,2.78l4.18-3.62v-6.12l2.79-1.67l2.23,3.89l1.11,1.67l2.23-2.22l0.56-2.22l3.9-1.11
		l2.23-4.45l-2.79-2.78l0.56-4.45l5.02-2.22l4.67-2.02l6.95,1l6.78-2.88l4.46,1.11l1.67,2.78h2.23l6.69,4.45l4.46,0.56l2.23-2.78
		l-2.23-2.78l-3.9-2.78l-4.46-3.34l-2.79-3.34l-2.23-2.22l2.79-2.22h3.9l7.25,2.78l1.11-2.22v-2.22l1.67-1.67l3.9-1.11v-2.78
		L287.7,99.64z"/>
	<path class="st0" d="M259.83,107.43c0,0-3.34,0-5.02,0c-1.67,0-7.8,0-7.8,0l-7.25,4.45l-5.02,3.89l-4.46-3.89l-5.57-4.45v-2.78
		h-3.9l-4.46,5.56l2.23,5.56l-2.23,3.34l-3.34,2.22l3.34,7.79l-2.23,2.22l-2.23,0.56h-6.13l-5.02-5.01v-5.01l-5.57,1.67l-1.11,8.34
		l-0.56,3.89c0,0,0.56-0.56-3.9,3.34c-4.46,3.89-3.34,2.78-3.34,2.78l-3.9,3.89l-4.46,1.67h-2.23l-4.46-5.56l1.11-2.78l5.02-7.23
		l2.79-5.01l-1.67-8.9l-0.56-4.45l7.25-3.34c0,0,1.11-1.11,1.11-2.22c0-1.11-2.79-3.34-2.79-3.34l-1.67-1.67l3.34-3.34l0.56-2.22
		l0.56-8.34l3.34-2.22l5.57-5.01h1.67h3.9l3.34-1.67l1.11,5.01h5.57l5.02-5.01v-7.23l2.23-4.45l5.02,1.67l4.46-1.67
		c0,0,2.79,1.11,3.9,0c1.11-1.11,5.02,0,5.02,0h4.46h3.34v2.78L242,74.61l-7.25,1.67l3.9,2.22l5.57-0.56l1.11,6.67l-0.56,2.78
		l-0.56,2.78l5.57,5.01l2.23-2.22c1.67-1.67,3.9-6.12,3.9-6.12h3.9l2.79-0.56v2.22l4.46,3.89c0.56,3.34,0,3.34,0,3.34l-6.69,5.01
		l-2.23,1.67L259.83,107.43z"/>
</g>
<path class="st2" d="M29.53,386.11c0,0,12.46,36.42,48.6,21.14s39.1-33.94,56.88-15.64s-2.14,33.58,39.71,26.27
	s46.82-16.83,60.94-13.07c14.13,3.77,2.78,12.4,21.74,17.72c18.96,5.31,42.21,3.32,66.79-4.65c24.58-7.97,57.8-29.98,63.44-16.98
	c5.65,13-18.27,26.28,22.26,24.95c40.53-1.33,45.18-4.65,63.11-7.97c17.94-3.32,43.77-18.44,54.77-6.89
	c11,11.54,1.7,28.82,26.28,8.22s30.27-34.6,48.69-27.6c18.41,7,3.8,15.64,27.05,13.65c23.25-1.99,59.79-22.59,67.1-21.26
	c1.06,0.19,2.13,0.12,3.25-0.1c6.54-1.31,14.35-7.84,27.98,4.09c15.94,13.95,15.28,25.25,37.87,12.62
	c22.59-12.62,24.58-13.95,25.25-19.93c0.66-5.98,21.07-9.3-2.75-10.63c-23.82-1.33-55.51-7.89-60.26-5.94
	c-4.75,1.95-65.2,0.62-75.17,0.62s-42.52-5.98-52.48,3.99c-9.97,9.97-12.34,11.31-35.73,16.28c-23.39,4.98-40.67-7.85-53.95-12.73
	c-13.29-4.88-29.9-20.16-42.52-12.85c-12.62,7.31-13.77,1.28-45.42,15.25s-40.83,3.37-67.13,2.03c-26.3-1.34-27.82-13.49-43-0.44
	s2.75,30.32-29.14,17.7c-31.89-12.62-52.48-51.82-56.47-29.23c-3.99,22.59,13.29,26.57-25.25,23.25s-59.79-35.87-70.42-19.27
	s-11.96,25.25-42.52,25.25s-37.2-18.6-41.19-7.97C43.85,396.61,29.53,386.11,29.53,386.11z"/>
<g>
	<path class="st0" d="M385.28,359.41"/>
	<path class="st0" d="M480.58,120.78c0,0,1.67,195.8,6.69,218.05c0,0,1.11,26.7,2.23,26.7c1.11,0,16.16,22.25,16.16,22.25h-3.34
		c0,0-10.59-16.69-12.26-17.24c-1.67-0.56-12.26,1.11-13.38,18.36h-3.9c0,0,2.79-20.58,10.59-22.81l-0.84-25.31
		c0,0-22.29,5.01-25.64,18.36c-3.34,13.35,0,21.14,0,21.14l5.02,4.45l-1.11,3.89h-11.15c0,0-3.9-35.6,13.38-47.84
		c17.28-12.24,17.28-10.57,17.28-10.57s-6.13-138.5-4.46-143.51c1.67-5.01-1.11-60.63-1.11-60.63l-7.25-7.23h5.02l3.9,2.78v-4.45
		h4.46L480.58,120.78z"/>
	<path class="st0" d="M518.48,165.83l2.79,188.57c0,0,0.56,9.46,2.23,11.12c1.67,1.67,23.41,7.23,25.08,12.79l0.56,6.12
		c0,0,0,1.11-3.34-1.67c-3.34-2.78-11.15-11.68-18.95-10.57c-7.8,1.11-16.72,3.34-23.41,12.24v1.67h-5.02c0,0,2.51-11.4,17-16.97
		c0,0-22.29,6.12-26.75,16.69l-6.69-0.56c0,0,10.59-18.36,31.21-23.92l-0.56-32.26c0,0-1.11-157.42,0.56-163.54l-0.56-7.23
		L518.48,165.83z"/>
	<polygon class="st0" points="512.89,168.62 512.91,272.08 512.42,292.38 515.7,292.1 515.7,287.65 517.09,164.17 	"/>
	<polygon class="st0" points="503.71,168.89 512.83,170.04 517.09,167.23 522.11,164.44 525.45,164.44 534.92,167.23 535.48,164.44 
		541.05,167.23 542.73,167.23 542.73,160.55 547.74,160.55 547.74,156.66 542.73,154.99 546.07,148.87 544.96,147.76 549.41,141.64 
		547.18,131.63 547.18,123.28 549.41,113.27 539.94,111.6 538.27,113.83 532.69,121.06 529.91,122.73 522.66,121.61 520.99,124.95 
		517.09,132.18 514.3,134.41 510.96,136.08 509.29,136.63 503.71,139.41 502.6,142.75 500.93,146.09 500.93,149.43 498.7,152.76 
		494.8,154.99 489.78,160.55 494.8,161.11 492.57,163.33 495.35,163.89 495.91,166.11 498.14,166.67 498.7,171.12 501.48,171.67 
		502.04,168.89 	"/>
	<path class="st0" d="M528.51,108.54h3.9l1.67,4.45h6.69l1.67,7.79h2.23l2.79,4.45l-2.79,8.34h-3.34h-4.46l-2.79,4.45l-7.25,5.01
		v5.56l-1.11,3.89l-8.36-1.67l-1.11-2.78l-3.9,4.45h-1.11l-2.79,3.89l-1.67,0.56l-5.57,2.78v1.67l-2.79,6.12l-3.34,1.11l-1.67-2.78
		v-3.89v-3.34l-5.57-1.11c0,0,0-1.11-1.67,0.56c-1.67,1.67-3.34,1.67-3.34,1.67l-6.69-3.34l-2.79,2.22l-1.11,1.11l-1.67-9.46
		c0,0-2.79-5.56,0-6.67c2.79-1.11,9.47-5.01,9.47-5.01c-1.11-2.22-1.67-5.01-1.67-5.01l-0.56-3.89l1.11-11.68l-3.34-0.56v-3.34
		l5.57-5.56h3.9c3.34-0.56,8.36-3.34,8.36-3.34h1.67l6.13,1.11l2.79,0.56l4.46-1.67l5.57,2.78c1.67,2.22,7.8,1.67,7.8,1.67
		l3.34-1.11H528.51z"/>
	<path class="st0" d="M425.43,122.85l4.45,224.41c0,0,0.89,11.25,3.56,13.24s37.42,8.61,40.09,15.23l0.89,7.28c0,0,0,1.32-5.35-1.99
		c-5.35-3.31-17.82-13.9-30.29-12.58s-26.73,3.97-37.42,14.56v1.99h-8.02c0,0,4.01-13.57,27.17-20.19c0,0-35.64,7.28-42.76,19.86
		L367.07,384c0,0,16.93-21.85,49.89-28.47l-0.89-38.4c0,0-1.78-187.34,0.89-194.62l-0.89-8.61L425.43,122.85z"/>
	<polygon class="st0" points="416.49,126.16 416.52,249.29 415.74,273.45 420.97,273.12 420.97,267.82 423.2,120.86 	"/>
	<polygon class="st0" points="400.04,125.84 417.48,127.47 425.63,123.46 435.23,119.5 441.63,119.5 459.75,123.46 460.82,119.5 
		471.48,123.46 474.68,123.46 474.68,113.95 484.28,113.95 484.28,108.41 474.68,106.03 481.08,97.31 478.95,95.73 487.48,87.01 
		483.21,72.75 483.21,60.87 487.48,46.61 469.35,44.23 466.15,47.4 455.49,57.7 450.16,60.08 436.29,58.49 433.09,63.24 
		425.63,73.54 420.3,76.71 413.9,79.09 410.7,79.88 400.04,83.84 397.91,88.6 394.71,93.35 394.71,98.11 390.44,102.86 
		382.98,106.03 373.38,113.95 382.98,114.75 378.71,117.91 384.04,118.71 385.11,121.88 389.38,122.67 390.44,129.01 395.77,129.8 
		396.84,125.84 	"/>
	<path class="st0" d="M447.49,39.87h7.46l3.2,6.34h12.8l3.2,11.09h4.27l5.33,6.34l-5.33,11.88h-6.4h-8.53l-5.33,6.34l-13.86,7.13
		v7.92l-2.13,5.55l-15.99-2.38l-2.13-3.96l-7.46,6.34h-2.13l-5.33,5.55l-3.2,0.79l-10.66,3.96v2.38l-5.33,8.72l-6.4,1.58l-3.2-3.96
		v-5.55v-4.75l-10.66-1.58c0,0,0-1.58-3.2,0.79c-3.2,2.38-6.4,2.38-6.4,2.38l-12.8-4.75l-5.33,3.17l-2.13,1.58l-3.2-13.47
		c0,0-5.33-7.92,0-9.51s18.13-7.13,18.13-7.13c-2.13-3.17-3.2-7.13-3.2-7.13l-1.07-5.55l2.13-16.64l-6.4-0.79v-4.75l10.66-7.92h7.46
		c6.4-0.79,15.99-4.75,15.99-4.75h3.2l11.73,1.58l5.33,0.79l8.53-2.38l10.66,3.96c3.2,3.17,14.93,2.38,14.93,2.38l6.4-1.58H447.49z"
		/>
	<path class="st0" d="M429.52,133.42l2.37-7.62l-1.17-1.47l1.19-3.81l2.65,0.66l2.06-0.07l2.3-4.77l0.62-0.69l4.44,1.44l2.45-1.34
		l2-2.5l5.23-1.1l1.93,0.35l2.45-1.34l3.5,0.55c0,0,4.74-0.83,6.48-2.48c1.74-1.65,1.74-1.65,1.74-1.65s0.17-1.85,1.08,0.47
		c0.91,2.31,1.1,4.32,1.1,4.32l3.23,1.4l4.32-3.42l2.68-0.76l0.65,3.16l-1.87,2.07l-5.36,1.52l-0.92,2.96l1.27,2.47l2.61,2.09
		l1.5,3.05l-1.9,3.5l-3.01-0.82l1.04,1.89c0,0,0.81,1.31,1.23,3.9c0.42,2.58,0.42,2.58,0.42,2.58l0,0l-7.23,3.6l-0.92,2.96
		l1.95,4.21l-0.04,1.43l-4.65,1.84c0,0-1.44-0.62-1.66-1.2c-0.23-0.58-2.84-2.67-2.84-2.67l-1.96,1.07c0,0,6.1,7.92,0.78,2.74
		c-5.32-5.18-5.45-4.76-5.45-4.76l-0.89,1.54l-0.96,4.39l3.01,0.82l-5.36,1.52l-0.06-2.43l-1.37-3.47l-8.04-2.99l-4.19,2.99
		l-0.68-1.74l-4.54-2.44l-0.32-1.58l0.73-4.97l-1.8-0.78l0.07-2.85l-0.1-1L429.52,133.42z"/>
	<path class="st0" d="M337.58,389.08c0,0-18.7-9.59-18.7-13.62s-8.59-207.85-6.07-228.03c0,0,3.54-9.08,6.07-11.1
		s1.52-8.58,1.52-8.58l-6.57,10.09l-1.52-10.09h-3.03v13.62l-13.14-8.58l1.52,8.58l7.58,7.06c0,0,5.05,203.81,5.56,216.42
		c0,0-27.8,14.63-27.29,26.23l8.59,0.5c0,0,13.65-19.67,17.19-18.67s5.05,8.07,8.59,8.58s13.14,7.57,14.15,8.07
		S337.58,389.08,337.58,389.08z"/>
	<path class="st0" d="M312.81,93.45H302.2l-3.54-3.53h-5.05l-2.02,1.51h-5.56l-6.07,3.03l-2.02,3.03l-5.05,2.02l-3.54,3.03v4.04
		h5.05l1.52,4.04l-4.04,2.02v2.02l-2.53,1.51l-1.52,4.54l-0.51,4.54l0.51,4.04l3.03,8.07h4.04h5.56l1.52-1.01l1.52,1.01h3.03
		l8.59-2.02l-3.03,7.57l4.04,1.51l3.14-1.51l3.43-2.02l6.57-6.05l3.54,2.02c1.52,0,6.07,0,6.07,0l2.02-1.01l4.55,0.5v-2.02
		l3.03-1.51l2.53-1.51h2.02l10.11,1.51v-2.02l1.52-5.04l-1.52-4.04c2.02-1.01,6.57-1.51,6.57-1.51l0.51,1.51l6.57,2.52
		c3.03-2.52,3.54-5.04,3.54-5.04l4.04-2.02l-1.52-5.04l-4.04-4.54l-4.04-3.53l-2.53-6.56h-2.02l-4.55,0.5l-4.04,0.5l-2.02-2.02
		l-2.02-1.51h-2.53l-1.52,0.5l-4.55-2.52l-3.03-3.03h-3.54l-2.53,2.02l-2.02,0.5L312.81,93.45z"/>
	<path class="st0" d="M331.57,107.09l-3.13-8.53l1.55-1.64l-1.57-4.26l-3.5,0.74l-2.72-0.08l-3.04-5.34l-0.82-0.77l-5.87,1.61
		l-3.24-1.5l-2.64-2.79l-6.91-1.23l-2.55,0.39l-3.24-1.5l-4.62,0.62c0,0-6.26-0.93-8.56-2.78c-2.29-1.85-2.29-1.85-2.29-1.85
		s-0.22-2.07-1.42,0.52c-1.2,2.59-1.46,4.83-1.46,4.83l-4.27,1.56l-5.71-3.82l-3.54-0.85l-0.85,3.54l2.47,2.32l7.09,1.71l1.22,3.32
		l-1.68,2.76l-3.45,2.34l-1.98,3.41l2.52,3.92l3.97-0.92l-1.38,2.12c0,0-1.08,1.47-1.63,4.36c-0.55,2.89-0.55,2.89-0.55,2.89l0,0
		l9.55,4.03l1.22,3.32l-2.58,4.7l0.05,1.59l6.14,2.05c0,0,1.9-0.69,2.2-1.34c0.3-0.65,3.75-2.98,3.75-2.98l2.59,1.2
		c0,0-8.05,8.86-1.03,3.06c7.02-5.79,7.2-5.32,7.2-5.32l1.17,1.72l1.27,4.91l-3.97,0.92l7.09,1.71l0.08-2.72l1.8-3.88l10.61-3.35
		l5.54,3.35l0.9-1.94l6-2.73l0.43-1.77l-0.96-5.56l2.37-0.87l-0.09-3.19l0.13-1.12L331.57,107.09z"/>
	<polygon class="st1" points="305.23,148.44 310.28,364.87 312.81,341.16 310.28,148.44 	"/>
	<path class="st0" d="M424.97,385.52c0,0,14.16-8.57,14.16-12.18c0-3.61,6.5-185.81,4.59-203.85c0,0-2.68-8.12-4.59-9.92
		c-1.91-1.8-1.15-7.67-1.15-7.67l4.97,9.02l1.15-9.02h2.3v12.18l9.95-7.67l-1.15,7.67l-5.74,6.31c0,0-3.83,182.21-4.21,193.48
		c0,0,21.04,13.08,20.66,23.45l-6.5,0.45c0,0-10.33-17.59-13.01-16.69c-2.68,0.9-3.83,7.22-6.5,7.67
		c-2.68,0.45-9.95,6.77-10.71,7.22C428.41,386.42,424.97,385.52,424.97,385.52z"/>
	<path class="st0" d="M443.72,121.23h8.04l2.68-3.16h3.83l1.53,1.35H464l4.59,2.71l1.53,2.71l3.83,1.8l2.68,2.71v3.61h-3.83
		l-1.15,3.61l3.06,1.8v1.8l1.91,1.35l1.15,4.06l0.38,4.06l-0.38,3.61l-2.3,7.22h-3.06h-4.21l-1.15-0.9l-1.15,0.9h-2.3l-6.5-1.8
		l2.3,6.77l-3.06,1.35l-2.38-1.35l-2.6-1.8l-4.97-5.41l-2.68,1.8c-1.15,0-4.59,0-4.59,0l-1.53-0.9l-3.44,0.45v-1.8l-2.3-1.35
		l-1.91-1.35h-1.53l-7.65,1.35v-1.8l-1.15-4.51l1.15-3.61c-1.53-0.9-4.97-1.35-4.97-1.35l-0.38,1.35l-4.97,2.26
		c-2.3-2.26-2.68-4.51-2.68-4.51l-3.06-1.8l1.15-4.51l3.06-4.06l3.06-3.16l1.91-5.86h1.53l3.44,0.45l3.06,0.45l1.53-1.8l1.53-1.35
		h1.91l1.15,0.45l3.44-2.26l2.3-2.71h2.68l1.91,1.8l1.53,0.45L443.72,121.23z"/>
	<path class="st0" d="M468.88,120.22l6.13,5.56c0,0,1.11,100.12,2.23,104.02l0.32,33.57l2.46-12.99v-19.47l-2.79-65.64l1.67-11.68
		v-13.91l-2.23-7.79C476.68,131.9,478.91,126.9,468.88,120.22z"/>
	<path class="st0" d="M380.78,132c0,0,1.76,201.01,7.05,223.85c0,0,1.17,27.41,2.35,27.41s17.04,22.84,17.04,22.84h-3.52
		c0,0-11.16-17.13-12.92-17.7s-12.92,1.14-14.1,18.84h-4.11c0,0,2.94-21.13,11.16-23.41l-0.88-25.98c0,0-23.5,5.14-27.02,18.84
		s0,21.7,0,21.7l5.29,4.57l-1.17,4h-11.75c0,0-4.11-36.55,14.1-49.11c18.21-12.56,18.21-10.85,18.21-10.85s-6.46-142.19-4.7-147.33
		s-1.17-62.24-1.17-62.24l-7.64-7.42h5.29l4.11,2.86v-4.57h4.7L380.78,132z"/>
	<path class="st0" d="M429.23,141.48c0,0-11.23-32.59-27.16-33.05s-54.38-0.53-57.94,3.37c-3.56,3.9-17.55,7.15-17.55,7.15l7.57,6.9
		l5.31,10.87l5.11,2.89l-4.12,4.89l3.19,5.08l5.67-1.06l3.1-5.47l3.4-0.05l0.07,4.63l0.18,2.07l3.17-0.83l1.64-1.7l4.14,1.03
		l4.3-2.82l-1.15-3.93l2.77-3.69l5.73,0.61l5.3,0.62l5.87,4.49l7.67,0.94l3.53,3.3l0.13,3.35l2.05,1.16l3.88,7.44l3.81,2.81
		l3.45-1.33l-0.64-3.64l-2.17-4.51l-2.4-5.29l-0.87-4.43l-0.92-3.14l3.68-0.54l3.58,2.02l5.24,6.24l2.15-1.41l1.13-1.99l2.38-0.62
		l4.14,1.03l1.41-2.49L429.23,141.48z"/>
	<path class="st0" d="M399.72,134c0,0-3.07-1.73-4.6-2.6c-1.53-0.87-7.16-4.04-7.16-4.04l-8.9,0.22l-6.57,0.88l-2.12-5.79
		l-2.86-6.86l1.41-2.49l-3.58-2.02l-6.91,2.66l-0.77,6.13l-3.74,1.83l-4.19,0.26l-0.88,8.69l-3.17,0.83l-2.33-0.66l-5.62-3.18
		l-2.07-7.07l2.54-4.47l-5.96-1.4l-5.25,6.88l-2.48,3.19c0,0,0.79-0.21-5.27,0.96c-6.06,1.17-4.48,0.75-4.48,0.75l-5.55,1.46
		l-4.94-0.82l-2.05-1.16l-1.27-7.28l2.43-1.91l8.26-3.86l5.09-3.03l2.97-8.82l1.74-4.26l8.34,0.77c0,0,1.59-0.42,2.15-1.41
		s-0.87-4.43-0.87-4.43l-0.69-2.36l4.76-1.25l1.64-1.7l4.74-7.17l4.19-0.26l7.65-1.59l1.53,0.87l3.58,2.02l3.91,0.24l-1.51,5.05
		l5.11,2.89l7.14-1.87l3.66-6.46l4.3-2.82l3.76,4.09l4.94,0.82c0,0,1.99,2.44,3.58,2.02c1.59-0.42,4.6,2.6,4.6,2.6l4.09,2.31
		l3.07,1.73l-1.41,2.49l-3.74,1.83l-7.49-2.26l2.45,4.01l5.39,2.39l-2.36,6.54l-1.92,2.2l-1.92,2.2l2.58,7.36l3.17-0.83
		c2.38-0.62,6.68-3.45,6.68-3.45l3.58,2.02l2.84,0.95l-1.13,1.99l2.12,5.79c-1.18,3.27-1.69,2.98-1.69,2.98l-8.67,1.01l-2.89,0.34
		L399.72,134z"/>
	<path class="st0" d="M368.45,131.43l6.46,5.71c0,0,1.17,102.79,2.35,106.79l0.34,34.46l2.6-13.33v-19.99l-2.94-67.38l1.76-11.99
		v-14.28l-2.35-7.99C376.67,143.42,379.02,138.28,368.45,131.43z"/>
	<polygon class="st0" points="443.8,168.62 447.7,180.85 445.47,278.2 442.1,278.2 	"/>
	<path class="st0" d="M530.19,99.64c0,0-24.52-22.25-37.9-15.02c-13.38,7.23-45.14,25.59-46.26,30.59
		c-1.11,5.01-11.15,14.46-11.15,14.46l9.47,2.22l9.47,6.67h5.57l-1.11,6.12l5.02,2.78l4.18-3.62v-6.12l2.79-1.67l2.23,3.89
		l1.11,1.67l2.23-2.22l0.56-2.22l3.9-1.11l2.23-4.45l-2.79-2.78l0.56-4.45l5.02-2.22l4.67-2.02l6.95,1l6.78-2.88l4.46,1.11
		l1.67,2.78h2.23l6.69,4.45l4.46,0.56l2.23-2.78l-2.23-2.78l-3.9-2.78l-4.46-3.34l-2.79-3.34l-2.23-2.22l2.79-2.22h3.9l7.25,2.78
		l1.11-2.22v-2.22l1.67-1.67l3.9-1.11v-2.78L530.19,99.64z"/>
	<path class="st0" d="M502.32,107.43c0,0-3.34,0-5.02,0c-1.67,0-7.8,0-7.8,0l-7.25,4.45l-5.02,3.89l-4.46-3.89l-5.57-4.45v-2.78
		h-3.9l-4.46,5.56l2.23,5.56l-2.23,3.34l-3.34,2.22l3.34,7.79l-2.23,2.22l-2.23,0.56h-6.13l-5.02-5.01v-5.01l-5.57,1.67l-1.11,8.34
		L436,135.8c0,0,0.56-0.56-3.9,3.34c-4.46,3.89-3.34,2.78-3.34,2.78l-3.9,3.89l-4.46,1.67h-2.23l-4.46-5.56l1.11-2.78l5.02-7.23
		l2.79-5.01l-1.67-8.9l-0.56-4.45l7.25-3.34c0,0,1.11-1.11,1.11-2.22c0-1.11-2.79-3.34-2.79-3.34l-1.67-1.67l3.34-3.34l0.56-2.22
		l0.56-8.34l3.34-2.22l5.57-5.01h1.67h3.9l3.34-1.67l1.11,5.01h5.57l5.02-5.01v-7.23l2.23-4.45l5.02,1.67l4.46-1.67
		c0,0,2.79,1.11,3.9,0c1.11-1.11,5.02,0,5.02,0h4.46h3.34v2.78l-2.23,3.34l-7.25,1.67l3.9,2.22l5.57-0.56l1.11,6.67l-0.56,2.78
		l-0.56,2.78l5.57,5.01l2.23-2.22c1.67-1.67,3.9-6.12,3.9-6.12h3.9l2.79-0.56v2.22l4.46,3.89c0.56,3.34,0,3.34,0,3.34l-6.69,5.01
		l-2.23,1.67L502.32,107.43z"/>
</g>
<g>
	<path class="st3" d="M148.24,387.31"/>
	<path class="st3" d="M262.07,102.31c0,0,2,233.85,7.99,260.42c0,0,1.33,31.89,2.66,31.89s19.3,26.57,19.3,26.57h-3.99
		c0,0-12.65-19.93-14.64-20.59c-2-0.66-14.64,1.33-15.98,21.92h-4.66c0,0,3.33-24.58,12.65-27.24l-1-30.23
		c0,0-26.63,5.98-30.62,21.92s0,25.25,0,25.25l5.99,5.31l-1.33,4.65h-13.31c0,0-4.66-42.52,15.98-57.13s20.63-12.62,20.63-12.62
		s-7.32-165.42-5.33-171.4c2-5.98-1.33-72.41-1.33-72.41l-8.65-8.64h5.99l4.66,3.32v-5.31h5.33L262.07,102.31z"/>
	<path class="st3" d="M307.33,156.12l3.33,225.21c0,0,0.67,11.29,2.66,13.29s27.96,8.64,29.95,15.28l0.67,7.31c0,0,0,1.33-3.99-1.99
		c-3.99-3.32-13.31-13.95-22.63-12.62c-9.32,1.33-19.97,3.99-27.96,14.62v1.99h-5.99c0,0,3-13.62,20.3-20.26
		c0,0-26.63,7.31-31.95,19.93l-7.99-0.66c0,0,12.65-21.92,37.28-28.57l-0.67-38.53c0,0-1.33-188.01,0.67-195.32l-0.67-8.64
		L307.33,156.12z"/>
	<polygon class="st3" points="300.66,159.44 300.67,283.01 300.09,307.26 304,306.93 304,301.61 305.67,154.13 	"/>
	<polygon class="st3" points="289.69,159.78 300.58,161.14 305.67,157.78 311.66,154.46 315.65,154.46 326.97,157.78 327.63,154.46 
		334.29,157.78 336.28,157.78 336.28,149.81 342.28,149.81 342.28,145.16 336.28,143.17 340.28,135.86 338.95,134.53 344.27,127.22 
		341.61,115.26 341.61,105.3 344.27,93.34 332.96,91.35 330.96,94 324.3,102.64 320.98,104.63 312.32,103.31 310.33,107.29 
		305.67,115.93 302.34,118.59 298.34,120.58 296.35,121.24 289.69,124.56 288.36,128.55 286.36,132.54 286.36,136.52 283.7,140.51 
		279.04,143.17 273.05,149.81 279.04,150.47 276.38,153.13 279.71,153.8 280.37,156.45 283.03,157.12 283.7,162.43 287.03,163.1 
		287.69,159.78 	"/>
	<path class="st3" d="M319.31,87.69h4.66l2,5.31h7.99l2,9.3h2.66l3.33,5.31l-3.33,9.97h-3.99h-5.33l-3.33,5.31l-8.65,5.98v6.64
		l-1.33,4.65l-9.98-1.99l-1.33-3.32l-4.66,5.31h-1.33l-3.33,4.65l-2,0.66l-6.66,3.32v1.99l-3.33,7.31l-3.99,1.33l-2-3.32v-4.65
		v-3.99l-6.66-1.33c0,0,0-1.33-2,0.66s-3.99,1.99-3.99,1.99l-7.99-3.99l-3.33,2.66l-1.33,1.33l-2-11.29c0,0-3.33-6.64,0-7.97
		c3.33-1.33,11.32-5.98,11.32-5.98c-1.33-2.66-2-5.98-2-5.98l-0.67-4.65l1.33-13.95l-3.99-0.66v-3.99l6.66-6.64h4.66
		c3.99-0.66,9.98-3.99,9.98-3.99h2l7.32,1.33l3.33,0.66l5.33-1.99l6.66,3.32c2,2.66,9.32,1.99,9.32,1.99l3.99-1.33H319.31z"/>
	<path class="st3" d="M196.19,104.78l5.32,268.03c0,0,1.06,13.44,4.26,15.81c3.19,2.37,44.69,10.28,47.88,18.18l1.06,8.7
		c0,0,0,1.58-6.38-2.37s-21.28-16.6-36.18-15.02c-14.9,1.58-31.92,4.74-44.69,17.39v2.37h-9.58c0,0,4.79-16.21,32.45-24.11
		c0,0-42.56,8.7-51.07,23.72l-12.77-0.79c0,0,20.22-26.09,59.59-34l-1.06-45.86c0,0-2.13-223.75,1.06-232.45l-1.06-10.28
		L196.19,104.78z"/>
	<polygon class="st3" points="185.52,108.73 185.55,255.79 184.62,284.65 190.87,284.26 190.87,277.93 193.53,102.41 	"/>
	<polygon class="st3" points="165.87,108.35 186.69,110.3 196.43,105.51 207.89,100.78 215.54,100.78 237.19,105.51 238.46,100.78 
		251.2,105.51 255.02,105.51 255.02,94.16 266.48,94.16 266.48,87.53 255.02,84.69 262.66,74.28 260.11,72.39 270.3,61.98 
		265.2,44.95 265.2,30.75 270.3,13.72 248.65,10.88 244.83,14.67 232.09,26.97 225.72,29.81 209.17,27.92 205.35,33.59 196.43,45.9 
		190.06,49.68 182.42,52.52 178.6,53.47 165.87,58.2 163.32,63.88 159.5,69.55 159.5,75.23 154.41,80.91 145.49,84.69 134.03,94.16 
		145.49,95.1 140.4,98.89 146.76,99.83 148.04,103.62 153.13,104.57 154.41,112.14 160.77,113.08 162.05,108.35 	"/>
	<path class="st3" d="M222.54,5.68h8.91l3.82,7.57h15.28l3.82,13.25h5.09l6.37,7.57l-6.37,14.19h-7.64h-10.19l-6.37,7.57
		l-16.56,8.52v9.46l-2.55,6.62l-19.1-2.84l-2.55-4.73l-8.91,7.57h-2.55l-6.37,6.62l-3.82,0.95l-12.74,4.73v2.84l-6.37,10.41
		l-7.64,1.89l-3.82-4.73v-6.62v-5.68l-12.74-1.89c0,0,0-1.89-3.82,0.95c-3.82,2.84-7.64,2.84-7.64,2.84l-15.28-5.68l-6.37,3.79
		l-2.55,1.89l-3.82-16.09c0,0-6.37-9.46,0-11.36c6.37-1.89,21.65-8.52,21.65-8.52c-2.55-3.79-3.82-8.52-3.82-8.52l-1.27-6.62
		l2.55-19.87l-7.64-0.95v-5.68l12.74-9.46h8.91c7.64-0.95,19.1-5.68,19.1-5.68h3.82l14.01,1.89l6.37,0.95L176.69,0l12.74,4.73
		c3.82,3.79,17.83,2.84,17.83,2.84l7.64-1.89H222.54z"/>
	<path class="st3" d="M201.07,117.41l2.83-9.1l-1.4-1.75l1.42-4.55l3.16,0.79l2.46-0.08l2.75-5.7l0.74-0.83l5.31,1.72l2.93-1.6
		l2.39-2.98L229.9,92l2.3,0.42l2.93-1.6l4.18,0.66c0,0,5.66-0.99,7.74-2.97c2.07-1.97,2.07-1.97,2.07-1.97s0.2-2.21,1.29,0.56
		c1.09,2.76,1.32,5.16,1.32,5.16l3.86,1.67l5.16-4.08l3.2-0.91l0.77,3.78l-2.23,2.48L256.09,97l-1.1,3.54l1.52,2.95l3.12,2.49
		l1.79,3.64l-2.27,4.18l-3.59-0.98l1.24,2.26c0,0,0.97,1.57,1.47,4.65c0.5,3.08,0.5,3.08,0.5,3.08l0,0l-8.64,4.3l-1.1,3.54
		l2.33,5.02l-0.04,1.7l-5.55,2.19c0,0-1.72-0.74-1.99-1.43c-0.27-0.69-3.39-3.19-3.39-3.19l-2.35,1.28c0,0,7.28,9.46,0.93,3.27
		c-6.35-6.19-6.51-5.68-6.51-5.68l-1.06,1.84l-1.14,5.24l3.59,0.98l-6.41,1.82l-0.07-2.9l-1.63-4.15l-9.6-3.57l-5.01,3.57
		l-0.82-2.07l-5.42-2.92l-0.39-1.89l0.87-5.93l-2.15-0.93l0.09-3.41l-0.11-1.2L201.07,117.41z"/>
	<path class="st3" d="M91.27,422.76c0,0-22.34-11.45-22.34-16.27c0-4.82-10.26-248.24-7.24-272.34c0,0,4.23-10.85,7.24-13.26
		c3.02-2.41,1.81-10.24,1.81-10.24l-7.85,12.05l-1.81-12.05h-3.62v16.27l-15.7-10.24l1.81,10.24l9.06,8.44
		c0,0,6.04,243.42,6.64,258.49c0,0-33.2,17.47-32.6,31.33l10.26,0.6c0,0,16.3-23.5,20.53-22.29c4.23,1.21,6.04,9.64,10.26,10.24
		c4.23,0.6,15.7,9.04,16.9,9.64C85.83,423.96,91.27,422.76,91.27,422.76z"/>
	<path class="st3" d="M61.69,69.67H49.01l-4.23-4.22h-6.04l-2.41,1.81h-6.64l-7.24,3.62l-2.41,3.62l-6.04,2.41l-4.23,3.62v4.82h6.04
		l1.81,4.82l-4.83,2.41v2.41l-3.02,1.81l-1.81,5.42l-0.6,5.42l0.6,4.82l3.62,9.64h4.83h6.64l1.81-1.21l1.81,1.21h3.62l10.26-2.41
		l-3.62,9.04l4.83,1.81l3.75-1.81l4.1-2.41l7.85-7.23l4.23,2.41c1.81,0,7.24,0,7.24,0l2.41-1.21l5.43,0.6v-2.41l3.62-1.81l3.02-1.81
		h2.41l12.07,1.81v-2.41l1.81-6.03l-1.81-4.82c2.41-1.21,7.85-1.81,7.85-1.81l0.6,1.81l7.85,3.01c3.62-3.01,4.23-6.03,4.23-6.03
		l4.83-2.41l-1.81-6.03l-4.83-5.42l-4.83-4.22l-3.02-7.83h-2.41l-5.43,0.6l-4.83,0.6l-2.41-2.41l-2.41-1.81h-3.02l-1.81,0.6
		L81,69.07l-3.62-3.62h-4.23l-3.02,2.41l-2.41,0.6L61.69,69.67z"/>
	<path class="st3" d="M84.09,85.95l-3.74-10.18l1.85-1.96l-1.87-5.09l-4.18,0.89l-3.25-0.09l-3.63-6.37l-0.98-0.92l-7.01,1.92
		l-3.87-1.79l-3.15-3.34L46,57.54l-3.04,0.47l-3.87-1.79l-5.52,0.74c0,0-7.48-1.11-10.22-3.32s-2.74-2.21-2.74-2.21
		s-0.26-2.47-1.7,0.62s-1.74,5.77-1.74,5.77l-5.1,1.87l-6.82-4.56L1.02,54.1L0,58.33l2.95,2.77l8.46,2.04l1.45,3.96l-2,3.3
		l-4.12,2.79l-2.36,4.07l3,4.68l4.74-1.09l-1.64,2.53c0,0-1.28,1.75-1.95,5.2c-0.66,3.45-0.66,3.45-0.66,3.45l0,0l11.41,4.81
		l1.45,3.96l-3.08,5.62l0.06,1.9l7.33,2.45c0,0,2.27-0.83,2.63-1.6c0.36-0.77,4.48-3.56,4.48-3.56l3.1,1.43
		c0,0-9.62,10.58-1.23,3.66s8.6-6.35,8.6-6.35l1.4,2.06l1.51,5.86l-4.74,1.09l8.46,2.04l0.09-3.24l2.15-4.64l12.68-4l6.61,4
		l1.08-2.32l7.16-3.26l0.51-2.11l-1.15-6.64l2.83-1.04l-0.11-3.81l0.15-1.34L84.09,85.95z"/>
	<polygon class="st4" points="52.63,135.35 58.67,393.83 61.69,365.52 58.67,135.35 	"/>
	<path class="st3" d="M195.64,418.5c0,0,16.91-10.23,16.91-14.54c0-4.31,7.77-221.93,5.48-243.47c0,0-3.2-9.7-5.48-11.85
		c-2.28-2.15-1.37-9.16-1.37-9.16l5.94,10.77l1.37-10.77h2.74v14.54l11.88-9.16l-1.37,9.16l-6.85,7.54c0,0-4.57,217.62-5.03,231.08
		c0,0,25.13,15.62,24.68,28.01l-7.77,0.54c0,0-12.34-21.01-15.54-19.93c-3.2,1.08-4.57,8.62-7.77,9.16
		c-3.2,0.54-11.88,8.08-12.8,8.62C199.75,419.58,195.64,418.5,195.64,418.5z"/>
	<path class="st3" d="M218.03,102.85h9.6l3.2-3.77h4.57l1.83,1.62h5.03l5.48,3.23l1.83,3.23l4.57,2.15l3.2,3.23v4.31h-4.57
		l-1.37,4.31l3.66,2.15v2.15l2.28,1.62l1.37,4.85l0.46,4.85l-0.46,4.31l-2.74,8.62h-3.66h-5.03l-1.37-1.08l-1.37,1.08h-2.74
		l-7.77-2.15l2.74,8.08l-3.66,1.62l-2.84-1.62l-3.1-2.15l-5.94-6.46l-3.2,2.15c-1.37,0-5.48,0-5.48,0l-1.83-1.08l-4.11,0.54v-2.15
		l-2.74-1.62l-2.28-1.62h-1.83l-9.14,1.62v-2.15l-1.37-5.39l1.37-4.31c-1.83-1.08-5.94-1.62-5.94-1.62l-0.46,1.62l-5.94,2.69
		c-2.74-2.69-3.2-5.39-3.2-5.39l-3.66-2.15l1.37-5.39l3.66-4.85l3.66-3.77l2.28-7h1.83l4.11,0.54l3.66,0.54l1.83-2.15l1.83-1.62
		h2.28l1.37,0.54l4.11-2.69l2.74-3.23h3.2l2.28,2.15l1.83,0.54L218.03,102.85z"/>
	<path class="st3" d="M248.09,101.64l7.32,6.64c0,0,1.33,119.58,2.66,124.23l0.39,40.09l2.94-15.51v-23.25l-3.33-78.39l2-13.95
		V124.9l-2.66-9.3C257.41,115.6,260.07,109.62,248.09,101.64z"/>
	<path class="st3" d="M142.87,115.71c0,0,2.11,240.07,8.42,267.35c0,0,1.4,32.74,2.81,32.74c1.4,0,20.35,27.28,20.35,27.28h-4.21
		c0,0-13.33-20.46-15.44-21.14c-2.11-0.68-15.44,1.36-16.84,22.51h-4.91c0,0,3.51-25.23,13.33-27.96l-1.05-31.03
		c0,0-28.07,6.14-32.28,22.51c-4.21,16.37,0,25.92,0,25.92l6.32,5.46l-1.4,4.77h-14.03c0,0-4.91-43.65,16.84-58.65
		c21.75-15,21.75-12.96,21.75-12.96s-7.72-169.82-5.61-175.96s-1.4-74.34-1.4-74.34l-9.12-8.87h6.32l4.91,3.41v-5.46h5.61
		L142.87,115.71z"/>
	<path class="st3" d="M200.73,127.03c0,0-13.41-38.92-32.44-39.48c-19.03-0.56-64.95-0.63-69.2,4.02
		c-4.25,4.65-20.96,8.54-20.96,8.54l9.04,8.24l6.34,12.99l6.11,3.45l-4.92,5.84l3.81,6.07l6.77-1.27l3.7-6.53l4.06-0.06l0.09,5.53
		l0.21,2.47l3.79-0.99l1.96-2.03l4.95,1.23l5.13-3.37l-1.37-4.69l3.3-4.4l6.84,0.73l6.33,0.74l7.01,5.37l9.17,1.12l4.21,3.95l0.15,4
		l2.44,1.38l4.64,8.89l4.55,3.35l4.13-1.59l-0.76-4.35l-2.59-5.38l-2.87-6.32l-1.03-5.29l-1.1-3.75l4.4-0.65l4.27,2.41l6.26,7.45
		l2.57-1.68l1.35-2.37l2.84-0.75l4.95,1.23l1.68-2.97L200.73,127.03z"/>
	<path class="st3" d="M165.49,118.1c0,0-3.66-2.07-5.5-3.1c-1.83-1.03-8.55-4.83-8.55-4.83l-10.63,0.27l-7.85,1.05l-2.53-6.91
		l-3.41-8.2l1.68-2.97l-4.27-2.41l-8.25,3.18l-0.92,7.32l-4.46,2.18l-5.01,0.31l-1.05,10.38l-3.79,0.99l-2.78-0.79l-6.72-3.79
		l-2.47-8.45L92,96.98l-7.12-1.67l-6.27,8.21l-2.97,3.81c0,0,0.95-0.25-6.29,1.15c-7.24,1.4-5.35,0.9-5.35,0.9l-6.63,1.74l-5.9-0.98
		l-2.44-1.38l-1.52-8.69l2.9-2.28l9.87-4.61l6.08-3.62l3.55-10.53l2.08-5.09l9.96,0.92c0,0,1.89-0.5,2.57-1.68s-1.03-5.29-1.03-5.29
		l-0.82-2.82l5.68-1.49l1.96-2.03l5.66-8.56l5.01-0.31l9.14-1.89l1.83,1.03l4.27,2.41l4.67,0.29l-1.81,6.03l6.11,3.45l8.52-2.24
		l4.37-7.72l5.13-3.37l4.49,4.88l5.9,0.98c0,0,2.38,2.91,4.27,2.41c1.89-0.5,5.5,3.1,5.5,3.1l4.89,2.76l3.66,2.07l-1.68,2.97
		l-4.46,2.18l-8.95-2.7l2.93,4.79l6.44,2.86l-2.82,7.81l-2.29,2.62l-2.29,2.62l3.08,8.79l3.79-0.99c2.84-0.75,7.98-4.12,7.98-4.12
		l4.27,2.41l3.39,1.13l-1.35,2.37l2.53,6.91c-1.41,3.91-2.02,3.56-2.02,3.56l-10.36,1.2l-3.45,0.4L165.49,118.1z"/>
	<path class="st3" d="M128.13,115.03l7.72,6.82c0,0,1.4,122.76,2.81,127.54l0.41,41.16l3.1-15.92v-23.87l-3.51-80.48l2.11-14.32
		V138.9l-2.81-9.55C137.96,129.35,140.76,123.21,128.13,115.03z"/>
	<polygon class="st3" points="218.14,159.44 222.79,174.06 220.13,290.32 216.1,290.32 	"/>
	<path class="st3" d="M321.31,77.06c0,0-29.29-26.57-45.26-17.94c-15.98,8.64-53.92,30.56-55.25,36.54
		c-1.33,5.98-13.31,17.27-13.31,17.27l11.32,2.66l11.32,7.97h6.66l-1.33,7.31l5.99,3.32l4.99-4.32v-7.31l3.33-1.99l2.66,4.65
		l1.33,1.99l2.66-2.66l0.67-2.66l4.66-1.33l2.66-5.31l-3.33-3.32l0.67-5.31l5.99-2.66l5.57-2.41l8.3,1.19l8.09-3.44l5.33,1.33
		l2,3.32h2.66l7.99,5.31l5.33,0.66l2.66-3.32l-2.66-3.32l-4.66-3.32L303,96l-3.33-3.99l-2.66-2.66l3.33-2.66H305l8.65,3.32
		l1.33-2.66V84.7l2-1.99l4.66-1.33v-3.32L321.31,77.06z"/>
	<path class="st3" d="M288.03,86.36c0,0-3.99,0-5.99,0s-9.32,0-9.32,0l-8.65,5.31l-5.99,4.65l-5.33-4.65l-6.66-5.31v-3.32h-4.66
		l-5.33,6.64l2.66,6.64l-2.66,3.99l-3.99,2.66l3.99,9.3l-2.66,2.66l-2.66,0.66h-7.32l-5.99-5.98v-5.98l-6.66,1.99l-1.33,9.97
		l-0.67,4.65c0,0,0.67-0.66-4.66,3.99c-5.33,4.65-3.99,3.32-3.99,3.32l-4.66,4.65l-5.33,1.99h-2.66l-5.33-6.64l1.33-3.32l5.99-8.64
		l3.33-5.98l-2-10.63l-0.67-5.31l8.65-3.99c0,0,1.33-1.33,1.33-2.66c0-1.33-3.33-3.99-3.33-3.99l-2-1.99l3.99-3.99l0.67-2.66
		l0.67-9.97l3.99-2.66l6.66-5.98h2h4.66l3.99-1.99l1.33,5.98h6.66l5.99-5.98v-8.64l2.66-5.31l5.99,1.99l5.33-1.99
		c0,0,3.33,1.33,4.66,0c1.33-1.33,5.99,0,5.99,0h5.33h3.99v3.32l-2.66,3.99l-8.65,1.99l4.66,2.66l6.66-0.66l1.33,7.97l-0.67,3.32
		l-0.67,3.32l6.66,5.98l2.66-2.66c2-1.99,4.66-7.31,4.66-7.31h4.66l3.33-0.66v2.66l5.33,4.65c0.67,3.99,0,3.99,0,3.99l-7.99,5.98
		l-2.66,1.99L288.03,86.36z"/>
</g>
<g>
	<path class="st0" d="M607.84,359.41"/>
	<path class="st0" d="M703.14,120.78c0,0,1.67,195.8,6.69,218.05c0,0,1.11,26.7,2.23,26.7c1.11,0,16.16,22.25,16.16,22.25h-3.34
		c0,0-10.59-16.69-12.26-17.24c-1.67-0.56-12.26,1.11-13.38,18.36h-3.9c0,0,2.79-20.58,10.59-22.81l-0.84-25.31
		c0,0-22.29,5.01-25.64,18.36c-3.34,13.35,0,21.14,0,21.14l5.02,4.45l-1.11,3.89h-11.15c0,0-3.9-35.6,13.38-47.84
		c17.28-12.24,17.28-10.57,17.28-10.57s-6.13-138.5-4.46-143.51c1.67-5.01-1.11-60.63-1.11-60.63l-7.25-7.23h5.02l3.9,2.78v-4.45
		h4.46L703.14,120.78z"/>
	<path class="st0" d="M741.04,165.83l2.79,188.57c0,0,0.56,9.46,2.23,11.12c1.67,1.67,23.41,7.23,25.08,12.79l0.56,6.12
		c0,0,0,1.11-3.34-1.67c-3.34-2.78-11.15-11.68-18.95-10.57c-7.8,1.11-16.72,3.34-23.41,12.24v1.67h-5.02c0,0,2.51-11.4,17-16.97
		c0,0-22.29,6.12-26.75,16.69l-6.69-0.56c0,0,10.59-18.36,31.21-23.92l-0.56-32.26c0,0-1.11-157.42,0.56-163.54l-0.56-7.23
		L741.04,165.83z"/>
	<polygon class="st0" points="735.45,168.62 735.47,272.08 734.98,292.38 738.25,292.1 738.25,287.65 739.65,164.17 	"/>
	<polygon class="st0" points="726.27,168.89 735.38,170.04 739.65,167.23 744.66,164.44 748,164.44 757.48,167.23 758.04,164.44 
		763.61,167.23 765.28,167.23 765.28,160.55 770.3,160.55 770.3,156.66 765.28,154.99 768.63,148.87 767.51,147.76 771.97,141.64 
		769.74,131.63 769.74,123.28 771.97,113.27 762.5,111.6 760.82,113.83 755.25,121.06 752.46,122.73 745.22,121.61 743.55,124.95 
		739.65,132.18 736.86,134.41 733.51,136.08 731.84,136.63 726.27,139.41 725.15,142.75 723.48,146.09 723.48,149.43 721.25,152.76 
		717.35,154.99 712.34,160.55 717.35,161.11 715.12,163.33 717.91,163.89 718.47,166.11 720.7,166.67 721.25,171.12 724.04,171.67 
		724.6,168.89 	"/>
	<path class="st0" d="M751.07,108.54h3.9l1.67,4.45h6.69l1.67,7.79h2.23l2.79,4.45l-2.79,8.34h-3.34h-4.46l-2.79,4.45l-7.25,5.01
		v5.56l-1.11,3.89l-8.36-1.67l-1.11-2.78l-3.9,4.45h-1.11l-2.79,3.89l-1.67,0.56l-5.57,2.78v1.67l-2.79,6.12l-3.34,1.11l-1.67-2.78
		v-3.89v-3.34l-5.57-1.11c0,0,0-1.11-1.67,0.56c-1.67,1.67-3.34,1.67-3.34,1.67l-6.69-3.34l-2.79,2.22l-1.11,1.11l-1.67-9.46
		c0,0-2.79-5.56,0-6.67c2.79-1.11,9.47-5.01,9.47-5.01c-1.11-2.22-1.67-5.01-1.67-5.01l-0.56-3.89l1.11-11.68l-3.34-0.56v-3.34
		l5.57-5.56h3.9c3.34-0.56,8.36-3.34,8.36-3.34h1.67l6.13,1.11l2.79,0.56l4.46-1.67l5.57,2.78c1.67,2.22,7.8,1.67,7.8,1.67
		l3.34-1.11H751.07z"/>
	<path class="st0" d="M647.98,122.85l4.45,224.41c0,0,0.89,11.25,3.56,13.24s37.42,8.61,40.09,15.23l0.89,7.28c0,0,0,1.32-5.35-1.99
		c-5.35-3.31-17.82-13.9-30.29-12.58c-12.47,1.32-26.73,3.97-37.42,14.56v1.99h-8.02c0,0,4.01-13.57,27.17-20.19
		c0,0-35.64,7.28-42.76,19.86L589.63,384c0,0,16.93-21.85,49.89-28.47l-0.89-38.4c0,0-1.78-187.34,0.89-194.62l-0.89-8.61
		L647.98,122.85z"/>
	<polygon class="st0" points="639.05,126.16 639.07,249.29 638.3,273.45 643.53,273.12 643.53,267.82 645.76,120.86 	"/>
	<polygon class="st0" points="622.59,125.84 640.03,127.47 648.19,123.46 657.78,119.5 664.18,119.5 682.31,123.46 683.37,119.5 
		694.04,123.46 697.24,123.46 697.24,113.95 706.83,113.95 706.83,108.41 697.24,106.03 703.63,97.31 701.5,95.73 710.03,87.01 
		705.77,72.75 705.77,60.87 710.03,46.61 691.91,44.23 688.71,47.4 678.04,57.7 672.71,60.08 658.85,58.49 655.65,63.24 
		648.19,73.54 642.85,76.71 636.46,79.09 633.26,79.88 622.59,83.84 620.46,88.6 617.26,93.35 617.26,98.11 613,102.86 
		605.53,106.03 595.94,113.95 605.53,114.75 601.27,117.91 606.6,118.71 607.67,121.88 611.93,122.67 613,129.01 618.33,129.8 
		619.4,125.84 	"/>
	<path class="st0" d="M670.05,39.87h7.46l3.2,6.34h12.8l3.2,11.09h4.27l5.33,6.34l-5.33,11.88h-6.4h-8.53l-5.33,6.34l-13.86,7.13
		v7.92l-2.13,5.55l-15.99-2.38l-2.13-3.96l-7.46,6.34h-2.13l-5.33,5.55l-3.2,0.79l-10.66,3.96v2.38l-5.33,8.72l-6.4,1.58l-3.2-3.96
		v-5.55v-4.75l-10.66-1.58c0,0,0-1.58-3.2,0.79c-3.2,2.38-6.4,2.38-6.4,2.38l-12.8-4.75l-5.33,3.17l-2.13,1.58l-3.2-13.47
		c0,0-5.33-7.92,0-9.51c5.33-1.58,18.13-7.13,18.13-7.13c-2.13-3.17-3.2-7.13-3.2-7.13l-1.07-5.55l2.13-16.64l-6.4-0.79v-4.75
		l10.66-7.92h7.46c6.4-0.79,15.99-4.75,15.99-4.75h3.2l11.73,1.58l5.33,0.79l8.53-2.38l10.66,3.96c3.2,3.17,14.93,2.38,14.93,2.38
		l6.4-1.58H670.05z"/>
	<path class="st0" d="M652.07,133.42l2.37-7.62l-1.17-1.47l1.19-3.81l2.65,0.66l2.06-0.07l2.3-4.77l0.62-0.69l4.44,1.44l2.45-1.34
		l2-2.5l5.23-1.1l1.93,0.35l2.45-1.34l3.5,0.55c0,0,4.74-0.83,6.48-2.48c1.74-1.65,1.74-1.65,1.74-1.65s0.17-1.85,1.08,0.47
		s1.1,4.32,1.1,4.32l3.23,1.4l4.32-3.42l2.68-0.76l0.65,3.16l-1.87,2.07l-5.36,1.52l-0.92,2.96l1.27,2.47l2.61,2.09l1.5,3.05
		l-1.9,3.5l-3.01-0.82l1.04,1.89c0,0,0.81,1.31,1.23,3.9c0.42,2.58,0.42,2.58,0.42,2.58l0,0l-7.23,3.6l-0.92,2.96l1.95,4.21
		l-0.04,1.43l-4.65,1.84c0,0-1.44-0.62-1.66-1.2c-0.23-0.58-2.84-2.67-2.84-2.67l-1.96,1.07c0,0,6.1,7.92,0.78,2.74
		c-5.32-5.18-5.45-4.76-5.45-4.76l-0.89,1.54l-0.96,4.39l3.01,0.82l-5.36,1.52l-0.06-2.43l-1.37-3.47l-8.04-2.99l-4.19,2.99
		l-0.68-1.74l-4.54-2.44l-0.32-1.58l0.73-4.97l-1.8-0.78l0.07-2.85l-0.1-1L652.07,133.42z"/>
	<path class="st0" d="M560.13,389.08c0,0-18.7-9.59-18.7-13.62s-8.59-207.85-6.07-228.03c0,0,3.54-9.08,6.07-11.1
		c2.53-2.02,1.52-8.58,1.52-8.58l-6.57,10.09l-1.52-10.09h-3.03v13.62l-13.14-8.58l1.52,8.58l7.58,7.06c0,0,5.05,203.81,5.56,216.42
		c0,0-27.8,14.63-27.29,26.23l8.59,0.5c0,0,13.65-19.67,17.19-18.67c3.54,1.01,5.05,8.07,8.59,8.58c3.54,0.5,13.14,7.57,14.15,8.07
		S560.13,389.08,560.13,389.08z"/>
	<path class="st0" d="M535.37,93.45h-10.61l-3.54-3.53h-5.05l-2.02,1.51h-5.56l-6.07,3.03l-2.02,3.03l-5.05,2.02l-3.54,3.03v4.04
		h5.05l1.52,4.04l-4.04,2.02v2.02l-2.53,1.51l-1.52,4.54l-0.51,4.54l0.51,4.04l3.03,8.07h4.04h5.56l1.52-1.01l1.52,1.01h3.03
		l8.59-2.02l-3.03,7.57l4.04,1.51l3.14-1.51l3.43-2.02l6.57-6.05l3.54,2.02c1.52,0,6.07,0,6.07,0l2.02-1.01l4.55,0.5v-2.02
		l3.03-1.51l2.53-1.51h2.02l10.11,1.51v-2.02l1.52-5.04l-1.52-4.04c2.02-1.01,6.57-1.51,6.57-1.51l0.51,1.51l6.57,2.52
		c3.03-2.52,3.54-5.04,3.54-5.04l4.04-2.02l-1.52-5.04l-4.04-4.54l-4.04-3.53l-2.53-6.56h-2.02l-4.55,0.5l-4.04,0.5l-2.02-2.02
		l-2.02-1.51h-2.53l-1.52,0.5l-4.55-2.52l-3.03-3.03h-3.54l-2.53,2.02l-2.02,0.5L535.37,93.45z"/>
	<path class="st0" d="M554.13,107.09l-3.13-8.53l1.55-1.64l-1.57-4.26l-3.5,0.74l-2.72-0.08l-3.04-5.34l-0.82-0.77l-5.87,1.61
		l-3.24-1.5l-2.64-2.79l-6.91-1.23l-2.55,0.39l-3.24-1.5l-4.62,0.62c0,0-6.26-0.93-8.56-2.78c-2.29-1.85-2.29-1.85-2.29-1.85
		s-0.22-2.07-1.42,0.52c-1.2,2.59-1.46,4.83-1.46,4.83l-4.27,1.56l-5.71-3.82l-3.54-0.85l-0.85,3.54l2.47,2.32l7.09,1.71l1.22,3.32
		l-1.68,2.76l-3.45,2.34l-1.98,3.41l2.52,3.92l3.97-0.92l-1.38,2.12c0,0-1.08,1.47-1.63,4.36c-0.55,2.89-0.55,2.89-0.55,2.89l0,0
		l9.55,4.03l1.22,3.32l-2.58,4.7l0.05,1.59l6.14,2.05c0,0,1.9-0.69,2.2-1.34s3.75-2.98,3.75-2.98l2.59,1.2c0,0-8.05,8.86-1.03,3.06
		c7.02-5.79,7.2-5.32,7.2-5.32l1.17,1.72l1.27,4.91l-3.97,0.92l7.09,1.71l0.08-2.72l1.8-3.88l10.61-3.35l5.54,3.35l0.9-1.94l6-2.73
		l0.43-1.77l-0.96-5.56l2.37-0.87l-0.09-3.19l0.13-1.12L554.13,107.09z"/>
	<polygon class="st1" points="527.78,148.44 532.84,364.87 535.37,341.16 532.84,148.44 	"/>
	<path class="st0" d="M647.52,385.52c0,0,14.16-8.57,14.16-12.18c0-3.61,6.5-185.81,4.59-203.85c0,0-2.68-8.12-4.59-9.92
		c-1.91-1.8-1.15-7.67-1.15-7.67l4.97,9.02l1.15-9.02h2.3v12.18l9.95-7.67l-1.15,7.67l-5.74,6.31c0,0-3.83,182.21-4.21,193.48
		c0,0,21.04,13.08,20.66,23.45l-6.5,0.45c0,0-10.33-17.59-13.01-16.69c-2.68,0.9-3.83,7.22-6.5,7.67
		c-2.68,0.45-9.95,6.77-10.71,7.22C650.97,386.42,647.52,385.52,647.52,385.52z"/>
	<path class="st0" d="M666.27,121.23h8.04l2.68-3.16h3.83l1.53,1.35h4.21l4.59,2.71l1.53,2.71l3.83,1.8l2.68,2.71v3.61h-3.83
		l-1.15,3.61l3.06,1.8v1.8l1.91,1.35l1.15,4.06l0.38,4.06l-0.38,3.61l-2.3,7.22h-3.06h-4.21l-1.15-0.9l-1.15,0.9h-2.3l-6.5-1.8
		l2.3,6.77l-3.06,1.35l-2.38-1.35l-2.6-1.8l-4.97-5.41l-2.68,1.8c-1.15,0-4.59,0-4.59,0l-1.53-0.9l-3.44,0.45v-1.8l-2.3-1.35
		l-1.91-1.35h-1.53l-7.65,1.35v-1.8l-1.15-4.51l1.15-3.61c-1.53-0.9-4.97-1.35-4.97-1.35l-0.38,1.35l-4.97,2.26
		c-2.3-2.26-2.68-4.51-2.68-4.51l-3.06-1.8l1.15-4.51l3.06-4.06l3.06-3.16l1.91-5.86h1.53l3.44,0.45l3.06,0.45l1.53-1.8l1.53-1.35
		h1.91l1.15,0.45l3.44-2.26l2.3-2.71H659l1.91,1.8l1.53,0.45L666.27,121.23z"/>
	<path class="st0" d="M691.44,120.22l6.13,5.56c0,0,1.11,100.12,2.23,104.02l0.32,33.57l2.46-12.99v-19.47l-2.79-65.64l1.67-11.68
		v-13.91l-2.23-7.79C699.24,131.9,701.47,126.9,691.44,120.22z"/>
	<path class="st0" d="M603.34,132c0,0,1.76,201.01,7.05,223.85c0,0,1.17,27.41,2.35,27.41s17.04,22.84,17.04,22.84h-3.52
		c0,0-11.16-17.13-12.92-17.7c-1.76-0.57-12.92,1.14-14.1,18.84h-4.11c0,0,2.94-21.13,11.16-23.41l-0.88-25.98
		c0,0-23.5,5.14-27.02,18.84s0,21.7,0,21.7l5.29,4.57l-1.17,4h-11.75c0,0-4.11-36.55,14.1-49.11
		c18.21-12.56,18.21-10.85,18.21-10.85s-6.46-142.19-4.7-147.33c1.76-5.14-1.17-62.24-1.17-62.24l-7.64-7.42h5.29l4.11,2.86v-4.57
		h4.7L603.34,132z"/>
	<path class="st0" d="M651.79,141.48c0,0-11.23-32.59-27.16-33.05s-54.38-0.53-57.94,3.37c-3.56,3.9-17.55,7.15-17.55,7.15l7.57,6.9
		l5.31,10.87l5.11,2.89l-4.12,4.89l3.19,5.08l5.67-1.06l3.1-5.47l3.4-0.05l0.07,4.63l0.18,2.07l3.17-0.83l1.64-1.7l4.14,1.03
		l4.3-2.82l-1.15-3.93l2.77-3.69l5.73,0.61l5.3,0.62l5.87,4.49l7.67,0.94l3.53,3.3l0.13,3.35l2.05,1.16l3.88,7.44l3.81,2.81
		l3.45-1.33l-0.64-3.64l-2.17-4.51l-2.4-5.29l-0.87-4.43l-0.92-3.14l3.68-0.54l3.58,2.02l5.24,6.24l2.15-1.41l1.13-1.99l2.38-0.62
		l4.14,1.03l1.41-2.49L651.79,141.48z"/>
	<path class="st0" d="M622.27,134c0,0-3.07-1.73-4.6-2.6c-1.53-0.87-7.16-4.04-7.16-4.04l-8.9,0.22l-6.57,0.88l-2.12-5.79
		l-2.86-6.86l1.41-2.49l-3.58-2.02l-6.91,2.66l-0.77,6.13l-3.74,1.83l-4.19,0.26l-0.88,8.69l-3.17,0.83l-2.33-0.66l-5.62-3.18
		l-2.07-7.07l2.54-4.47l-5.96-1.4l-5.25,6.88l-2.48,3.19c0,0,0.79-0.21-5.27,0.96c-6.06,1.17-4.48,0.75-4.48,0.75l-5.55,1.46
		l-4.94-0.82l-2.05-1.16l-1.27-7.28l2.43-1.91l8.26-3.86l5.09-3.03l2.97-8.82l1.74-4.26l8.34,0.77c0,0,1.59-0.42,2.15-1.41
		c0.56-0.99-0.87-4.43-0.87-4.43l-0.69-2.36l4.76-1.25l1.64-1.7l4.74-7.17l4.19-0.26l7.65-1.59l1.53,0.87l3.58,2.02l3.91,0.24
		l-1.51,5.05l5.11,2.89l7.14-1.87l3.66-6.46l4.3-2.82l3.76,4.09l4.94,0.82c0,0,1.99,2.44,3.58,2.02c1.59-0.42,4.6,2.6,4.6,2.6
		l4.09,2.31l3.07,1.73l-1.41,2.49l-3.74,1.83l-7.49-2.26l2.45,4.01l5.39,2.39l-2.36,6.54l-1.92,2.2l-1.92,2.2l2.58,7.36l3.17-0.83
		c2.38-0.62,6.68-3.45,6.68-3.45l3.58,2.02l2.84,0.95l-1.13,1.99l2.12,5.79c-1.18,3.27-1.69,2.98-1.69,2.98l-8.67,1.01l-2.89,0.34
		L622.27,134z"/>
	<path class="st0" d="M591,131.43l6.46,5.71c0,0,1.17,102.79,2.35,106.79l0.34,34.46l2.6-13.33v-19.99l-2.94-67.38l1.76-11.99
		v-14.28l-2.35-7.99C599.23,143.42,601.58,138.28,591,131.43z"/>
	<polygon class="st0" points="666.36,168.62 670.26,180.85 668.03,278.2 664.65,278.2 	"/>
	<path class="st0" d="M752.74,99.64c0,0-24.52-22.25-37.9-15.02c-13.38,7.23-45.14,25.59-46.26,30.59
		c-1.11,5.01-11.15,14.46-11.15,14.46l9.47,2.22l9.47,6.67h5.57l-1.11,6.12l5.02,2.78l4.18-3.62v-6.12l2.79-1.67l2.23,3.89
		l1.11,1.67l2.23-2.22l0.56-2.22l3.9-1.11l2.23-4.45l-2.79-2.78l0.56-4.45l5.02-2.22l4.67-2.02l6.95,1l6.78-2.88l4.46,1.11
		l1.67,2.78h2.23l6.69,4.45l4.46,0.56l2.23-2.78l-2.23-2.78l-3.9-2.78l-4.46-3.34l-2.79-3.34l-2.23-2.22l2.79-2.22h3.9l7.25,2.78
		l1.11-2.22v-2.22l1.67-1.67l3.9-1.11v-2.78L752.74,99.64z"/>
	<path class="st0" d="M724.88,107.43c0,0-3.34,0-5.02,0s-7.8,0-7.8,0l-7.25,4.45l-5.02,3.89l-4.46-3.89l-5.57-4.45v-2.78h-3.9
		l-4.46,5.56l2.23,5.56l-2.23,3.34l-3.34,2.22l3.34,7.79l-2.23,2.22l-2.23,0.56h-6.13l-5.02-5.01v-5.01l-5.57,1.67l-1.11,8.34
		l-0.56,3.89c0,0,0.56-0.56-3.9,3.34c-4.46,3.89-3.34,2.78-3.34,2.78l-3.9,3.89l-4.46,1.67h-2.23l-4.46-5.56l1.11-2.78l5.02-7.23
		l2.79-5.01l-1.67-8.9l-0.56-4.45l7.25-3.34c0,0,1.11-1.11,1.11-2.22c0-1.11-2.79-3.34-2.79-3.34l-1.67-1.67l3.34-3.34l0.56-2.22
		l0.56-8.34l3.34-2.22l5.57-5.01h1.67h3.9l3.34-1.67l1.11,5.01h5.57l5.02-5.01v-7.23l2.23-4.45l5.02,1.67l4.46-1.67
		c0,0,2.79,1.11,3.9,0c1.11-1.11,5.02,0,5.02,0h4.46h3.34v2.78l-2.23,3.34l-7.25,1.67l3.9,2.22l5.57-0.56l1.11,6.67l-0.56,2.78
		l-0.56,2.78l5.57,5.01l2.23-2.22c1.67-1.67,3.9-6.12,3.9-6.12h3.9l2.79-0.56v2.22l4.46,3.89c0.56,3.34,0,3.34,0,3.34l-6.69,5.01
		l-2.23,1.67L724.88,107.43z"/>
</g>
<path class="st5" d="M57.13,429.17c0,0,41.19,13.95,51.82,11.96s10.63,11.29,33.88,3.32c23.25-7.97,33.88,2.66,33.88,2.66l21.92-9.3
	l41.19-5.31c0,0,50.49-0.66,71.08,0c20.59,0.66,31.22-14.62,53.15-3.32s-23.95,38.14,28.22,14.42s45.53-33.69,55.49-22.39
	s38.58,27.62,59.15,21.45c20.57-6.17,23.54,0.54,23.54,0.54s-2.31,15.88,18.95,13.22c21.26-2.66,51.15-8.64,50.49-11.96
	c-0.66-3.32-3.99-20.59,7.97-15.28c11.96,5.31,51.82,11.29,49.83,7.31c-1.99-3.99,13.95-3.99,13.95-3.99s23.25,1.99,25.25-3.32
	s46.5-8.64,55.81-6.64c9.3,1.99,29.23,9.3,32.55,1.99s-27.9-21.92-19.27-23.92c8.64-1.99,20.59-7.31-13.29-6.64
	c-33.88,0.66-31.89,11.29-33.88,13.29s-16.61,6.64-43.85,3.99s-19.27-9.97-29.9,0c-10.63,9.97-49.16-3.99-49.16-3.99
	s-55.14-4.65-51.15,0s-3.77,6.15-40.75,3.74c-36.98-2.41-32.99-1.74-50.26,0.25s-31.22-7.64-52.48-8.8
	c-21.26-1.16-40.53-9.14-37.2-1.83s15.53,17.44-28.77,10.38c-44.3-7.06-39.67-5.56-53.95,0c-14.27,5.56-42.1,3.57-62.07-3.74
	s-35.91-3.32-29.94,3.99s59.13,15.94,11.29,7.97s-94.22-20.5-94.94-12.24c-0.72,8.26,27.84,15.57-0.72,8.26s-49.69-17.27-51.09-7.97
	s37.8,13.29-1.4,10.63c-39.2-2.66-56.47-11.96-39.2,1.33S57.13,429.17,57.13,429.17z"/>
<g>
	<path class="st3" d="M544.76,393.96"/>
	<path class="st3" d="M431.16,108.95c0,0-1.99,233.85-7.97,260.42c0,0-1.33,31.89-2.66,31.89c-1.33,0-19.27,26.57-19.27,26.57h3.99
		c0,0,12.62-19.93,14.62-20.59s14.62,1.33,15.94,21.92h4.65c0,0-3.32-24.58-12.62-27.24l1-30.23c0,0,26.57,5.98,30.56,21.92
		c3.99,15.94,0,25.25,0,25.25l-5.98,5.31l1.33,4.65h13.29c0,0,4.65-42.52-15.94-57.13c-20.59-14.62-20.59-12.62-20.59-12.62
		s7.31-165.42,5.31-171.4s1.33-72.41,1.33-72.41l8.64-8.64h-5.98l-4.65,3.32v-5.31h-5.31L431.16,108.95z"/>
	<path class="st3" d="M385.98,162.76l-3.32,225.21c0,0-0.66,11.29-2.66,13.29c-1.99,1.99-27.9,8.64-29.9,15.28l-0.66,7.31
		c0,0,0,1.33,3.99-1.99c3.99-3.32,13.29-13.95,22.59-12.62c9.3,1.33,19.93,3.99,27.9,14.62v1.99h5.98c0,0-2.99-13.62-20.26-20.26
		c0,0,26.57,7.31,31.89,19.93l7.97-0.66c0,0-12.62-21.92-37.2-28.57l0.66-38.53c0,0,1.33-188.01-0.66-195.32l0.66-8.64
		L385.98,162.76z"/>
	<polygon class="st3" points="392.65,166.09 392.63,289.65 393.21,313.9 389.31,313.57 389.31,308.26 387.65,160.77 	"/>
	<polygon class="st3" points="403.59,166.42 392.73,167.79 387.65,164.43 381.67,161.1 377.68,161.1 366.39,164.43 365.72,161.1 
		359.08,164.43 357.09,164.43 357.09,156.45 351.11,156.45 351.11,151.8 357.09,149.81 353.1,142.5 354.43,141.17 349.11,133.87 
		351.77,121.91 351.77,111.94 349.11,99.98 360.41,97.99 362.4,100.65 369.04,109.28 372.37,111.28 381,109.95 383,113.94 
		387.65,122.57 390.97,125.23 394.95,127.22 396.95,127.89 403.59,131.21 404.92,135.19 406.91,139.18 406.91,143.17 409.57,147.15 
		414.22,149.81 420.2,156.45 414.22,157.12 416.88,159.78 413.56,160.44 412.89,163.1 410.23,163.76 409.57,169.08 406.25,169.74 
		405.58,166.42 	"/>
	<path class="st3" d="M374.03,94.34h-4.65l-1.99,5.31h-7.97l-1.99,9.3h-2.66l-3.32,5.31l3.32,9.97h3.99h5.31l3.32,5.31l8.64,5.98
		v6.64l1.33,4.65l9.97-1.99l1.33-3.32l4.65,5.31h1.33l3.32,4.65l1.99,0.66l6.64,3.32v1.99l3.32,7.31l3.99,1.33l1.99-3.32v-4.65
		v-3.99l6.64-1.33c0,0,0-1.33,1.99,0.66c1.99,1.99,3.99,1.99,3.99,1.99l7.97-3.99l3.32,2.66l1.33,1.33l1.99-11.29
		c0,0,3.32-6.64,0-7.97s-11.29-5.98-11.29-5.98c1.33-2.66,1.99-5.98,1.99-5.98l0.66-4.65l-1.33-13.95l3.99-0.66v-3.99l-6.64-6.64
		h-4.65c-3.99-0.66-9.97-3.99-9.97-3.99h-1.99l-7.31,1.33l-3.32,0.66l-5.31-1.99l-6.64,3.32c-1.99,2.66-9.3,1.99-9.3,1.99
		l-3.99-1.33H374.03z"/>
	<path class="st3" d="M496.91,111.42l-5.31,268.03c0,0-1.06,13.44-4.25,15.81c-3.19,2.37-44.6,10.28-47.79,18.18l-1.06,8.7
		c0,0,0,1.58,6.37-2.37c6.37-3.95,21.24-16.6,36.11-15.02c14.87,1.58,31.86,4.74,44.6,17.39v2.37h9.56c0,0-4.78-16.21-32.39-24.11
		c0,0,42.48,8.7,50.98,23.72l12.74-0.79c0,0-20.18-26.09-59.47-34l1.06-45.86c0,0,2.12-223.75-1.06-232.45l1.06-10.28L496.91,111.42
		z"/>
	<polygon class="st3" points="507.56,115.38 507.53,262.44 508.46,291.29 502.22,290.9 502.22,284.57 499.57,109.05 	"/>
	<polygon class="st3" points="527.17,114.99 506.39,116.94 496.67,112.16 485.23,107.42 477.6,107.42 455.99,112.16 454.72,107.42 
		442.01,112.16 438.2,112.16 438.2,100.8 426.76,100.8 426.76,94.18 438.2,91.34 430.57,80.93 433.11,79.04 422.94,68.63 
		428.03,51.59 428.03,37.4 422.94,20.36 444.55,17.53 448.37,21.31 461.08,33.61 467.43,36.45 483.96,34.56 487.77,40.24 
		496.67,52.54 503.02,56.32 510.65,59.16 514.46,60.11 527.17,64.84 529.72,70.52 533.53,76.2 533.53,81.87 538.61,87.55 
		547.51,91.34 558.95,100.8 547.51,101.75 552.6,105.53 546.24,106.48 544.97,110.26 539.89,111.21 538.61,118.78 532.26,119.73 
		530.99,114.99 	"/>
	<path class="st3" d="M470.61,12.32h-8.9l-3.81,7.57h-15.25l-3.81,13.25h-5.08l-6.36,7.57l6.36,14.19h7.63h10.17l6.36,7.57
		l16.52,8.52v9.46l2.54,6.62l19.07-2.84l2.54-4.73l8.9,7.57h2.54l6.36,6.62l3.81,0.95l12.71,4.73v2.84l6.36,10.41l7.63,1.89
		l3.81-4.73v-6.62v-5.68l12.71-1.89c0,0,0-1.89,3.81,0.95c3.81,2.84,7.63,2.84,7.63,2.84l15.25-5.68l6.36,3.79l2.54,1.89l3.81-16.09
		c0,0,6.36-9.46,0-11.36s-21.61-8.52-21.61-8.52c2.54-3.79,3.81-8.52,3.81-8.52l1.27-6.62l-2.54-19.87l7.63-0.95v-5.68l-12.71-9.46
		h-8.9c-7.63-0.95-19.07-5.68-19.07-5.68h-3.81l-13.98,1.89l-6.36,0.95l-10.17-2.84l-12.71,4.73c-3.81,3.79-17.8,2.84-17.8,2.84
		l-7.63-1.89H470.61z"/>
	<path class="st3" d="M492.04,124.05l-2.83-9.1l1.4-1.75l-1.41-4.55l-3.15,0.79l-2.46-0.08l-2.74-5.7l-0.74-0.83l-5.3,1.72
		l-2.93-1.6l-2.38-2.98l-6.24-1.32l-2.3,0.42l-2.93-1.6l-4.17,0.66c0,0-5.65-0.99-7.72-2.97c-2.07-1.97-2.07-1.97-2.07-1.97
		s-0.2-2.21-1.28,0.56c-1.08,2.76-1.31,5.16-1.31,5.16l-3.85,1.67l-5.15-4.08l-3.2-0.91l-0.77,3.78l2.23,2.48l6.39,1.82l1.1,3.54
		l-1.51,2.95l-3.11,2.49l-1.78,3.64l2.27,4.18l3.58-0.98l-1.24,2.26c0,0-0.97,1.57-1.47,4.65c-0.5,3.08-0.5,3.08-0.5,3.08l0,0
		l8.62,4.3l1.1,3.54l-2.33,5.02l0.04,1.7l5.54,2.19c0,0,1.71-0.74,1.98-1.43s3.38-3.19,3.38-3.19l2.34,1.28c0,0-7.27,9.46-0.93,3.27
		s6.5-5.68,6.5-5.68l1.06,1.84l1.14,5.24l-3.58,0.98l6.39,1.82l0.07-2.9l1.63-4.15l9.58-3.57l5,3.57l0.81-2.07l5.41-2.92l0.39-1.89
		l-0.87-5.93l2.14-0.93l-0.09-3.41l0.11-1.2L492.04,124.05z"/>
	<path class="st3" d="M601.63,429.4c0,0,22.29-11.45,22.29-16.27s10.24-248.24,7.23-272.34c0,0-4.22-10.85-7.23-13.26
		c-3.01-2.41-1.81-10.24-1.81-10.24l7.83,12.05l1.81-12.05h3.62v16.27l15.67-10.24l-1.81,10.24l-9.04,8.44
		c0,0-6.03,243.42-6.63,258.49c0,0,33.14,17.47,32.54,31.33l-10.24,0.6c0,0-16.27-23.5-20.49-22.29
		c-4.22,1.21-6.03,9.64-10.24,10.24s-15.67,9.04-16.87,9.64C607.05,430.6,601.63,429.4,601.63,429.4z"/>
	<path class="st3" d="M631.15,76.32h12.65l4.22-4.22h6.03l2.41,1.81h6.63l7.23,3.62l2.41,3.62l6.03,2.41l4.22,3.62v4.82h-6.03
		l-1.81,4.82l4.82,2.41v2.41l3.01,1.81l1.81,5.42l0.6,5.42l-0.6,4.82l-3.62,9.64h-4.82h-6.63l-1.81-1.21l-1.81,1.21h-3.62
		l-10.24-2.41l3.62,9.04l-4.82,1.81l-3.74-1.81l-4.09-2.41l-7.83-7.23l-4.22,2.41c-1.81,0-7.23,0-7.23,0l-2.41-1.21l-5.42,0.6v-2.41
		l-3.62-1.81l-3.01-1.81h-2.41L595,123.31v-2.41l-1.81-6.03l1.81-4.82c-2.41-1.21-7.83-1.81-7.83-1.81l-0.6,1.81l-7.83,3.01
		c-3.62-3.01-4.22-6.03-4.22-6.03l-4.82-2.41l1.81-6.03l4.82-5.42l4.82-4.22l3.01-7.83h2.41l5.42,0.6l4.82,0.6l2.41-2.41l2.41-1.81
		h3.01l1.81,0.6l5.42-3.01l3.62-3.62h4.22l3.01,2.41l2.41,0.6L631.15,76.32z"/>
	<path class="st3" d="M608.79,92.6l3.73-10.18l-1.85-1.96l1.87-5.09l4.17,0.89l3.24-0.09l3.62-6.37l0.98-0.92l7,1.92l3.87-1.79
		l3.15-3.34l8.24-1.47l3.04,0.47l3.87-1.79l5.51,0.74c0,0,7.47-1.11,10.2-3.32c2.73-2.21,2.73-2.21,2.73-2.21s0.26-2.47,1.7,0.62
		s1.74,5.77,1.74,5.77l5.09,1.87l6.81-4.56l4.22-1.02l1.02,4.22l-2.94,2.77l-8.45,2.04l-1.45,3.96l2,3.3l4.11,2.79l2.36,4.07
		l-3,4.68l-4.73-1.09l1.64,2.53c0,0,1.28,1.75,1.94,5.2c0.66,3.45,0.66,3.45,0.66,3.45l0,0l-11.39,4.81l-1.45,3.96l3.07,5.62
		l-0.06,1.9l-7.32,2.45c0,0-2.26-0.83-2.62-1.6c-0.36-0.77-4.47-3.56-4.47-3.56l-3.09,1.43c0,0,9.6,10.58,1.23,3.66
		c-8.37-6.92-8.58-6.35-8.58-6.35l-1.4,2.06l-1.51,5.86l4.73,1.09l-8.45,2.04l-0.09-3.24l-2.15-4.64l-12.65-4l-6.6,4l-1.07-2.32
		l-7.15-3.26l-0.51-2.11l1.15-6.64l-2.83-1.04l0.11-3.81l-0.15-1.34L608.79,92.6z"/>
	<polygon class="st4" points="640.19,141.99 634.17,400.48 631.15,372.16 634.17,141.99 	"/>
	<path class="st3" d="M497.46,425.15c0,0-16.88-10.23-16.88-14.54s-7.75-221.93-5.47-243.47c0,0,3.19-9.7,5.47-11.85
		c2.28-2.15,1.37-9.16,1.37-9.16l-5.93,10.77l-1.37-10.77h-2.74v14.54l-11.86-9.16l1.37,9.16l6.84,7.54c0,0,4.56,217.62,5.02,231.08
		c0,0-25.09,15.62-24.63,28.01l7.75,0.54c0,0,12.31-21.01,15.51-19.93c3.19,1.08,4.56,8.62,7.75,9.16
		c3.19,0.54,11.86,8.08,12.77,8.62C493.35,426.22,497.46,425.15,497.46,425.15z"/>
	<path class="st3" d="M475.11,109.49h-9.58l-3.19-3.77h-4.56l-1.82,1.62h-5.02l-5.47,3.23l-1.82,3.23l-4.56,2.15l-3.19,3.23v4.31
		h4.56l1.37,4.31l-3.65,2.15v2.15l-2.28,1.62l-1.37,4.85l-0.46,4.85l0.46,4.31l2.74,8.62h3.65h5.02l1.37-1.08l1.37,1.08h2.74
		l7.75-2.15l-2.74,8.08l3.65,1.62l2.83-1.62l3.1-2.15l5.93-6.46l3.19,2.15c1.37,0,5.47,0,5.47,0l1.82-1.08l4.1,0.54v-2.15l2.74-1.62
		l2.28-1.62h1.82l9.12,1.62v-2.15l1.37-5.39l-1.37-4.31c1.82-1.08,5.93-1.62,5.93-1.62l0.46,1.62l5.93,2.69
		c2.74-2.69,3.19-5.39,3.19-5.39l3.65-2.15l-1.37-5.39l-3.65-4.85l-3.65-3.77l-2.28-7h-1.82l-4.1,0.54l-3.65,0.54l-1.82-2.15
		l-1.82-1.62h-2.28l-1.37,0.54l-4.1-2.69l-2.74-3.23h-3.19l-2.28,2.15l-1.82,0.54L475.11,109.49z"/>
	<path class="st3" d="M445.11,108.29l-7.31,6.64c0,0-1.33,119.58-2.66,124.23l-0.39,40.09l-2.94-15.51v-23.25l3.32-78.39
		l-1.99-13.95v-16.61l2.66-9.3C435.81,122.24,433.15,116.26,445.11,108.29z"/>
	<path class="st3" d="M550.13,122.35c0,0-2.1,240.07-8.4,267.35c0,0-1.4,32.74-2.8,32.74c-1.4,0-20.31,27.28-20.31,27.28h4.2
		c0,0,13.31-20.46,15.41-21.14c2.1-0.68,15.41,1.36,16.81,22.51h4.9c0,0-3.5-25.23-13.31-27.96l1.05-31.03
		c0,0,28.01,6.14,32.21,22.51c4.2,16.37,0,25.92,0,25.92l-6.3,5.46l1.4,4.77H589c0,0,4.9-43.65-16.81-58.65
		c-21.71-15-21.71-12.96-21.71-12.96s7.7-169.82,5.6-175.96c-2.1-6.14,1.4-74.34,1.4-74.34l9.1-8.87h-6.3l-4.9,3.41v-5.46h-5.6
		L550.13,122.35z"/>
	<path class="st3" d="M492.38,133.68c0,0,13.38-38.92,32.38-39.48c18.99-0.56,64.82-0.63,69.06,4.02
		c4.24,4.65,20.92,8.54,20.92,8.54l-9.02,8.24l-6.33,12.99l-6.1,3.45l4.91,5.84l-3.81,6.07l-6.75-1.27l-3.69-6.53l-4.06-0.06
		l-0.09,5.53l-0.21,2.47l-3.78-0.99l-1.95-2.03l-4.94,1.23l-5.12-3.37l1.37-4.69l-3.3-4.4l-6.83,0.73l-6.32,0.74l-6.99,5.37
		l-9.15,1.12l-4.2,3.95l-0.15,4l-2.44,1.38l-4.63,8.89l-4.54,3.35l-4.12-1.59l0.76-4.35l2.59-5.38l2.86-6.32l1.03-5.29l1.09-3.75
		l-4.39-0.65l-4.27,2.41l-6.24,7.45l-2.56-1.68l-1.34-2.37l-2.84-0.75l-4.94,1.23l-1.68-2.97L492.38,133.68z"/>
	<path class="st3" d="M527.56,124.74c0,0,3.66-2.07,5.49-3.1c1.83-1.03,8.53-4.83,8.53-4.83l10.61,0.27l7.84,1.05l2.53-6.91
		l3.41-8.2l-1.68-2.97l4.27-2.41l8.23,3.18l0.92,7.32l4.45,2.18l5,0.31l1.05,10.38l3.78,0.99l2.77-0.79l6.7-3.79l2.46-8.45
		l-3.02-5.34l7.1-1.67l6.26,8.21l2.96,3.81c0,0-0.95-0.25,6.28,1.15c7.23,1.4,5.34,0.9,5.34,0.9l6.62,1.74l5.88-0.98l2.44-1.38
		l1.52-8.69l-2.9-2.28l-9.85-4.61l-6.07-3.62l-3.55-10.53l-2.08-5.09l-9.94,0.92c0,0-1.89-0.5-2.56-1.68
		c-0.67-1.19,1.03-5.29,1.03-5.29l0.82-2.82l-5.67-1.49l-1.95-2.03l-5.65-8.56l-5-0.31l-9.12-1.89l-1.83,1.03l-4.27,2.41l-4.66,0.29
		l1.8,6.03l-6.1,3.45l-8.51-2.24l-4.37-7.72l-5.12-3.37l-4.48,4.88l-5.88,0.98c0,0-2.38,2.91-4.27,2.41s-5.49,3.1-5.49,3.1
		l-4.88,2.76l-3.66,2.07l1.68,2.97l4.45,2.18l8.93-2.7l-2.92,4.79l-6.43,2.86l2.81,7.81l2.29,2.62l2.29,2.62l-3.07,8.79l-3.78-0.99
		c-2.84-0.75-7.96-4.12-7.96-4.12l-4.27,2.41l-3.38,1.13l1.34,2.37l-2.53,6.91c1.41,3.91,2.02,3.56,2.02,3.56l10.34,1.2l3.45,0.4
		L527.56,124.74z"/>
	<path class="st3" d="M564.84,121.67l-7.7,6.82c0,0-1.4,122.76-2.8,127.54l-0.41,41.16l-3.09-15.92V257.4l3.5-80.48l-2.1-14.32
		v-17.05l2.8-9.55C555.03,135.99,552.23,129.86,564.84,121.67z"/>
	<polygon class="st3" points="475.01,166.09 470.36,180.7 473.01,296.96 477.04,296.96 	"/>
	<path class="st3" d="M372.03,83.71c0,0,29.23-26.57,45.18-17.94c15.94,8.64,53.81,30.56,55.14,36.54s13.29,17.27,13.29,17.27
		l-11.29,2.66l-11.29,7.97h-6.64l1.33,7.31l-5.98,3.32l-4.98-4.32v-7.31l-3.32-1.99l-2.66,4.65l-1.33,1.99l-2.66-2.66l-0.66-2.66
		l-4.65-1.33l-2.66-5.31l3.32-3.32l-0.66-5.31l-5.98-2.66l-5.56-2.41l-8.28,1.19l-8.08-3.44l-5.31,1.33l-1.99,3.32h-2.66l-7.97,5.31
		l-5.31,0.66l-2.66-3.32l2.66-3.32l4.65-3.32l5.31-3.99l3.32-3.99l2.66-2.66l-3.32-2.66h-4.65l-8.64,3.32L378.34,94v-2.66
		l-1.99-1.99l-4.65-1.33V84.7L372.03,83.71z"/>
	<path class="st3" d="M405.25,93.01c0,0,3.99,0,5.98,0s9.3,0,9.3,0l8.64,5.31l5.98,4.65l5.31-4.65l6.64-5.31v-3.32h4.65l5.31,6.64
		l-2.66,6.64l2.66,3.99l3.99,2.66l-3.99,9.3l2.66,2.66l2.66,0.66h7.31l5.98-5.98v-5.98l6.64,1.99l1.33,9.97l0.66,4.65
		c0,0-0.66-0.66,4.65,3.99c5.31,4.65,3.99,3.32,3.99,3.32l4.65,4.65l5.31,1.99h2.66l5.31-6.64l-1.33-3.32l-5.98-8.64l-3.32-5.98
		l1.99-10.63l0.66-5.31l-8.64-3.99c0,0-1.33-1.33-1.33-2.66c0-1.33,3.32-3.99,3.32-3.99l1.99-1.99l-3.99-3.99l-0.66-2.66l-0.66-9.97
		l-3.99-2.66l-6.64-5.98h-1.99h-4.65l-3.99-1.99l-1.33,5.98h-6.64l-5.98-5.98v-8.64l-2.66-5.31l-5.98,1.99l-5.31-1.99
		c0,0-3.32,1.33-4.65,0c-1.33-1.33-5.98,0-5.98,0h-5.31h-3.99v3.32l2.66,3.99l8.64,1.99l-4.65,2.66l-6.64-0.66l-1.33,7.97l0.66,3.32
		l0.66,3.32l-6.64,5.98l-2.66-2.66c-1.99-1.99-4.65-7.31-4.65-7.31h-4.65l-3.32-0.66v2.66l-5.31,4.65c-0.66,3.99,0,3.99,0,3.99
		l7.97,5.98l2.66,1.99L405.25,93.01z"/>
</g>
<g class="st6">
	<path class="st7" d="M420.53,422.52"/>
	<path class="st7" d="M306.93,137.52c0,0-1.99,233.85-7.97,260.42c0,0-1.33,31.89-2.66,31.89s-19.27,26.57-19.27,26.57h3.99
		c0,0,12.62-19.93,14.62-20.59s14.62,1.33,15.94,21.92h4.65c0,0-3.32-24.58-12.62-27.24l1-30.23c0,0,26.57,5.98,30.56,21.92
		c3.99,15.94,0,25.25,0,25.25l-5.98,5.31l1.33,4.65h13.29c0,0,4.65-42.52-15.94-57.13c-20.59-14.62-20.59-12.62-20.59-12.62
		s7.31-165.42,5.31-171.4c-1.99-5.98,1.33-72.41,1.33-72.41l8.64-8.64h-5.98l-4.65,3.32v-5.31h-5.31L306.93,137.52z"/>
	<path class="st7" d="M261.75,191.33l-3.32,225.21c0,0-0.66,11.29-2.66,13.29c-1.99,1.99-27.9,8.64-29.9,15.28l-0.66,7.31
		c0,0,0,1.33,3.99-1.99c3.99-3.32,13.29-13.95,22.59-12.62c9.3,1.33,19.93,3.99,27.9,14.62v1.99h5.98c0,0-2.99-13.62-20.26-20.26
		c0,0,26.57,7.31,31.89,19.93l7.97-0.66c0,0-12.62-21.92-37.2-28.57l0.66-38.53c0,0,1.33-188.01-0.66-195.32l0.66-8.64
		L261.75,191.33z"/>
	<polygon class="st8" points="268.41,194.65 268.4,318.22 268.98,342.47 265.07,342.14 265.07,336.82 263.41,189.34 	"/>
	<polygon class="st9" points="279.36,194.99 268.49,196.35 263.41,192.99 257.43,189.67 253.45,189.67 242.15,192.99 241.49,189.67 
		234.85,192.99 232.85,192.99 232.85,185.02 226.87,185.02 226.87,180.37 232.85,178.38 228.87,171.07 230.2,169.74 224.88,162.43 
		227.54,150.47 227.54,140.51 224.88,128.55 236.17,126.56 238.17,129.22 244.81,137.85 248.13,139.84 256.77,138.52 258.76,142.5 
		263.41,151.14 266.73,153.8 270.72,155.79 272.71,156.45 279.36,159.78 280.69,163.76 282.68,167.75 282.68,171.73 285.34,175.72 
		289.99,178.38 295.97,185.02 289.99,185.68 292.64,188.34 289.32,189.01 288.66,191.66 286,192.33 285.34,197.64 282.01,198.31 
		281.35,194.99 	"/>
	<path class="st10" d="M249.79,122.9h-4.65l-1.99,5.31h-7.97l-1.99,9.3h-2.66l-3.32,5.31l3.32,9.97h3.99h5.31l3.32,5.31l8.64,5.98
		v6.64l1.33,4.65l9.97-1.99l1.33-3.32l4.65,5.31h1.33l3.32,4.65l1.99,0.66l6.64,3.32v1.99l3.32,7.31l3.99,1.33l1.99-3.32v-4.65
		v-3.99l6.64-1.33c0,0,0-1.33,1.99,0.66c1.99,1.99,3.99,1.99,3.99,1.99l7.97-3.99l3.32,2.66l1.33,1.33l1.99-11.29
		c0,0,3.32-6.64,0-7.97c-3.32-1.33-11.29-5.98-11.29-5.98c1.33-2.66,1.99-5.98,1.99-5.98l0.66-4.65l-1.33-13.95l3.99-0.66v-3.99
		l-6.64-6.64h-4.65c-3.99-0.66-9.97-3.99-9.97-3.99h-1.99l-7.31,1.33l-3.32,0.66l-5.31-1.99l-6.64,3.32
		c-1.99,2.66-9.3,1.99-9.3,1.99l-3.99-1.33H249.79z"/>
	<path class="st7" d="M372.68,139.99l-5.31,268.03c0,0-1.06,13.44-4.25,15.81s-44.6,10.28-47.79,18.18l-1.06,8.7
		c0,0,0,1.58,6.37-2.37c6.37-3.95,21.24-16.6,36.11-15.02s31.86,4.74,44.6,17.39v2.37h9.56c0,0-4.78-16.21-32.39-24.11
		c0,0,42.48,8.7,50.98,23.72l12.74-0.79c0,0-20.18-26.09-59.47-34l1.06-45.86c0,0,2.12-223.75-1.06-232.45l1.06-10.28L372.68,139.99
		z"/>
	<polygon class="st8" points="383.33,143.94 383.3,291 384.23,319.86 377.99,319.47 377.99,313.14 375.33,137.62 	"/>
	<polygon class="st11" points="402.94,143.56 382.16,145.51 372.44,140.72 361,135.99 353.37,135.99 331.76,140.72 330.49,135.99 
		317.78,140.72 313.97,140.72 313.97,129.37 302.53,129.37 302.53,122.74 313.97,119.9 306.34,109.49 308.88,107.6 298.71,97.19 
		303.8,80.16 303.8,65.97 298.71,48.93 320.32,46.09 324.13,49.88 336.84,62.18 343.2,65.02 359.72,63.13 363.54,68.8 372.44,81.11 
		378.79,84.89 386.42,87.73 390.23,88.68 402.94,93.41 405.48,99.09 409.3,104.76 409.3,110.44 414.38,116.12 423.28,119.9 
		434.72,129.37 423.28,130.31 428.36,134.1 422.01,135.04 420.74,138.83 415.65,139.78 414.38,147.35 408.03,148.29 406.75,143.56 	
		"/>
	<path class="st12" d="M346.38,40.89h-8.9l-3.81,7.57h-15.25l-3.81,13.25h-5.08l-6.36,7.57l6.36,14.19h7.63h10.17l6.36,7.57
		l16.52,8.52v9.46l2.54,6.62l19.07-2.84l2.54-4.73l8.9,7.57h2.54l6.36,6.62l3.81,0.95l12.71,4.73v2.84l6.36,10.41l7.63,1.89
		l3.81-4.73v-6.62v-5.68l12.71-1.89c0,0,0-1.89,3.81,0.95s7.63,2.84,7.63,2.84l15.25-5.68l6.36,3.79l2.54,1.89l3.81-16.09
		c0,0,6.36-9.46,0-11.36c-6.36-1.89-21.61-8.52-21.61-8.52c2.54-3.79,3.81-8.52,3.81-8.52l1.27-6.62l-2.54-19.87l7.63-0.95v-5.68
		l-12.71-9.46h-8.9c-7.63-0.95-19.07-5.68-19.07-5.68h-3.81l-13.98,1.89l-6.36,0.95l-10.17-2.84l-12.71,4.73
		c-3.81,3.79-17.8,2.84-17.8,2.84L354,40.89H346.38z"/>
	<path class="st13" d="M367.8,152.62l-2.83-9.1l1.4-1.75l-1.41-4.55l-3.15,0.79l-2.46-0.08l-2.74-5.7l-0.74-0.83l-5.3,1.72
		l-2.93-1.6l-2.38-2.98l-6.24-1.32l-2.3,0.42l-2.93-1.6l-4.17,0.66c0,0-5.65-0.99-7.72-2.97c-2.07-1.97-2.07-1.97-2.07-1.97
		s-0.2-2.21-1.28,0.56c-1.08,2.76-1.31,5.16-1.31,5.16l-3.85,1.67l-5.15-4.08l-3.2-0.91l-0.77,3.78l2.23,2.48l6.39,1.82l1.1,3.54
		l-1.51,2.95l-3.11,2.49l-1.78,3.64l2.27,4.18l3.58-0.98l-1.24,2.26c0,0-0.97,1.57-1.47,4.65c-0.5,3.08-0.5,3.08-0.5,3.08l0,0
		l8.62,4.3l1.1,3.54l-2.33,5.02l0.04,1.7l5.54,2.19c0,0,1.71-0.74,1.98-1.43c0.27-0.69,3.38-3.19,3.38-3.19l2.34,1.28
		c0,0-7.27,9.46-0.93,3.27s6.5-5.68,6.5-5.68l1.06,1.84l1.14,5.24l-3.58,0.98l6.39,1.82l0.07-2.9l1.63-4.15l9.58-3.57l5,3.57
		l0.81-2.07l5.41-2.92l0.39-1.89l-0.87-5.93l2.14-0.93l-0.09-3.41l0.11-1.2L367.8,152.62z"/>
	<path class="st7" d="M477.4,457.97c0,0,22.29-11.45,22.29-16.27s10.24-248.24,7.23-272.34c0,0-4.22-10.85-7.23-13.26
		s-1.81-10.24-1.81-10.24l7.83,12.05l1.81-12.05h3.62v16.27l15.67-10.24L525,162.12l-9.04,8.44c0,0-6.03,243.42-6.63,258.49
		c0,0,33.14,17.47,32.54,31.33l-10.24,0.6c0,0-16.27-23.5-20.49-22.29c-4.22,1.21-6.03,9.64-10.24,10.24
		c-4.22,0.6-15.67,9.04-16.87,9.64C482.82,459.17,477.4,457.97,477.4,457.97z"/>
	<path class="st14" d="M506.92,104.88h12.65l4.22-4.22h6.03l2.41,1.81h6.63l7.23,3.62l2.41,3.62l6.03,2.41l4.22,3.62v4.82h-6.03
		l-1.81,4.82l4.82,2.41v2.41l3.01,1.81l1.81,5.42l0.6,5.42l-0.6,4.82l-3.62,9.64h-4.82h-6.63l-1.81-1.21l-1.81,1.21h-3.62
		l-10.24-2.41l3.62,9.04l-4.82,1.81l-3.74-1.81l-4.09-2.41l-7.83-7.23l-4.22,2.41c-1.81,0-7.23,0-7.23,0l-2.41-1.21l-5.42,0.6v-2.41
		l-3.62-1.81l-3.01-1.81h-2.41l-12.05,1.81v-2.41l-1.81-6.03l1.81-4.82c-2.41-1.21-7.83-1.81-7.83-1.81l-0.6,1.81l-7.83,3.01
		c-3.62-3.01-4.22-6.03-4.22-6.03l-4.82-2.41l1.81-6.03l4.82-5.42l4.82-4.22l3.01-7.83h2.41l5.42,0.6l4.82,0.6l2.41-2.41l2.41-1.81
		h3.01l1.81,0.6l5.42-3.01l3.62-3.62h4.22l3.01,2.41l2.41,0.6L506.92,104.88z"/>
	<path class="st13" d="M484.56,121.17l3.73-10.18l-1.85-1.96l1.87-5.09l4.17,0.89l3.24-0.09l3.62-6.37l0.98-0.92l7,1.92l3.87-1.79
		l3.15-3.34l8.24-1.47l3.04,0.47l3.87-1.79l5.51,0.74c0,0,7.47-1.11,10.2-3.32c2.73-2.21,2.73-2.21,2.73-2.21s0.26-2.47,1.7,0.62
		s1.74,5.77,1.74,5.77l5.09,1.87l6.81-4.56l4.22-1.02l1.02,4.22l-2.94,2.77l-8.45,2.04l-1.45,3.96l2,3.3l4.11,2.79l2.36,4.07
		l-3,4.68l-4.73-1.09l1.64,2.53c0,0,1.28,1.75,1.94,5.2c0.66,3.45,0.66,3.45,0.66,3.45l0,0l-11.39,4.81l-1.45,3.96l3.07,5.62
		l-0.06,1.9l-7.32,2.45c0,0-2.26-0.83-2.62-1.6s-4.47-3.56-4.47-3.56l-3.09,1.43c0,0,9.6,10.58,1.23,3.66
		c-8.37-6.92-8.58-6.35-8.58-6.35l-1.4,2.06l-1.51,5.86l4.73,1.09l-8.45,2.04l-0.09-3.24l-2.15-4.64l-12.65-4l-6.6,4l-1.07-2.32
		l-7.15-3.26l-0.51-2.11l1.15-6.64l-2.83-1.04l0.11-3.81l-0.15-1.34L484.56,121.17z"/>
	<polygon class="st15" points="515.96,170.56 509.93,429.04 506.92,400.73 509.93,170.56 	"/>
	<path class="st7" d="M373.23,453.71c0,0-16.88-10.23-16.88-14.54c0-4.31-7.75-221.93-5.47-243.47c0,0,3.19-9.7,5.47-11.85
		c2.28-2.15,1.37-9.16,1.37-9.16l-5.93,10.77l-1.37-10.77h-2.74v14.54l-11.86-9.16l1.37,9.16l6.84,7.54c0,0,4.56,217.62,5.02,231.08
		c0,0-25.09,15.62-24.63,28.01l7.75,0.54c0,0,12.31-21.01,15.51-19.93c3.19,1.08,4.56,8.62,7.75,9.16
		c3.19,0.54,11.86,8.08,12.77,8.62C369.12,454.79,373.23,453.71,373.23,453.71z"/>
	<path class="st16" d="M350.88,138.06h-9.58l-3.19-3.77h-4.56l-1.82,1.62h-5.02l-5.47,3.23l-1.82,3.23l-4.56,2.15l-3.19,3.23v4.31
		h4.56l1.37,4.31l-3.65,2.15v2.15l-2.28,1.62l-1.37,4.85l-0.46,4.85l0.46,4.31l2.74,8.62h3.65h5.02l1.37-1.08l1.37,1.08h2.74
		l7.75-2.15l-2.74,8.08l3.65,1.62l2.83-1.62l3.1-2.15l5.93-6.46l3.19,2.15c1.37,0,5.47,0,5.47,0l1.82-1.08l4.1,0.54v-2.15l2.74-1.62
		l2.28-1.62h1.82l9.12,1.62v-2.15l1.37-5.39l-1.37-4.31c1.82-1.08,5.93-1.62,5.93-1.62l0.46,1.62l5.93,2.69
		c2.74-2.69,3.19-5.39,3.19-5.39l3.65-2.15l-1.37-5.39l-3.65-4.85l-3.65-3.77l-2.28-7h-1.82l-4.1,0.54l-3.65,0.54l-1.82-2.15
		l-1.82-1.62h-2.28l-1.37,0.54l-4.1-2.69l-2.74-3.23h-3.19l-2.28,2.15l-1.82,0.54L350.88,138.06z"/>
	<path class="st8" d="M320.88,136.86l-7.31,6.64c0,0-1.33,119.58-2.66,124.23l-0.39,40.09l-2.94-15.51v-23.25l3.32-78.39
		l-1.99-13.95v-16.61l2.66-9.3C311.58,150.81,308.92,144.83,320.88,136.86z"/>
	<path class="st7" d="M425.9,150.92c0,0-2.1,240.07-8.4,267.35c0,0-1.4,32.74-2.8,32.74s-20.31,27.28-20.31,27.28h4.2
		c0,0,13.31-20.46,15.41-21.14c2.1-0.68,15.41,1.36,16.81,22.51h4.9c0,0-3.5-25.23-13.31-27.96l1.05-31.03
		c0,0,28.01,6.14,32.21,22.51c4.2,16.37,0,25.92,0,25.92l-6.3,5.46l1.4,4.77h14.01c0,0,4.9-43.65-16.81-58.65
		c-21.71-15-21.71-12.96-21.71-12.96s7.7-169.82,5.6-175.96s1.4-74.34,1.4-74.34l9.1-8.87h-6.3l-4.9,3.41v-5.46h-5.6L425.9,150.92z"
		/>
	<path class="st14" d="M368.15,162.24c0,0,13.38-38.92,32.38-39.48s64.82-0.63,69.06,4.02c4.24,4.65,20.92,8.54,20.92,8.54
		l-9.02,8.24l-6.33,12.99l-6.1,3.45l4.91,5.84l-3.81,6.07l-6.75-1.27l-3.69-6.53l-4.06-0.06l-0.09,5.53l-0.21,2.47l-3.78-0.99
		l-1.95-2.03l-4.94,1.23l-5.12-3.37l1.37-4.69l-3.3-4.4l-6.83,0.73l-6.32,0.74l-6.99,5.37l-9.15,1.12l-4.2,3.95l-0.15,4l-2.44,1.38
		l-4.63,8.89l-4.54,3.35l-4.12-1.59l0.76-4.35l2.59-5.38l2.86-6.32l1.03-5.29l1.09-3.75l-4.39-0.65l-4.27,2.41l-6.24,7.45
		l-2.56-1.68l-1.34-2.37l-2.84-0.75l-4.94,1.23l-1.68-2.97L368.15,162.24z"/>
	<path class="st13" d="M403.32,153.31c0,0,3.66-2.07,5.49-3.1c1.83-1.03,8.53-4.83,8.53-4.83l10.61,0.27l7.84,1.05l2.53-6.91
		l3.41-8.2l-1.68-2.97l4.27-2.41l8.23,3.18l0.92,7.32l4.45,2.18l5,0.31l1.05,10.38l3.78,0.99l2.77-0.79l6.7-3.79l2.46-8.45
		l-3.02-5.34l7.1-1.67l6.26,8.21l2.96,3.81c0,0-0.95-0.25,6.28,1.15c7.23,1.4,5.34,0.9,5.34,0.9l6.62,1.74l5.88-0.98l2.44-1.38
		l1.52-8.69l-2.9-2.28l-9.85-4.61l-6.07-3.62l-3.55-10.53l-2.08-5.09l-9.94,0.92c0,0-1.89-0.5-2.56-1.68
		c-0.67-1.19,1.03-5.29,1.03-5.29l0.82-2.82l-5.67-1.49l-1.95-2.03l-5.65-8.56l-5-0.31L458.58,86l-1.83,1.03l-4.27,2.41l-4.66,0.29
		l1.8,6.03l-6.1,3.45l-8.51-2.24l-4.37-7.72l-5.12-3.37l-4.48,4.88l-5.88,0.98c0,0-2.38,2.91-4.27,2.41s-5.49,3.1-5.49,3.1
		l-4.88,2.76l-3.66,2.07l1.68,2.97l4.45,2.18l8.93-2.7l-2.92,4.79l-6.43,2.86l2.81,7.81l2.29,2.62l2.29,2.62l-3.07,8.79l-3.78-0.99
		c-2.84-0.75-7.96-4.12-7.96-4.12l-4.27,2.41l-3.38,1.13l1.34,2.37l-2.53,6.91c1.41,3.91,2.02,3.56,2.02,3.56l10.34,1.2l3.45,0.4
		L403.32,153.31z"/>
	<path class="st8" d="M440.6,150.24l-7.7,6.82c0,0-1.4,122.76-2.8,127.54l-0.41,41.16l-3.09-15.92v-23.87l3.5-80.48l-2.1-14.32
		v-17.05l2.8-9.55C430.8,164.56,428,158.42,440.6,150.24z"/>
	<polygon class="st8" points="350.77,194.65 346.12,209.27 348.78,325.53 352.8,325.53 	"/>
	<path class="st14" d="M247.8,112.27c0,0,29.23-26.57,45.18-17.94c15.94,8.64,53.81,30.56,55.14,36.54
		c1.33,5.98,13.29,17.27,13.29,17.27l-11.29,2.66l-11.29,7.97h-6.64l1.33,7.31l-5.98,3.32l-4.98-4.32v-7.31l-3.32-1.99l-2.66,4.65
		l-1.33,1.99l-2.66-2.66l-0.66-2.66l-4.65-1.33l-2.66-5.31l3.32-3.32l-0.66-5.31l-5.98-2.66l-5.56-2.41l-8.28,1.19l-8.08-3.44
		l-5.31,1.33l-1.99,3.32h-2.66l-7.97,5.31l-5.31,0.66l-2.66-3.32l2.66-3.32l4.65-3.32l5.31-3.99l3.32-3.99l2.66-2.66l-3.32-2.66
		h-4.65l-8.64,3.32l-1.33-2.66v-2.66l-1.99-1.99l-4.65-1.33v-3.32L247.8,112.27z"/>
	<path class="st17" d="M281.02,121.58c0,0,3.99,0,5.98,0s9.3,0,9.3,0l8.64,5.31l5.98,4.65l5.31-4.65l6.64-5.31v-3.32h4.65l5.31,6.64
		l-2.66,6.64l2.66,3.99l3.99,2.66l-3.99,9.3l2.66,2.66l2.66,0.66h7.31l5.98-5.98v-5.98l6.64,1.99l1.33,9.97l0.66,4.65
		c0,0-0.66-0.66,4.65,3.99c5.31,4.65,3.99,3.32,3.99,3.32l4.65,4.65l5.31,1.99h2.66l5.31-6.64l-1.33-3.32l-5.98-8.64l-3.32-5.98
		l1.99-10.63l0.66-5.31l-8.64-3.99c0,0-1.33-1.33-1.33-2.66s3.32-3.99,3.32-3.99l1.99-1.99l-3.99-3.99l-0.66-2.66l-0.66-9.97
		l-3.99-2.66l-6.64-5.98h-1.99h-4.65l-3.99-1.99L346.12,95h-6.64l-5.98-5.98v-8.64l-2.66-5.31l-5.98,1.99l-5.31-1.99
		c0,0-3.32,1.33-4.65,0c-1.33-1.33-5.98,0-5.98,0h-5.31h-3.99v3.32l2.66,3.99l8.64,1.99l-4.65,2.66l-6.64-0.66l-1.33,7.97l0.66,3.32
		l0.66,3.32l-6.64,5.98l-2.66-2.66c-1.99-1.99-4.65-7.31-4.65-7.31h-4.65l-3.32-0.66v2.66l-5.31,4.65c-0.66,3.99,0,3.99,0,3.99
		l7.97,5.98l2.66,1.99L281.02,121.58z"/>
</g>
<g class="st6">
	<path class="st7" d="M231.43,399.31"/>
	<path class="st7" d="M139.29,168.15c0,0-1.62,189.67-6.47,211.22c0,0-1.08,25.86-2.16,25.86c-1.08,0-15.63,21.55-15.63,21.55h3.23
		c0,0,10.24-16.17,11.85-16.7c1.62-0.54,11.85,1.08,12.93,17.78h3.77c0,0-2.69-19.94-10.24-22.09l0.81-24.52
		c0,0,21.55,4.85,24.79,17.78c3.23,12.93,0,20.48,0,20.48l-4.85,4.31l1.08,3.77h10.78c0,0,3.77-34.49-12.93-46.34
		s-16.7-10.24-16.7-10.24s5.93-134.17,4.31-139.02c-1.62-4.85,1.08-58.73,1.08-58.73l7-7h-4.85l-3.77,2.69v-4.31h-4.31
		L139.29,168.15z"/>
	<path class="st7" d="M102.65,211.79l-2.69,182.67c0,0-0.54,9.16-2.16,10.78c-1.62,1.62-22.63,7-24.25,12.39l-0.54,5.93
		c0,0,0,1.08,3.23-1.62s10.78-11.32,18.32-10.24c7.54,1.08,16.17,3.23,22.63,11.85v1.62h4.85c0,0-2.42-11.05-16.43-16.43
		c0,0,21.55,5.93,25.86,16.17l6.47-0.54c0,0-10.24-17.78-30.17-23.17l0.54-31.25c0,0,1.08-152.49-0.54-158.42l0.54-7L102.65,211.79z
		"/>
	<polygon class="st8" points="108.05,214.49 108.04,314.71 108.51,334.38 105.35,334.11 105.35,329.8 104,210.18 	"/>
	<polygon class="st9" points="116.93,214.76 108.12,215.86 104,213.14 99.15,210.44 95.92,210.44 86.76,213.14 86.22,210.44 
		80.83,213.14 79.21,213.14 79.21,206.67 74.36,206.67 74.36,202.9 79.21,201.28 75.98,195.36 77.06,194.28 72.75,188.35 
		74.9,178.65 74.9,170.57 72.75,160.87 81.91,159.26 83.52,161.41 88.91,168.42 91.61,170.03 98.61,168.95 100.23,172.19 
		104,179.19 106.69,181.35 109.93,182.96 111.54,183.5 116.93,186.2 118.01,189.43 119.62,192.66 119.62,195.9 121.78,199.13 
		125.55,201.28 130.4,206.67 125.55,207.21 127.71,209.37 125.01,209.91 124.47,212.06 122.32,212.6 121.78,216.91 119.09,217.45 
		118.55,214.76 	"/>
	<path class="st10" d="M92.95,156.29h-3.77l-1.62,4.31H81.1l-1.62,7.54h-2.16l-2.69,4.31l2.69,8.08h3.23h4.31l2.69,4.31l7,4.85v5.39
		l1.08,3.77l8.08-1.62l1.08-2.69l3.77,4.31h1.08l2.69,3.77l1.62,0.54l5.39,2.69v1.62l2.69,5.93l3.23,1.08l1.62-2.69v-3.77v-3.23
		l5.39-1.08c0,0,0-1.08,1.62,0.54c1.62,1.62,3.23,1.62,3.23,1.62l6.47-3.23l2.69,2.16l1.08,1.08l1.62-9.16c0,0,2.69-5.39,0-6.47
		s-9.16-4.85-9.16-4.85c1.08-2.16,1.62-4.85,1.62-4.85l0.54-3.77l-1.08-11.32l3.23-0.54v-3.23l-5.39-5.39h-3.77
		c-3.23-0.54-8.08-3.23-8.08-3.23h-1.62l-5.93,1.08l-2.69,0.54l-4.31-1.62l-5.39,2.69c-1.62,2.16-7.54,1.62-7.54,1.62l-3.23-1.08
		H92.95z"/>
	<path class="st7" d="M192.62,170.15l-4.31,217.39c0,0-0.86,10.9-3.45,12.83c-2.58,1.92-36.18,8.34-38.76,14.75l-0.86,7.05
		c0,0,0,1.28,5.17-1.92c5.17-3.21,17.23-13.47,29.29-12.18c12.06,1.28,25.84,3.85,36.18,14.11v1.92h7.75c0,0-3.88-13.15-26.27-19.56
		c0,0,34.45,7.05,41.35,19.24l10.34-0.64c0,0-16.37-21.16-48.24-27.57l0.86-37.19c0,0,1.72-181.48-0.86-188.53l0.86-8.34
		L192.62,170.15z"/>
	<polygon class="st8" points="201.26,173.36 201.23,292.63 201.99,316.04 196.93,315.72 196.93,310.59 194.77,168.23 	"/>
	<polygon class="st11" points="217.17,173.05 200.31,174.63 192.42,170.74 183.15,166.91 176.96,166.91 159.43,170.74 158.4,166.91 
		148.09,170.74 145,170.74 145,161.53 135.72,161.53 135.72,156.16 145,153.86 138.81,145.42 140.88,143.88 132.63,135.44 
		136.75,121.62 136.75,110.11 132.63,96.29 150.15,93.99 153.25,97.06 163.56,107.04 168.71,109.34 182.11,107.81 185.21,112.41 
		192.42,122.39 197.58,125.46 203.76,127.76 206.86,128.53 217.17,132.37 219.23,136.97 222.32,141.58 222.32,146.18 226.45,150.79 
		233.66,153.86 242.94,161.53 233.66,162.3 237.79,165.37 232.63,166.14 231.6,169.21 227.48,169.98 226.45,176.12 221.29,176.88 
		220.26,173.05 	"/>
	<path class="st12" d="M171.29,89.77h-7.22l-3.09,6.14h-12.37l-3.09,10.75h-4.12l-5.15,6.14l5.15,11.51h6.19h8.25l5.15,6.14
		l13.4,6.91v7.68l2.06,5.37l15.46-2.3l2.06-3.84l7.22,6.14h2.06l5.15,5.37l3.09,0.77l10.31,3.84v2.3l5.15,8.44l6.19,1.54l3.09-3.84
		v-5.37v-4.61l10.31-1.54c0,0,0-1.54,3.09,0.77c3.09,2.3,6.19,2.3,6.19,2.3l12.37-4.61l5.15,3.07l2.06,1.54l3.09-13.05
		c0,0,5.15-7.68,0-9.21c-5.15-1.54-17.53-6.91-17.53-6.91c2.06-3.07,3.09-6.91,3.09-6.91l1.03-5.37l-2.06-16.12l6.19-0.77v-4.61
		l-10.31-7.68h-7.22c-6.19-0.77-15.46-4.61-15.46-4.61h-3.09l-11.34,1.54l-5.15,0.77l-8.25-2.3L198.09,89
		c-3.09,3.07-14.43,2.3-14.43,2.3l-6.19-1.54H171.29z"/>
	<path class="st13" d="M188.67,180.39l-2.29-7.38l1.13-1.42l-1.15-3.69l-2.56,0.64l-1.99-0.07l-2.22-4.62l-0.6-0.67l-4.3,1.39
		l-2.37-1.3l-1.93-2.42l-5.06-1.07l-1.86,0.34l-2.37-1.3l-3.38,0.53c0,0-4.58-0.81-6.26-2.41s-1.68-1.6-1.68-1.6
		s-0.16-1.79-1.04,0.45c-0.88,2.24-1.07,4.18-1.07,4.18l-3.13,1.35l-4.18-3.31l-2.59-0.74l-0.63,3.06l1.81,2.01l5.19,1.48l0.89,2.87
		l-1.23,2.39l-2.52,2.02l-1.45,2.95l1.84,3.39l2.91-0.79l-1.01,1.83c0,0-0.79,1.27-1.19,3.77c-0.41,2.5-0.41,2.5-0.41,2.5l0,0
		l6.99,3.49l0.89,2.87l-1.89,4.07l0.03,1.38l4.49,1.78c0,0,1.39-0.6,1.61-1.16s2.74-2.58,2.74-2.58l1.9,1.04
		c0,0-5.89,7.67-0.75,2.65c5.14-5.02,5.27-4.61,5.27-4.61l0.86,1.49l0.93,4.25l-2.91,0.79l5.19,1.48l0.06-2.35l1.32-3.36l7.77-2.9
		l4.05,2.9l0.66-1.68l4.39-2.37l0.31-1.53l-0.71-4.81l1.74-0.75l-0.07-2.76l0.09-0.97L188.67,180.39z"/>
	<path class="st7" d="M277.56,428.05c0,0,18.08-9.29,18.08-13.19s8.31-201.34,5.86-220.89c0,0-3.42-8.8-5.86-10.75
		c-2.44-1.95-1.47-8.31-1.47-8.31l6.35,9.77l1.47-9.77h2.93v13.19l12.71-8.31l-1.47,8.31l-7.33,6.84c0,0-4.89,197.43-5.38,209.65
		c0,0,26.88,14.17,26.39,25.41l-8.31,0.49c0,0-13.19-19.06-16.62-18.08c-3.42,0.98-4.89,7.82-8.31,8.31s-12.71,7.33-13.68,7.82
		C281.95,429.03,277.56,428.05,277.56,428.05z"/>
	<path class="st14" d="M301.5,141.68h10.26l3.42-3.42h4.89l1.95,1.47h5.38l5.86,2.93l1.95,2.93l4.89,1.95l3.42,2.93v3.91h-4.89
		l-1.47,3.91l3.91,1.95v1.95l2.44,1.47l1.47,4.4l0.49,4.4l-0.49,3.91l-2.93,7.82h-3.91h-5.38l-1.47-0.98l-1.47,0.98h-2.93
		l-8.31-1.95l2.93,7.33l-3.91,1.47l-3.04-1.47l-3.32-1.95l-6.35-5.86l-3.42,1.95c-1.47,0-5.86,0-5.86,0l-1.95-0.98l-4.4,0.49v-1.95
		l-2.93-1.47l-2.44-1.47h-1.95l-9.77,1.47v-1.95l-1.47-4.89l1.47-3.91c-1.95-0.98-6.35-1.47-6.35-1.47l-0.49,1.47l-6.35,2.44
		c-2.93-2.44-3.42-4.89-3.42-4.89l-3.91-1.95l1.47-4.89l3.91-4.4l3.91-3.42l2.44-6.35h1.95l4.4,0.49l3.91,0.49l1.95-1.95l1.95-1.47
		H280l1.47,0.49l4.4-2.44l2.93-2.93h3.42l2.44,1.95l1.95,0.49L301.5,141.68z"/>
	<path class="st13" d="M283.37,154.88l3.03-8.26l-1.5-1.59l1.51-4.13l3.38,0.72l2.63-0.08l2.94-5.17l0.8-0.75l5.67,1.56l3.14-1.45
		l2.55-2.71l6.68-1.19l2.46,0.38l3.14-1.45l4.47,0.6c0,0,6.06-0.9,8.27-2.69s2.22-1.79,2.22-1.79s0.21-2,1.38,0.5
		s1.41,4.68,1.41,4.68l4.13,1.51l5.52-3.7l3.43-0.83l0.83,3.43l-2.39,2.25l-6.85,1.65l-1.18,3.21l1.62,2.68l3.33,2.26l1.91,3.3
		l-2.43,3.79l-3.84-0.89l1.33,2.05c0,0,1.04,1.42,1.58,4.22c0.54,2.8,0.54,2.8,0.54,2.8l0,0l-9.24,3.9l-1.18,3.21l2.49,4.56
		l-0.05,1.54l-5.93,1.99c0,0-1.84-0.67-2.13-1.3c-0.29-0.63-3.62-2.89-3.62-2.89l-2.51,1.16c0,0,7.79,8.58,0.99,2.97
		c-6.79-5.61-6.96-5.15-6.96-5.15l-1.13,1.67l-1.22,4.76l3.84,0.89l-6.85,1.65l-0.08-2.63l-1.74-3.76l-10.26-3.24l-5.35,3.24
		l-0.87-1.88l-5.8-2.65l-0.41-1.71l0.93-5.38l-2.29-0.84l0.09-3.09l-0.12-1.09L283.37,154.88z"/>
	<polygon class="st15" points="308.83,194.94 303.95,404.6 301.5,381.63 303.95,194.94 	"/>
	<path class="st7" d="M193.06,424.6c0,0-13.69-8.3-13.69-11.8c0-3.5-6.29-180-4.44-197.48c0,0,2.59-7.86,4.44-9.61
		c1.85-1.75,1.11-7.43,1.11-7.43l-4.81,8.74l-1.11-8.74h-2.22v11.8l-9.62-7.43l1.11,7.43l5.55,6.12c0,0,3.7,176.5,4.07,187.43
		c0,0-20.35,12.67-19.98,22.72l6.29,0.44c0,0,9.99-17.04,12.58-16.17c2.59,0.87,3.7,6.99,6.29,7.43c2.59,0.44,9.62,6.55,10.36,6.99
		S193.06,424.6,193.06,424.6z"/>
	<path class="st16" d="M174.94,168.58h-7.77l-2.59-3.06h-3.7l-1.48,1.31h-4.07l-4.44,2.62l-1.48,2.62l-3.7,1.75l-2.59,2.62v3.5h3.7
		l1.11,3.5l-2.96,1.75v1.75l-1.85,1.31l-1.11,3.93l-0.37,3.93l0.37,3.5l2.22,6.99h2.96h4.07l1.11-0.87l1.11,0.87h2.22l6.29-1.75
		l-2.22,6.55l2.96,1.31l2.3-1.31l2.51-1.75l4.81-5.24l2.59,1.75c1.11,0,4.44,0,4.44,0l1.48-0.87l3.33,0.44v-1.75l2.22-1.31
		l1.85-1.31h1.48l7.4,1.31v-1.75l1.11-4.37l-1.11-3.5c1.48-0.87,4.81-1.31,4.81-1.31l0.37,1.31l4.81,2.18
		c2.22-2.18,2.59-4.37,2.59-4.37l2.96-1.75l-1.11-4.37l-2.96-3.93l-2.96-3.06l-1.85-5.68h-1.48l-3.33,0.44l-2.96,0.44l-1.48-1.75
		l-1.48-1.31h-1.85l-1.11,0.44l-3.33-2.18l-2.22-2.62h-2.59l-1.85,1.75l-1.48,0.44L174.94,168.58z"/>
	<path class="st8" d="M150.61,167.61l-5.93,5.39c0,0-1.08,96.99-2.16,100.76l-0.31,32.52l-2.38-12.58v-18.86l2.69-63.58l-1.62-11.32
		v-13.47l2.16-7.54C143.06,178.92,140.91,174.07,150.61,167.61z"/>
	<path class="st7" d="M235.78,179.02c0,0-1.7,194.72-6.82,216.85c0,0-1.14,26.55-2.27,26.55c-1.14,0-16.47,22.13-16.47,22.13h3.41
		c0,0,10.79-16.6,12.5-17.15c1.7-0.55,12.5,1.11,13.63,18.25h3.98c0,0-2.84-20.47-10.79-22.68l0.85-25.17
		c0,0,22.72,4.98,26.13,18.25c3.41,13.28,0,21.02,0,21.02l-5.11,4.43l1.14,3.87h11.36c0,0,3.98-35.4-13.63-47.57
		c-17.61-12.17-17.61-10.51-17.61-10.51s6.25-137.74,4.54-142.72s1.14-60.3,1.14-60.3l7.38-7.19h-5.11l-3.98,2.77v-4.43h-4.54
		L235.78,179.02z"/>
	<path class="st14" d="M188.94,188.2c0,0,10.86-31.57,26.26-32.02c15.41-0.45,52.57-0.51,56.01,3.26
		c3.44,3.77,16.97,6.92,16.97,6.92l-7.31,6.68l-5.14,10.53l-4.94,2.8l3.99,4.74l-3.09,4.92l-5.48-1.03l-3-5.3l-3.29-0.05l-0.07,4.49
		l-0.17,2l-3.07-0.81l-1.58-1.65l-4.01,1l-4.16-2.73l1.11-3.81l-2.67-3.57l-5.54,0.59l-5.13,0.6l-5.67,4.35l-7.42,0.91l-3.41,3.2
		l-0.12,3.25l-1.98,1.12l-3.75,7.21l-3.68,2.72l-3.34-1.29l0.62-3.53l2.1-4.37l2.32-5.13l0.84-4.29l0.89-3.04l-3.56-0.53l-3.46,1.96
		l-5.06,6.04l-2.08-1.37l-1.09-1.93l-2.3-0.61l-4.01,1l-1.36-2.41L188.94,188.2z"/>
	<path class="st13" d="M217.48,180.95c0,0,2.97-1.68,4.45-2.52s6.92-3.92,6.92-3.92l8.61,0.22l6.36,0.85l2.05-5.61l2.76-6.65
		l-1.36-2.41l3.46-1.96l6.68,2.58l0.75,5.93l3.61,1.77l4.06,0.25l0.85,8.42l3.07,0.81l2.25-0.64l5.44-3.08l2-6.85l-2.45-4.33
		l5.76-1.35l5.07,6.66l2.4,3.09c0,0-0.77-0.2,5.1,0.93c5.86,1.13,4.33,0.73,4.33,0.73l5.37,1.41l4.77-0.79l1.98-1.12l1.23-7.05
		l-2.35-1.85l-7.99-3.74l-4.92-2.93l-2.88-8.54l-1.68-4.13l-8.06,0.75c0,0-1.53-0.4-2.08-1.37s0.84-4.29,0.84-4.29l0.67-2.28
		l-4.6-1.21l-1.58-1.65l-4.58-6.94l-4.06-0.25l-7.4-1.54l-1.48,0.84l-3.46,1.96l-3.78,0.23l1.46,4.89l-4.94,2.8l-6.9-1.82
		l-3.54-6.26l-4.16-2.73l-3.63,3.96l-4.77,0.79c0,0-1.93,2.36-3.46,1.96c-1.53-0.4-4.45,2.52-4.45,2.52l-3.95,2.24l-2.97,1.68
		l1.36,2.41l3.61,1.77l7.24-2.19l-2.37,3.88l-5.22,2.32l2.28,6.34l1.86,2.13l1.86,2.13l-2.49,7.13l-3.07-0.81
		c-2.3-0.61-6.46-3.34-6.46-3.34l-3.46,1.96l-2.74,0.92l1.09,1.93l-2.05,5.61c1.14,3.17,1.63,2.89,1.63,2.89l8.38,0.98l2.79,0.33
		L217.48,180.95z"/>
	<path class="st8" d="M247.71,178.46l-6.25,5.53c0,0-1.14,99.57-2.27,103.44l-0.33,33.38l-2.51-12.92v-19.36l2.84-65.27l-1.7-11.62
		v-13.83l2.27-7.74C239.76,190.08,237.49,185.1,247.71,178.46z"/>
	<polygon class="st8" points="174.86,214.49 171.08,226.34 173.24,320.64 176.5,320.64 	"/>
	<path class="st14" d="M91.34,147.67c0,0,23.71-21.55,36.64-14.55c12.93,7,43.65,24.79,44.72,29.64
		c1.08,4.85,10.78,14.01,10.78,14.01l-9.16,2.16l-9.16,6.47h-5.39l1.08,5.93l-4.85,2.69l-4.04-3.5v-5.93l-2.69-1.62l-2.16,3.77
		l-1.08,1.62l-2.16-2.16l-0.54-2.16l-3.77-1.08l-2.16-4.31l2.69-2.69l-0.54-4.31l-4.85-2.16l-4.51-1.95l-6.72,0.97l-6.55-2.79
		l-4.31,1.08l-1.62,2.69h-2.16l-6.47,4.31l-4.31,0.54l-2.16-2.69l2.16-2.69l3.77-2.69l4.31-3.23l2.69-3.23l2.16-2.16l-2.69-2.16
		h-3.77l-7,2.69l-1.08-2.16v-2.16l-1.62-1.62l-3.77-1.08v-2.69L91.34,147.67z"/>
	<path class="st17" d="M118.28,155.21c0,0,3.23,0,4.85,0c1.62,0,7.54,0,7.54,0l7,4.31l4.85,3.77l4.31-3.77l5.39-4.31v-2.69H156
		l4.31,5.39l-2.16,5.39l2.16,3.23l3.23,2.16l-3.23,7.54l2.16,2.16l2.16,0.54h5.93l4.85-4.85v-4.85l5.39,1.62l1.08,8.08l0.54,3.77
		c0,0-0.54-0.54,3.77,3.23c4.31,3.77,3.23,2.69,3.23,2.69l3.77,3.77l4.31,1.62h2.16l4.31-5.39l-1.08-2.69l-4.85-7l-2.69-4.85
		l1.62-8.62l0.54-4.31l-7-3.23c0,0-1.08-1.08-1.08-2.16s2.69-3.23,2.69-3.23l1.62-1.62l-3.23-3.23l-0.54-2.16l-0.54-8.08l-3.23-2.16
		l-5.39-4.85h-1.62h-3.77l-3.23-1.62l-1.08,4.85h-5.39l-4.85-4.85v-7l-2.16-4.31l-4.85,1.62l-4.31-1.62c0,0-2.69,1.08-3.77,0
		c-1.08-1.08-4.85,0-4.85,0h-4.31h-3.23v2.69l2.16,3.23l7,1.62l-3.77,2.16l-5.39-0.54l-1.08,6.47l0.54,2.69l0.54,2.69l-5.39,4.85
		l-2.16-2.16c-1.62-1.62-3.77-5.93-3.77-5.93h-3.77l-2.69-0.54v2.16l-4.31,3.77c-0.54,3.23,0,3.23,0,3.23l6.47,4.85l2.16,1.62
		L118.28,155.21z"/>
</g>
<g class="st6">
	<path class="st7" d="M624.73,399.31"/>
	<path class="st7" d="M532.58,168.15c0,0-1.62,189.67-6.47,211.22c0,0-1.08,25.86-2.16,25.86c-1.08,0-15.63,21.55-15.63,21.55h3.23
		c0,0,10.24-16.17,11.85-16.7c1.62-0.54,11.85,1.08,12.93,17.78h3.77c0,0-2.69-19.94-10.24-22.09l0.81-24.52
		c0,0,21.55,4.85,24.79,17.78c3.23,12.93,0,20.48,0,20.48l-4.85,4.31l1.08,3.77h10.78c0,0,3.77-34.49-12.93-46.34
		c-16.7-11.85-16.7-10.24-16.7-10.24s5.93-134.17,4.31-139.02c-1.62-4.85,1.08-58.73,1.08-58.73l7-7h-4.85l-3.77,2.69v-4.31h-4.31
		L532.58,168.15z"/>
	<path class="st7" d="M495.94,211.79l-2.69,182.67c0,0-0.54,9.16-2.16,10.78c-1.62,1.62-22.63,7-24.25,12.39l-0.54,5.93
		c0,0,0,1.08,3.23-1.62c3.23-2.69,10.78-11.32,18.32-10.24c7.54,1.08,16.17,3.23,22.63,11.85v1.62h4.85c0,0-2.42-11.05-16.43-16.43
		c0,0,21.55,5.93,25.86,16.17l6.47-0.54c0,0-10.24-17.78-30.17-23.17l0.54-31.25c0,0,1.08-152.49-0.54-158.42l0.54-7L495.94,211.79z
		"/>
	<polygon class="st8" points="501.35,214.49 501.33,314.71 501.8,334.38 498.64,334.11 498.64,329.8 497.29,210.18 	"/>
	<polygon class="st9" points="510.22,214.76 501.41,215.86 497.29,213.14 492.44,210.44 489.21,210.44 480.05,213.14 479.51,210.44 
		474.12,213.14 472.5,213.14 472.5,206.67 467.65,206.67 467.65,202.9 472.5,201.28 469.27,195.36 470.35,194.28 466.04,188.35 
		468.19,178.65 468.19,170.57 466.04,160.87 475.2,159.26 476.82,161.41 482.2,168.42 484.9,170.03 491.9,168.95 493.52,172.19 
		497.29,179.19 499.99,181.35 503.22,182.96 504.83,183.5 510.22,186.2 511.3,189.43 512.92,192.66 512.92,195.9 515.07,199.13 
		518.84,201.28 523.69,206.67 518.84,207.21 521,209.37 518.31,209.91 517.77,212.06 515.61,212.6 515.07,216.91 512.38,217.45 
		511.84,214.76 	"/>
	<path class="st10" d="M486.24,156.29h-3.77l-1.62,4.31h-6.47l-1.62,7.54h-2.16l-2.69,4.31l2.69,8.08h3.23h4.31l2.69,4.31l7,4.85
		v5.39l1.08,3.77l8.08-1.62l1.08-2.69l3.77,4.31h1.08l2.69,3.77l1.62,0.54l5.39,2.69v1.62l2.69,5.93l3.23,1.08l1.62-2.69v-3.77
		v-3.23l5.39-1.08c0,0,0-1.08,1.62,0.54c1.62,1.62,3.23,1.62,3.23,1.62l6.47-3.23l2.69,2.16l1.08,1.08l1.62-9.16
		c0,0,2.69-5.39,0-6.47c-2.69-1.08-9.16-4.85-9.16-4.85c1.08-2.16,1.62-4.85,1.62-4.85l0.54-3.77l-1.08-11.32l3.23-0.54v-3.23
		l-5.39-5.39h-3.77c-3.23-0.54-8.08-3.23-8.08-3.23h-1.62l-5.93,1.08l-2.69,0.54l-4.31-1.62l-5.39,2.69
		c-1.62,2.16-7.54,1.62-7.54,1.62l-3.23-1.08H486.24z"/>
	<path class="st7" d="M585.91,170.15l-4.31,217.39c0,0-0.86,10.9-3.45,12.83c-2.58,1.92-36.18,8.34-38.76,14.75l-0.86,7.05
		c0,0,0,1.28,5.17-1.92c5.17-3.21,17.23-13.47,29.29-12.18c12.06,1.28,25.84,3.85,36.18,14.11v1.92h7.75c0,0-3.88-13.15-26.27-19.56
		c0,0,34.45,7.05,41.35,19.24l10.34-0.64c0,0-16.37-21.16-48.24-27.57l0.86-37.19c0,0,1.72-181.48-0.86-188.53l0.86-8.34
		L585.91,170.15z"/>
	<polygon class="st8" points="594.55,173.36 594.53,292.63 595.28,316.04 590.22,315.72 590.22,310.59 588.07,168.23 	"/>
	<polygon class="st11" points="610.46,173.05 593.6,174.63 585.72,170.74 576.44,166.91 570.25,166.91 552.73,170.74 551.7,166.91 
		541.39,170.74 538.29,170.74 538.29,161.53 529.01,161.53 529.01,156.16 538.29,153.86 532.11,145.42 534.17,143.88 525.92,135.44 
		530.05,121.62 530.05,110.11 525.92,96.29 543.45,93.99 546.54,97.06 556.85,107.04 562,109.34 575.41,107.81 578.5,112.41 
		585.72,122.39 590.87,125.46 597.06,127.76 600.15,128.53 610.46,132.37 612.52,136.97 615.61,141.58 615.61,146.18 619.74,150.79 
		626.95,153.86 636.23,161.53 626.95,162.3 631.08,165.37 625.92,166.14 624.89,169.21 620.77,169.98 619.74,176.12 614.58,176.88 
		613.55,173.05 	"/>
	<path class="st12" d="M564.58,89.77h-7.22l-3.09,6.14H541.9l-3.09,10.75h-4.12l-5.15,6.14l5.15,11.51h6.19h8.25l5.15,6.14
		l13.4,6.91v7.68l2.06,5.37l15.46-2.3l2.06-3.84l7.22,6.14h2.06l5.15,5.37l3.09,0.77l10.31,3.84v2.3l5.15,8.44l6.19,1.54l3.09-3.84
		v-5.37v-4.61l10.31-1.54c0,0,0-1.54,3.09,0.77c3.09,2.3,6.19,2.3,6.19,2.3l12.37-4.61l5.15,3.07l2.06,1.54l3.09-13.05
		c0,0,5.15-7.68,0-9.21c-5.15-1.54-17.53-6.91-17.53-6.91c2.06-3.07,3.09-6.91,3.09-6.91l1.03-5.37l-2.06-16.12l6.19-0.77v-4.61
		l-10.31-7.68H645c-6.19-0.77-15.46-4.61-15.46-4.61h-3.09L615.1,86.7l-5.15,0.77l-8.25-2.3L591.39,89
		c-3.09,3.07-14.43,2.3-14.43,2.3l-6.19-1.54H564.58z"/>
	<path class="st13" d="M581.96,180.39l-2.29-7.38l1.13-1.42l-1.15-3.69l-2.56,0.64l-1.99-0.07l-2.22-4.62l-0.6-0.67l-4.3,1.39
		l-2.37-1.3l-1.93-2.42l-5.06-1.07l-1.86,0.34l-2.37-1.3l-3.38,0.53c0,0-4.58-0.81-6.26-2.41c-1.68-1.6-1.68-1.6-1.68-1.6
		s-0.16-1.79-1.04,0.45c-0.88,2.24-1.07,4.18-1.07,4.18l-3.13,1.35l-4.18-3.31l-2.59-0.74l-0.63,3.06l1.81,2.01l5.19,1.48l0.89,2.87
		l-1.23,2.39l-2.52,2.02l-1.45,2.95l1.84,3.39l2.91-0.79l-1.01,1.83c0,0-0.79,1.27-1.19,3.77c-0.41,2.5-0.41,2.5-0.41,2.5l0,0
		l6.99,3.49l0.89,2.87l-1.89,4.07l0.03,1.38l4.49,1.78c0,0,1.39-0.6,1.61-1.16c0.22-0.56,2.74-2.58,2.74-2.58l1.9,1.04
		c0,0-5.89,7.67-0.75,2.65c5.14-5.02,5.27-4.61,5.27-4.61l0.86,1.49l0.93,4.25l-2.91,0.79l5.19,1.48l0.06-2.35l1.32-3.36l7.77-2.9
		l4.05,2.9l0.66-1.68l4.39-2.37l0.31-1.53l-0.71-4.81l1.74-0.75l-0.07-2.76l0.09-0.97L581.96,180.39z"/>
	<path class="st7" d="M670.85,428.05c0,0,18.08-9.29,18.08-13.19s8.31-201.34,5.86-220.89c0,0-3.42-8.8-5.86-10.75
		c-2.44-1.95-1.47-8.31-1.47-8.31l6.35,9.77l1.47-9.77h2.93v13.19l12.71-8.31l-1.47,8.31l-7.33,6.84c0,0-4.89,197.43-5.38,209.65
		c0,0,26.88,14.17,26.39,25.41l-8.31,0.49c0,0-13.19-19.06-16.62-18.08c-3.42,0.98-4.89,7.82-8.31,8.31s-12.71,7.33-13.68,7.82
		C675.25,429.03,670.85,428.05,670.85,428.05z"/>
	<path class="st14" d="M694.8,141.68h10.26l3.42-3.42h4.89l1.95,1.47h5.38l5.86,2.93l1.95,2.93l4.89,1.95l3.42,2.93v3.91h-4.89
		l-1.47,3.91l3.91,1.95v1.95l2.44,1.47l1.47,4.4l0.49,4.4l-0.49,3.91l-2.93,7.82h-3.91h-5.38l-1.47-0.98l-1.47,0.98h-2.93
		l-8.31-1.95l2.93,7.33l-3.91,1.47l-3.04-1.47l-3.32-1.95l-6.35-5.86l-3.42,1.95c-1.47,0-5.86,0-5.86,0l-1.95-0.98l-4.4,0.49v-1.95
		l-2.93-1.47l-2.44-1.47h-1.95l-9.77,1.47v-1.95l-1.47-4.89l1.47-3.91c-1.95-0.98-6.35-1.47-6.35-1.47l-0.49,1.47l-6.35,2.44
		c-2.93-2.44-3.42-4.89-3.42-4.89l-3.91-1.95l1.47-4.89l3.91-4.4l3.91-3.42l2.44-6.35h1.95l4.4,0.49l3.91,0.49l1.95-1.95l1.95-1.47
		h2.44l1.47,0.49l4.4-2.44l2.93-2.93h3.42l2.44,1.95l1.95,0.49L694.8,141.68z"/>
	<path class="st13" d="M676.66,154.88l3.03-8.26l-1.5-1.59l1.51-4.13l3.38,0.72l2.63-0.08l2.94-5.17l0.8-0.75l5.67,1.56l3.14-1.45
		l2.55-2.71l6.68-1.19l2.46,0.38l3.14-1.45l4.47,0.6c0,0,6.06-0.9,8.27-2.69c2.22-1.79,2.22-1.79,2.22-1.79s0.21-2,1.38,0.5
		c1.16,2.51,1.41,4.68,1.41,4.68l4.13,1.51l5.52-3.7l3.43-0.83l0.83,3.43l-2.39,2.25l-6.85,1.65l-1.18,3.21l1.62,2.68l3.33,2.26
		l1.91,3.3l-2.43,3.79l-3.84-0.89l1.33,2.05c0,0,1.04,1.42,1.58,4.22c0.54,2.8,0.54,2.8,0.54,2.8l0,0l-9.24,3.9l-1.18,3.21
		l2.49,4.56l-0.05,1.54l-5.93,1.99c0,0-1.84-0.67-2.13-1.3c-0.29-0.63-3.62-2.89-3.62-2.89l-2.51,1.16c0,0,7.79,8.58,0.99,2.97
		c-6.79-5.61-6.96-5.15-6.96-5.15l-1.13,1.67l-1.22,4.76l3.84,0.89l-6.85,1.65l-0.08-2.63l-1.74-3.76l-10.26-3.24l-5.35,3.24
		l-0.87-1.88l-5.8-2.65l-0.41-1.71l0.93-5.38l-2.29-0.84l0.09-3.09l-0.12-1.09L676.66,154.88z"/>
	<polygon class="st15" points="702.13,194.94 697.24,404.6 694.8,381.63 697.24,194.94 	"/>
	<path class="st7" d="M586.36,424.6c0,0-13.69-8.3-13.69-11.8c0-3.5-6.29-180-4.44-197.48c0,0,2.59-7.86,4.44-9.61
		c1.85-1.75,1.11-7.43,1.11-7.43l-4.81,8.74l-1.11-8.74h-2.22v11.8l-9.62-7.43l1.11,7.43l5.55,6.12c0,0,3.7,176.5,4.07,187.43
		c0,0-20.35,12.67-19.98,22.72l6.29,0.44c0,0,9.99-17.04,12.58-16.17s3.7,6.99,6.29,7.43c2.59,0.44,9.62,6.55,10.36,6.99
		S586.36,424.6,586.36,424.6z"/>
	<path class="st16" d="M568.23,168.58h-7.77l-2.59-3.06h-3.7l-1.48,1.31h-4.07l-4.44,2.62l-1.48,2.62l-3.7,1.75l-2.59,2.62v3.5h3.7
		l1.11,3.5l-2.96,1.75v1.75l-1.85,1.31l-1.11,3.93l-0.37,3.93l0.37,3.5l2.22,6.99h2.96h4.07l1.11-0.87l1.11,0.87h2.22l6.29-1.75
		l-2.22,6.55l2.96,1.31l2.3-1.31l2.51-1.75l4.81-5.24l2.59,1.75c1.11,0,4.44,0,4.44,0l1.48-0.87l3.33,0.44v-1.75l2.22-1.31
		l1.85-1.31h1.48l7.4,1.31v-1.75l1.11-4.37l-1.11-3.5c1.48-0.87,4.81-1.31,4.81-1.31l0.37,1.31l4.81,2.18
		c2.22-2.18,2.59-4.37,2.59-4.37l2.96-1.75l-1.11-4.37l-2.96-3.93l-2.96-3.06l-1.85-5.68h-1.48l-3.33,0.44l-2.96,0.44l-1.48-1.75
		l-1.48-1.31h-1.85l-1.11,0.44l-3.33-2.18l-2.22-2.62h-2.59l-1.85,1.75l-1.48,0.44L568.23,168.58z"/>
	<path class="st8" d="M543.9,167.61l-5.93,5.39c0,0-1.08,96.99-2.16,100.76l-0.31,32.52l-2.38-12.58v-18.86l2.69-63.58l-1.62-11.32
		v-13.47l2.16-7.54C536.36,178.92,534.2,174.07,543.9,167.61z"/>
	<path class="st7" d="M629.08,179.02c0,0-1.7,194.72-6.82,216.85c0,0-1.14,26.55-2.27,26.55c-1.14,0-16.47,22.13-16.47,22.13h3.41
		c0,0,10.79-16.6,12.5-17.15c1.7-0.55,12.5,1.11,13.63,18.25h3.98c0,0-2.84-20.47-10.79-22.68l0.85-25.17
		c0,0,22.72,4.98,26.13,18.25c3.41,13.28,0,21.02,0,21.02l-5.11,4.43l1.14,3.87h11.36c0,0,3.98-35.4-13.63-47.57
		c-17.61-12.17-17.61-10.51-17.61-10.51s6.25-137.74,4.54-142.72s1.14-60.3,1.14-60.3l7.38-7.19h-5.11l-3.98,2.77v-4.43h-4.54
		L629.08,179.02z"/>
	<path class="st14" d="M582.24,188.2c0,0,10.86-31.57,26.26-32.02c15.41-0.45,52.57-0.51,56.01,3.26
		c3.44,3.77,16.97,6.92,16.97,6.92l-7.31,6.68l-5.14,10.53l-4.94,2.8l3.99,4.74l-3.09,4.92l-5.48-1.03l-3-5.3l-3.29-0.05l-0.07,4.49
		l-0.17,2l-3.07-0.81l-1.58-1.65l-4.01,1l-4.16-2.73l1.11-3.81l-2.67-3.57l-5.54,0.59l-5.13,0.6l-5.67,4.35l-7.42,0.91l-3.41,3.2
		l-0.12,3.25l-1.98,1.12l-3.75,7.21l-3.68,2.72l-3.34-1.29l0.62-3.53l2.1-4.37l2.32-5.13l0.84-4.29l0.89-3.04l-3.56-0.53l-3.46,1.96
		l-5.06,6.04l-2.08-1.37l-1.09-1.93l-2.3-0.61l-4.01,1l-1.36-2.41L582.24,188.2z"/>
	<path class="st13" d="M610.77,180.95c0,0,2.97-1.68,4.45-2.52s6.92-3.92,6.92-3.92l8.61,0.22l6.36,0.85l2.05-5.61l2.76-6.65
		l-1.36-2.41l3.46-1.96l6.68,2.58l0.75,5.93l3.61,1.77l4.06,0.25l0.85,8.42l3.07,0.81l2.25-0.64l5.44-3.08l2-6.85l-2.45-4.33
		l5.76-1.35l5.07,6.66l2.4,3.09c0,0-0.77-0.2,5.1,0.93c5.86,1.13,4.33,0.73,4.33,0.73l5.37,1.41l4.77-0.79l1.98-1.12l1.23-7.05
		l-2.35-1.85l-7.99-3.74l-4.92-2.93l-2.88-8.54l-1.68-4.13l-8.06,0.75c0,0-1.53-0.4-2.08-1.37c-0.54-0.96,0.84-4.29,0.84-4.29
		l0.67-2.28l-4.6-1.21l-1.58-1.65l-4.58-6.94l-4.06-0.25l-7.4-1.54l-1.48,0.84l-3.46,1.96l-3.78,0.23l1.46,4.89l-4.94,2.8l-6.9-1.82
		l-3.54-6.26l-4.16-2.73l-3.63,3.96l-4.77,0.79c0,0-1.93,2.36-3.46,1.96c-1.53-0.4-4.45,2.52-4.45,2.52l-3.95,2.24l-2.97,1.68
		l1.36,2.41l3.61,1.77l7.24-2.19l-2.37,3.88l-5.22,2.32l2.28,6.34l1.86,2.13l1.86,2.13l-2.49,7.13l-3.07-0.81
		c-2.3-0.61-6.46-3.34-6.46-3.34l-3.46,1.96l-2.74,0.92l1.09,1.93l-2.05,5.61c1.14,3.17,1.63,2.89,1.63,2.89l8.38,0.98l2.79,0.33
		L610.77,180.95z"/>
	<path class="st8" d="M641.01,178.46l-6.25,5.53c0,0-1.14,99.57-2.27,103.44l-0.33,33.38l-2.51-12.92v-19.36l2.84-65.27l-1.7-11.62
		v-13.83l2.27-7.74C633.05,190.08,630.78,185.1,641.01,178.46z"/>
	<polygon class="st8" points="568.15,214.49 564.38,226.34 566.53,320.64 569.79,320.64 	"/>
	<path class="st14" d="M484.63,147.67c0,0,23.71-21.55,36.64-14.55c12.93,7,43.65,24.79,44.72,29.64
		c1.08,4.85,10.78,14.01,10.78,14.01l-9.16,2.16l-9.16,6.47h-5.39l1.08,5.93l-4.85,2.69l-4.04-3.5v-5.93l-2.69-1.62l-2.16,3.77
		l-1.08,1.62l-2.16-2.16l-0.54-2.16l-3.77-1.08l-2.16-4.31l2.69-2.69l-0.54-4.31l-4.85-2.16l-4.51-1.95l-6.72,0.97l-6.55-2.79
		l-4.31,1.08l-1.62,2.69h-2.16l-6.47,4.31l-4.31,0.54l-2.16-2.69l2.16-2.69l3.77-2.69l4.31-3.23l2.69-3.23l2.16-2.16l-2.69-2.16
		h-3.77l-7,2.69l-1.08-2.16v-2.16l-1.62-1.62l-3.77-1.08v-2.69L484.63,147.67z"/>
	<path class="st17" d="M511.57,155.21c0,0,3.23,0,4.85,0s7.54,0,7.54,0l7,4.31l4.85,3.77l4.31-3.77l5.39-4.31v-2.69h3.77l4.31,5.39
		l-2.16,5.39l2.16,3.23l3.23,2.16l-3.23,7.54l2.16,2.16l2.16,0.54h5.93l4.85-4.85v-4.85l5.39,1.62l1.08,8.08l0.54,3.77
		c0,0-0.54-0.54,3.77,3.23c4.31,3.77,3.23,2.69,3.23,2.69l3.77,3.77l4.31,1.62h2.16l4.31-5.39l-1.08-2.69l-4.85-7l-2.69-4.85
		l1.62-8.62l0.54-4.31l-7-3.23c0,0-1.08-1.08-1.08-2.16s2.69-3.23,2.69-3.23l1.62-1.62l-3.23-3.23l-0.54-2.16l-0.54-8.08l-3.23-2.16
		l-5.39-4.85h-1.62h-3.77l-3.23-1.62l-1.08,4.85h-5.39l-4.85-4.85v-7l-2.16-4.31l-4.85,1.62l-4.31-1.62c0,0-2.69,1.08-3.77,0
		c-1.08-1.08-4.85,0-4.85,0h-4.31h-3.23v2.69l2.16,3.23l7,1.62l-3.77,2.16l-5.39-0.54l-1.08,6.47l0.54,2.69l0.54,2.69l-5.39,4.85
		l-2.16-2.16c-1.62-1.62-3.77-5.93-3.77-5.93h-3.77l-2.69-0.54v2.16l-4.31,3.77c-0.54,3.23,0,3.23,0,3.23l6.47,4.85l2.16,1.62
		L511.57,155.21z"/>
</g>
<path class="st18" d="M203.95,444.45c21.26,7.97,96.99-0.66,88.36,16.61c-8.64,17.27-106.96,17.27-8.64,17.27s77.06-14.62,96.33,0
	c19.27,14.62,3.32,23.92,51.82,17.27c48.5-6.64,44.51-21.26,77.73-17.27c33.22,3.99,14.62,13.29,43.85-7.31
	c29.23-20.59,11.96-35.21,61.12-26.57c49.16,8.64,65.11,28.57,73.74,6.64s80.39-29.9,11.96-28.57
	c-68.43,1.33-106.77-27.28-144.73-3.01c-37.96,24.27-3.1,32.78-65.7,23.88c-62.61-8.91-119.74-31.49-136.35-21.53
	s-13.95,23.25-69.76,6.64s-95-21.26-105.63-17.27c-10.63,3.99,50.49,34.55-24.58,15.28S29.53,364.33,41.01,391.1
	c11.48,26.77,50.01,20.79,73.92,34.08c23.92,13.29,62.45,17.27,67.76,15.28C188.01,438.47,203.95,444.45,203.95,444.45z"/>
</svg>
