<?xml version="1.0" encoding="utf-8"?>
<!-- Generator: Adobe Illustrator 22.1.0, SVG Export Plug-In . SVG Version: 6.00 Build 0)  -->
<svg version="1.1" id="Camada_1" xmlns="http://www.w3.org/2000/svg" xmlns:xlink="http://www.w3.org/1999/xlink" x="0px" y="0px"
	 viewBox="0 0 100 100" style="enable-background:new 0 0 100 100;" xml:space="preserve">
<style type="text/css">
	.st0{opacity:0.2;}
	.st1{fill:#C6F561;}
	.st2{fill:#161E00;}
</style>
<g class="st0">
	<path class="st1" d="M6.2,2.7h2.5c0,0,3.1,1.6,3.1,1.8c0,0.2,2.9,0,2.9,0L15.2,4l1.6,0.4l1.6,1.3c0,0-0.2,0.4,0,0.7
		C18.5,6.7,19,7.2,19,7.2s0.9-0.7,1.1-0.4c0.2,0.2,1.6,0.2,1.6,0.2l0.2,0.4c0,0,1.3,0.9,1.1,0.9c-0.2,0-0.2,1.6,0,1.6
		c0.2,0,1.3,1.1,1.3,1.1l0.9-0.2L25,11.6l-0.2,0.4l-0.2,3.1c0,0,0.4,0.2,0.2,0.7c-0.2,0.4,1.6,2.9,1.6,2.9l1.3,0.2l0.2,0.4l0.7-0.2
		c0,0,1.1,0,1.3,0c0.2,0,0.7-0.4,0.7-0.2c0,0.2,0,0.4,0.2,0.4s0.2-0.9,0.2-0.9l0.9-0.9l0.4-0.7v-1.1c0,0,0.9,0,0.9,0.4
		c0,0.4,0.9-0.7,0.9-0.7s0.7-0.4,1.1,0c0.4,0.4,0.7,0.7,0.7,0.7L35.8,17l-0.4,0.7c0,0-0.2,0.4-0.2,0.7c0,0.2,0,0.7,0,0.7h-0.7v1.8
		L34,21.5L33.6,22l0.2,0.4l3.1-0.4H38l0.9,0.4l0.7,0.2l0.4,0.7V24l-0.2,0.2v1.6l-0.7,0.7v1.1l2.2,2l1.6,0.2l1.1-0.9
		c0,0,0.7,0,0.9,0.2c0.2,0.2,2,1.3,2,1.3l1.3-1.3v-0.7l0.7-0.9l0.7,0.2c0,0-0.2-0.7,0-0.7c0.2,0,0.7,0.4,0.9,0.2
		c0.2-0.2,1.3-0.7,1.3-0.7s0.2-1.1,0.7-0.9s0.7,0.7,0.7,0.7l-0.7,0.2l-0.2,0.7V28c0,0-0.4,0.4-0.4,0.7c0,0.2,0.2,0.7,0.2,0.7
		l0.9,0.2l0.4-0.7l-0.7-1.1c0,0-0.2-0.2,0.2-0.4c0.4-0.2,0.9-0.2,0.9-0.2s0-1.3,0.2-1.1c0.2,0.2,0.7,0.2,0.7,0.2v0.4l1.1,0.2
		l0.2,0.9l1.3,0.2l0.9-0.7l0.7,0.9c0,0,0.9,0,1.1,0c0.2,0,1.1-1.1,1.8-0.9c0.7,0.2,0.4,0.9,0.4,0.9s0,0.4,0.9,0.2l0.2-1.3l0.4,0.4
		c0,0,0.2,0.2,0,0.4c-0.2,0.2-0.2,0-0.2,0.2s0.2,0.4,0.2,0.4s1.1,0.4,1.1,0.7s1.6,1.1,1.6,1.3c0,0.2,0,0.9,0,0.9S67,32,67.2,32
		c0.2,0,0.4,0.2,0.7,0.4c0.2,0.2,0.9,0.4,0.9,0.4s2.5-0.2,2.7,0c0.2,0.2,0.2,0,0.4,0.2c0.2,0.2,0.9,0.2,0.9,0.2l1.6,1.3l0.7,0.4v0.9
		l0.2,0.9c0,0,0.7,0.2,0.7,0.4s0.7,0.7,0.7,0.7l-2.2,2.5v0.7c0,0-0.4,0-0.4,0.2c0,0.2-0.4,0.2-0.2,0.4c0.2,0.2,0.9,0.2,0.9,0.2
		s-0.2-0.7,0-0.7c0.2,0,0.9,0.2,0.9,0.2l0.4,0.4c0,0,0.7,0.2,0.9,0.2c0.2,0,0.9-0.2,1.1-0.4c0.2-0.2,0.4-0.9,0.7-0.9
		s0.4-0.2,0.4-0.2L80,41c0,0,0.4-0.7,0.4-0.4s1.6,1.8,1.6,1.8s-0.7,0.2-0.4,0.4C81.8,43,82,43,82,43l2.9,0.2c0,0,0.2,0,0.4,0.2
		c0.2,0.2,0.2,0.2,0.2,0.2l0.9-0.4l0.7,0.7c0,0,1.8,2.2,2,2.2c0.2,0,2.2,0.2,2.2,0.2s-0.2,0.4-0.2,0.9c0,0.4-0.4,0.2-0.2,0.7
		c0.2,0.4,0.2,1.3,0.2,1.6c0,0.2,0.7,0.4,0.4,0.4c-0.2,0-0.4,0.4-0.4,0.4L91,51.1c0,0,0,0-0.4,0.4c-0.4,0.4-0.2,0-0.4,0.4
		c-0.2,0.4-0.4,0.7-0.4,0.7s0,0.9-0.4,1.1s-0.4,0.2-0.9,0.7c-0.4,0.4-0.7,0.9-0.7,0.9s0.2,0.2,0,0.4c-0.2,0.2-0.7,0.4-0.7,0.4
		L86.5,56L86,57.8l-0.2,1.8c0,0-0.4,1.6-0.4,1.8s-1.1,0.2-0.9,2.5l-1.8,1.8L82.4,67h-0.7c0,0-0.4,1.1-0.7,1.1c-0.2,0-1.6,0-1.6,0
		l-0.7-0.7l-0.2,0.7c0,0,0,0.4-0.4,0.4s-0.7,0-0.7,0h-0.9L75.9,69l-1.1,1.1c0,0-0.7-0.2-0.7,0c0,0.2-1.1,2.2-0.7,2.9
		s-1.1,1.1-1.1,1.1s-0.2,0.4-0.2,0.7c0,0.2-1.8,2.2-1.8,2.2h-0.7c0,0,1.6-0.9,1.1-1.8c0,0-0.7,0.4-0.7,0.9c0,0-0.9,0.2-1.6,1.1
		c-0.2,0.2-0.9,0.2-0.9,0.2l-0.4,1.1L67,79.8L66.3,80l-1.1,0.2l-0.4-0.4L64.3,80l-0.4-0.4l-0.7-0.7v-0.7c0,0-0.2-0.2-0.4-0.2
		c-0.2,0-0.4,0.4-0.4,0.4v0.9c0,0,0.2,0,0.2,0.2c0,0.2,0.4,0.7,0.4,0.7s0.2,0,0.4,0.2c0.2,0.2-0.2,0.4-0.2,0.4l-0.2,0.2
		c0,0-0.2,0.4,0,0.4s0.4,0.2,0.4,0.2l-0.9,1.1l-0.7,0.9l-3.6,0.2l-0.4-0.2l-0.4,0.7c0,0,0,0.4,0,0.7s-0.2,0.7-0.2,0.7
		s-0.4,0.2-0.7,0.2s-0.4,0-0.4,0s-1.6-1.3-1.6,0.2c0.4,1.1,1.1,1.1,1.1,1.1l0.2,0.4h-0.9h-0.4L54,88.8l-0.2,0.9c0,0-2.5,0.4-2.5,1.1
		s0.2,1.3,0.9,1.8l0.2,0.4l-0.9,0.4c0,0-0.9,0.9-1.1,0.9S50.2,95,50.2,95l-0.9,0.4c0,0-0.7,0-0.7,0.2s-0.2,0.9,0,1.1
		s0.2,0.7,0.2,0.7h-1.1c0,0-0.7,0.2-0.9,0.2s-0.4-0.4-0.4,0s0,0.7,0,0.7s0,0.2-0.2,0c-0.2-0.2-0.4-0.4-0.4-0.4v-1.3h-1.1v-0.9h0.7
		v-2.5h0.7c0,0,0.2-1.3,0-1.3c-0.2,0-0.7-0.2-0.7-0.2L45,90.8l0.2-0.2l0.4,0.2l0.4,0.2v-0.7c0,0,0.2,0,0.4,0s0.4-1.1,0.4-0.9
		c0,0.2,0.4,0,0.4,0V89l-0.9-0.7v-0.2l0.7-0.2l0.7-0.9l0.2-0.4L47,85.6L46.8,85l1.1-0.9v-2.9h0.4v-0.9l1.3-1.3l0.2-1.1h0.4v-0.9
		l0.4-0.2l-0.2-3.1h0.4l0.2-1.3l0.2-0.2v-0.7l0.4-0.2l0.2-0.2l-0.2-0.4v-0.7h0.4l0.2-0.9v-0.9l0.2-0.4l-0.2-0.7l-0.2-0.4l0.9-1.1
		l0.2-4.3l-0.4-0.4l-0.7-0.9l-0.4-0.2v-0.7h-1.1l-2.2-1.6l-1.1-1.3l-0.2-1.3l-1.1-1.6L45.7,52c0,0,0-0.9-0.2-0.9S45,50.7,45,50.7
		l-0.2-0.9l-0.7-1.1l-0.7-0.9v-0.7l-1.1-0.2v-0.7l0.4-0.2L42.3,45h-0.2v-0.7h0.7c0,0,0-0.9,0.2-0.7c0.2,0.2,0.7,0,0.7,0
		s0.4-0.9,0.2-1.1c-0.2-0.2-1.1-0.2-1.1-0.2v-0.7v-1.1l0.7-0.2l0.4-0.7l-0.4-0.4c0,0-0.4-0.2,0-0.2c0.4,0,0.7,0.2,0.7,0
		c0-0.2,0.2-0.4,0.2-0.4l0.9,0.2L45,38.3h-0.2v-0.4l0.7-1.1l0.9-0.2v-0.4v-2.5l-0.4-0.4l0.4-0.7l-0.9-1.1l-0.2-1.1
		c0,0-0.4-0.7-0.7-0.4c-0.2,0.2-1.1,0.7-1.1,0.7L43,30.9c0,0,0.2,0.9,0.2,1.1c0,0.2-0.4-0.2-0.4-0.2s-1.1-0.4-1.1-0.7
		s-0.7-0.7-0.9-0.7s-0.9-0.7-0.9-0.7l-0.4-0.4l-0.7-0.4l-1.1-0.2v0.4l-1.1-0.7c0,0,0.4-0.4,0.7-0.4s0.4-0.7,0.2-0.9
		c-0.2-0.2-0.9-0.4-0.9-0.4l-0.7-0.9l0,0l-0.2-0.9c0,0-0.4-0.7-0.4-0.4c0,0.2-0.2,0.4-0.2,0.4l-0.2,0.2l-0.9-0.2l-1.1-0.7
		c0,0-1.3,0.2-1.3,0c0-0.2-0.7-0.4-0.9-0.4c-0.2,0,0-0.4-0.4-0.7c-0.4-0.2-1.3-0.7-1.3-0.7s-0.4-0.9-0.7-0.9s-0.4,0-0.7,0
		s-0.7,0.7-0.7,0.7h-2.2l-2-1.1l-0.9-0.2l-0.7-0.2c0,0,0-0.4-0.2-0.4c-0.2,0-0.7-0.4-0.7-0.4l-0.4-0.2h-0.9L15.9,17l0.4-0.7l0.4-0.2
		l-0.2-0.2l0.2-0.7l-0.2-0.9l-1.3-0.9c0,0,0.4-0.4,0.2-0.4s-0.7-0.2-0.7-0.2L13.2,11v-0.7l0.2-0.4l-2.9-3.4l-0.4-2L8.2,4.2V6
		c0,0,0.9,0,0.9,0.2c0,0.2,0,0.7,0,0.9c0,0.2,0.4,0.9,0.4,0.9L10,9c0,0,0.2,0.7,0.4,0.9c0.2,0.2,0,0.7,0.2,0.9
		c0.2,0.2,0.4,0.4,0.4,0.7s0.2,0,0.2,0v0.9c0,0,0.4,0,0.7,0.2s0.4,0.4,0.4,0.4v1.3h-0.7l-0.2-0.9l-0.2-0.7l-0.7-0.2
		c0,0-0.2-0.7-0.4-0.7s-0.4-0.4-0.4-0.4v-1.3L8.9,9.6C8.9,9.6,8.2,9,8,9C7.8,9,7.1,8.5,7.3,8.5c0.2,0,0.7-0.7,0.9-0.7s0.2,0,0.2-0.2
		C8.5,7.4,8,6.9,8,6.9L7.6,6.3L6.9,5.8V5.4l0.4-0.2L7.1,4.7l0,0c0,0-0.2-0.4-0.2-0.7c0-0.2,0.2-0.7,0-0.7c-0.2,0-0.4,0.2-0.4,0
		S6.2,2.9,6.2,2.9V2.7z"/>
</g>
<g class="st0">
	<g>
		<path class="st2" d="M45.2,97.4c-0.1,0-0.1-0.1-0.2-0.1l-0.5-0.5v-1.3h-1.1v-1H44v-2.5h0.7c0.1-0.6,0.1-1.2,0-1.2c0,0,0,0,0,0
			c-0.2,0-0.7-0.2-0.7-0.2l0,0l-0.2-1l0.3-0.3l0.8,0.4v-0.6h0.5c0.1,0,0.2-0.2,0.3-0.7c0.1-0.2,0.1-0.2,0.1-0.2
			c0.1,0,0.1,0.1,0.1,0.1c0,0,0,0,0,0c0,0,0.2,0,0.3-0.1v-0.4l-0.9-0.7v-0.3l0.7-0.2l0.7-0.9l0.2-0.4l-1.1-0.9l-0.2-0.7l1.1-0.9V80
			h0.4v-0.9l1.3-1.3l0.2-1.2h0.4v-0.9l0.4-0.2l-0.2-3.2h0.5l0.2-1.3l0.2-0.2v-0.7l0.5-0.2l0.2-0.2l-0.2-0.4v-0.7h0.5l0.2-0.8v-0.9
			l0.2-0.4l-0.2-0.6l-0.2-0.5l0.9-1.1l0.2-4.2l-0.4-0.4l-0.7-0.9l-0.5-0.2v-0.7h-1.1l-2.3-1.6l-1.1-1.4l-0.2-1.3L45,51.8l-0.5-0.9v0
			c0-0.4-0.1-0.8-0.2-0.8c-0.3,0-0.5-0.4-0.5-0.5l0,0l-0.2-0.9l-0.7-1.1l-0.7-0.9V46l-1.1-0.2V45l0.4-0.2L41.2,44h-0.2v-0.8h0.7
			c0-0.2,0-0.6,0.2-0.7c0,0,0.1,0,0.2,0c0.2,0.2,0.5,0,0.6,0c0.2-0.3,0.4-0.9,0.2-1c-0.2-0.2-0.8-0.2-1.1-0.2h-0.1v-1.9l0.7-0.2
			l0.4-0.6l-0.4-0.4c-0.1-0.1-0.2-0.1-0.2-0.2c0-0.1,0.1-0.1,0.3-0.1c0.2,0,0.4,0,0.5,0.1c0.1,0,0.1,0,0.1,0c0,0,0,0,0,0
			c0-0.2,0.2-0.5,0.2-0.5l0,0l0.8,0.2l-0.2-0.3h-0.2v-0.5l0.7-1.2l0.9-0.2v-2.8l-0.5-0.5l0.5-0.7l-0.9-1.1L44,29.2
			c-0.1-0.1-0.3-0.4-0.5-0.5c0,0-0.1,0-0.1,0c-0.2,0.2-1,0.6-1.1,0.7l-0.4,0.4c0,0.2,0.2,0.9,0.2,1.1c0,0.1,0,0.1-0.1,0.1
			c-0.1,0-0.3-0.2-0.5-0.3c-0.3-0.1-1.1-0.5-1.1-0.7c0-0.2-0.6-0.6-0.8-0.6c-0.2,0-0.8-0.6-0.9-0.7l-0.4-0.4l-0.7-0.4l-1-0.2v0.5
			l-1.3-0.8l0.1-0.1c0,0,0.5-0.5,0.7-0.5c0.1,0,0.1-0.1,0.2-0.2c0.1-0.2,0.1-0.5,0-0.6c-0.2-0.2-0.9-0.4-0.9-0.4l0,0l-0.7-0.9
			l-0.2-0.9c-0.1-0.2-0.3-0.4-0.3-0.4c0,0.2-0.2,0.4-0.2,0.5L33.6,24l-0.9-0.2l-1.1-0.7c-0.2,0-1.2,0.2-1.3,0c0,0,0-0.1,0-0.1
			c0-0.2-0.6-0.4-0.8-0.4c-0.1,0-0.2-0.1-0.2-0.2c0-0.1-0.1-0.3-0.3-0.4l-1.4-0.7l0,0c-0.2-0.4-0.5-0.9-0.6-0.9h-0.7
			c-0.1,0-0.4,0.4-0.6,0.6l0,0h-2.3l-2-1.1l-0.9-0.2l-0.7-0.2l0,0c0-0.1,0-0.4-0.2-0.4c-0.2,0-0.6-0.4-0.7-0.5l-0.4-0.2h-0.9
			l-2.7-2.5l0.5-0.7l0.4-0.2l-0.2-0.2l0.2-0.7l-0.2-0.9L14,12.3l0.1-0.1c0.1-0.1,0.3-0.3,0.3-0.3c0,0,0,0,0,0
			c-0.2,0-0.7-0.2-0.7-0.2l0,0L12,9.9V9.2l0.2-0.4L9.3,5.4l0,0l-0.4-2L7.2,3.2v1.7c0.3,0,0.9,0,0.9,0.3V6c0,0.2,0.3,0.7,0.4,0.9
			L9,7.8c0,0,0.2,0.7,0.4,0.9C9.5,8.8,9.5,9,9.5,9.2c0,0.2,0,0.3,0.1,0.4c0.2,0.2,0.5,0.5,0.5,0.7c0,0,0,0,0,0c0,0,0.1,0,0.1-0.1
			l0.1-0.1v1c0.1,0,0.5,0,0.7,0.2l0.5,0.5v1.4h-0.8l-0.2-0.9l-0.2-0.6l-0.7-0.2l0,0c-0.1-0.3-0.3-0.6-0.4-0.6
			c-0.3,0-0.5-0.4-0.5-0.5l0,0V9L7.7,8.5C7.5,8.3,7,7.9,6.9,7.9c-0.2,0-0.8-0.3-0.8-0.5c0,0,0-0.1,0.1-0.1c0.1,0,0.3-0.2,0.4-0.3
			C6.8,6.8,7,6.7,7.1,6.7c0.1,0,0.1,0,0.2,0c0,0,0-0.1,0-0.2C7.3,6.3,7,6,6.8,5.9L6.4,5.2L5.7,4.7V4.2L6.1,4L5.9,3.6
			c0,0-0.2-0.5-0.2-0.7c0-0.1,0-0.2,0.1-0.3c0-0.1,0.1-0.3,0-0.3c0,0,0,0,0,0c-0.1,0-0.2,0-0.2,0.1c-0.1,0-0.2,0.1-0.2,0
			c-0.1,0-0.1-0.1-0.1-0.1c0-0.2-0.2-0.4-0.2-0.4l0,0V1.5h2.5l0,0c1.2,0.6,3.1,1.6,3.2,1.8c0.1,0.1,1.5,0.1,2.8,0L14,2.8l1.6,0.5
			l1.6,1.4l0,0c0,0-0.2,0.4,0,0.6L17.9,6c0.2-0.2,0.9-0.6,1.2-0.4c0.2,0.2,1,0.2,1.5,0.2h0l0.2,0.5C22,7,22,7.1,22,7.2
			c0,0,0,0.1-0.1,0.1c0,0-0.1,0.3-0.1,0.7s0.1,0.7,0.1,0.7c0,0,0,0,0,0c0.2,0,1.1,0.9,1.4,1.1l1-0.2l-0.3,1L23.8,11l-0.2,3.1
			c0.2,0.1,0.4,0.4,0.2,0.7c-0.2,0.3,0.9,1.9,1.6,2.8l1.4,0.2l0.2,0.4l0.6-0.2h1.3c0.1,0,0.2-0.1,0.3-0.2c0.2-0.1,0.3-0.2,0.3-0.1
			c0,0,0.1,0,0.1,0.1c0,0.3,0,0.4,0.2,0.4c0.1,0,0.2-0.4,0.2-0.8v0l0.9-0.9l0.4-0.6v-1.2h0.1c0,0,1,0,1,0.5c0,0,0,0,0,0
			c0.1,0,0.4-0.3,0.8-0.8l0,0c0,0,0.7-0.5,1.2,0l0.7,0.7l-0.2,0.7l-0.4,0.7l0,0c0,0-0.2,0.4-0.2,0.6V18h-0.7v1.8l-0.5,0.7l-0.4,0.4
			l0.2,0.4l3.1-0.4l1.1,0l0.9,0.5l0.7,0.2l0.5,0.7v0.7l-0.2,0.2v1.6l-0.7,0.7v1.1l2.2,2l1.5,0.2l1.1-0.9h0c0,0,0.7,0,0.9,0.2
			c0.2,0.2,1.7,1.1,2,1.3l1.3-1.3v-0.7l0.7-0.9l0.6,0.2c0-0.2-0.1-0.5,0-0.6c0,0,0.1-0.1,0.1-0.1c0.1,0,0.2,0.1,0.3,0.1
			c0.2,0.1,0.4,0.2,0.5,0.1c0.2-0.2,1.2-0.6,1.3-0.7c0-0.1,0.2-0.8,0.5-0.9c0.1,0,0.2,0,0.3,0c0.5,0.2,0.7,0.7,0.7,0.7l0,0.1
			l-0.7,0.2l-0.2,0.6v0.7l0,0c-0.2,0.2-0.4,0.5-0.4,0.6c0,0.2,0.1,0.5,0.2,0.6l0.8,0.2l0.4-0.6l-0.7-1.1c0,0-0.1-0.1-0.1-0.2
			c0-0.1,0.1-0.2,0.3-0.3c0.4-0.2,0.7-0.2,0.9-0.2c0-0.4,0-1.1,0.2-1.1c0,0,0.1,0,0.1,0c0.2,0.2,0.6,0.2,0.6,0.2l0.1,0l0,0.5
			l1.1,0.2l0.2,0.9l1.3,0.2l0.9-0.7l0.7,0.9h1.1c0.1,0,0.2-0.1,0.4-0.3c0.4-0.3,1-0.8,1.4-0.6c0.4,0.1,0.5,0.4,0.5,0.6
			c0,0.2,0,0.3,0,0.4c0,0,0,0.1,0.1,0.1c0.1,0.1,0.3,0.1,0.7,0l0.2-1.4l0.5,0.5c0,0,0.1,0.1,0.1,0.2c0,0.1,0,0.2-0.1,0.4
			c-0.1,0.1-0.2,0.1-0.2,0.1c0,0,0,0,0,0.1c0,0.2,0.2,0.4,0.2,0.4c0.3,0.1,1.1,0.5,1.1,0.7c0,0.1,0.5,0.4,0.8,0.6
			c0.6,0.4,0.8,0.6,0.8,0.7v0.9c0.1,0.2,0.3,0.4,0.4,0.4c0.2,0,0.5,0.2,0.7,0.5c0.2,0.2,0.8,0.4,0.9,0.4c0.4,0,2.5-0.2,2.7,0
			c0.1,0.1,0.1,0.1,0.2,0.1c0.1,0,0.1,0,0.3,0.1c0.2,0.2,0.7,0.2,0.9,0.2h0l1.6,1.4L74,34V35l0.2,0.9c0.2,0.1,0.7,0.3,0.7,0.5
			c0,0.1,0.4,0.4,0.6,0.6l0.1,0l-2.3,2.5v0.7l-0.1,0c-0.1,0-0.4,0-0.4,0.2c0,0.1-0.1,0.2-0.2,0.3c0,0-0.1,0.1-0.1,0.1c0,0,0,0,0,0.1
			c0.1,0.1,0.6,0.2,0.8,0.2c0-0.2-0.1-0.5,0-0.6c0,0,0.1-0.1,0.1-0.1c0.2,0,0.9,0.2,0.9,0.2l0,0l0.4,0.4c0.1,0,0.7,0.2,0.9,0.2
			c0.2,0,0.9-0.2,1.1-0.4c0.1-0.1,0.2-0.2,0.3-0.4c0.1-0.3,0.3-0.5,0.5-0.5c0.2,0,0.4-0.2,0.4-0.2l0,0l0.9,0.2
			c0.4-0.5,0.4-0.5,0.5-0.5c0,0,0.1,0,0.1,0.1c0,0.1,0.8,1,1.6,1.8l0.1,0.1l-0.1,0c-0.2,0.1-0.4,0.2-0.5,0.3c0,0,0,0,0,0.1
			c0.2,0.2,0.4,0.2,0.4,0.2l2.9,0.2c0,0,0.2,0,0.5,0.2l0.2,0.2l0.9-0.4l0.7,0.7c0.8,1.1,1.8,2.2,2,2.2c0,0,0,0,0,0
			c0.2,0,2.2,0.2,2.2,0.2l0.1,0l0,0.1c0,0-0.2,0.4-0.2,0.9c0,0.2-0.1,0.3-0.2,0.4c-0.1,0.1-0.1,0.1,0,0.3c0.1,0.2,0.2,0.7,0.2,1.6
			c0,0.1,0.2,0.2,0.3,0.3c0.1,0.1,0.2,0.1,0.2,0.2c0,0.1-0.1,0.1-0.1,0.1c-0.1,0-0.3,0.3-0.4,0.4L89.9,50l-0.5,0.5
			c-0.2,0.2-0.3,0.2-0.3,0.2c0,0,0,0.1-0.1,0.2c-0.2,0.4-0.4,0.6-0.4,0.7c0,0.1,0,0.9-0.5,1.1c-0.4,0.2-0.4,0.2-0.9,0.7
			c-0.4,0.4-0.6,0.7-0.6,0.8c0.1,0.1,0.2,0.3,0,0.5c-0.2,0.2-0.7,0.4-0.7,0.5l0,0L85.4,55L85,56.7l-0.2,1.8
			c-0.1,0.4-0.4,1.6-0.4,1.8c0,0.1-0.1,0.1-0.2,0.2c-0.3,0.2-0.9,0.6-0.7,2.3l0,0l-1.8,1.8L81.4,66h-0.7c-0.1,0.3-0.5,1.1-0.7,1.1
			h-1.6l-0.6-0.6L77.6,67c0,0.2-0.1,0.5-0.5,0.5h-1.6L74.8,68l-1.1,1.1l0,0C73.5,69,73.2,69,73.1,69c0,0,0,0,0,0
			c0,0.1-0.1,0.2-0.2,0.5c-0.3,0.7-0.8,1.9-0.5,2.4c0.1,0.1,0.1,0.3,0.1,0.4c-0.2,0.4-1,0.7-1.2,0.8c0,0.1-0.2,0.4-0.2,0.6
			c0,0.2-1.4,1.8-1.8,2.3l0,0h-0.9l0.2-0.1c0,0,1.4-0.8,1.1-1.7c-0.2,0.1-0.6,0.5-0.6,0.8v0l0,0c0,0-0.9,0.2-1.5,1.1
			c-0.2,0.2-0.8,0.2-0.9,0.2l-0.4,1.1l-0.2,1.1L65.2,79L64,79.2l-0.4-0.4L63.1,79L62,77.8v-0.7c-0.1,0-0.2-0.2-0.4-0.2
			c-0.1,0-0.3,0.2-0.4,0.4v0.8c0.1,0,0.2,0.1,0.2,0.3c0,0.1,0.2,0.4,0.4,0.6c0.1,0,0.3,0,0.5,0.2c0.1,0.1,0.1,0.2,0.1,0.2
			c0,0.2-0.3,0.3-0.3,0.3l-0.2,0.2c-0.1,0.1-0.1,0.3-0.1,0.3c0,0,0,0,0,0c0.2,0,0.5,0.2,0.5,0.2l0,0l-0.9,1.2l-0.7,0.9L57.1,83
			l-0.4-0.2l-0.4,0.6v0.7c0,0.2-0.2,0.7-0.2,0.7l0,0l0,0c0,0-0.5,0.2-0.7,0.2h-0.5l0,0c0,0-0.8-0.7-1.2-0.5
			c-0.2,0.1-0.3,0.3-0.3,0.7c0.4,1.1,1.1,1.1,1.1,1.1l0,0l0.3,0.6h-1.4l-0.4,0.9l-0.2,0.9l0,0c-0.7,0.1-2.4,0.6-2.4,1.1
			c0,0.8,0.3,1.4,0.9,1.7l0,0l0.3,0.5l-0.9,0.5c-0.2,0.2-0.9,0.9-1.2,0.9c-0.1,0-0.2,0.4-0.2,0.6v0l-0.9,0.5h0
			c-0.3,0-0.6,0.1-0.6,0.2c0,0.1,0,0.2,0,0.3c0,0.3-0.1,0.7,0,0.8c0.2,0.2,0.2,0.7,0.2,0.7v0.1h-1.2c-0.1,0-0.7,0.2-0.9,0.2
			c-0.1,0-0.2-0.1-0.3-0.1c0,0-0.1-0.1-0.1-0.1c0,0,0,0,0,0.1v0.7C45.3,97.3,45.3,97.4,45.2,97.4C45.2,97.4,45.2,97.4,45.2,97.4z
			 M44.6,96.8l0.4,0.4c0.1,0.1,0.1,0.1,0.1,0.1c0,0,0,0,0,0v-0.7c0-0.1,0-0.2,0.1-0.2c0.1,0,0.1,0,0.2,0.1c0.1,0.1,0.1,0.1,0.2,0.1
			c0.2,0,0.9-0.2,0.9-0.2l0,0h1.1c0-0.1,0-0.4-0.2-0.6c-0.2-0.2-0.1-0.6-0.1-0.9c0-0.1,0-0.2,0-0.3c0-0.3,0.6-0.3,0.7-0.3l0.9-0.4
			c0-0.2,0-0.7,0.3-0.7c0.1,0,0.7-0.5,1.1-0.9l0,0l0.8-0.4L51,91.5c-0.6-0.4-0.9-1-0.9-1.8c0-0.7,2.1-1.1,2.5-1.2l0.2-0.9l0.5-0.9
			h1.3l-0.2-0.3c-0.2,0-0.7-0.1-1.1-1.2l0,0c0-0.4,0.1-0.7,0.3-0.8c0.5-0.2,1.2,0.4,1.3,0.5h0.4c0.2,0,0.5-0.2,0.6-0.2
			c0-0.1,0.2-0.4,0.2-0.6v-0.7l0.5-0.7l0.5,0.2l3.5-0.2l0.7-0.9l0.9-1.1c-0.1-0.1-0.2-0.2-0.4-0.2c-0.1,0-0.1,0-0.1-0.1
			c-0.1-0.1,0.1-0.4,0.1-0.5l0,0l0.2-0.2c0.1,0,0.2-0.1,0.3-0.2c0,0,0-0.1,0-0.1c-0.2-0.2-0.4-0.2-0.4-0.2l0,0l0,0
			c0,0-0.5-0.5-0.5-0.7c0-0.2-0.1-0.2-0.2-0.2l-0.1,0l0-1l0,0c0,0,0.2-0.5,0.5-0.5c0.2,0,0.5,0.2,0.5,0.2l0,0v0.7l1.1,1.1l0.4-0.2
			l0.5,0.5l1.1-0.2l0.6-0.2l0.2-1.1l0.5-1.2h0c0.2,0,0.7,0,0.9-0.2c0.6-0.8,1.4-1.1,1.6-1.1c0-0.5,0.7-0.9,0.7-0.9l0.1,0l0,0.1
			c0.4,0.8-0.6,1.5-1,1.8h0.4c0.8-1,1.7-2,1.8-2.2c0-0.2,0.2-0.7,0.2-0.7l0,0l0,0c0,0,1-0.3,1.1-0.7c0-0.1,0-0.2-0.1-0.3
			c-0.3-0.5,0.2-1.7,0.5-2.5c0.1-0.2,0.2-0.4,0.2-0.5c0,0,0-0.1,0.1-0.1c0.1-0.1,0.5,0,0.7,0l1.1-1.1l0.7-0.5h1.6
			c0.4,0,0.4-0.4,0.4-0.4l0,0l0.3-0.8l0.7,0.7H80c0.1,0,0.4-0.6,0.6-1.1l0,0h0.7l0.2-1.3l1.8-1.8c-0.2-1.7,0.5-2.1,0.8-2.3
			c0.1,0,0.1-0.1,0.1-0.1c0-0.2,0.4-1.7,0.5-1.8l0.2-1.8l0.5-1.9l0.5,0.2c0.1-0.1,0.4-0.2,0.6-0.4c0.2-0.2,0-0.3,0-0.4l0,0l0,0
			c0,0,0.2-0.5,0.7-0.9c0.5-0.5,0.5-0.5,0.9-0.7c0.4-0.2,0.4-1.1,0.4-1.1v0l0,0c0,0,0.2-0.2,0.4-0.7c0.1-0.3,0.1-0.3,0.2-0.3
			c0,0,0.2-0.1,0.3-0.2l0.4-0.4l0.2-0.7c0-0.1,0.2-0.4,0.4-0.5c0,0,0,0,0,0c-0.2-0.1-0.4-0.2-0.4-0.4c0-0.9-0.1-1.3-0.2-1.5
			c-0.1-0.3-0.1-0.3,0.1-0.4c0.1-0.1,0.2-0.1,0.2-0.3c0-0.4,0.1-0.7,0.2-0.8c-0.4,0-2-0.2-2.2-0.2c-0.2,0-1.5-1.6-2.1-2.3l-0.6-0.6
			l-0.9,0.4l-0.3-0.3c-0.2-0.2-0.4-0.2-0.4-0.2L80.9,42c0,0-0.2,0-0.5-0.2c-0.1-0.1-0.1-0.1-0.1-0.2c0-0.2,0.3-0.3,0.4-0.3
			c-0.4-0.4-1.4-1.5-1.5-1.7c-0.1,0.1-0.2,0.3-0.3,0.4l0,0L78,39.7c-0.1,0.1-0.3,0.2-0.5,0.2c-0.1,0-0.2,0.3-0.4,0.5
			c-0.1,0.2-0.2,0.3-0.3,0.4c-0.2,0.2-0.9,0.5-1.2,0.5c-0.2,0-0.9-0.2-0.9-0.2l0,0l-0.4-0.4c-0.1,0-0.7-0.2-0.9-0.2c0,0,0,0,0,0
			c-0.1,0.1,0,0.4,0.1,0.6l0,0.1h-0.1c0,0-0.7,0-0.9-0.2c-0.1-0.1-0.1-0.1-0.1-0.2c0-0.1,0.1-0.1,0.1-0.2c0.1-0.1,0.1-0.1,0.1-0.2
			c0-0.2,0.3-0.3,0.4-0.3v-0.6l2.2-2.4c-0.2-0.1-0.6-0.5-0.6-0.7c0-0.1-0.4-0.3-0.6-0.4l0,0L73.9,35v-0.9l-0.6-0.4l-1.6-1.3
			c-0.1,0-0.7,0-0.9-0.2C70.6,32,70.6,32,70.6,32c-0.1,0-0.1,0-0.3-0.1c-0.1-0.1-1.5-0.1-2.6,0l0,0l0,0c0,0-0.7-0.2-0.9-0.5
			c-0.2-0.2-0.4-0.4-0.6-0.4c-0.3,0-0.5-0.4-0.5-0.5l0,0v-0.9c0-0.1-0.5-0.4-0.8-0.6c-0.6-0.4-0.8-0.6-0.8-0.7
			c0-0.1-0.6-0.4-1.1-0.6l0,0c0,0-0.2-0.2-0.2-0.5c0-0.1,0-0.2,0.1-0.2c0,0,0.1,0,0.2-0.1c0.2-0.2,0-0.3,0-0.4l-0.4-0.4l-0.2,1.3
			l0,0c-0.4,0.1-0.7,0.1-0.8,0c-0.1-0.1-0.1-0.2-0.1-0.2l0,0c0,0,0.2-0.6-0.4-0.8c-0.4-0.1-1,0.3-1.3,0.6c-0.2,0.2-0.4,0.3-0.4,0.3
			H58l-0.7-0.9L56.4,27L55,26.7l-0.2-0.9l-1.1-0.2v-0.4c-0.1,0-0.5,0-0.7-0.2c0,0,0,0,0,0C53,25,52.9,25.5,52.9,26v0.1l-0.1,0
			c0,0-0.4,0-0.9,0.2c-0.1,0.1-0.2,0.2-0.2,0.2c0,0.1,0,0.1,0,0.1l0,0l0.7,1.2L52,28.5l-1-0.2l0,0c0,0-0.2-0.5-0.2-0.7
			c0-0.2,0.4-0.6,0.4-0.7l0-0.7l0.2-0.7l0.6-0.2c-0.1-0.1-0.3-0.4-0.6-0.6c-0.1,0-0.1,0-0.2,0c-0.2,0.1-0.4,0.7-0.4,0.9l0,0l0,0
			c0,0-1.1,0.4-1.3,0.7c-0.2,0.2-0.4,0-0.6-0.1c-0.1-0.1-0.2-0.1-0.3-0.1c0,0,0,0,0,0c-0.1,0.1,0,0.4,0.1,0.6l0,0.1l-0.7-0.2
			l-0.6,0.8V28l-1.4,1.4l0,0c-0.1,0-1.8-1.1-2-1.4c-0.2-0.2-0.6-0.2-0.8-0.2l-1.1,0.9l-1.6-0.2l-2.3-2v-1.2l0.7-0.7v-1.6l0.2-0.2
			v-0.6l-0.4-0.6l-0.7-0.2l-0.9-0.4h-1.1l-3.2,0.5l-0.3-0.5l0.5-0.5l0.4-0.6v-1.8H34v-0.6c0-0.2,0.2-0.7,0.2-0.7l0.4-0.7l0.2-0.6
			l-0.6-0.6c-0.4-0.4-1,0-1,0c-0.2,0.3-0.7,0.9-0.9,0.8c0,0-0.1-0.1-0.1-0.2c0-0.3-0.6-0.4-0.8-0.4v1.1l-0.5,0.7L30,17.5
			c0,0.2,0,0.9-0.3,0.9c-0.3,0-0.3-0.3-0.3-0.5c0,0,0,0,0,0c0,0-0.1,0.1-0.2,0.1c-0.1,0.1-0.3,0.2-0.4,0.2h-1.3l-0.7,0.2L26.6,18
			l-1.3-0.2l0,0c-0.2-0.3-1.8-2.5-1.6-3c0.2-0.4-0.2-0.6-0.2-0.6l0,0l0,0l0.2-3.1l0.2-0.5l0.2-0.8l-0.8,0.2l0,0
			c-0.5-0.5-1.2-1.1-1.3-1.1c-0.2,0-0.2-0.6-0.2-0.8c0-0.2,0-0.7,0.2-0.8c-0.1-0.1-0.6-0.5-1.1-0.8l0,0l-0.2-0.4
			c-0.2,0-1.4,0-1.6-0.2c-0.1-0.1-0.7,0.2-1,0.5l0,0l-0.7-0.7c-0.2-0.2-0.1-0.6,0-0.7l-1.5-1.3L14.1,3l-0.4,0.4l0,0
			c-0.5,0-2.7,0.2-2.9,0c0,0,0,0,0-0.1c-0.1-0.2-1.6-1-3.1-1.7H5.2v0.1C5.2,1.8,5.4,2,5.4,2.2c0,0,0,0,0,0c0,0,0.1,0,0.1,0
			c0.1,0,0.2-0.1,0.3-0.1c0.1,0,0.1,0,0.1,0.1c0.1,0.1,0,0.2,0,0.4c0,0.1,0,0.2,0,0.3C5.8,3.1,6,3.5,6,3.5l0.3,0.5L5.8,4.3v0.4
			l0.7,0.4l0.4,0.7c0,0,0.5,0.5,0.5,0.7c0,0.3,0,0.3-0.3,0.3C7,6.8,6.8,6.9,6.7,7.1C6.5,7.3,6.4,7.4,6.3,7.4
			c0.1,0.1,0.5,0.3,0.6,0.3c0.2,0,0.8,0.6,0.9,0.7l0.9,0.5v1.4c0.1,0.2,0.3,0.4,0.4,0.4c0.2,0,0.4,0.5,0.5,0.7l0.7,0.2l0.2,0.7
			l0.2,0.9h0.6v-1.3l-0.4-0.4c-0.2-0.2-0.6-0.2-0.6-0.2l-0.1,0l0-0.8c0,0-0.1,0-0.2,0c0,0-0.1-0.1-0.1-0.1c0-0.2-0.2-0.4-0.4-0.6
			C9.4,9.5,9.4,9.4,9.4,9.2c0-0.2,0-0.3-0.1-0.4C9.1,8.5,8.9,7.9,8.9,7.9L8.4,7C8.4,6.9,8,6.3,8,6V5.1C8,5.1,7.6,5,7.1,5H7.1V3.1
			L9,3.3l0.5,2l2.9,3.4l-0.2,0.5v0.6l1.5,1.8c0.1,0,0.4,0.2,0.6,0.2c0.1,0,0.1,0,0.1,0.1c0,0.1-0.1,0.3-0.2,0.4l1.3,0.9l0.2,0.9
			l-0.2,0.7l0.3,0.3l-0.5,0.3l-0.4,0.6l2.6,2.4h0.9l0.5,0.2c0.2,0.2,0.5,0.4,0.6,0.4c0.2,0,0.3,0.3,0.3,0.5l0.6,0.2l0.9,0.2l2,1.1
			h2.2c0.1-0.2,0.5-0.7,0.7-0.7h0.7c0.2,0,0.6,0.7,0.7,0.9l1.3,0.7c0.3,0.1,0.3,0.4,0.4,0.5c0,0.1,0,0.1,0.1,0.1c0.2,0,1,0.2,1,0.5
			c0.1,0.1,0.6,0,1.3-0.1l0,0l1.1,0.7l0.9,0.2l0.2-0.2c0,0,0.2-0.2,0.2-0.4c0-0.1,0-0.1,0.1-0.1c0,0,0.1,0,0.5,0.5l0,0l0.2,0.9
			l0.7,0.9c0.1,0,0.7,0.2,0.9,0.5c0.2,0.2,0.1,0.5,0,0.7c-0.1,0.2-0.2,0.3-0.3,0.3c-0.1,0-0.4,0.2-0.6,0.4l1,0.6v-0.4l1.2,0.2
			l0.7,0.4l0.5,0.5c0.3,0.3,0.7,0.7,0.9,0.7c0.3,0,1,0.5,1,0.7c0,0.1,0.6,0.4,1.1,0.6l0,0c0.1,0.1,0.3,0.3,0.3,0.3c0,0,0,0,0,0
			c0-0.2-0.2-1.1-0.2-1.1l0,0l0.5-0.5c0,0,0.9-0.4,1.1-0.7c0,0,0.1-0.1,0.2-0.1c0.3,0,0.6,0.5,0.6,0.5l0,0l0.2,1.1l0.9,1.1L44.9,32
			l0.4,0.4v3l-0.9,0.2l-0.7,1.1v0.4h0.2l0.3,0.6l-1-0.2c-0.1,0.1-0.2,0.2-0.2,0.4c0,0,0,0.1-0.1,0.1c-0.1,0-0.1,0-0.2,0
			c-0.1,0-0.3-0.1-0.4-0.1c-0.1,0-0.1,0-0.1,0c0,0,0.1,0.1,0.2,0.1l0,0l0.5,0.5l-0.5,0.7l-0.7,0.2v1.7c0.2,0,0.9,0,1.1,0.2
			c0.2,0.2-0.2,1.1-0.2,1.2l0,0l0,0c0,0-0.5,0.2-0.7,0c0,0,0,0,0,0c-0.1,0-0.1,0.3-0.1,0.7v0.1H41v0.6h0.2l0.5,1l-0.5,0.2v0.6
			l1.1,0.2v0.7l0.7,0.9l0.7,1.1l0.2,0.9c0.1,0.2,0.3,0.4,0.4,0.4c0.3,0,0.3,0.7,0.3,0.9l0.4,0.9l1.1,1.6l0.2,1.3l1.1,1.3l2.2,1.6
			h1.2v0.7l0.4,0.2l0.7,0.9l0.5,0.5l-0.2,4.3l-0.9,1.1l0.2,0.4l0.2,0.7l-0.2,0.5l0,0.9l-0.2,0.9h-0.4v0.6l0.2,0.5L50.9,70l-0.4,0.2
			v0.7l-0.2,0.2L50,72.5h-0.4l0.2,3.1l-0.5,0.2v0.9h-0.5l-0.2,1.1l-1.3,1.3v0.9h-0.4V83l-1.1,0.9l0.2,0.6l1.1,0.9l-0.2,0.5l-0.7,0.9
			L45.5,87v0.2l0.9,0.7v0.5l0,0c-0.1,0-0.3,0.2-0.5,0.1c0,0,0,0,0,0c0,0,0,0,0,0.1c-0.1,0.4-0.3,0.8-0.4,0.8h-0.4V90l-0.9-0.5
			l-0.2,0.2l0.2,0.8c0.1,0,0.4,0.2,0.6,0.2c0,0,0.1,0,0.1,0c0.2,0.2,0,1.2,0,1.4l0,0h-0.7v2.5h-0.7v0.8h1.1V96.8z M10.8,3.4
			C10.8,3.4,10.8,3.4,10.8,3.4C10.8,3.4,10.8,3.4,10.8,3.4z"/>
	</g>
</g>
</svg>
