<?xml version="1.0" encoding="utf-8"?>
<!-- Generator: Adobe Illustrator 22.1.0, SVG Export Plug-In . SVG Version: 6.00 Build 0)  -->
<svg version="1.1" id="Camada_1" xmlns="http://www.w3.org/2000/svg" xmlns:xlink="http://www.w3.org/1999/xlink" x="0px" y="0px"
	 viewBox="0 0 100 100" style="enable-background:new 0 0 100 100;" xml:space="preserve">
<style type="text/css">
	.st0{opacity:0.31;}
	.st1{fill:#057240;}
</style>
<g class="st0">
	<circle class="st1" cx="41.3" cy="6.7" r="2"/>
	<circle class="st1" cx="51.5" cy="16.9" r="2"/>
	<circle class="st1" cx="61.7" cy="27.1" r="2"/>
	<circle class="st1" cx="71.9" cy="37.3" r="2"/>
	<circle class="st1" cx="82.1" cy="47.6" r="2"/>
	<circle class="st1" cx="92.3" cy="57.8" r="2"/>
	<circle class="st1" cx="28.9" cy="19.1" r="2"/>
	<circle class="st1" cx="39.1" cy="29.4" r="2"/>
	<circle class="st1" cx="49.3" cy="39.6" r="2"/>
	<circle class="st1" cx="59.5" cy="49.8" r="2"/>
	<circle class="st1" cx="69.7" cy="60" r="2"/>
	<circle class="st1" cx="79.9" cy="70.2" r="2"/>
	<circle class="st1" cx="16.4" cy="31.6" r="2"/>
	<circle class="st1" cx="26.6" cy="41.8" r="2"/>
	<circle class="st1" cx="36.8" cy="52" r="2"/>
	<circle class="st1" cx="47.1" cy="62.2" r="2"/>
	<circle class="st1" cx="57.3" cy="72.4" r="2"/>
	<circle class="st1" cx="67.5" cy="82.6" r="2"/>
	<circle class="st1" cx="4" cy="44" r="2"/>
	<circle class="st1" cx="14.2" cy="54.2" r="2"/>
	<circle class="st1" cx="24.4" cy="64.4" r="2"/>
	<circle class="st1" cx="34.6" cy="74.6" r="2"/>
	<circle class="st1" cx="44.8" cy="84.9" r="2"/>
	<circle class="st1" cx="55" cy="95.1" r="2"/>
</g>
</svg>
