<?xml version="1.0" encoding="utf-8"?>
<!-- Generator: Adobe Illustrator 22.1.0, SVG Export Plug-In . SVG Version: 6.00 Build 0)  -->
<svg version="1.1" id="Camada_1" xmlns="http://www.w3.org/2000/svg" xmlns:xlink="http://www.w3.org/1999/xlink" x="0px" y="0px"
	 viewBox="0 0 98.8 98.8" style="enable-background:new 0 0 98.8 98.8;" xml:space="preserve">
<style type="text/css">
	.st0{opacity:0.302;fill:#1B1A1C;}
	.st1{fill:#9B1B25;}
	.st2{fill:#E2BB13;}
	.st3{fill:#253B63;}
	.st4{fill:#28863D;}
	.st5{opacity:0.2;}
	.st6{fill:#231C1E;}
	.st7{fill:#FFFFFF;}
	.st8{opacity:0.302;}
	.st9{fill:#1B1A1C;}
	.st10{fill:#E6AF12;}
	.st11{opacity:0.24;fill:#231C1E;}
</style>
<path class="st0" d="M12.4,77.5c0,0-5,9.5,6.9,12.7c0,0,4.6,0,5.7-1.7l-0.7-2.6L12.4,77.5z"/>
<path class="st1" d="M66.4,90.5c-5.1,2.1-9.7,4.8-13.9,8c-1.2,0.9-3,0.1-3-1.5l0-43c0-1.7,2-2.5,3.2-1.3L83,83.1
	c1.1,1.1,0.5,3-1.1,3.2C76.7,87,71.5,88.4,66.4,90.5z"/>
<path class="st1" d="M32.4,8.4c-5.1,2.1-10.3,3.5-15.5,4.2c-1.5,0.2-2.2,2.1-1.1,3.2l30.4,30.4c1.2,1.2,3.2,0.3,3.2-1.3l-0.1-43
	c0-1.6-1.8-2.4-3-1.5C42.2,3.6,37.5,6.2,32.4,8.4z"/>
<path class="st2" d="M90.5,66.4c-2.1,5.1-3.5,10.3-4.2,15.5c-0.2,1.5-2.1,2.2-3.2,1.1L52.7,52.6c-1.2-1.2-0.3-3.2,1.3-3.2l43,0.1
	c1.6,0,2.4,1.8,1.5,3C95.3,56.7,92.6,61.3,90.5,66.4z"/>
<path class="st2" d="M8.4,32.4c-2.1,5.1-4.8,9.7-8,13.9c-0.9,1.2-0.1,3,1.5,3l43,0c1.7,0,2.5-2,1.3-3.2L15.8,15.8
	c-1.1-1.1-3-0.5-3.2,1.1C11.9,22.1,10.5,27.3,8.4,32.4z"/>
<path class="st3" d="M90.5,32.4c2.1,5.1,4.8,9.7,8,13.9c0.9,1.2,0.1,3-1.5,3l-43,0c-1.7,0-2.5-2-1.3-3.2l30.4-30.3
	c1.1-1.1,3-0.5,3.2,1.1C87,22.1,88.4,27.3,90.5,32.4z"/>
<path class="st3" d="M8.4,66.4c2.1,5.1,3.5,10.3,4.2,15.5c0.2,1.5,2.1,2.2,3.2,1.1l30.4-30.4c1.2-1.2,0.3-3.2-1.3-3.2l-43,0.1
	c-1.6,0-2.4,1.8-1.5,3C3.6,56.7,6.3,61.3,8.4,66.4z"/>
<path class="st4" d="M66.4,8.4c5.1,2.1,10.3,3.5,15.5,4.2c1.5,0.2,2.2,2.1,1.1,3.2L52.6,46.2c-1.2,1.2-3.2,0.3-3.2-1.3l0.1-43
	c0-1.6,1.8-2.4,3-1.5C56.7,3.6,61.4,6.2,66.4,8.4z"/>
<path class="st4" d="M32.4,90.5c5.1,2.1,9.7,4.8,13.9,8c1.2,0.9,3,0.1,3-1.5l0-43c0-1.7-2-2.5-3.2-1.3L15.9,83.1
	c-1.1,1.1-0.5,3,1.1,3.2C22.1,87,27.3,88.4,32.4,90.5z"/>
<g id="path3706_3_" class="st5">
	<path class="st6" d="M54.4,76.1c-5.5,1.2-9.5-0.5-13.1-3.1c4,3.3,8.4,5.9,14.8,4.5c6.2-1.4,10.3-5.7,11.9-10.8
		c0.7-2.4,0.9-4.8,0.4-7.2c-0.3-1.9-1-3.7-2.1-5.4c-0.3-0.5-0.6-0.9-1-1.5c-1-1.2-2.2-2.3-3.6-3.3c0.7,0.6,1.3,1.2,1.9,1.9
		c1.7,2.1,2.6,4.4,3.1,6.9c0.4,2.4,0.3,4.8-0.4,7.2C64.7,70.4,60.6,74.7,54.4,76.1z M70.9,32.3c-3.8,4.8-8.3,9.6-15.2,6.3
		c1.8,1.1,3.7,1.8,5.6,1.8c2.7,0.2,5.4-0.7,7.7-3.1l0,0l0,0l0,0c0.2-0.2,0.9-1,1.6-1.8c0.9-1,1.8-2.2,2-2.2c0.5-0.2,1,0.3,1.3,0.6
		c1.1,1.1,2.7,0.8,3.4-0.7l1.7-5.9c0.1-0.2-2.6,6.5-5,4.4C73,31,71.8,31.2,70.9,32.3z M34.5,39.1c-0.5-2.1-0.1-4.2,1-5.9
		c1-1.7,2.8-3,4.9-3.5c3-0.6,5,0.5,6.9,2.1c-4.3-5.3-10.7-4.1-13.4-0.1c-2.4,3.3-2,8.5,3.1,11.7c-0.1-0.2-0.3-0.3-0.4-0.5
		c-0.1-0.1-0.2-0.2-0.4-0.4C35.5,41.6,34.8,40.4,34.5,39.1z M78.3,19.3l-0.9,1.1l1.2,1l0.9-1C79.2,20.4,78.4,19.8,78.3,19.3z
		 M20.2,81.1c0.1-0.1,0.2-0.3,0.4-0.4l0.5-0.6l9.1-10.5c1.6-1.7,3.4-2.6,5.4-1.3c-0.4-0.4-0.8-0.7-1.2-1.1c-2.2-1.6-4.2-0.8-5.9,1.1
		l-9,10.2l-0.6,0.8c-0.1,0.1-0.2,0.1-0.2,0.2c-1.1,1.4-1,3.1,0.1,4.4c0.2,0.2,0.4,0.3,0.6,0.5c0.1,0,0.1,0.1,0.2,0.1
		c0.4,0.3,0.8,0.7,1.2,1C19.4,84.4,19.2,82.6,20.2,81.1z"/>
</g>
<path class="st7" d="M74.1,16c-3.8-2.8-8.1-4.9-12.6-6.2c-4.4-1.3-9-1.9-13.8-1.7l-0.4,0c-11.5,0.6-21.6,5.6-28.8,13.4
	C11.4,29.2,7.3,39.7,7.8,51c0.4,7.7,2.9,14.9,7,20.9c0.4-0.3,0.7-0.5,1.1-0.7c-4-5.8-6.4-12.7-6.7-20.2C8.6,40,12.6,29.9,19.6,22.3
	c6.9-7.5,16.8-12.4,27.9-12.9c4.7-0.2,9.3,0.3,13.6,1.6c4.4,1.3,8.6,3.4,12.2,6c0.3,0.2,0.7,0.2,0.9-0.1
	C74.5,16.6,74.4,16.2,74.1,16z"/>
<path class="st7" d="M14.7,71.9c0,0,0.3,0.3,0.8,0.1c0,0,0.5-0.3,0.3-0.8l-1.1,0.6L14.7,71.9z"/>
<path class="st7" d="M91,46.8c-0.2-4.2-1.1-8-2.4-11.7c-1.4-3.8-3.3-7.3-5.8-10.5c-0.2-0.3-0.6-0.3-0.9-0.1
	c-0.3,0.2-0.4,0.6-0.2,0.9c2.3,3.1,4.2,6.5,5.6,10.2c1.3,3.5,2.1,7.4,2.3,11.3c0.6,10.9-3.3,21.1-10.1,28.8
	c-6.9,7.6-16.7,12.6-27.9,13.2c-9.7,0.5-18.8-2.3-26.1-7.6c-0.3,0.3-0.7,0.6-1,0.9c7.6,5.5,17.1,8.6,27.2,8
	c11.4-0.6,21.6-5.8,28.7-13.7C87.6,68.7,91.7,58.1,91,46.8z"/>
<path class="st7" d="M24.6,82.3c0,0-0.4-0.4,0-1c0,0,0.5-0.5,1.1,0.1l0.1,0.3l-0.5,0.5L25,82.3l-0.1,0.1L24.6,82.3z"/>
<g id="path3702_3_" class="st8">
	<path class="st9" d="M26.2,37.4L26.2,37.4c-0.2,8.8,2.1,14.8,10.5,17.7c1.6,0.6,3.3,0.9,4.9,1.1c3.2,0.4,5,0.3,8.1,0.4
		c4.8,0.2,11,2.1,10.5,7.4c0.1-0.3,0.2-0.6,0.2-1l0,0l0-0.1c0,0,0-0.1,0-0.1l0,0l0-0.1l0,0l0,0c0.1-0.1,0.1-0.1,0.1-0.2l0,0l0-0.1
		l0,0l0-0.1l0,0l0,0l0-0.1l0,0l0,0l0,0l0-0.1l0,0l0,0l0-0.1l0,0l0-0.1l0,0l0,0l0-0.1l0,0l0-0.1l0,0l-0.1,0l0,0l0-0.1l0,0l0-0.1l0,0
		l0-0.1l0,0l0,0l0,0l0-0.1l0,0l0-0.1l0,0l0,0l0-0.1l0,0l0,0l0-0.1l0,0l0-0.1l0,0l0,0l0-0.1l0,0l-0.1-0.1l0,0l0-0.1l0-0.1l0,0l0,0
		l0-0.1l0,0l0,0l0-0.1l0,0l0-0.1l0,0l0,0l0,0l-0.1-0.1l0-0.1l0-0.1l0,0l0,0l0-0.1l0-0.1l-0.1,0l0-0.1l0,0l0-0.1l0-0.1l0,0l0,0
		l-0.1-0.1l0-0.1l0,0l0-0.1l-0.1-0.1l0-0.1l0,0l0,0l0,0l0-0.1l0,0l-0.1-0.1l0,0l0,0l0,0l0-0.1l0-0.1l-0.1,0l0,0l0-0.1l0-0.1l0-0.1
		l-0.1,0l0-0.1l0-0.1l-0.1,0l0,0l0-0.1l0-0.1l0,0l-0.1,0l0-0.1l0,0c0,0,0-0.1-0.1-0.1l0,0l0-0.1l0-0.1l-0.1,0l0-0.1l-0.1-0.1l0,0
		l0-0.1l0,0l-0.1-0.1l0,0l0,0l0-0.1l-0.1-0.1l0,0l0,0l-0.1-0.1l0,0l0,0l0,0l-0.1-0.1l0-0.1l0,0l0,0l0,0L59.3,58l0,0l0-0.1l0,0
		l-0.1,0l0,0l0-0.1l0,0l-0.1,0l0,0l0-0.1l0,0l-0.1-0.1l0,0l0,0l0,0L59,57.6l0,0l0-0.1l0,0l-0.1,0l0,0c0-0.1,0-0.1-0.1-0.1l0,0
		c0-0.1,0-0.1-0.1-0.2l0,0c0,0-0.1,0-0.1-0.1l0,0l-0.1-0.1l0,0l-0.1-0.1l0,0C58.5,57,58.5,57,58.5,57l0,0c-0.1-0.1-0.1-0.1-0.1-0.1
		l0,0c0-0.1,0-0.1-0.1-0.2l0,0c0,0-0.1,0-0.1-0.1l0,0c-0.1,0-0.1,0-0.1-0.1l0,0c-0.1,0-0.1-0.1-0.1-0.1l0,0l-0.1-0.1l0,0l-0.1-0.1
		l0,0c-0.1,0-0.1-0.1-0.2-0.1l0,0l-0.1-0.1l0,0c-0.1,0-0.1-0.1-0.1-0.1l0,0l-0.1-0.1l0,0c-0.1,0-0.1-0.1-0.1-0.1l0,0l-0.1-0.1l0,0
		c-0.1,0-0.1-0.1-0.1-0.1l0,0l-0.1-0.1l0,0c-0.1,0-0.1-0.1-0.1-0.1l0,0l-0.1-0.1l0,0c-0.1,0-0.1,0-0.1-0.1l0,0c-0.1,0-0.1,0-0.1-0.1
		l0,0l-0.1,0l0,0c-0.1-0.1-0.1-0.1-0.1-0.1l0,0c-0.1-0.1-0.1-0.1-0.1-0.1l0,0c0,0-0.1-0.1-0.1-0.1l0,0c0,0-0.1,0-0.1-0.1l0,0
		c-0.1,0-0.2,0-0.2,0l0,0C55.6,55,55.6,55,55.5,55l0,0c-0.1,0-0.1-0.1-0.1-0.1l0,0c-0.1,0-0.1,0-0.1-0.1l0,0c0,0-0.1,0-0.2,0l0,0
		c0-0.1-0.1-0.1-0.2-0.1l0,0l-0.1-0.1l0,0c0,0-0.1,0-0.2,0l0,0c0-0.1-0.1-0.1-0.1-0.1l0,0c0,0-0.1,0-0.1-0.1l0,0c-0.1,0-0.1,0-0.2,0
		l0,0c-0.1,0-0.1,0-0.1-0.1l0,0c-0.1,0-0.1,0-0.2,0l0,0c-0.1,0-0.2,0-0.1-0.1l0,0c-0.1,0-0.2,0-0.2,0l0,0c0,0-0.1,0-0.1-0.1l0,0
		l-0.2,0l0,0c-0.1,0-0.2,0-0.2,0l0,0c-0.1-0.1-0.1-0.1-0.2-0.1l0,0c0,0-0.1,0-0.2,0l0,0c-0.1,0-0.2,0-0.1-0.1l0,0
		c-0.1,0-0.2,0-0.2,0l0,0c0,0-0.1,0-0.2,0l0,0c-0.1,0-0.2,0-0.2,0l0,0L51.8,54l0,0c-0.1,0-0.2,0-0.2,0l0,0c0,0-0.1,0-0.2,0l0,0
		c-0.1,0-0.2,0-0.2,0l0,0c0,0-0.1,0-0.2,0l0,0c-0.1-0.1-0.1-0.1-0.2-0.1l0,0c-0.1,0-0.2,0-0.2,0l0,0c-0.1,0-0.2,0-0.2,0l0,0
		c-0.1,0-0.2,0-0.2,0l0,0c-0.1,0-0.2,0-0.2,0l0,0l-0.1,0l0,0l-0.2,0l0,0l-0.2,0l0,0l-0.2,0l0,0l-0.2,0l-0.2,0l0,0l-0.1,0l-0.2,0l0,0
		l-0.2,0l-0.2,0l0,0l-0.1,0l-0.2,0l-0.2,0l-0.1,0l-0.2,0l0,0l-0.1,0l0,0l-0.2,0l-0.2,0l0,0l-0.1,0l0,0l-0.2,0l0,0l-0.1,0l-0.2,0
		l-0.1,0l0,0l-0.2,0l0,0l-0.2,0l0,0l-0.1,0l0,0l-0.2,0l-0.1,0l-0.2,0l-0.1,0l0,0l-0.2,0l0,0l-0.1,0l-0.2,0l0,0l-0.1,0l0,0l-0.2,0
		l0,0l-0.1,0l-0.2,0l0,0l-0.2,0l-0.1,0l0,0l-0.2,0l0,0l-0.1,0l0,0l-0.2,0l0,0l-0.2,0l0,0l-0.1,0l0,0l-0.2,0l0,0l-0.1,0l0,0l-0.2,0
		l-0.2,0l0,0l-0.1,0l0,0l-0.2,0l0,0l-0.1-0.1l0,0l-0.2,0l-0.1,0l0,0l-0.2,0l0,0l-0.2,0l0,0l-0.2,0l0,0l-0.2,0l0,0l-0.1,0l-0.2,0l0,0
		l-0.2,0l0,0l-0.1-0.1l0,0l-0.2,0l0,0l-0.2,0l0,0l-0.2,0l0,0l-0.1,0l0,0l-0.1,0l0,0l-0.1,0l0,0l-0.1,0l0,0l-0.1,0l0,0l-0.1-0.1
		l-0.1,0l0,0l-0.1,0l0,0l-0.2,0l0,0l-0.1,0l-0.1,0l0,0l-0.1,0l0,0l-0.1,0l-0.1,0l-0.1-0.1l-0.2,0l0,0l-0.1,0l0,0l-0.1,0l-0.1,0l0,0
		l-0.1,0c-0.1-0.1-0.1-0.1-0.2-0.1l-0.1,0l0,0l-0.1,0l-0.1,0l0,0L39.7,53l-0.1,0l-0.1,0l0,0l-0.1,0l-0.2,0l0,0l-0.1-0.1l0,0l-0.1,0
		l0,0l-0.1,0l-0.1,0l0,0l-0.1,0l0,0l-0.1-0.1l-0.1,0l-0.1,0l0,0l-0.1,0l0,0l-0.1-0.1l-0.1,0l-0.1,0l0,0l-0.1,0l0,0l-0.1-0.1l-0.1,0
		l-0.1,0l0,0l-0.1,0l0,0l-0.1-0.1l-0.1,0l-0.1,0l-0.1,0l-0.1-0.1l-0.1,0l0,0l-0.1,0l-0.1,0l-0.1-0.1l-0.1,0l-0.1,0l0,0l-0.1-0.1
		l-0.1,0l-0.1,0c-0.1-0.1-0.2-0.1-0.4-0.2l-0.1-0.1c-0.1,0-0.2-0.1-0.3-0.1l-0.1,0c-0.1-0.1-0.3-0.2-0.4-0.2l-0.1-0.1
		c-0.1-0.1-0.1-0.1-0.3-0.2l-0.1,0c-0.1-0.1-0.2-0.2-0.4-0.2l-0.1-0.1c-0.1-0.1-0.2-0.1-0.3-0.2l-0.1-0.1c-0.2,0-0.2-0.1-0.4-0.2
		l-0.1-0.1c-0.1,0-0.1-0.1-0.3-0.2l-0.1-0.1c-0.1,0-0.2-0.1-0.3-0.2l-0.1-0.1c-0.1-0.1-0.2-0.1-0.3-0.2l-0.1-0.1
		c-0.1-0.1-0.2-0.2-0.3-0.2l-0.1,0c-0.1-0.1-0.1-0.2-0.3-0.2l-0.1-0.1c-0.1-0.1-0.1-0.2-0.2-0.2l-0.1-0.1c-0.1-0.1-0.2-0.2-0.3-0.2
		L31.4,49c-0.1-0.1-0.1-0.2-0.2-0.2l-0.1-0.1c-0.1-0.2-0.2-0.2-0.3-0.3l-0.1-0.1c-0.1-0.1-0.1-0.2-0.2-0.2l-0.1-0.1
		c-0.1-0.1-0.1-0.2-0.2-0.2l-0.1-0.1c-0.1-0.1-0.1-0.2-0.2-0.2l-0.1-0.1c-0.1-0.2-0.1-0.2-0.2-0.3l-0.1-0.1
		c-0.1-0.1-0.1-0.2-0.2-0.2l-0.1-0.2c-0.1-0.1-0.1-0.2-0.1-0.2c0,0-0.1,0-0.1-0.1c-0.1-0.1-0.1-0.2-0.2-0.3L28.8,46
		c-0.1-0.1-0.1-0.2-0.1-0.2l-0.1-0.1c-0.1-0.2-0.1-0.2-0.1-0.3l-0.1-0.2c-0.1-0.1-0.1-0.2-0.1-0.2l-0.1-0.2
		c-0.1-0.1-0.1-0.2-0.1-0.3c-0.1,0-0.1-0.1-0.1-0.1c-0.1-0.1-0.1-0.2-0.1-0.2l-0.1-0.2c0-0.1-0.1-0.2-0.1-0.2
		c-0.1-0.1-0.1-0.2-0.1-0.2c0-0.1-0.1-0.2-0.1-0.2l-0.1-0.2c0-0.1-0.1-0.2-0.1-0.2c-0.1-0.1-0.1-0.1-0.1-0.2
		c-0.1-0.1-0.1-0.2-0.1-0.3c0,0,0-0.1,0-0.1c-0.1-0.1-0.1-0.2-0.1-0.2C27,42.2,27,42.2,27,42.2c-0.1-0.2-0.1-0.2-0.1-0.4
		c0,0,0-0.1,0-0.1c-0.1-0.1-0.1-0.2-0.1-0.2c0-0.1-0.1-0.2-0.1-0.2c0-0.1-0.1-0.2-0.1-0.3c0-0.1,0-0.1-0.1-0.2c0-0.1,0-0.1,0-0.2
		c-0.1-0.1-0.1-0.1-0.1-0.2c0-0.1-0.1-0.2-0.1-0.3c0-0.1,0-0.1,0-0.2c-0.1-0.1-0.1-0.1-0.1-0.2c0-0.1,0-0.1,0-0.2
		c-0.1-0.1-0.1-0.2-0.1-0.2c0-0.1,0-0.1,0-0.2c-0.1-0.1-0.1-0.2-0.1-0.2c0-0.1,0-0.1,0-0.2c0,0,0-0.1,0-0.1
		c-0.1-0.1-0.1-0.2-0.1-0.2c0-0.1,0-0.2,0-0.3c0-0.1,0-0.1,0-0.1c0-0.1,0-0.1,0-0.2C26.2,37.5,26.2,37.4,26.2,37.4L26.2,37.4z
		 M22.2,86.7c-0.9-1.3-0.6-2.6,0.1-3.9c0.2-0.4,0.6-0.7,0.9-1.1c0.3-0.4,0.6-0.8,1-1.2c2.3-2.3,5.7-6.7,7.9-8.3l0.1-0.1l0,0l0,0
		l0-0.1l0.1,0l0,0l0.1-0.1l0,0l0.1,0l0,0l0,0l0.1-0.1l0,0l0,0l0.1-0.1l0,0l0.1,0l0,0l0.1-0.1l0,0l0,0l0,0l0.1,0l0.1-0.1l0,0l0.1,0
		l0,0l0.1-0.1l0,0l0,0l0,0l0.1,0l0,0l0.1,0l0,0c0-0.1,0.1-0.1,0.1-0.1l0,0l0.1,0l0,0l0.1,0l0,0c0-0.1,0.1-0.1,0.2-0.1l0,0
		c0.1,0,0.1,0,0.2,0l0,0l0.1,0l0,0c0.6-0.1,1.2,0.1,1.8,0.5l0,0c1,0.6,1.9,1.5,3.2,2.6c3.6,3,8.9,6.9,15.9,6.3
		C66.2,80,77,67.3,66.3,54l0,0.1l0.1,0l0,0l0,0l0,0l0,0l0,0l0,0l0,0l0,0l0,0.1l0,0l0,0l0,0l0,0c0.1,0.1,0.1,0.1,0.1,0.2l0,0
		c0.4,0.8,0.8,1.5,1.1,2.3l0,0.1c0.3,0.8,0.5,1.7,0.7,2.6l0,0c0,0,0,0.1,0,0.1c0.1,0.1,0.1,0.2,0.1,0.2l0,0c0,0.1,0,0.1,0.1,0.2l0,0
		c0,0.1,0,0.1,0,0.2l0,0l0,0.1l0,0c0.1,0.1,0.1,0.2,0.1,0.2l0,0c0,0.1,0,0.2,0,0.4l0,0c0.1,0.1,0.1,0.2,0.1,0.3l0,0
		c0,0.1,0,0.2,0,0.2l0,0l0,0.1l0,0.1l0,0l0.1,0.1l0,0c0,0.1,0,0.1,0,0.2l0,0l0,0.1c0,0.1,0,0.1,0,0.2l0,0c0,0.1,0,0.1,0,0.2l0,0
		c0,0.1,0,0.2,0,0.3l0,0.1l0,0l0,0.1l0,0l0,0.1l0,0.1l0,0.1l0,0l0,0.1l0,0l0,0.1l-0.1,0.1l0,0.1l0,0.1l0,0.2l0,0.1l0,0.1l0,0.1
		l-0.1,0.1l0,0.1l0,0.1l0,0.1l0,0.1l-0.1,0.1l0,0.1l0,0.1l0,0l0,0.1l0,0l-0.1,0.1l0,0.1l0,0.1l0,0l0,0.1l0,0L68.1,66l0,0l0,0.1l0,0
		l0,0.1l0,0L68,66.3l0,0l0,0.1l0,0l0,0.1l0,0l-0.1,0.1l0,0c0,0.1,0,0.1-0.1,0.2l0,0c0,0.1,0,0.1-0.1,0.2l0,0c0,0.1,0,0.1-0.1,0.2
		l0,0c0,0.1-0.1,0.3-0.2,0.5c0,0.1,0,0.1-0.1,0.2c0,0.1,0,0.1-0.1,0.2c0,0.1-0.1,0.1-0.1,0.2c-0.1,0.1-0.1,0.1-0.1,0.2
		c-0.1,0.1-0.2,0.3-0.2,0.4c0,0.1-0.1,0.1-0.1,0.2l0,0c-0.1,0.1-0.1,0.1-0.2,0.2c0,0.1-0.1,0.1-0.1,0.2l0,0
		c-0.1,0.1-0.2,0.3-0.3,0.4c-0.1,0.1-0.2,0.3-0.2,0.4l0,0c0,0.1-0.1,0.1-0.2,0.2l0,0c0,0.1-0.1,0.1-0.1,0.2
		c-0.1,0.1-0.2,0.1-0.2,0.2c-0.1,0.1-0.2,0.3-0.3,0.4c-0.1,0.1-0.1,0.1-0.2,0.2l0,0C65.1,72,65.1,72,65,72.1
		c-0.1,0.1-0.1,0.1-0.2,0.2c-0.1,0-0.2,0.1-0.2,0.1l0,0c-0.1,0.1-0.2,0.1-0.2,0.2c-0.1,0.1-0.2,0.1-0.2,0.1l0,0
		c0,0.1-0.1,0.1-0.2,0.2l0,0c-0.1,0.1-0.2,0.1-0.2,0.2c-0.1,0-0.2,0.1-0.2,0.1l0,0c0,0.1-0.1,0.1-0.2,0.2l0,0
		c-0.1,0-0.2,0.1-0.2,0.1c0,0.1-0.1,0.1-0.2,0.1C63.1,74,63.1,74,63,74.1c0,0.1-0.1,0.1-0.2,0.1c-0.1,0.1-0.2,0.1-0.2,0.1
		c-0.1,0.1-0.2,0.1-0.2,0.2l0,0c0,0-0.1,0.1-0.2,0.1c-0.1,0.1-0.2,0.1-0.2,0.1l0,0C61.9,75,61.8,75,61.7,75
		c-0.1,0.1-0.2,0.1-0.2,0.1c-0.1,0.1-0.2,0.1-0.2,0.1c-0.1,0.1-0.2,0.1-0.2,0.1l0,0c-0.1,0.1-0.2,0.1-0.2,0.1
		c-0.1,0.1-0.2,0.1-0.2,0.1l0,0c-0.1,0.1-0.2,0.1-0.2,0.1l0,0C60.3,76,60.2,76,60.1,76c-0.1,0-0.2,0.1-0.2,0.1
		c-0.1,0-0.2,0.1-0.2,0.1l0,0c-0.2,0.1-0.2,0.1-0.3,0.1l0,0c-0.1,0.1-0.2,0.1-0.2,0.1l0,0c-0.1,0-0.2,0.1-0.2,0.1
		c-0.2,0.1-0.2,0.1-0.3,0.1l0,0c-0.1,0-0.2,0.1-0.2,0.1l0,0c-0.2,0.1-0.2,0.1-0.3,0.1l0,0c-0.1,0-0.2,0.1-0.2,0.1l0,0
		c-0.2,0-0.2,0.1-0.3,0.1l0,0c-0.1,0.1-0.2,0.1-0.3,0.1c-0.1,0-0.2,0-0.2,0.1l0,0c-0.2,0-0.2,0.1-0.3,0.1l0,0
		c-0.1,0-0.2,0.1-0.3,0.1l0,0c-0.1,0-0.2,0.1-0.3,0.1l0,0c-0.1,0.1-0.2,0.1-0.3,0.1l0,0c-0.2,0.1-0.2,0.1-0.4,0.1l0,0
		c-0.2,0.1-0.2,0.1-0.4,0.1l0,0c-0.1,0.1-0.2,0.1-0.3,0.1l0,0c-0.2,0.1-0.2,0.1-0.4,0.1l0,0c-0.1,0-0.2,0-0.3,0.1l0,0
		c-0.2,0-0.2,0-0.3,0l0,0c-0.2,0-0.2,0-0.4,0.1l0,0c-0.1,0-0.2,0-0.3,0c-0.1,0-0.2,0-0.3,0c-0.2,0-0.2,0-0.4,0c-0.1,0-0.2,0-0.3,0
		c-0.1,0-0.2,0-0.3,0c-0.1,0-0.2,0-0.3,0c-0.1,0-0.2,0-0.3,0c-0.1,0-0.2,0-0.3,0c-0.1-0.1-0.2-0.1-0.3-0.1c-0.1,0-0.2,0-0.3,0l0,0
		c-0.1-0.1-0.1-0.1-0.3-0.1l0,0c-0.1,0-0.2,0-0.3-0.1c-0.1,0-0.2,0-0.2,0c-0.1-0.1-0.2-0.1-0.3-0.1c-0.1,0-0.2-0.1-0.3-0.1
		c-0.1,0-0.1-0.1-0.3-0.1l0,0c-0.1,0-0.2-0.1-0.2-0.1c-0.1,0-0.2-0.1-0.3-0.1C47.9,77,47.8,77,47.7,77c-0.1-0.1-0.1-0.1-0.2-0.2
		c-0.1,0-0.1-0.1-0.3-0.1c-0.1,0-0.1-0.1-0.2-0.1c-0.1-0.1-0.2-0.1-0.3-0.2c-0.1,0-0.1-0.1-0.2-0.1c-0.1-0.1-0.1-0.1-0.3-0.2l0,0
		c-0.1,0-0.1-0.1-0.2-0.2c-0.1,0-0.1-0.1-0.2-0.1c-0.1-0.1-0.2-0.1-0.3-0.2l0,0c-0.1-0.1-0.1-0.1-0.2-0.2l0,0
		c-0.1,0-0.1-0.1-0.2-0.2l0,0c-0.2,0-0.2-0.1-0.3-0.1c-0.1-0.1-0.1-0.2-0.2-0.2c-0.1-0.1-0.1-0.2-0.2-0.2c-0.1-0.1-0.1-0.2-0.3-0.2
		c-0.1-0.2-0.3-0.2-0.4-0.3c-0.1-0.1-0.1-0.2-0.2-0.2c-0.1-0.1-0.1-0.2-0.2-0.2l0,0c-0.1,0-0.1-0.1-0.3-0.2
		c-0.1-0.1-0.1-0.1-0.2-0.2l0,0c-0.1-0.1-0.1-0.2-0.2-0.2l0,0c-0.1-0.1-0.1-0.2-0.2-0.2l0,0c-0.1,0-0.1-0.1-0.2-0.2l0,0
		c-0.1-0.1-0.3-0.2-0.4-0.3l-0.2-0.2l0,0c-0.2-0.2-0.4-0.4-0.7-0.5l0,0c-0.1-0.2-0.3-0.2-0.4-0.4L40,72c-0.2-0.1-0.3-0.2-0.4-0.4
		l0,0c-0.2-0.2-0.4-0.4-0.7-0.5l-0.1-0.2l0,0l-0.2-0.2l0,0c-2.2-2-4.4-4.5-7.4-1.8l-0.1,0.1l0,0C31,69,31,69,30.9,69l0,0L30.8,69
		l0,0l-0.1,0.1l0,0l-0.1,0.1l0,0l-0.1,0.1l0,0l-0.1,0.1l0,0l-0.1,0.1l0,0l-0.1,0.1l0,0l-0.1,0.1l0,0l-0.1,0.1l0,0l-1,1.2l0,0l-8,9.2
		l-0.1,0.1l-0.5,0.5c-0.2,0.2-0.2,0.4-0.4,0.5c-0.1,0.1-0.1,0.1-0.2,0.3l0,0l0,0c-0.6,1.2-0.5,2.5,0.2,3.6l0.9,0.9L22.2,86.7z
		 M36.7,43c-3.5-6.5,2.8-12.6,8.6-9c3.4,2.1,5.8,5.3,8.9,7.2c4.7,2.7,11.2,3.5,16.4-5.7l0,0l0,0l-0.1,0.1l0,0l0,0l0,0.1l-0.1,0
		l0,0.1l0,0l-0.1,0l0,0.1l0,0l-0.1,0.1l0,0l0,0l-0.1,0.1l0,0l0,0.1l-0.1,0l0,0l0,0.1L70,36.2l0,0.1l0,0l-0.1,0l-0.1,0.1l0,0.1l0,0
		l0,0l-0.1,0.1l0,0l0,0l0,0.1l-0.1,0l0,0l0,0.1l0,0l-0.1,0l0,0.1l0,0l0,0l-0.1,0l0,0.1l0,0l0,0l-0.1,0.1l0,0l0,0l0,0l0,0l-0.1,0.1
		l0,0l0,0l0,0.1l0,0l-0.1,0l0,0l0,0.1l0,0l0,0l0,0l-0.1,0l0,0l0,0.1l0,0l0,0l0,0l-0.1,0.1l0,0l0,0l0,0l0,0l0,0l-0.1,0.1l0,0l0,0l0,0
		l0,0l0,0l0,0l0,0L69,37.3c-5.2,4.4-10.4,3.3-15.3-0.1c-0.1-0.1-0.1-0.1-0.2-0.2c-0.5-0.4-0.9-0.8-1.2-1.1c-0.7-0.5-1.2-0.9-2-1.6
		c-0.2-0.2-0.4-0.4-0.6-0.5l0,0c-2.9-2.4-5-4.8-8.6-4.3l0,0c-0.1,0-0.1,0.1-0.2,0.1l-0.1,0c0,0-0.1,0-0.2,0l-0.1,0.1l-0.1,0
		c-0.1,0-0.2,0-0.2,0l-0.1,0.1l-0.1,0l-0.2,0.1l-0.1,0l-0.1,0l-0.1,0.1l-0.2,0L39.7,30l-0.1,0L39.5,30l-0.2,0l-0.1,0.1l-0.1,0
		l-0.1,0.1l-0.1,0l-0.2,0.1l-0.1,0.1l-0.1,0l-0.1,0.1l-0.1,0l-0.1,0.1l-0.1,0.1l-0.2,0l-0.1,0.1l-0.1,0.1l-0.1,0L38,30.7l0,0
		l-0.1,0.1l-0.1,0.1l-0.1,0l0,0l-0.1,0.1l0,0L37.6,31l-0.1,0.1l-0.1,0l0,0l-0.1,0.1l0,0l-0.1,0.1l-0.1,0.1l-0.1,0.1l-0.1,0.1l0,0
		l-0.1,0l0,0l-0.1,0.1l-0.1,0.1l-0.1,0.1l0,0l0,0.1l-0.1,0.1l0,0c-0.2,0.1-0.2,0.2-0.3,0.4l-0.1,0.1l-0.1,0.1l0,0l-0.1,0.1L36,32.4
		c0,0-0.1,0.1-0.1,0.1c-0.1,0.1-0.1,0.1-0.2,0.2l0,0c-0.1,0-0.1,0.1-0.2,0.1l0,0c0,0.1-0.1,0.1-0.1,0.2c-0.1,0.1-0.2,0.1-0.2,0.2
		l0,0c-0.2,0.3-0.3,0.7-0.5,0.9c0,0.1-0.1,0.1-0.1,0.1l0,0l0,0.2l0,0l-0.1,0.1c0,0.1,0,0.1,0,0.1l-0.1,0.1l0,0.1l0,0l0,0.1l-0.1,0.1
		l0,0l0,0.1l0,0.1l-0.1,0.1l0,0l0,0.1l0,0l0,0.1l0,0l0,0.1l0,0l0,0.1L34.4,36l0,0l0,0.1l0,0l0,0.1l0,0.1l0,0.1l0,0.1l0,0.1l0,0.1
		l0,0.1l0,0l-0.1,0.1l0,0.1l0,0.1l0,0l0,0.1l0,0l0,0.1l0,0.1l0,0l0.1,0.1l0,0.1l0,0l0,0.1l0,0.1l0,0.1l0,0.1l0,0.1l0,0.1l0.1,0.1
		l0,0l0,0.1l0,0.1l0,0.1l0.1,0.1l0,0.1l0,0.1l0,0.1l0.1,0.2l0,0.1l0,0.1l0.1,0.1l0,0l0,0.1l0,0.1l0.1,0.1l0,0.1l0,0l0,0.1l0,0l0,0
		l0.1,0.1l0,0.1l0,0l0,0.1l0,0l0,0.1l0,0l0.1,0l0,0l0,0.1l0,0l0,0.1l0.1,0.1l0,0l0,0.1l0,0l0,0l0,0l0.1,0.1l0,0l0,0.1l0,0l0,0.1
		l0.1,0.1l0,0l0.1,0.1l0,0.1l0,0.1l0,0l0.1,0l0,0.1l0,0l0.1,0.1l0,0l0,0.1l0,0l0.1,0.1l0,0l0,0.1l0.1,0l0,0.1l0,0l0,0.1l0,0l0.1,0.1
		l0,0l0,0l0.1,0.1l0,0l0,0.1l0,0l0.1,0l0,0.1l0,0l0.1,0.1l0,0l0,0l0.1,0.1l0,0l0,0.1l0,0l0.1,0l0,0.1l0.1,0.1l0,0l0,0l0.1,0.1l0,0.1
		l0,0l0.1,0l0,0.1l0,0l0.1,0.1l0,0l0.1,0.1l0,0l0.1,0.1l0,0.1l0.1,0l0.1,0.1l0,0l0,0.1l0,0l0,0l0,0l0,0l0,0l0.1,0l0,0l0,0l0,0.1l0,0
		l0,0l0,0l0,0l0,0l0.1,0l0,0l0,0l0,0l0,0.1l0,0l0,0l0,0l0,0l0,0l0.1,0l0,0l0,0l0,0l0,0l0,0l0,0l0,0l0,0l0,0.1l0,0l0,0l0,0l0,0l0,0
		L36.7,43L36.7,43L36.7,43L36.7,43L36.7,43L36.7,43L36.7,43L36.7,43L36.7,43L36.7,43L36.7,43L36.7,43L36.7,43L36.7,43L36.7,43
		L36.7,43L36.7,43L36.7,43L36.7,43z"/>
</g>
<path class="st7" d="M21,85.8c-1.8-1.3-1.9-3.6-0.4-5.2l9.6-11c1.7-1.9,3.6-2.7,5.9-1.1c1,0.7,1.9,1.6,2.9,2.4
	c4.8,4,9.5,8.2,17.1,6.4c6.2-1.4,10.3-5.7,11.9-10.8c0.7-2.4,0.9-4.8,0.4-7.2c-0.4-2.5-1.4-4.8-3.1-6.9c-8.2-9.2-16.6-4.8-25.6-7.8
	c-1.3-0.4-2.4-1.2-3.3-2.2c-0.9-0.9-1.5-2.1-1.8-3.5c-0.5-2.1-0.1-4.2,1-5.9c1-1.7,2.8-3,4.9-3.5c4.2-0.9,6.4,1.6,9.4,4.3
	c1,0.8,2.2,1.8,3.4,2.9c5,4.2,11,5.2,15.8,0.5c0.5-0.4,3.2-3.9,3.5-4c0.5-0.2,1,0.3,1.3,0.6c1.1,1.1,2.7,0.8,3.4-0.7l2.2-7.5
	c0.4-1.5,0.9-2.8-0.2-3.8c-0.1-0.2-0.3-0.4-0.5-0.5l1.8-2.1l3.1,0.3c0.5,0,0.8-0.3,0.9-0.8c0-0.4-0.3-0.8-0.8-0.8l-2.9-0.3l-0.7-2.8
	c-0.1-0.5-0.6-0.7-1-0.6c-0.5,0.1-0.8,0.6-0.6,1l0.7,2.9l-0.4,0.5l0,0l-1.4,1.7c-0.1-0.2-0.3-0.2-0.4-0.4c-0.7-0.6-1.5-0.7-2.3-0.5
	c-0.5,0.1-1,0.4-1.5,0.6L66,23.3c-1.2,0.6-1.8,2.1-1,3.2c0.7,0.8,1.9,0.8,0.8,2.2l-1.7,2c-1.7,2.1-3.4,1.7-5.1,0.5
	c-1.2-0.9-2.3-1.9-3.4-2.8c-4.9-4.1-9.3-7.9-17.6-5.9c-4.3,1-7.2,3-9.4,6.4C23.2,37.5,27.3,49,37,52.3c1.6,0.5,3.2,0.9,4.9,1.1
	c3.2,0.3,5,0.3,8.1,0.4c4.4,0.2,7.3,1.7,8.9,3.7c0.8,1,1.3,2.1,1.5,3.3c0.3,1.2,0.1,2.4-0.2,3.6c-0.7,2.5-2.7,4.7-5.9,5.4
	c-3.7,0.8-6.9-2-10-4.7c-1.8-1.6-3.6-3.2-5.7-4.3c-2.1-1.2-4.5-1.7-6.8-1.4c-1.4,0.2-2.7,0.7-4.1,1.6c-2.2,1.5-4,3.9-5.7,5.9
	c-2,2.2-9.1,9.6-9.9,11.8c-0.3,0.7-0.4,1.6-0.5,2.4c-0.2,4.5,3.4,8.4,8,8.5c1.9,0.1,3.6-0.5,5-1.4l0,0l0.1-0.1l0,0
	c-1-0.5-1.4-0.8-2.3-1.4C21.9,86.4,21.5,86.1,21,85.8z"/>
<path class="st7" d="M21,85.8c-1.8-1.3-1.9-3.6-0.4-5.2l9.6-11c1.7-1.9,3.6-2.7,5.9-1.1c1,0.7,1.9,1.6,2.9,2.4
	c4.8,4,9.5,8.2,17.1,6.4c6.2-1.4,10.3-5.7,11.9-10.8c0.7-2.4,0.9-4.8,0.4-7.2c-0.4-2.5-1.4-4.8-3.1-6.9c-8.2-9.2-16.6-4.8-25.6-7.8
	c-1.3-0.4-2.4-1.2-3.3-2.2c-0.9-0.9-1.5-2.1-1.8-3.5c-0.5-2.1-0.1-4.2,1-5.9c1-1.7,2.8-3,4.9-3.5c4.2-0.9,6.4,1.6,9.4,4.3
	c1,0.8,2.2,1.8,3.4,2.9c5,4.2,11,5.2,15.8,0.5c0.5-0.4,3.2-3.9,3.5-4c0.5-0.2,1,0.3,1.3,0.6c1.1,1.1,2.7,0.8,3.4-0.7l2.2-7.5
	c0.4-1.5,0.9-2.8-0.2-3.8c-0.1-0.2-0.3-0.4-0.5-0.5l1.8-2.1l3.1,0.3c0.5,0,0.8-0.3,0.9-0.8c0-0.4-0.3-0.8-0.8-0.8l-2.9-0.3l-0.7-2.8
	c-0.1-0.5-0.6-0.7-1-0.6c-0.5,0.1-0.8,0.6-0.6,1l0.7,2.9l-0.4,0.5l0,0l-1.4,1.7c-0.1-0.2-0.3-0.2-0.4-0.4c-0.7-0.6-1.5-0.7-2.3-0.5
	c-0.5,0.1-1,0.4-1.5,0.6L66,23.3c-1.2,0.6-1.8,2.1-1,3.2c0.7,0.8,1.9,0.8,0.8,2.2l-1.7,2c-1.7,2.1-3.4,1.7-5.1,0.5
	c-1.2-0.9-2.3-1.9-3.4-2.8c-4.9-4.1-9.3-7.9-17.6-5.9c-4.3,1-7.2,3-9.4,6.4C23.2,37.5,27.3,49,37,52.3c1.6,0.5,3.2,0.9,4.9,1.1
	c3.2,0.3,5,0.3,8.1,0.4c4.4,0.2,7.3,1.7,8.9,3.7c0.8,1,1.3,2.1,1.5,3.3c0.3,1.2,0.1,2.4-0.2,3.6c-0.7,2.5-2.7,4.7-5.9,5.4
	c-3.7,0.8-6.9-2-10-4.7c-1.8-1.6-3.6-3.2-5.7-4.3c-2.1-1.2-4.5-1.7-6.8-1.4c-1.4,0.2-2.7,0.7-4.1,1.6c-2.2,1.5-4,3.9-5.7,5.9
	c-2,2.2-9.1,9.6-9.9,11.8c-0.3,0.7-0.4,1.6-0.5,2.4c-0.2,4.5,3.4,8.4,8,8.5c1.9,0.1,3.6-0.5,5-1.4l0,0l0.1-0.1l0,0
	c-1-0.5-1.4-0.8-2.3-1.4C21.9,86.4,21.5,86.1,21,85.8z"/>
<path class="st7" d="M72.3,25.5c-0.7,0-1.2-0.6-1.2-1.2c0-0.7,0.6-1.2,1.3-1.2c0.8,0,1.3,0.6,1.3,1.2C73.6,24.9,73.1,25.5,72.3,25.5
	z"/>
<path class="st10" d="M59.1,31.2c0.2,0.1,0.3,0.2,0.4,0.3c0.2,0.1,0.3,0.5,0,0.7c-1.2,0.9-2.6,1.6-4.1,1.9c-0.3,0.1-0.6-0.3-0.5-0.6
	c0.6-1.2,1-2.3,1.2-3.9c0.1-0.3,0.4-0.4,0.7-0.2C57.6,30,58.3,30.6,59.1,31.2C59,31.2,59.1,31.2,59.1,31.2z M51.7,25.2
	c1,0.7,1.9,1.4,2.9,2.2c0.2,0.2,0.2,0.5,0,0.6c-1.3,0.9-2.8,1.6-4.4,2c-0.3,0.1-0.6-0.3-0.4-0.6c0.6-1.3,1-2.4,1.3-4
	C51.1,25.2,51.4,25.1,51.7,25.2z M46,49.4c0.2,1.4,0.5,2.5,1,3.7c0.1,0.3-0.1,0.6-0.4,0.6c-1.1,0-2.1-0.1-3.4-0.2
	c-0.3,0-0.4-0.3-0.4-0.5c0.5-1.4,1.3-2.7,2.4-3.8C45.6,49,46,49.1,46,49.4z M19.4,73.4c-0.6-0.2-1.4-0.3-2.1-0.4
	c-0.3-0.1-0.5-0.4-0.2-0.7c0.8-0.9,1.6-1.8,2.4-2.6c0.2-0.2,0.5-0.2,0.6,0c0.9,1.2,1.6,2.6,1.9,4.1c0.1,0.3-0.3,0.6-0.6,0.4
	C20.8,73.9,20.1,73.6,19.4,73.4z M21.7,68.2c-0.3-0.1-0.5-0.4-0.2-0.7l0.6-0.7c0.5-0.6,1.1-1.3,1.7-1.9c0.2-0.2,0.5-0.2,0.6,0
	c0.9,1.2,1.7,2.6,2,4.1c0.1,0.3-0.3,0.6-0.6,0.5C24.5,68.8,23.3,68.4,21.7,68.2z M26.3,37.7c0-0.1-0.1-0.2-0.1-0.2
	c0-1.3,0.2-2.5,0.4-3.8c0.1-0.2,0.3-0.4,0.5-0.3c1.4,0.6,2.8,1.4,3.8,2.4c0.2,0.2,0.1,0.7-0.2,0.7C29.2,36.7,28,37,26.3,37.7z
	 M28.1,31.2c-0.3,0-0.5-0.3-0.3-0.6c0.3-0.6,0.6-1.1,1-1.7c0.2-0.4,0.6-0.9,0.9-1.3c0.2-0.2,0.4-0.2,0.6,0c1,1.1,1.7,2.2,2.2,3.5
	c0.1,0.3-0.2,0.6-0.5,0.5C30.6,31.3,29.6,31.3,28.1,31.2z M35.6,28.1c-1.2-0.9-2.1-1.4-3.6-2.1c-0.3-0.1-0.3-0.5-0.1-0.7
	c0.9-0.7,2-1.4,3.2-1.9c0.2-0.1,0.5,0,0.6,0.3c0.4,1.4,0.7,2.8,0.6,4.1C36.2,28.1,35.8,28.3,35.6,28.1z M36,51.9
	c-0.2-0.1-0.3-0.4-0.2-0.6c0,0,0.1-0.1,0.1-0.2c0.8-1.2,1.8-2.2,3-3c0.3-0.2,0.7,0,0.6,0.4c-0.1,1.2-0.1,2.3,0.1,3.6c0,0,0,0,0,0
	c0,0.1,0,0.2,0.1,0.4c0.1,0.3-0.2,0.5-0.5,0.5c-0.7-0.2-1.5-0.4-2.2-0.6C36.6,52.2,36.3,52.1,36,51.9z M38.9,66.5
	c0.6-1.3,1-2.4,1.2-4.1c0-0.3,0.4-0.4,0.6-0.3c1,0.7,1.9,1.5,2.8,2.3c0.2,0.2,0.2,0.5,0,0.6c-1.2,1-2.6,1.7-4.2,2
	C39,67.1,38.8,66.8,38.9,66.5z M44.2,70.7c0.6-1.3,0.9-2.4,1.1-4c0-0.3,0.4-0.5,0.7-0.3c0.9,0.7,1.8,1.4,2.7,2
	c0.2,0.1,0.3,0.5,0.1,0.7c-1.2,1-2.5,1.7-4,2.1C44.4,71.3,44.1,71,44.2,70.7z M50,53.9c0,0-0.1,0-0.2,0c0.2-0.4,0.3-0.7,0.6-1.1
	c0,0,0,0,0,0c0.5-1.1,1.3-2.2,2.3-3c0.3-0.2,0.7-0.1,0.7,0.3c0.1,1.3,0.2,2.5,0.8,3.9c0,0,0,0,0,0c0.1,0.3-0.2,0.6-0.5,0.5
	C52.6,54.1,51.4,53.9,50,53.9z M58,67.8c0.8-0.8,1.4-1.6,1.8-2.6c0.1-0.3,0.4-0.3,0.6-0.1c1.2,1.1,2,2.3,2.4,3.8
	c0.1,0.3-0.2,0.6-0.5,0.5c-1.3-0.5-2.6-0.7-4.1-0.9C57.9,68.5,57.8,68,58,67.8z"/>
<ellipse class="st10" cx="72.4" cy="24.2" rx="1.3" ry="1.3"/>
<path class="st11" d="M71.8,23c0,0-0.8,0.9,0.1,1.8c0,0,0.8,0.8,1.7,0C73.6,24.9,72,24.9,71.8,23z"/>
</svg>
