<?xml version="1.0" encoding="utf-8"?>
<!-- Generator: Adobe Illustrator 22.1.0, SVG Export Plug-In . SVG Version: 6.00 Build 0)  -->
<svg version="1.1" id="Camada_1" xmlns="http://www.w3.org/2000/svg" xmlns:xlink="http://www.w3.org/1999/xlink" x="0px" y="0px"
	 viewBox="0 0 100 100" style="enable-background:new 0 0 100 100;" xml:space="preserve">
<style type="text/css">
	.st0{opacity:0.31;}
	.st1{fill:#057240;}
</style>
<g class="st0">
	<circle class="st1" cx="42.9" cy="4.6" r="2.1"/>
	<circle class="st1" cx="53.6" cy="15.3" r="2.1"/>
	<circle class="st1" cx="64.3" cy="26" r="2.1"/>
	<circle class="st1" cx="75" cy="36.7" r="2.1"/>
	<circle class="st1" cx="85.6" cy="47.3" r="2.1"/>
	<circle class="st1" cx="96.3" cy="58" r="2.1"/>
	<circle class="st1" cx="30" cy="17.6" r="2.1"/>
	<circle class="st1" cx="40.6" cy="28.3" r="2.1"/>
	<circle class="st1" cx="51.3" cy="39" r="2.1"/>
	<circle class="st1" cx="62" cy="49.6" r="2.1"/>
	<path class="st1" d="M70.5,60.5c-0.3-0.8-0.2-1.7,0.5-2.3c0.8-0.8,2.2-0.8,3,0c0.6,0.6,0.8,1.5,0.5,2.3"/>
	<circle class="st1" cx="17" cy="30.6" r="2.1"/>
	<circle class="st1" cx="27.6" cy="41.3" r="2.1"/>
	<circle class="st1" cx="38.3" cy="52" r="2.1"/>
	<circle class="st1" cx="49" cy="62.6" r="2.1"/>
	<circle class="st1" cx="4" cy="43.6" r="2.1"/>
	<circle class="st1" cx="14.6" cy="54.3" r="2.1"/>
	<circle class="st1" cx="25.3" cy="65" r="2.1"/>
	<circle class="st1" cx="36" cy="75.6" r="2.1"/>
</g>
</svg>
