<?xml version="1.0" encoding="utf-8"?>
<!-- Generator: Adobe Illustrator 22.1.0, SVG Export Plug-In . SVG Version: 6.00 Build 0)  -->
<svg version="1.1" id="Camada_1" xmlns="http://www.w3.org/2000/svg" xmlns:xlink="http://www.w3.org/1999/xlink" x="0px" y="0px"
	 viewBox="0 0 68.7 92.1" style="enable-background:new 0 0 68.7 92.1;" xml:space="preserve">
<style type="text/css">
	.st0{opacity:0.5;}
	.st1{fill:#FFFFFF;}
</style>
<g class="st0">
	<circle class="st1" cx="66.2" cy="2.5" r="2.5"/>
	<circle class="st1" cx="66.2" cy="19.9" r="2.5"/>
	<circle class="st1" cx="66.2" cy="37.3" r="2.5"/>
	<circle class="st1" cx="66.2" cy="54.8" r="2.5"/>
	<circle class="st1" cx="66.2" cy="72.2" r="2.5"/>
	<circle class="st1" cx="66.2" cy="89.6" r="2.5"/>
	<circle class="st1" cx="44.9" cy="2.5" r="2.5"/>
	<circle class="st1" cx="44.9" cy="19.9" r="2.5"/>
	<circle class="st1" cx="44.9" cy="37.3" r="2.5"/>
	<circle class="st1" cx="44.9" cy="54.8" r="2.5"/>
	<circle class="st1" cx="44.9" cy="72.2" r="2.5"/>
	<circle class="st1" cx="44.9" cy="89.6" r="2.5"/>
	<circle class="st1" cx="23.7" cy="2.5" r="2.5"/>
	<circle class="st1" cx="23.7" cy="19.9" r="2.5"/>
	<circle class="st1" cx="23.7" cy="37.3" r="2.5"/>
	<circle class="st1" cx="23.7" cy="54.8" r="2.5"/>
	<circle class="st1" cx="23.7" cy="72.2" r="2.5"/>
	<circle class="st1" cx="23.7" cy="89.6" r="2.5"/>
	<circle class="st1" cx="2.5" cy="2.5" r="2.5"/>
	<circle class="st1" cx="2.5" cy="19.9" r="2.5"/>
	<circle class="st1" cx="2.5" cy="37.3" r="2.5"/>
	<circle class="st1" cx="2.5" cy="54.8" r="2.5"/>
	<circle class="st1" cx="2.5" cy="72.2" r="2.5"/>
	<circle class="st1" cx="2.5" cy="89.6" r="2.5"/>
</g>
</svg>
