<?xml version="1.0" encoding="utf-8"?>
<!-- Generator: Adobe Illustrator 22.1.0, SVG Export Plug-In . SVG Version: 6.00 Build 0)  -->
<svg version="1.1" id="Camada_1" xmlns="http://www.w3.org/2000/svg" xmlns:xlink="http://www.w3.org/1999/xlink" x="0px" y="0px"
	 viewBox="0 0 96.9 72.1" style="enable-background:new 0 0 96.9 72.1;" xml:space="preserve">
<style type="text/css">
	.st0{opacity:0.2;}
	.st1{fill:#91E3E5;}
</style>
<g class="st0">
	<circle class="st1" cx="2.6" cy="2.6" r="2.6"/>
	<circle class="st1" cx="20.9" cy="2.6" r="2.6"/>
	<circle class="st1" cx="39.3" cy="2.6" r="2.6"/>
	<circle class="st1" cx="57.6" cy="2.6" r="2.6"/>
	<circle class="st1" cx="75.9" cy="2.6" r="2.6"/>
	<circle class="st1" cx="94.3" cy="2.6" r="2.6"/>
	<circle class="st1" cx="2.6" cy="24.9" r="2.6"/>
	<circle class="st1" cx="20.9" cy="24.9" r="2.6"/>
	<circle class="st1" cx="39.3" cy="24.9" r="2.6"/>
	<circle class="st1" cx="57.6" cy="24.9" r="2.6"/>
	<circle class="st1" cx="75.9" cy="24.9" r="2.6"/>
	<circle class="st1" cx="94.3" cy="24.9" r="2.6"/>
	<circle class="st1" cx="2.6" cy="47.2" r="2.6"/>
	<circle class="st1" cx="20.9" cy="47.2" r="2.6"/>
	<circle class="st1" cx="39.3" cy="47.2" r="2.6"/>
	<circle class="st1" cx="57.6" cy="47.2" r="2.6"/>
	<circle class="st1" cx="75.9" cy="47.2" r="2.6"/>
	<circle class="st1" cx="94.3" cy="47.2" r="2.6"/>
	<circle class="st1" cx="2.6" cy="69.5" r="2.6"/>
	<circle class="st1" cx="20.9" cy="69.5" r="2.6"/>
	<circle class="st1" cx="39.3" cy="69.5" r="2.6"/>
	<circle class="st1" cx="57.6" cy="69.5" r="2.6"/>
	<circle class="st1" cx="75.9" cy="69.5" r="2.6"/>
	<circle class="st1" cx="94.3" cy="69.5" r="2.6"/>
</g>
</svg>
