<?xml version="1.0" encoding="utf-8"?>
<!-- Generator: Adobe Illustrator 22.1.0, SVG Export Plug-In . SVG Version: 6.00 Build 0)  -->
<svg version="1.1" id="Camada_1" xmlns="http://www.w3.org/2000/svg" xmlns:xlink="http://www.w3.org/1999/xlink" x="0px" y="0px"
	 viewBox="0 0 86.5 96.9" style="enable-background:new 0 0 86.5 96.9;" xml:space="preserve">
<style type="text/css">
	.st0{opacity:0.2;}
	.st1{fill:#C6F561;}
	.st2{fill:#161E00;}
</style>
<g class="st0">
	<path class="st1" d="M1.1,1.2h2.5c0,0,3.1,1.6,3.1,1.8s2.9,0,2.9,0l0.5-0.5l1.6,0.4l1.6,1.3c0,0-0.2,0.4,0,0.7
		c0.1,0.3,0.6,0.8,0.6,0.8S14.8,5,15,5.3c0.2,0.2,1.6,0.2,1.6,0.2l0.2,0.4c0,0,1.3,0.9,1.1,0.9c-0.2,0-0.2,1.6,0,1.6
		s1.3,1.1,1.3,1.1l0.9-0.2l-0.2,0.8l-0.2,0.4l-0.2,3.1c0,0,0.4,0.2,0.2,0.7c-0.2,0.4,1.6,2.9,1.6,2.9l1.3,0.2l0.2,0.4l0.7-0.2
		c0,0,1.1,0,1.3,0c0.2,0,0.7-0.4,0.7-0.2c0,0.2,0,0.4,0.2,0.4s0.2-0.9,0.2-0.9l0.9-0.9l0.4-0.7v-1.1c0,0,0.9,0,0.9,0.4
		s0.9-0.7,0.9-0.7s0.7-0.4,1.1,0c0.4,0.4,0.7,0.7,0.7,0.7l-0.1,0.9l-0.4,0.7c0,0-0.2,0.4-0.2,0.7c0,0.2,0,0.7,0,0.7h-0.7v1.8
		L28.9,20l-0.4,0.5l0.2,0.4l3.1-0.4h1.1l0.9,0.4l0.7,0.2l0.4,0.7v0.7l-0.2,0.2v1.6L34,25v1.1l2.2,2l1.6,0.2l1.1-0.9
		c0,0,0.7,0,0.9,0.2s2,1.3,2,1.3l1.3-1.3v-0.7l0.7-0.9l0.7,0.2c0,0-0.2-0.7,0-0.7s0.7,0.4,0.9,0.2c0.2-0.2,1.3-0.7,1.3-0.7
		s0.2-1.1,0.7-0.9s0.7,0.7,0.7,0.7L47.4,25l-0.2,0.7v0.8c0,0-0.4,0.4-0.4,0.7c0,0.2,0.2,0.7,0.2,0.7l0.9,0.2l0.4-0.7l-0.7-1.1
		c0,0-0.2-0.2,0.2-0.4c0.4-0.2,0.9-0.2,0.9-0.2s0-1.3,0.2-1.1c0.2,0.2,0.7,0.2,0.7,0.2v0.4l1.1,0.2l0.2,0.9l1.3,0.2l0.9-0.7l0.7,0.9
		c0,0,0.9,0,1.1,0c0.2,0,1.1-1.1,1.8-0.9s0.4,0.9,0.4,0.9s0,0.4,0.9,0.2l0.2-1.3l0.4,0.4c0,0,0.2,0.2,0,0.4c-0.2,0.2-0.2,0-0.2,0.2
		s0.2,0.4,0.2,0.4s1.1,0.4,1.1,0.7s1.6,1.1,1.6,1.3c0,0.2,0,0.9,0,0.9s0.6,0.6,0.8,0.6s0.4,0.2,0.7,0.4c0.2,0.2,0.9,0.4,0.9,0.4
		s2.5-0.2,2.7,0s0.2,0,0.4,0.2c0.2,0.2,0.9,0.2,0.9,0.2l1.6,1.3l0.7,0.4v0.9l0.2,0.9c0,0,0.7,0.2,0.7,0.4s0.7,0.7,0.7,0.7l-2.2,2.5
		v0.7c0,0-0.4,0-0.4,0.2s-0.4,0.2-0.2,0.4c0.2,0.2,0.9,0.2,0.9,0.2s-0.2-0.7,0-0.7s0.9,0.2,0.9,0.2l0.4,0.4c0,0,0.7,0.2,0.9,0.2
		c0.2,0,0.9-0.2,1.1-0.4s0.4-0.9,0.7-0.9s0.4-0.2,0.4-0.2l0.8,0.6c0,0,0.4-0.7,0.4-0.4s1.6,1.8,1.6,1.8s-0.7,0.2-0.4,0.4
		c0.2,0.2,0.4,0.2,0.4,0.2l2.9,0.2c0,0,0.2,0,0.4,0.2c0.2,0.2,0.2,0.2,0.2,0.2l0.9-0.4l0.7,0.7c0,0,1.8,2.2,2,2.2s2.2,0.2,2.2,0.2
		S86,45.2,86,45.7c0,0.4-0.4,0.2-0.2,0.7C86,46.8,86,47.7,86,48c0,0.2,0.7,0.4,0.4,0.4c-0.2,0-0.4,0.4-0.4,0.4l-0.1,0.8
		c0,0,0,0-0.4,0.4s-0.2,0-0.4,0.4c-0.2,0.4-0.4,0.7-0.4,0.7s0,0.9-0.4,1.1s-0.4,0.2-0.9,0.7c-0.4,0.4-0.7,0.9-0.7,0.9s0.2,0.2,0,0.4
		S82,54.6,82,54.6l-0.6-0.1l-0.5,1.8l-0.2,1.8c0,0-0.4,1.6-0.4,1.8s-1.1,0.2-0.9,2.5l-1.8,1.8l-0.3,1.3h-0.7c0,0-0.4,1.1-0.7,1.1
		c-0.2,0-1.6,0-1.6,0l-0.7-0.7l-0.2,0.7c0,0,0,0.4-0.4,0.4s-0.7,0-0.7,0h-0.9l-0.6,0.5l-1.1,1.1c0,0-0.7-0.2-0.7,0s-1.1,2.2-0.7,2.9
		s-1.1,1.1-1.1,1.1S67,73,67,73.3c0,0.2-1.8,2.2-1.8,2.2h-0.7c0,0,1.6-0.9,1.1-1.8c0,0-0.7,0.4-0.7,0.9c0,0-0.9,0.2-1.6,1.1
		c-0.2,0.2-0.9,0.2-0.9,0.2L62,77l-0.1,1.3l-0.7,0.2l-1.1,0.2l-0.4-0.4l-0.5,0.2l-0.4-0.4l-0.7-0.7v-0.7c0,0-0.2-0.2-0.4-0.2
		s-0.4,0.4-0.4,0.4v0.9c0,0,0.2,0,0.2,0.2s0.4,0.7,0.4,0.7s0.2,0,0.4,0.2s-0.2,0.4-0.2,0.4l-0.2,0.2c0,0-0.2,0.4,0,0.4
		s0.4,0.2,0.4,0.2l-0.9,1.1l-0.7,0.9l-3.6,0.2l-0.4-0.2l-0.4,0.7c0,0,0,0.4,0,0.7s-0.2,0.7-0.2,0.7s-0.4,0.2-0.7,0.2s-0.4,0-0.4,0
		s-1.6-1.3-1.6,0.2c0.4,1.1,1.1,1.1,1.1,1.1l0.2,0.4h-0.9h-0.4l-0.5,1.2l-0.2,0.9c0,0-2.5,0.4-2.5,1.1s0.2,1.3,0.9,1.8l0.2,0.4
		l-0.9,0.4c0,0-0.9,0.9-1.1,0.9s-0.2,0.7-0.2,0.7l-0.9,0.4c0,0-0.7,0-0.7,0.2s-0.2,0.9,0,1.1s0.2,0.7,0.2,0.7h-1.1
		c0,0-0.7,0.2-0.9,0.2s-0.4-0.4-0.4,0s0,0.7,0,0.7s0,0.2-0.2,0s-0.4-0.4-0.4-0.4v-1.3h-1.1v-0.9h0.7v-2.5H41c0,0,0.2-1.3,0-1.3
		s-0.7-0.2-0.7-0.2l-0.4-0.9l0.2-0.2l0.4,0.2l0.4,0.2v-0.7c0,0,0.2,0,0.4,0s0.4-1.1,0.4-0.9s0.4,0,0.4,0v-0.4l-0.9-0.7v-0.2l0.7-0.2
		l0.7-0.9l0.2-0.4l-0.9-1l-0.2-0.6l1.1-0.9v-2.9h0.4v-0.9l1.3-1.3l0.2-1.1h0.4v-0.9l0.4-0.2l-0.2-3.1h0.4l0.2-1.3l0.2-0.2V70
		l0.4-0.2l0.2-0.2l-0.2-0.4v-0.7h0.4l0.2-0.9v-0.9l0.2-0.4l-0.2-0.7l-0.2-0.4l0.9-1.1l0.2-4.3l-0.4-0.4l-0.7-0.9l-0.4-0.2v-0.7h-1.1
		L43.2,56l-1.1-1.3l-0.2-1.3l-1.1-1.6l-0.2-1.3c0,0,0-0.9-0.2-0.9s-0.5-0.4-0.5-0.4l-0.2-0.9L39,47.2l-0.7-0.9v-0.7l-1.1-0.2v-0.7
		l0.4-0.2l-0.4-1H37v-0.7h0.7c0,0,0-0.9,0.2-0.7s0.7,0,0.7,0s0.4-0.9,0.2-1.1c-0.2-0.2-1.1-0.2-1.1-0.2v-0.7V39l0.7-0.2l0.4-0.7
		l-0.4-0.4c0,0-0.4-0.2,0-0.2s0.7,0.2,0.7,0s0.2-0.4,0.2-0.4l0.9,0.2l-0.3-0.5h-0.2v-0.4l0.7-1.1l0.9-0.2v-0.4v-2.5l-0.4-0.4
		l0.4-0.7L40.4,30l-0.2-1.1c0,0-0.4-0.7-0.7-0.4c-0.2,0.2-1.1,0.7-1.1,0.7l-0.5,0.2c0,0,0.2,0.9,0.2,1.1s-0.4-0.2-0.4-0.2
		s-1.1-0.4-1.1-0.7s-0.7-0.7-0.9-0.7s-0.9-0.7-0.9-0.7l-0.4-0.4l-0.7-0.4l-1.1-0.2v0.4l-1.1-0.7c0,0,0.4-0.4,0.7-0.4
		c0.3,0,0.4-0.7,0.2-0.9c-0.2-0.2-0.9-0.4-0.9-0.4l-0.7-0.9l0,0l-0.2-0.9c0,0-0.4-0.7-0.4-0.4c0,0.2-0.2,0.4-0.2,0.4l-0.2,0.2
		l-0.9-0.2l-1.1-0.7c0,0-1.3,0.2-1.3,0s-0.7-0.4-0.9-0.4c-0.2,0,0-0.4-0.4-0.7c-0.4-0.2-1.3-0.7-1.3-0.7S23.5,20,23.2,20
		s-0.4,0-0.7,0s-0.7,0.7-0.7,0.7h-2.2l-2-1.1l-0.9-0.2L16,19.2c0,0,0-0.4-0.2-0.4s-0.7-0.4-0.7-0.4l-0.4-0.2h-0.9l-3-2.7l0.4-0.7
		l0.4-0.2l-0.2-0.2l0.2-0.7l-0.2-0.9l-1.3-0.9c0,0,0.4-0.4,0.2-0.4s-0.7-0.2-0.7-0.2L8.1,9.5V8.8l0.2-0.4L5.4,5L5,3L3.1,2.7v1.8
		c0,0,0.9,0,0.9,0.2s0,0.7,0,0.9c0,0.2,0.4,0.9,0.4,0.9l0.5,1c0,0,0.2,0.7,0.4,0.9s0,0.7,0.2,0.9S5.9,9.7,5.9,10s0.2,0,0.2,0v0.9
		c0,0,0.4,0,0.7,0.2s0.4,0.4,0.4,0.4v1.3H6.5l-0.2-0.9l-0.2-0.7L5.4,11c0,0-0.2-0.7-0.4-0.7S4.6,9.9,4.6,9.9V8.6L3.8,8.1
		c0,0-0.7-0.6-0.9-0.6S2,7,2.2,7c0.2,0,0.7-0.7,0.9-0.7s0.2,0,0.2-0.2c0.1-0.2-0.4-0.7-0.4-0.7L2.5,4.8L1.8,4.3V3.9l0.4-0.2L2,3.2
		l0,0c0,0-0.2-0.4-0.2-0.7c0-0.2,0.2-0.7,0-0.7S1.4,2,1.4,1.8S1.1,1.4,1.1,1.4V1.2z"/>
</g>
<g class="st0">
	<g>
		<path class="st2" d="M40.1,95.9c-0.1,0-0.1-0.1-0.2-0.1l-0.5-0.5V94h-1.1v-1h0.6v-2.5h0.7c0.1-0.6,0.1-1.2,0-1.2l0,0
			c-0.2,0-0.7-0.2-0.7-0.2l0,0l-0.2-1l0.3-0.3l0.8,0.4v-0.6h0.5c0.1,0,0.2-0.2,0.3-0.7c0.1-0.2,0.1-0.2,0.1-0.2
			c0.1,0,0.1,0.1,0.1,0.1l0,0c0,0,0.2,0,0.3-0.1v-0.4l-0.9-0.7v-0.3l0.7-0.2l0.7-0.9l0.2-0.4l-1.1-0.9l-0.2-0.7l1.1-0.9v-2.8H42
			v-0.9l1.3-1.3l0.2-1.2h0.4v-0.9l0.4-0.2l-0.2-3.2h0.5l0.2-1.3l0.2-0.2v-0.7l0.5-0.2l0.2-0.2l-0.2-0.4v-0.7H46l0.2-0.8v-0.9
			l0.2-0.4l-0.2-0.6L46,63.9l0.9-1.1l0.2-4.2l-0.4-0.4L46,57.3l-0.5-0.2v-0.7h-1.1l-2.3-1.6L41,53.4l-0.2-1.3l-0.9-1.8l-0.5-0.9l0,0
			c0-0.4-0.1-0.8-0.2-0.8c-0.3,0-0.5-0.4-0.5-0.5l0,0l-0.2-0.9l-0.7-1.1l-0.7-0.9v-0.7L36,44.3v-0.8l0.4-0.2l-0.3-0.8h-0.2v-0.8h0.7
			c0-0.2,0-0.6,0.2-0.7c0,0,0.1,0,0.2,0c0.2,0.2,0.5,0,0.6,0c0.2-0.3,0.4-0.9,0.2-1c-0.2-0.2-0.8-0.2-1.1-0.2h-0.1v-1.9l0.7-0.2
			l0.4-0.6l-0.4-0.4c-0.1-0.1-0.2-0.1-0.2-0.2c0-0.1,0.1-0.1,0.3-0.1s0.4,0,0.5,0.1c0.1,0,0.1,0,0.1,0l0,0c0-0.2,0.2-0.5,0.2-0.5
			l0,0l0.8,0.2l-0.2-0.3h-0.2v-0.5l0.7-1.2l0.9-0.2v-2.8l-0.5-0.5l0.5-0.7l-0.9-1.1l-0.4-1.2c-0.1-0.1-0.3-0.4-0.5-0.5h-0.1
			c-0.2,0.2-1,0.6-1.1,0.7l-0.4,0.4c0,0.2,0.2,0.9,0.2,1.1c0,0.1,0,0.1-0.1,0.1s-0.3-0.2-0.5-0.3c-0.3-0.1-1.1-0.5-1.1-0.7
			s-0.6-0.6-0.8-0.6s-0.8-0.6-0.9-0.7l-0.4-0.4l-0.7-0.4l-1-0.2v0.5l-1.3-0.8l0.1-0.1c0,0,0.5-0.5,0.7-0.5c0.1,0,0.1-0.1,0.2-0.2
			c0.1-0.2,0.1-0.5,0-0.6c-0.2-0.2-0.9-0.4-0.9-0.4l0,0l-0.7-0.9l-0.2-0.9c-0.1-0.2-0.3-0.4-0.3-0.4c0,0.2-0.2,0.4-0.2,0.5l-0.4,0.1
			l-0.9-0.2l-1.1-0.7c-0.2,0-1.2,0.2-1.3,0v-0.1c0-0.2-0.6-0.4-0.8-0.4c-0.1,0-0.2-0.1-0.2-0.2s-0.1-0.3-0.3-0.4l-1.4-0.7l0,0
			c-0.2-0.4-0.5-0.9-0.6-0.9h-0.7c-0.1,0-0.4,0.4-0.6,0.6l0,0h-2.3l-2-1.1l-0.9-0.2L14.7,18l0,0c0-0.1,0-0.4-0.2-0.4
			s-0.6-0.4-0.7-0.5l-0.4-0.2h-0.9l-2.7-2.5l0.5-0.7l0.4-0.2l-0.2-0.2l0.2-0.7l-0.2-0.9l-1.6-0.9L9,10.7c0.1-0.1,0.3-0.3,0.3-0.3
			l0,0c-0.2,0-0.7-0.2-0.7-0.2l0,0L6.9,8.4V7.7l0.2-0.4L4.2,3.9l0,0l-0.4-2L2.1,1.7v1.7c0.3,0,0.9,0,0.9,0.3v0.8
			c0,0.2,0.3,0.7,0.4,0.9l0.5,0.9c0,0,0.2,0.7,0.4,0.9c0.1,0.1,0.1,0.3,0.1,0.5s0,0.3,0.1,0.4C4.7,8.3,5,8.6,5,8.8l0,0
			c0,0,0.1,0,0.1-0.1l0.1-0.1v1c0.1,0,0.5,0,0.7,0.2l0.5,0.5v1.4H5.6l-0.2-0.9l-0.2-0.6L4.5,10l0,0C4.4,9.7,4.2,9.4,4.1,9.4
			C3.8,9.4,3.6,9,3.6,8.9l0,0V7.5L2.6,7C2.4,6.8,1.9,6.4,1.8,6.4C1.6,6.4,1,6.1,1,5.9c0,0,0-0.1,0.1-0.1s0.3-0.2,0.4-0.3
			C1.7,5.3,1.9,5.2,2,5.2s0.1,0,0.2,0c0,0,0-0.1,0-0.2c0-0.2-0.3-0.5-0.5-0.6L1.3,3.7L0.6,3.2V2.7L1,2.5L0.8,2.1
			c0,0-0.2-0.5-0.2-0.7c0-0.1,0-0.2,0.1-0.3c0-0.1,0.1-0.3,0-0.3l0,0c-0.1,0-0.2,0-0.2,0.1c-0.1,0-0.2,0.1-0.2,0
			c-0.1,0-0.1-0.1-0.1-0.1C0.2,0.6,0,0.4,0,0.4l0,0V0h2.5l0,0c1.2,0.6,3.1,1.6,3.2,1.8c0.1,0.1,1.5,0.1,2.8,0l0.4-0.5l1.6,0.5
			l1.6,1.4l0,0c0,0-0.2,0.4,0,0.6l0.7,0.7C13,4.3,13.7,3.9,14,4.1c0.2,0.2,1,0.2,1.5,0.2l0,0l0.2,0.5c1.2,0.7,1.2,0.8,1.2,0.9
			c0,0,0,0.1-0.1,0.1c0,0-0.1,0.3-0.1,0.7c0,0.4,0.1,0.7,0.1,0.7l0,0c0.2,0,1.1,0.9,1.4,1.1l1-0.2l-0.3,1l-0.2,0.4l-0.2,3.1
			c0.2,0.1,0.4,0.4,0.2,0.7c-0.2,0.3,0.9,1.9,1.6,2.8l1.4,0.2l0.2,0.4l0.6-0.2h1.3c0.1,0,0.2-0.1,0.3-0.2c0.2-0.1,0.3-0.2,0.3-0.1
			c0,0,0.1,0,0.1,0.1c0,0.3,0,0.4,0.2,0.4c0.1,0,0.2-0.4,0.2-0.8l0,0l0.9-0.9l0.4-0.6v-1.2h0.1c0,0,1,0,1,0.5l0,0
			c0.1,0,0.4-0.3,0.8-0.8l0,0c0,0,0.7-0.5,1.2,0l0.7,0.7l-0.2,0.7L29.4,15l0,0c0,0-0.2,0.4-0.2,0.6v0.9h-0.7v1.8L28,19l-0.4,0.4
			l0.2,0.4l3.1-0.4H32l0.9,0.5l0.7,0.2l0.5,0.7v0.7l-0.2,0.2v1.6L33.2,24v1.1l2.2,2l1.5,0.2l1.1-0.9l0,0c0,0,0.7,0,0.9,0.2
			s1.7,1.1,2,1.3l1.3-1.3v-0.7l0.7-0.9l0.6,0.2c0-0.2-0.1-0.5,0-0.6l0.1-0.1c0.1,0,0.2,0.1,0.3,0.1c0.2,0.1,0.4,0.2,0.5,0.1
			c0.2-0.2,1.2-0.6,1.3-0.7c0-0.1,0.2-0.8,0.5-0.9c0.1,0,0.2,0,0.3,0c0.5,0.2,0.7,0.7,0.7,0.7v0.1l-0.7,0.2l-0.2,0.6v0.7l0,0
			c-0.2,0.2-0.4,0.5-0.4,0.6c0,0.2,0.1,0.5,0.2,0.6l0.8,0.2l0.4-0.6l-0.7-1.1c0,0-0.1-0.1-0.1-0.2s0.1-0.2,0.3-0.3
			c0.4-0.2,0.7-0.2,0.9-0.2c0-0.4,0-1.1,0.2-1.1H48c0.2,0.2,0.6,0.2,0.6,0.2h0.1V24l1.1,0.2l0.2,0.9l1.3,0.2l0.9-0.7l0.7,0.9H54
			c0.1,0,0.2-0.1,0.4-0.3c0.4-0.3,1-0.8,1.4-0.6c0.4,0.1,0.5,0.4,0.5,0.6s0,0.3,0,0.4c0,0,0,0.1,0.1,0.1c0.1,0.1,0.3,0.1,0.7,0
			l0.2-1.4l0.5,0.5c0,0,0.1,0.1,0.1,0.2s0,0.2-0.1,0.4c-0.1,0.1-0.2,0.1-0.2,0.1s0,0,0,0.1c0,0.2,0.2,0.4,0.2,0.4
			c0.3,0.1,1.1,0.5,1.1,0.7c0,0.1,0.5,0.4,0.8,0.6c0.6,0.4,0.8,0.6,0.8,0.7v0.9c0.1,0.2,0.3,0.4,0.4,0.4c0.2,0,0.5,0.2,0.7,0.5
			c0.2,0.2,0.8,0.4,0.9,0.4c0.4,0,2.5-0.2,2.7,0c0.1,0.1,0.1,0.1,0.2,0.1s0.1,0,0.3,0.1c0.2,0.2,0.7,0.2,0.9,0.2l0,0l1.6,1.4
			l0.7,0.5v1l0.2,0.9c0.2,0.1,0.7,0.3,0.7,0.5c0,0.1,0.4,0.4,0.6,0.6h0.1L68.2,38v0.7h-0.1c-0.1,0-0.4,0-0.4,0.2
			c0,0.1-0.1,0.2-0.2,0.3l-0.1,0.1c0,0,0,0,0,0.1c0.1,0.1,0.6,0.2,0.8,0.2c0-0.2-0.1-0.5,0-0.6l0.1-0.1c0.2,0,0.9,0.2,0.9,0.2l0,0
			l0.4,0.4c0.1,0,0.7,0.2,0.9,0.2c0.2,0,0.9-0.2,1.1-0.4c0.1-0.1,0.2-0.2,0.3-0.4c0.1-0.3,0.3-0.5,0.5-0.5s0.4-0.2,0.4-0.2l0,0
			l0.9,0.2c0.4-0.5,0.4-0.5,0.5-0.5c0,0,0.1,0,0.1,0.1s0.8,1,1.6,1.8l0.1,0.1h-0.1c-0.2,0.1-0.4,0.2-0.5,0.3c0,0,0,0,0,0.1
			c0.2,0.2,0.4,0.2,0.4,0.2l2.9,0.2c0,0,0.2,0,0.5,0.2l0.2,0.2l0.9-0.4l0.7,0.7c0.8,1.1,1.8,2.2,2,2.2l0,0c0.2,0,2.2,0.2,2.2,0.2
			h0.1v0.1c0,0-0.2,0.4-0.2,0.9c0,0.2-0.1,0.3-0.2,0.4c-0.1,0.1-0.1,0.1,0,0.3s0.2,0.7,0.2,1.6c0,0.1,0.2,0.2,0.3,0.3
			c0.1,0.1,0.2,0.1,0.2,0.2c0,0.1-0.1,0.1-0.1,0.1c-0.1,0-0.3,0.3-0.4,0.4l-0.3,0.4L84.3,49c-0.2,0.2-0.3,0.2-0.3,0.2s0,0.1-0.1,0.2
			c-0.2,0.4-0.4,0.6-0.4,0.7c0,0.1,0,0.9-0.5,1.1c-0.4,0.2-0.4,0.2-0.9,0.7c-0.4,0.4-0.6,0.7-0.6,0.8c0.1,0.1,0.2,0.3,0,0.5
			s-0.7,0.4-0.7,0.5l0,0l-0.5-0.2l-0.4,1.7L79.7,57c-0.1,0.4-0.4,1.6-0.4,1.8c0,0.1-0.1,0.1-0.2,0.2c-0.3,0.2-0.9,0.6-0.7,2.3l0,0
			l-1.8,1.8l-0.3,1.4h-0.7c-0.1,0.3-0.5,1.1-0.7,1.1h-1.6L72.7,65l-0.2,0.5c0,0.2-0.1,0.5-0.5,0.5h-1.6l-0.7,0.5l-1.1,1.1l0,0
			c-0.2-0.1-0.5-0.1-0.6-0.1l0,0c0,0.1-0.1,0.2-0.2,0.5c-0.3,0.7-0.8,1.9-0.5,2.4c0.1,0.1,0.1,0.3,0.1,0.4c-0.2,0.4-1,0.7-1.2,0.8
			c0,0.1-0.2,0.4-0.2,0.6s-1.4,1.8-1.8,2.3l0,0h-0.9l0.2-0.1c0,0,1.4-0.8,1.1-1.7c-0.2,0.1-0.6,0.5-0.6,0.8l0,0l0,0
			c0,0-0.9,0.2-1.5,1.1c-0.2,0.2-0.8,0.2-0.9,0.2l-0.4,1.1L61,77l-0.9,0.5l-1.2,0.2l-0.4-0.4L58,77.5l-1.1-1.2v-0.7
			c-0.1,0-0.2-0.2-0.4-0.2c-0.1,0-0.3,0.2-0.4,0.4v0.8c0.1,0,0.2,0.1,0.2,0.3c0,0.1,0.2,0.4,0.4,0.6c0.1,0,0.3,0,0.5,0.2
			c0.1,0.1,0.1,0.2,0.1,0.2c0,0.2-0.3,0.3-0.3,0.3l-0.2,0.2c-0.1,0.1-0.1,0.3-0.1,0.3l0,0c0.2,0,0.5,0.2,0.5,0.2l0,0l-0.9,1.2
			L55.6,81L52,81.5l-0.4-0.2l-0.4,0.6v0.7c0,0.2-0.2,0.7-0.2,0.7l0,0l0,0c0,0-0.5,0.2-0.7,0.2h-0.5l0,0c0,0-0.8-0.7-1.2-0.5
			c-0.2,0.1-0.3,0.3-0.3,0.7c0.4,1.1,1.1,1.1,1.1,1.1l0,0l0.3,0.6h-1.4l-0.4,0.9l-0.2,0.9l0,0c-0.7,0.1-2.4,0.6-2.4,1.1
			c0,0.8,0.3,1.4,0.9,1.7l0,0l0.3,0.5L45.6,91c-0.2,0.2-0.9,0.9-1.2,0.9c-0.1,0-0.2,0.4-0.2,0.6l0,0L43.3,93l0,0
			c-0.3,0-0.6,0.1-0.6,0.2s0,0.2,0,0.3c0,0.3-0.1,0.7,0,0.8c0.2,0.2,0.2,0.7,0.2,0.7v0.1h-1.2c-0.1,0-0.7,0.2-0.9,0.2
			c-0.1,0-0.2-0.1-0.3-0.1l-0.1-0.1c0,0,0,0,0,0.1v0.7C40.2,95.8,40.2,95.9,40.1,95.9L40.1,95.9z M39.5,95.3l0.4,0.4
			c0.1,0.1,0.1,0.1,0.1,0.1l0,0v-0.7c0-0.1,0-0.2,0.1-0.2s0.1,0,0.2,0.1c0.1,0.1,0.1,0.1,0.2,0.1c0.2,0,0.9-0.2,0.9-0.2l0,0h1.1
			c0-0.1,0-0.4-0.2-0.6s-0.1-0.6-0.1-0.9c0-0.1,0-0.2,0-0.3c0-0.3,0.6-0.3,0.7-0.3l0.9-0.4c0-0.2,0-0.7,0.3-0.7
			c0.1,0,0.7-0.5,1.1-0.9l0,0l0.8-0.4L45.9,90c-0.6-0.4-0.9-1-0.9-1.8c0-0.7,2.1-1.1,2.5-1.2l0.2-0.9l0.5-0.9h1.3l-0.2-0.3
			c-0.2,0-0.7-0.1-1.1-1.2l0,0c0-0.4,0.1-0.7,0.3-0.8c0.5-0.2,1.2,0.4,1.3,0.5h0.4c0.2,0,0.5-0.2,0.6-0.2c0-0.1,0.2-0.4,0.2-0.6
			v-0.7l0.5-0.7l0.5,0.2l3.5-0.2l0.7-0.9l0.9-1.1C57,79.1,56.9,79,56.7,79c-0.1,0-0.1,0-0.1-0.1c-0.1-0.1,0.1-0.4,0.1-0.5l0,0
			l0.2-0.2c0.1,0,0.2-0.1,0.3-0.2v-0.1c-0.2-0.2-0.4-0.2-0.4-0.2l0,0l0,0c0,0-0.5-0.5-0.5-0.7s-0.1-0.2-0.2-0.2H56v-1l0,0
			c0,0,0.2-0.5,0.5-0.5c0.2,0,0.5,0.2,0.5,0.2l0,0v0.7l1.1,1.1l0.4-0.2l0.5,0.5l1.1-0.2l0.6-0.2l0.2-1.1l0.5-1.2l0,0
			c0.2,0,0.7,0,0.9-0.2c0.6-0.8,1.4-1.1,1.6-1.1c0-0.5,0.7-0.9,0.7-0.9h0.1v0.1c0.4,0.8-0.6,1.5-1,1.8h0.4c0.8-1,1.7-2,1.8-2.2
			c0-0.2,0.2-0.7,0.2-0.7l0,0l0,0c0,0,1-0.3,1.1-0.7c0-0.1,0-0.2-0.1-0.3c-0.3-0.5,0.2-1.7,0.5-2.5c0.1-0.2,0.2-0.4,0.2-0.5
			c0,0,0-0.1,0.1-0.1c0.1-0.1,0.5,0,0.7,0l1.1-1.1l0.7-0.5H72c0.4,0,0.4-0.4,0.4-0.4l0,0l0.3-0.8l0.7,0.7h1.5c0.1,0,0.4-0.6,0.6-1.1
			l0,0h0.7l0.2-1.3l1.8-1.8C78,59.6,78.7,59.2,79,59c0.1,0,0.1-0.1,0.1-0.1c0-0.2,0.4-1.7,0.5-1.8l0.2-1.8l0.5-1.9l0.5,0.2
			c0.1-0.1,0.4-0.2,0.6-0.4s0-0.3,0-0.4l0,0l0,0c0,0,0.2-0.5,0.7-0.9c0.5-0.5,0.5-0.5,0.9-0.7s0.4-1.1,0.4-1.1l0,0l0,0
			c0,0,0.2-0.2,0.4-0.7c0.1-0.3,0.1-0.3,0.2-0.3c0,0,0.2-0.1,0.3-0.2l0.4-0.4l0.2-0.7c0-0.1,0.2-0.4,0.4-0.5l0,0
			c-0.2-0.1-0.4-0.2-0.4-0.4c0-0.9-0.1-1.3-0.2-1.5c-0.1-0.3-0.1-0.3,0.1-0.4c0.1-0.1,0.2-0.1,0.2-0.3c0-0.4,0.1-0.7,0.2-0.8
			c-0.4,0-2-0.2-2.2-0.2s-1.5-1.6-2.1-2.3l-0.6-0.6l-0.9,0.4l-0.3-0.3c-0.2-0.2-0.4-0.2-0.4-0.2l-2.9-0.2c0,0-0.2,0-0.5-0.2
			c-0.1-0.1-0.1-0.1-0.1-0.2c0-0.2,0.3-0.3,0.4-0.3c-0.4-0.4-1.4-1.5-1.5-1.7c-0.1,0.1-0.2,0.3-0.3,0.4l0,0l-0.9-0.3
			c-0.1,0.1-0.3,0.2-0.5,0.2c-0.1,0-0.2,0.3-0.4,0.5c-0.1,0.2-0.2,0.3-0.3,0.4c-0.2,0.2-0.9,0.5-1.2,0.5c-0.2,0-0.9-0.2-0.9-0.2l0,0
			l-0.4-0.4c-0.1,0-0.7-0.2-0.9-0.2l0,0c-0.1,0.1,0,0.4,0.1,0.6v0.1h-0.1c0,0-0.7,0-0.9-0.2c-0.1-0.1-0.1-0.1-0.1-0.2
			c0-0.1,0.1-0.1,0.1-0.2c0.1-0.1,0.1-0.1,0.1-0.2c0-0.2,0.3-0.3,0.4-0.3V38l2.2-2.4c-0.2-0.1-0.6-0.5-0.6-0.7
			c0-0.1-0.4-0.3-0.6-0.4l0,0l-0.1-1v-0.9l-0.6-0.4l-1.6-1.3c-0.1,0-0.7,0-0.9-0.2c-0.2-0.2-0.2-0.2-0.2-0.2c-0.1,0-0.1,0-0.3-0.1
			c-0.1-0.1-1.5-0.1-2.6,0l0,0l0,0c0,0-0.7-0.2-0.9-0.5c-0.2-0.2-0.4-0.4-0.6-0.4c-0.3,0-0.5-0.4-0.5-0.5l0,0v-0.9
			c0-0.1-0.5-0.4-0.8-0.6c-0.6-0.4-0.8-0.6-0.8-0.7s-0.6-0.4-1.1-0.6l0,0c0,0-0.2-0.2-0.2-0.5c0-0.1,0-0.2,0.1-0.2
			c0,0,0.1,0,0.2-0.1c0.2-0.2,0-0.3,0-0.4l-0.4-0.4l-0.2,1.3l0,0c-0.4,0.1-0.7,0.1-0.8,0s-0.1-0.2-0.1-0.2l0,0c0,0,0.2-0.6-0.4-0.8
			c-0.4-0.1-1,0.3-1.3,0.6c-0.2,0.2-0.4,0.3-0.4,0.3h-1.5l-0.7-0.9l-0.9,0.6l-1.4-0.3l-0.2-0.9l-1.1-0.2v-0.4c-0.1,0-0.5,0-0.7-0.2
			l0,0c0,0-0.1,0.5-0.1,1v0.1h-0.1c0,0-0.4,0-0.9,0.2c-0.1,0.1-0.2,0.2-0.2,0.2c0,0.1,0,0.1,0,0.1l0,0l0.7,1.2L46.9,27l-1-0.2l0,0
			c0,0-0.2-0.5-0.2-0.7s0.4-0.6,0.4-0.7v-0.7l0.2-0.7l0.6-0.2c-0.1-0.1-0.3-0.4-0.6-0.6c-0.1,0-0.1,0-0.2,0
			c-0.2,0.1-0.4,0.7-0.4,0.9l0,0l0,0c0,0-1.1,0.4-1.3,0.7c-0.2,0.2-0.4,0-0.6-0.1c-0.1-0.1-0.2-0.1-0.3-0.1l0,0
			c-0.1,0.1,0,0.4,0.1,0.6v0.1l-0.7-0.2l-0.6,0.8v0.6l-1.4,1.4l0,0c-0.1,0-1.8-1.1-2-1.4c-0.2-0.2-0.6-0.2-0.8-0.2L37,27.2L35.4,27
			l-2.3-2v-1.2l0.7-0.7v-1.6l0.2-0.2v-0.6l-0.4-0.6l-0.7-0.2L32,19.5h-1.1L27.7,20l-0.3-0.5l0.5-0.5l0.4-0.6v-1.8h0.6V16
			c0-0.2,0.2-0.7,0.2-0.7l0.4-0.7l0.2-0.6l-0.6-0.6c-0.4-0.4-1,0-1,0c-0.2,0.3-0.7,0.9-0.9,0.8c0,0-0.1-0.1-0.1-0.2
			c0-0.3-0.6-0.4-0.8-0.4v1.1l-0.5,0.7L24.9,16c0,0.2,0,0.9-0.3,0.9s-0.3-0.3-0.3-0.5l0,0c0,0-0.1,0.1-0.2,0.1
			c-0.1,0.1-0.3,0.2-0.4,0.2h-1.3l-0.7,0.2l-0.2-0.4l-1.3-0.2l0,0c-0.2-0.3-1.8-2.5-1.6-3c0.2-0.4-0.2-0.6-0.2-0.6l0,0l0,0l0.2-3.1
			l0.2-0.5L19,8.3l-0.8,0.2l0,0C17.7,8,17,7.4,16.9,7.4c-0.2,0-0.2-0.6-0.2-0.8s0-0.7,0.2-0.8c-0.1-0.1-0.6-0.5-1.1-0.8l0,0
			l-0.2-0.4c-0.2,0-1.4,0-1.6-0.2c-0.1-0.1-0.7,0.2-1,0.5l0,0l-0.7-0.7c-0.2-0.2-0.1-0.6,0-0.7l-1.5-1.3L9,1.5L8.6,1.9l0,0
			c-0.5,0-2.7,0.2-2.9,0c0,0,0,0,0-0.1c-0.1-0.2-1.6-1-3.1-1.7H0.1v0.1c0,0.1,0.2,0.3,0.2,0.5l0,0h0.1c0.1,0,0.2-0.1,0.3-0.1
			c0.1,0,0.1,0,0.1,0.1c0.1,0.1,0,0.2,0,0.4c0,0.1,0,0.2,0,0.3C0.7,1.6,0.9,2,0.9,2l0.3,0.5L0.7,2.8v0.4l0.7,0.4l0.4,0.7
			c0,0,0.5,0.5,0.5,0.7c0,0.3,0,0.3-0.3,0.3c-0.1,0-0.3,0.1-0.4,0.3C1.4,5.8,1.3,5.9,1.2,5.9C1.3,6,1.7,6.2,1.8,6.2
			c0.2,0,0.8,0.6,0.9,0.7l0.9,0.5v1.4C3.7,9,3.9,9.2,4,9.2c0.2,0,0.4,0.5,0.5,0.7l0.7,0.2l0.2,0.7l0.2,0.9h0.6v-1.3L5.8,10
			C5.6,9.8,5.2,9.8,5.2,9.8H5.1V9c0,0-0.1,0-0.2,0L4.8,8.9c0-0.2-0.2-0.4-0.4-0.6C4.3,8,4.3,7.9,4.3,7.7s0-0.3-0.1-0.4
			C4,7,3.8,6.4,3.8,6.4L3.3,5.5c0-0.1-0.4-0.7-0.4-1V3.6c0,0-0.4-0.1-0.9-0.1l0,0V1.6l1.9,0.2l0.5,2l2.9,3.4L7.1,7.7v0.6l1.5,1.8
			c0.1,0,0.4,0.2,0.6,0.2c0.1,0,0.1,0,0.1,0.1s-0.1,0.3-0.2,0.4l1.3,0.9l0.2,0.9l-0.2,0.7l0.3,0.3l-0.5,0.3l-0.4,0.6l2.6,2.4h0.9
			l0.5,0.2c0.2,0.2,0.5,0.4,0.6,0.4c0.2,0,0.3,0.3,0.3,0.5l0.6,0.2l0.9,0.2l2,1.1h2.2c0.1-0.2,0.5-0.7,0.7-0.7h0.7
			c0.2,0,0.6,0.7,0.7,0.9l1.3,0.7c0.3,0.1,0.3,0.4,0.4,0.5c0,0.1,0,0.1,0.1,0.1c0.2,0,1,0.2,1,0.5c0.1,0.1,0.6,0,1.3-0.1l0,0
			l1.1,0.7l0.9,0.2l0.2-0.2c0,0,0.2-0.2,0.2-0.4c0-0.1,0-0.1,0.1-0.1c0,0,0.1,0,0.5,0.5l0,0l0.2,0.9l0.7,0.9c0.1,0,0.7,0.2,0.9,0.5
			c0.2,0.2,0.1,0.5,0,0.7s-0.2,0.3-0.3,0.3s-0.4,0.2-0.6,0.4l1,0.6V26l1.2,0.2l0.7,0.4l0.5,0.5c0.3,0.3,0.7,0.7,0.9,0.7
			c0.3,0,1,0.5,1,0.7c0,0.1,0.6,0.4,1.1,0.6l0,0c0.1,0.1,0.3,0.3,0.3,0.3l0,0c0-0.2-0.2-1.1-0.2-1.1l0,0l0.5-0.5
			c0,0,0.9-0.4,1.1-0.7c0,0,0.1-0.1,0.2-0.1c0.3,0,0.6,0.5,0.6,0.5l0,0l0.2,1.1l0.9,1.1l-0.7,0.8l0.4,0.4v3l-0.9,0.2l-0.7,1.1v0.4
			h0.2l0.3,0.6l-1-0.2c-0.1,0.1-0.2,0.2-0.2,0.4c0,0,0,0.1-0.1,0.1s-0.1,0-0.2,0c-0.1,0-0.3-0.1-0.4-0.1c-0.1,0-0.1,0-0.1,0
			s0.1,0.1,0.2,0.1l0,0l0.5,0.5l-0.5,0.7l-0.7,0.2v1.7c0.2,0,0.9,0,1.1,0.2c0.2,0.2-0.2,1.1-0.2,1.2l0,0l0,0c0,0-0.5,0.2-0.7,0l0,0
			c-0.1,0-0.1,0.3-0.1,0.7v0.1h-0.8v0.6h0.2l0.5,1l-0.5,0.2v0.6l1.1,0.2v0.7l0.7,0.9l0.7,1.1l0.2,0.9c0.1,0.2,0.3,0.4,0.4,0.4
			c0.3,0,0.3,0.7,0.3,0.9l0.4,0.9l1.1,1.6l0.2,1.3l1.1,1.3l2.2,1.6h1.2v0.7l0.4,0.2l0.7,0.9l0.5,0.5l-0.2,4.3l-0.9,1.1l0.2,0.4
			l0.2,0.7l-0.2,0.5v0.9l-0.2,0.9h-0.4v0.6l0.2,0.5l-0.2,0.3l-0.4,0.2v0.7l-0.2,0.2L44.9,71h-0.4l0.2,3.1l-0.5,0.2v0.9h-0.5
			l-0.2,1.1l-1.3,1.3v0.9h-0.4v3l-1.1,0.9l0.2,0.6l1.1,0.9l-0.2,0.5l-0.7,0.9l-0.7,0.2v0.2l0.9,0.7v0.5l0,0c-0.1,0-0.3,0.2-0.5,0.1
			l0,0c0,0,0,0,0,0.1c-0.1,0.4-0.3,0.8-0.4,0.8H40v0.6L39.1,88l-0.2,0.2l0.2,0.8c0.1,0,0.4,0.2,0.6,0.2h0.1c0.2,0.2,0,1.2,0,1.4l0,0
			h-0.7v2.5h-0.7v0.8h1.1C39.5,93.9,39.5,95.3,39.5,95.3z M5.7,1.9L5.7,1.9L5.7,1.9z"/>
	</g>
</g>
</svg>
