<?xml version="1.0" standalone="no"?>
<!DOCTYPE svg PUBLIC "-//W3C//DTD SVG 20010904//EN"
 "http://www.w3.org/TR/2001/REC-SVG-20010904/DTD/svg10.dtd">
<svg version="1.0" xmlns="http://www.w3.org/2000/svg"
 width="801.000000pt" height="801.000000pt" viewBox="0 0 801.000000 801.000000"
 preserveAspectRatio="xMidYMid meet">
<metadata>
Created by potrace 1.11, written by Peter Selinger 2001-2013
</metadata>
<g transform="translate(0.000000,801.000000) scale(0.100000,-0.100000)"
fill="#000000" stroke="none">
<path d="M3738 7966 c-173 -123 -387 -262 -507 -330 -537 -309 -1110 -514
-1720 -617 -193 -33 -221 -45 -252 -113 -24 -52 -24 -83 0 -129 l19 -36 -21
14 c-33 23 -123 19 -164 -6 -48 -30 -59 -57 -88 -228 -109 -648 -341 -1278
-670 -1821 -51 -84 -194 -297 -291 -434 -27 -38 -34 -58 -34 -95 0 -63 27
-111 78 -138 l42 -21 -37 -19 c-69 -34 -103 -113 -79 -183 7 -20 51 -91 98
-156 394 -549 682 -1191 832 -1853 l33 -143 -19 -67 c-10 -36 -21 -109 -25
-161 -19 -313 138 -530 491 -677 90 -38 93 -38 221 -38 104 1 146 5 210 24
125 35 206 98 181 140 -7 11 36 -1 224 -61 438 -140 965 -402 1336 -664 211
-149 201 -144 258 -144 63 0 110 26 133 75 9 19 19 35 22 35 3 0 13 -15 21
-33 23 -49 73 -77 136 -77 46 0 60 5 116 44 173 123 387 262 507 330 535 308
1112 515 1719 617 195 33 222 45 253 113 24 52 24 83 0 129 l-19 36 21 -14
c31 -22 123 -19 161 4 46 29 63 66 81 177 99 627 325 1267 636 1799 86 147
233 372 304 465 57 75 65 92 65 142 0 61 -28 109 -78 134 l-42 22 37 19 c56
29 83 75 83 139 0 46 -5 60 -45 116 -347 491 -565 907 -740 1408 -87 251 -179
626 -226 928 -9 59 -17 79 -43 106 -44 48 -105 65 -160 45 l-42 -15 13 39 c24
68 -7 151 -67 182 -17 9 -95 27 -173 40 -529 88 -1014 247 -1486 485 -267 135
-427 233 -759 466 -56 39 -70 44 -116 44 -63 0 -111 -28 -135 -77 -9 -18 -18
-33 -21 -33 -3 0 -12 15 -20 33 -23 49 -73 77 -136 77 -46 0 -60 -5 -116 -44z
m692 -630 c540 -71 1025 -250 1468 -544 123 -82 140 -101 123 -138 -18 -40
-55 -31 -164 42 -447 299 -928 476 -1482 546 -150 19 -599 16 -759 -6 -1021
-134 -1848 -659 -2391 -1516 -80 -126 -230 -429 -279 -560 -348 -947 -248
-1977 273 -2806 34 -53 64 -107 67 -120 8 -32 -12 -54 -47 -54 -26 0 -36 10
-83 82 -419 644 -601 1491 -486 2251 181 1188 964 2167 2088 2612 307 121 599
187 1007 229 95 9 546 -3 665 -18z m2054 -508 c8 -13 26 -73 41 -135 30 -128
14 -116 184 -129 80 -6 98 -10 118 -30 30 -30 29 -49 -3 -81 -24 -24 -30 -25
-95 -19 -38 3 -100 9 -137 12 l-68 6 -59 -68 c-32 -38 -65 -77 -73 -86 -13
-16 -11 -22 22 -58 84 -93 83 -106 -87 -688 -66 -225 -78 -257 -108 -288 -68
-70 -150 -66 -241 12 -74 63 -85 59 -183 -56 -174 -205 -204 -237 -269 -292
-75 -63 -198 -131 -290 -160 -79 -25 -272 -35 -358 -19 -140 27 -300 95 -431
185 -61 42 -382 308 -562 467 -101 88 -197 153 -277 186 -84 35 -242 43 -338
18 -418 -109 -611 -581 -389 -951 45 -75 162 -182 246 -227 75 -39 202 -78
333 -101 125 -23 350 -46 445 -46 75 0 84 2 90 20 8 26 19 25 33 -4 10 -22 18
-23 124 -30 450 -28 735 -134 1004 -375 134 -120 198 -203 274 -356 239 -480
140 -1066 -246 -1449 -273 -271 -714 -419 -1079 -363 -301 47 -529 180 -975
567 -176 153 -234 196 -300 221 -114 43 -231 4 -353 -119 -135 -137 -838 -948
-859 -992 -47 -95 -33 -206 36 -287 26 -30 218 -165 303 -213 24 -13 43 -27
43 -30 0 -13 -155 -79 -220 -95 -150 -35 -332 -11 -473 62 -86 45 -218 171
-264 253 -69 121 -98 268 -82 410 17 152 61 227 288 495 115 136 124 145 137
126 9 -13 31 -21 66 -26 63 -9 198 -50 250 -76 44 -22 71 -24 87 -5 29 34
-101 322 -168 372 -12 10 -5 21 44 73 47 50 61 60 70 48 5 -7 52 -23 104 -35
51 -12 134 -38 183 -58 108 -43 122 -40 116 20 -9 81 -138 319 -181 335 -18 7
-5 23 114 142 153 153 235 208 389 261 89 30 104 32 235 32 117 1 153 -3 220
-22 97 -28 218 -84 307 -142 53 -35 64 -46 53 -54 -8 -6 -21 -45 -30 -86 -19
-91 -39 -157 -72 -232 -22 -49 -24 -60 -12 -74 10 -12 23 -14 53 -10 94 15
318 135 331 176 6 17 16 11 84 -48 70 -60 77 -68 61 -79 -12 -9 -20 -33 -25
-77 -3 -35 -23 -114 -44 -174 -53 -154 -42 -167 97 -111 90 36 243 134 250
161 2 10 5 18 7 18 1 0 35 -15 76 -34 209 -95 402 -77 596 55 37 26 43 27 51
13 6 -11 37 -20 103 -30 52 -8 135 -26 186 -40 50 -14 97 -23 102 -19 30 18
-5 128 -70 222 -51 74 -109 133 -131 133 -16 0 -19 5 -14 23 20 68 36 159 36
207 0 228 -140 444 -359 553 -50 26 -109 52 -130 58 -33 10 -37 14 -33 39 2
16 -4 52 -13 81 -10 29 -25 102 -34 162 -22 152 -30 156 -124 56 -49 -52 -90
-109 -127 -178 -46 -85 -58 -100 -75 -96 -11 2 -61 5 -112 5 -85 0 -91 1 -86
19 3 11 -9 62 -25 113 -17 51 -36 122 -43 158 -21 115 -45 116 -133 6 -64 -81
-128 -202 -130 -245 -1 -17 -4 -31 -8 -31 -17 0 -169 22 -216 31 -39 8 -50 14
-43 22 6 8 6 29 0 57 -5 25 -9 103 -9 174 -1 178 -10 187 -112 106 -79 -63
-187 -186 -195 -222 -3 -16 -8 -28 -10 -28 -18 0 -181 95 -243 141 -90 68
-218 199 -282 289 -130 183 -236 492 -226 662 l3 51 85 29 c47 15 123 35 170
43 138 25 132 22 128 52 -2 19 -22 43 -68 80 -69 56 -228 143 -261 143 -26 0
-24 14 12 115 20 56 34 82 40 74 5 -8 54 -17 136 -25 70 -7 153 -15 184 -19
53 -7 57 -6 64 15 15 47 -130 285 -193 316 -22 11 -21 13 48 85 61 63 74 71
83 58 7 -8 53 -37 102 -63 50 -27 119 -68 154 -93 37 -26 72 -43 85 -41 19 3
21 10 24 79 3 87 -30 274 -54 300 -13 14 -5 19 74 43 190 58 272 70 477 70
173 0 199 -3 287 -27 125 -33 261 -93 367 -161 65 -41 80 -55 68 -62 -9 -5
-24 -46 -36 -99 -12 -49 -37 -126 -56 -170 -39 -91 -42 -113 -18 -122 49 -19
294 81 367 150 l36 34 71 -60 c55 -47 67 -62 55 -69 -8 -4 -20 -34 -26 -64
-15 -73 -45 -164 -77 -237 -24 -54 -25 -59 -10 -74 15 -15 22 -15 69 -4 117
30 308 136 308 172 0 18 2 17 48 -2 87 -38 178 -25 251 37 46 38 206 226 226
263 19 38 13 53 -36 87 -75 51 -100 113 -79 189 7 24 27 57 44 74 39 38 719
349 783 358 61 8 107 -4 157 -42 l45 -34 70 83 c39 46 71 92 71 102 0 11 -13
70 -29 133 -37 142 -30 171 40 171 29 0 42 -6 53 -22z m273 -875 c139 -188
328 -539 407 -753 180 -494 249 -1036 195 -1535 -84 -782 -464 -1529 -1047
-2061 -545 -497 -1196 -794 -1932 -880 -200 -24 -566 -24 -760 0 -586 70
-1053 246 -1582 597 -49 33 -65 61 -50 94 18 38 62 33 125 -13 136 -101 365
-230 559 -316 314 -138 670 -231 1017 -266 153 -15 500 -12 667 5 621 65 1214
308 1705 696 134 105 393 364 499 499 375 473 603 1011 687 1620 24 177 24
626 0 798 -76 539 -263 1017 -559 1432 -34 47 -63 92 -65 101 -8 30 15 59 47
59 26 0 38 -11 87 -77z"/>
<path d="M5824 6150 c-34 -13 -64 -59 -64 -97 0 -71 43 -113 116 -113 52 0
104 53 104 107 0 80 -81 134 -156 103z"/>
</g>
</svg>
