<?xml version="1.0" encoding="utf-8"?>
<!-- Generator: Adobe Illustrator 22.1.0, SVG Export Plug-In . SVG Version: 6.00 Build 0)  -->
<svg version="1.1" id="Camada_1" xmlns="http://www.w3.org/2000/svg" xmlns:xlink="http://www.w3.org/1999/xlink" x="0px" y="0px"
	 viewBox="0 0 98.2 76.5" style="enable-background:new 0 0 98.2 76.5;" xml:space="preserve">
<style type="text/css">
	.st0{fill:#CDED88;}
</style>
<g>
	<path class="st0" d="M0.1,49.9c0,0,9.3-48.2,11.5-47.5C13.7,3.1,98,22.1,98,22.1L54.4,76.5L0.1,49.9z"/>
</g>
<g>
	<path class="st0" d="M54.4,74.4L54.4,74.4L0,47.8v-0.1C0.4,45.8,9,1.6,11.4,0.1c0.1-0.1,0.2-0.1,0.2,0C13.7,0.7,97.1,19.6,98,19.8
		h0.2L54.4,74.4z M0.3,47.6l54.1,26.5l43.4-54.2c-4.3-1-84.2-19-86.2-19.6c0,0,0,0-0.1,0C9.7,1.4,3.3,31.7,0.3,47.6z"/>
</g>
</svg>
