<?xml version="1.0" encoding="utf-8"?>
<!-- Generator: Adobe Illustrator 22.1.0, SVG Export Plug-In . SVG Version: 6.00 Build 0)  -->
<svg version="1.1" id="Camada_1" xmlns="http://www.w3.org/2000/svg" xmlns:xlink="http://www.w3.org/1999/xlink" x="0px" y="0px"
	 viewBox="0 0 98.8 75.6" style="enable-background:new 0 0 98.8 75.6;" xml:space="preserve">
<style type="text/css">
	.st0{fill:#122F49;}
	.st1{fill:#36F400;}
</style>
<g>
	<g>
		<g>
			<path class="st0" d="M69.8,12.1l2.5,2.5l-0.1,1l2.8,1.5l1,1.2l0.6,0.1l1.1,1.1l-3.2,3.3l0.6,0.7c0,0-3.2,1.5-3.2,1.9
				c0,0-3,0.8-3.1,1s-2.5,1.9-2.4,1c0,0,3.7-3.8,2.5-3.9l-21.1-0.4l-14.2-0.4c0,0-1.6,1.8,4.8,6.9c0,0-1.5,3-2.7,4.1
				c0,0,0.1,1.6-0.9,2c0,0,0,1.2-0.4,1.9c0,0,2.8,1.9,4,5.4c0,0,21.2,35.5,46.6,31.5c0,0-2.4-2.5-2.5-4.4c0,0-4.5,2.8-4.6,2.2
				c-0.1-0.6-1.3-2.4-1.3-2.4l-2.8-1.1l-1.3-1.7l-2.3-0.6L71,65l-2.3-0.6l-0.8-1.9l-2.9-1l-0.2-3.4l-4.2-0.5l-1-3.8l2.9-1.1l7.8,3.2
				l0.3-0.7l3-0.1l2.4,2.8l2.9-1.1l1,1.5l0.7,0.7l1.2-1.2l2.3,2.5l0.7-0.7c0,0-4.7-9.1-28-14.2l-14.7-3.2c0,0-1.5-2.4-1.3-4.8
				l-1-0.5l1.7-1l-0.4-1.6L39,36c0,0-1.4-2.3,0.5-3.9l1.3-3c0,0,2.5,2.8,5.5,3.8h13.4c0,0,5.7-1.3,6.9-2.2c0,0,3.9-1.3,5.1-2.8
				l0.6-0.1l0.7-1c0,0,3.7-2,3.9-3.1l0.5-1.1c0,0,2.5-1.8,2.3-3.8c0,0-1.2-5.9-0.8-8l-0.4-6.7c0,0,0.2-0.6-0.9-0.7
				c0,0-2.6-1.9-2.8-2.6c0,0-2.5-1.6-5-0.2c0,0,0.5,0.3,0.6,1v0.1c0,0,1.1,1.7,1.9,1.2c0,0,0.9,1.4,1.1,1l0.1,2.4
				c0,0,0.5,0.8,0.7,0.6l0.1,1.4l1.2,0.1c0,0,0,2.3,0.5,2.6l-1.3,1.6c0,0-1.7-0.8-1.9-1.8c0,0.3-0.2-3.6-1.2-3.7h-0.8
				c0,0-2-2.1-1.7-3.2c0.1,0.2,0.3-1.2,0.3-1.2s-2-0.6-2.1,0.1l0.2,0.9c0,0,0.2,3,1.5,4.5c0.2,0.1,0.7,2.8,1,3.6"/>
		</g>
		<g>
			<path class="st0" d="M47.5,23.4l1.2,0.1c-0.5-0.1-0.4-1-0.4-1l-0.7-7.3c0.4-0.3,0.2-0.9,0.2-0.9c-1.5-0.3-1,1-1,1
				s0.8,6.9,0.7,6.8C47.7,23.3,47.5,23.4,47.5,23.4z M47.2,15c-0.2,0-0.3-0.1-0.3-0.3s0.1-0.3,0.3-0.3s0.3,0.1,0.3,0.3
				C47.5,14.9,47.4,15,47.2,15z"/>
		</g>
		<g>
			<path class="st0" d="M55.6,23.6l1.1,0.5c-0.4-0.3,0-1.1,0-1.1l1.9-7.1c0.5-0.1,0.5-0.7,0.5-0.7c-1.3-0.8-1.2,0.6-1.2,0.6
				s-1.7,6.8-1.8,6.6C55.8,23.5,55.6,23.6,55.6,23.6z M58.3,15.6c-0.1-0.1-0.2-0.2-0.2-0.4s0.2-0.2,0.4-0.2c0.1,0.1,0.2,0.2,0.2,0.4
				S58.4,15.7,58.3,15.6z"/>
		</g>
	</g>
	<g>
		<g>
			<g>
				<polygon class="st0" points="11.4,75.5 11.1,55.4 27.8,34.1 43.2,29.1 43.4,30 28.4,34.9 12,55.7 12.3,75.4 				"/>
			</g>
		</g>
		<g>
			<g>
				<polygon class="st0" points="3.8,70.2 2.9,70 5.8,51.6 25.7,28.5 46.4,31.3 46.2,32.2 26,29.4 6.6,52 				"/>
			</g>
		</g>
		<g>
			<g>
				<polygon class="st0" points="0.9,69.1 0,69 3.1,53.2 3.3,53.1 26.3,37.7 47.4,30.6 47.7,31.5 26.7,38.6 3.9,53.7 				"/>
			</g>
		</g>
		<g>
			<g>
				<polygon class="st0" points="8.9,67.2 8,67.2 8,53.1 23.5,30.8 42.2,31.5 42.2,32.4 24,31.7 8.9,53.4 				"/>
			</g>
		</g>
		<g>
			<g>
				<polygon class="st0" points="72.3,63.4 71.4,62.9 77.5,50.8 72.7,32.7 59.7,32.5 59.7,31.6 73.4,31.8 78.5,50.9 				"/>
			</g>
		</g>
		<g>
			<g>
				<polygon class="st0" points="93.2,64.5 90.2,52.9 75,35.9 60.2,32.9 60.3,32 75.5,35.1 75.6,35.2 91,52.5 94.1,64.3 				"/>
			</g>
		</g>
		<g>
			<g>
				<polygon class="st0" points="90.1,67.6 89.2,67.4 91.8,54.6 78.7,37 63.2,31 63.6,30.1 79.3,36.3 92.8,54.4 				"/>
			</g>
		</g>
		<g>
			<g>
				<polygon class="st0" points="96.9,66.1 96,66 97.2,55.1 94.3,41 76.2,28.5 66.3,30.8 66.1,29.9 76.4,27.5 95.2,40.5 98.2,55.1 
									"/>
			</g>
		</g>
	</g>
</g>
<g>
	<path class="st1" d="M11.8,75.5l-0.3-20.1l0,0l10.3-13.1l-8.5,5.6l-3.8,5.5v13.9H8.4V53.1l2.5-3.6l-3.5,2.4l-0.2,0.2L4.4,70.3
		l-1.1-0.2L6,52.8l-1.5,1l-3,15.4L0.4,69l3.1-15.9L6.6,51l16.7-19.4l0.7-1h0.2l2-2.3l12.3,1.8c0.1-0.1,0.1-0.3,0.2-0.3
		c-4-3.2-4.9-5.1-5-6.1c-0.1-0.6,0.2-0.9,0.2-0.9l0,0l0,0L48,23.2c0-0.2,0-0.5,0-1V22l0,0c0-0.8-0.4-4.3-0.7-6.6
		c0-0.1-0.2-0.6,0-0.9c0.2-0.2,0.5-0.3,1-0.2l0,0l0,0c0,0,0.2,0.6-0.2,0.9l0.7,7.3c0,0,0,0.4,0.1,0.7l7.2,0.1
		c0.1-0.2,0.2-0.5,0.3-0.9l0.1-0.2l0,0c0.2-0.8,1.1-4.1,1.7-6.4c0-0.1,0-0.6,0.3-0.8c0.2-0.1,0.6-0.1,1,0.2l0,0l0,0
		c0,0,0,0.6-0.5,0.8l-1.9,7c0,0-0.1,0.1-0.1,0.3l12,0.2c0.2,0,0.3,0.1,0.3,0.2c0.3,0.7-2.3,3.4-2.7,3.8c0,0.1,0,0.1,0.1,0.1
		c0.4,0.1,2.1-1.1,2.2-1.2c0.1-0.2,1.8-0.6,3.1-1c0.2-0.4,2.3-1.5,3.2-1.9l-0.5-0.6l3.2-3.3l-1.1-1.1l-0.6-0.1l-1.1-1.2l-2.8-1.5
		l0.1-1.1l-2.5-2.5l0.2-0.5c-0.2-0.4-0.4-1.3-0.6-2.1c-0.2-0.6-0.3-1.4-0.4-1.5l0,0c-1.3-1.4-1.5-4.4-1.5-4.5l-0.2-0.9l0,0
		c0-0.1,0.1-0.2,0.2-0.3c0.5-0.3,2,0.1,2,0.1h0.1v0.1c-0.1,1.1-0.2,1.3-0.3,1.3c-0.2,1,1.5,2.8,1.7,3.1h0.7c0.8,0.1,1.2,2,1.3,3.7
		c0,0,0,0,0,0.1l0,0c0.2,0.9,1.5,1.6,1.8,1.7l1.2-1.5c-0.4-0.4-0.4-2.1-0.4-2.5l-1.2-0.1l-0.1-1.4l0,0c-0.2,0-0.6-0.5-0.6-0.6l0,0
		l0.1-2.1l0,0c-0.3,0-0.9-0.8-1-1.1C72.1,3.5,71,1.9,71,1.8l0,0l0,0V1.7c-0.1-0.7-0.6-0.9-0.6-0.9l-0.1-0.1l0.1-0.1
		c2.6-1.4,5.1,0.2,5.1,0.2l0,0l0,0c0.1,0.5,2,2,2.7,2.5c0.4,0,0.7,0.2,0.8,0.4c0.1,0.2,0.1,0.3,0.1,0.4l0.5,6.7l0,0
		c-0.5,2,0.7,7.9,0.8,7.9c0.2,2-2,3.7-2.3,3.9l-0.5,1.1c-0.2,1.1-3.6,3-3.9,3.2L73,28l-0.6,0.1c-0.1,0.1-0.3,0.3-0.4,0.4l5-1.2l0,0
		l18.8,13l0,0l3,14.6l-1.3,11.3l-1.1-0.1l1.2-11L94.7,41l-18-12.4l-8.6,2c-0.5,0.2-0.8,0.3-0.9,0.3C67.1,31,67,31,66.8,31.1l1.3,0.5
		l5.8,0.1l0.6,2.4l5.2,2l13.5,18.2l-0.6,2.8l1.9,7.2l-1,0.3l-1.3-5l-1.7,8.2l-1.1-0.2l2.1-10.3l-1.1-4.2L75.5,36l-0.4-0.1l4,15l-1,2
		c5.7,3.5,7.4,6.6,7.4,6.6v0.1l-0.8,0.8l-2.3-2.5l-1.2,1.2l-0.7-0.6l-1-1.5l-2.8,1.1l-0.8-0.8l-3.1,6.2l-1-0.5l3.3-6.6l-0.9-1.1
		l-2.9,0.1L71,56.1l-7.8-3.2L60.4,54l0.9,3.7l4.2,0.5l0.2,3.4l2.9,0.9l0.8,1.9l2.3,0.6l-0.8,1.5l2.2,0.6l1.2,1.8l2.8,1.1l0,0
		c0.1,0.1,1.2,1.8,1.3,2.4c0.2,0.2,2.5-1,4.4-2.2l0.1-0.1v0.1c0.1,1.8,2.4,4.3,2.4,4.3l0.1,0.1h-0.2c-5.8,0.9-11.9-0.1-18-3.2
		c-4.9-2.4-9.9-6.2-14.8-11c-8.3-8.2-13.6-17.1-13.7-17.2c-1.2-3.5-3.9-5.4-4-5.4h-0.1v-0.1c0.3-0.5,0.4-1.4,0.4-1.8l-7.8,2.7
		l-2.6,1.7l-12,15.5l0.3,19.8L11.8,75.5z M11.7,55.5L12,75.4h0.7l-0.3-19.6l0,0l12.1-15.5l0,0l2.6-1.7l8-2.7l0.1,0.2l0,0l0,0
		c0,0.2,0,1.2-0.4,1.8c0.4,0.3,2.8,2.2,4,5.4c0,0.1,5.4,9,13.7,17.2c7.7,7.6,19.6,16.2,32.6,14.2c-0.5-0.5-2.2-2.5-2.4-4.2
		c-0.8,0.5-3.6,2.2-4.4,2.2h-0.1c-0.1,0-0.1-0.1-0.1-0.1c-0.1-0.5-1.2-2.1-1.3-2.3L74,69.2l-1.2-1.8l-2.4-0.6l0.8-1.5L69,64.7
		l-0.8-1.9l-3-1l0-3.5L61,57.8l-1-3.9l3-1.2l7.7,3.2l0.3-0.6l3.1-0.1l1.1,1.2l-3.3,6.5l0.7,0.3l3.1-6.2l0.8,0.9l2.9-1.1l1.1,1.6
		l0.6,0.6l1.2-1.2l2.3,2.5l0.6-0.6c-0.2-0.4-2-3.3-7.3-6.5h-0.1l1.1-2.1l-4-15.2l0.7,0.1l0,0l15.1,17l1.1,4.3l0,0l-2.1,10.2l0.7,0.1
		l1.8-8.7l1.5,5.6l0.7-0.2l-1.8-7l0.6-2.7L79.7,36.3l-5.2-2l-0.6-2.4l-5.7-0.1l-1.7-0.7l0.2-0.1c0.2-0.1,0.4-0.2,0.6-0.3l0,0
		c0,0,0.4-0.1,0.9-0.3l8.7-2l0,0L95,40.9l0,0L97.9,55l-1.2,10.9l0.7,0.1l1.2-11l-3-14.6L76.9,27.6l-5.7,1.3l0.4-0.2
		c0.3-0.2,0.6-0.5,0.8-0.7l0,0l0.6-0.1l0.7-1l0,0c0,0,3.7-2,3.9-3.1l0,0l0.5-1.2l0,0c0,0,2.4-1.8,2.2-3.7c0-0.2-1.2-5.9-0.8-8
		L79,4.1l0,0c0,0,0-0.1,0-0.3c-0.1-0.2-0.4-0.3-0.7-0.3l0,0l0,0c-0.1-0.1-2.5-1.9-2.8-2.6c-0.3-0.2-2.5-1.4-4.8-0.2
		c0.2,0.1,0.5,0.4,0.6,1v0.1c0.3,0.5,1.2,1.5,1.8,1.2h0.1v0.1c0.2,0.4,0.7,1.1,0.9,1.1c0,0,0,0,0.1,0L74.4,4l-0.3,2.3
		c0.1,0.2,0.4,0.5,0.5,0.5l0,0l0.1-0.1l0.1,1.5L76,8.3v0.1c0,0.9,0.1,2.3,0.4,2.5l0.1,0.1l-1.4,1.7H75c-0.1,0-1.7-0.8-1.9-1.8v-0.1
		c-0.2-2.2-0.6-3.5-1.1-3.5h-0.8l0,0c-0.1-0.1-2-2.1-1.7-3.3l0.1-0.2v0.1c0.1-0.2,0.1-0.6,0.2-1c-0.4-0.1-1.5-0.3-1.8-0.1
		c-0.1,0-0.1,0.1-0.1,0.1l0.2,0.8c0,0,0.2,3,1.5,4.4c0.1,0.1,0.2,0.4,0.5,1.5c0.2,0.8,0.4,1.7,0.6,2.1l0,0l-0.2,0.5l2.5,2.5l-0.1,1
		l2.7,1.5l1,1.2l0.6,0.1l1.2,1.2L75.2,23l0.6,0.7h-0.1c-1.5,0.7-3.1,1.6-3.2,1.8v0.1h-0.1c-1.4,0.4-3,0.8-3.1,0.9
		c-0.1,0.2-1.8,1.5-2.4,1.3c-0.1,0-0.2-0.1-0.2-0.3l0,0l0,0c1.1-1.2,2.9-3.2,2.7-3.7c0,0,0-0.1-0.2-0.1L57,23.5v-0.1
		c0.1-0.2,0.1-0.4,0.2-0.4l2-7.1l0,0c0.3-0.1,0.4-0.5,0.4-0.6c-0.3-0.2-0.5-0.2-0.7-0.2H59c0.1,0,0.2,0.1,0.2,0.2c0,0.1,0,0.2,0,0.3
		c-0.1,0.2-0.3,0.3-0.5,0.2c-0.1,0-0.2-0.1-0.2-0.2c0,0.1,0,0.2,0,0.2l0,0l0,0c-1.3,5.3-1.7,6.4-1.8,6.6l0,0c-0.1,0.5-0.3,0.8-0.4,1
		l0,0l-7.4-0.1l0,0c-0.1-0.3-0.1-0.8-0.1-0.8l-0.7-7.3l0,0c0.3-0.2,0.2-0.6,0.2-0.7c-0.3-0.1-0.6,0-0.7,0.1h0.1
		c0.2,0,0.4,0.2,0.4,0.4s-0.2,0.4-0.4,0.4c-0.1,0-0.2,0-0.3-0.1c0,0.1,0.1,0.2,0.1,0.2l0,0c0.6,5.4,0.7,6.6,0.7,6.8l0,0
		c0,0.5,0,0.9,0,1.2v0.1h-0.1L34,23.2c0,0.1-0.2,0.3-0.1,0.7c0.1,1,1,2.9,5,6H39V30c0,0-0.1,0.2-0.2,0.4v0.1l-12.4-1.7l-2,2.3h-0.2
		L23.5,32L6.8,51.2l0,0l-3,2L0.6,68.9L1.3,69l3-15.3l1.9-1.2L3.5,69.9L4.2,70L7,51.9l0.2-0.2l4.3-2.9l-3,4.3v14h0.7V53.4l3.9-5.6
		l9.4-6.2L11.7,55.5z M58.9,15.2C58.8,15.2,58.8,15.2,58.9,15.2c-0.1,0-0.2,0.1-0.2,0.1l0,0c0,0.1,0,0.2,0.1,0.3
		c0.1,0,0.2,0,0.3-0.1c0-0.1,0-0.1,0-0.2C59,15.2,59,15.2,58.9,15.2L58.9,15.2z M47.7,14.5c-0.1,0-0.2,0.1-0.2,0.2
		c0,0.1,0.1,0.2,0.2,0.2c0.1,0,0.2-0.1,0.2-0.2S47.8,14.5,47.7,14.5z M92.2,55.5l-0.5-1.8l0.7,0.9L92.2,55.5z M92.1,54.5l0.1,0.3
		v-0.2L92.1,54.5z M77.2,52.7L77.2,52.7c-5.2-3-11.9-5.4-19.9-7.1l-14.7-3.3l0,0c0,0-1.5-2.4-1.3-4.7l-1-0.5l1.8-1l-0.3-1.4
		l-2.2,1.6l-0.1-0.1c0,0-0.5-0.7-0.5-1.6v-0.1l6.5-2.2l0,0c0.5,0.3,1,0.5,1.4,0.6h13.4c0,0,0.2,0,0.4-0.1l0,0l0,0L74,35.5l4.1,15.3
		L77.2,52.7z M42.7,42.2l14.7,3.2c8,1.7,14.6,4.1,19.8,7.1l0.8-1.6l-4-15.2L60.8,33c-0.3,0.1-0.4,0.1-0.4,0.1l0,0H46.9l0,0
		c-0.5-0.2-0.9-0.4-1.4-0.6l-6.3,2.1c0.1,0.7,0.3,1.2,0.4,1.4l2.1-1.7l0.4,1.8L40.5,37l0.9,0.4v0.1C41.2,39.7,42.5,41.9,42.7,42.2z
		 M9,49.7L18.2,39l0.1,0.1l-5.7,8.2l0,0L9,49.7z M17.3,40.3L10,48.9l2.6-1.7L17.3,40.3z M86.6,47.2L76.6,36l2.6,1L86.6,47.2
		L86.6,47.2z M77.3,36.3l8.2,9.2L79.2,37L77.3,36.3z M14.4,46.1L24,32.2l0.6-0.6l0,0L35,32l-6.6,2.1l-4.3,5.5L14.4,46.1z M24.6,31.8
		l-0.5,0.6L15,45.5l8.9-5.9l4.3-5.5l0,0l5.7-1.9L24.6,31.8z M26,38.4l2.8-3.6l0,0l8.3-2.7h0.4l-0.1,0.2c-0.5,0.7-0.9,1.3-1.3,1.7
		c0,0.1,0,0.4-0.1,0.7l0,0l0,0l-9.2,3.1L26,38.4z M28.9,35l-2.1,2.7l9.1-3.1c0.1-0.4,0-0.7,0-0.7l0,0l0,0c0.4-0.3,0.8-0.8,1.2-1.5
		H37L28.9,35z M72.3,34.4l-8.7-1.8v-0.2l4.4,0.1l4.3,1.7L72.3,34.4z M64.6,32.7l6.8,1.4L68,32.8L64.6,32.7z M73.7,34l-3.5-1.4h3.2
		L73.7,34z M71.1,32.8l2.4,0.9l-0.2-0.9H71.1z M39,33.7v-0.2c0.1-0.5,0.4-0.9,0.8-1.3l0,0l2.7,0.1v-0.8l1.8,0.3l-1.9,0.6l0,0
		L39,33.7z M40,32.4c-0.3,0.3-0.6,0.6-0.7,1l2.7-0.9L40,32.4z M42.8,31.8v0.5l1-0.3L42.8,31.8z M66,31.8h-1.4l0.5-0.2
		c0.1,0,0.1,0,0.2-0.1l0,0L66,31.8z M41.1,31.5h-0.8l0.1-0.2l0.8,0.1L41.1,31.5z M37,31.4L37,31.4l-11.8-0.5l1.3-1.6l11.7,1.6
		L37,31.4z M25.5,30.7L37,31.2l0.5-0.2l-10.9-1.5L25.5,30.7z M43.4,30.9l-1.9-0.2l1.1-0.4l0,0c0.1,0.1,0.3,0.3,0.5,0.4L43.4,30.9z
		 M42.3,30.6l0.5,0.1c-0.1-0.1-0.1-0.1-0.2-0.2L42.3,30.6z M40.9,30.1l0.5-1l0.1,0.1c0,0,0.2,0.2,0.5,0.5l0.1,0.1L40.9,30.1z
		 M41.4,29.4l-0.2,0.5l0.5-0.2C41.6,29.5,41.5,29.4,41.4,29.4z"/>
</g>
</svg>
