<?xml version="1.0" encoding="utf-8"?>
<!-- Generator: Adobe Illustrator 22.1.0, SVG Export Plug-In . SVG Version: 6.00 Build 0)  -->
<svg version="1.1" id="Camada_1" xmlns="http://www.w3.org/2000/svg" xmlns:xlink="http://www.w3.org/1999/xlink" x="0px" y="0px"
	 viewBox="0 0 93 98.2" style="enable-background:new 0 0 93 98.2;" xml:space="preserve">
<style type="text/css">
	.st0{fill:#232323;}
	.st1{fill:#8800FF;}
	.st2{fill:#7A7A7A;}
	.st3{fill:#777777;}
	.st4{fill:#FFFFFF;}
	.st5{fill:#FFC9FF;}
	.st6{fill:#D3D3D3;}
	.st7{opacity:0.35;}
	.st8{fill:#FDABFF;}
</style>
<g>
	<g>
		<g>
			<polygon class="st0" points="37.7,5.7 75.5,16.1 76.6,18 54.9,96.9 52.5,98.2 15,87.8 13.6,85.3 35.2,7.3 			"/>
		</g>
		<g>
			<path d="M45.5,7.4l0.8-3c0,0,5.6-2.1,7.3-1.6s13.6,3.8,13.6,3.8s2.2,2,2.6,3.9c0,0,0.2,1-1.2,4.3c-0.1,0.3,3.4,0.8,3.4,0.8
				l1.2-4.3c0,0-0.7-5.7-8.1-8.7c0,0-7-2.8-12.6-2.6s-8.6,3.1-8.6,3.1l-1.2,4.3l3,0.8L45.5,7.4z"/>
		</g>
		<g>
			<g>
				<path class="st1" d="M38.4,90c-1.3,0-2.7-0.2-4-0.5c-3.8-1.1-7-3.5-8.9-7c-2-3.4-2.4-7.4-1.4-11.3c1.8-6.4,7.6-10.9,14.3-10.9
					c1.3,0,2.7,0.2,4,0.5C50.3,63,54.9,71.1,52.7,79C50.9,85.5,45.1,90,38.4,90z"/>
			</g>
			<g>
				<path class="st2" d="M38.4,59.3v2.1l0,0c1.2,0,2.5,0.2,3.7,0.5c7.3,2,11.6,9.6,9.6,16.9c-1.6,5.9-7.1,10.1-13.2,10.1
					c-1.2,0-2.5-0.2-3.7-0.5c-7.3-2-11.6-9.6-9.6-16.9c1.6-5.9,7.1-10.1,13.2-10.1V59.3 M38.4,59.3c-7,0-13.4,4.6-15.3,11.7
					c-2.3,8.5,2.6,17.2,11.1,19.5c1.4,0.4,2.8,0.6,4.2,0.6c7,0,13.4-4.6,15.3-11.7c2.3-8.5-2.6-17.2-11.1-19.5
					C41.2,59.5,39.8,59.3,38.4,59.3L38.4,59.3z"/>
			</g>
		</g>
		<g>
			<circle class="st3" cx="48.2" cy="40.6" r="15.9"/>
		</g>
		<g>
			<g>
				<path class="st1" d="M47.9,54.5c-1.2,0-2.5-0.2-3.7-0.5c-3.5-1-6.5-3.3-8.3-6.5s-2.3-6.9-1.3-10.4C36.2,31.2,41.7,27,47.8,27
					c1.2,0,2.5,0.2,3.7,0.5c3.5,1,6.5,3.3,8.3,6.5c1.8,3.2,2.3,6.9,1.3,10.4C59.5,50.3,54.1,54.5,47.9,54.5z"/>
			</g>
			<g>
				<g>
					<path class="st2" d="M47.9,26v2.1l0,0c1.1,0,2.3,0.2,3.4,0.5c3.3,0.9,6,3,7.6,6c1.7,2.9,2.1,6.4,1.2,9.6
						c-1.5,5.5-6.5,9.3-12.2,9.3c-1.1,0-2.3-0.2-3.4-0.5c-6.7-1.9-10.7-8.8-8.8-15.6c1.5-5.5,6.5-9.3,12.2-9.3V26 M47.9,26
						c-6.5,0-12.4,4.3-14.2,10.8c-2.2,7.9,2.4,16,10.3,18.2c1.3,0.4,2.6,0.5,3.9,0.5c6.5,0,12.4-4.3,14.2-10.8
						c2.2-7.9-2.4-16-10.3-18.2C50.5,26.1,49.2,26,47.9,26L47.9,26z"/>
				</g>
			</g>
		</g>
		<g>
			
				<rect x="50.3" y="-2.6" transform="matrix(0.2661 -0.9639 0.9639 0.2661 24.1435 65.3068)" class="st4" width="9.3" height="38.8"/>
		</g>
		<g>
			<circle cx="39.4" cy="12.5" r="1.6"/>
		</g>
		<g>
			<circle class="st5" cx="38.4" cy="75.2" r="9.3"/>
		</g>
		<g>
			<circle class="st5" cx="48.2" cy="40.6" r="9.3"/>
		</g>
		<g>
			<circle cx="70.1" cy="21.4" r="1.9"/>
		</g>
		<g>
			<path d="M47.9,44.9c-0.4,0-0.7,0-1.1-0.2c-1.1-0.3-2-1-2.5-1.9c-0.5-1-0.7-2.1-0.4-3.1c0.6-2.2,2.9-3.5,5.1-2.9
				c2.2,0.6,3.5,2.9,2.9,5.1c-0.3,1.1-1,2-1.9,2.5C49.3,44.7,48.6,44.9,47.9,44.9z M47.9,36.9c-1.7,0-3.2,1.1-3.7,2.8
				c-0.3,1-0.1,2,0.4,2.9s1.3,1.5,2.3,1.8s2,0.1,2.9-0.4s1.5-1.3,1.8-2.3c0.6-2-0.6-4.1-2.7-4.7C48.6,37,48.3,36.9,47.9,36.9z"/>
		</g>
		<g>
			<circle cx="38.4" cy="75.2" r="4"/>
		</g>
		<g>
			<path class="st6" d="M53.8,70.7L42.4,75l-0.7,2.4l8.2,8.8c0,0,3.2-3,4.3-8.3C54.2,77.8,54.4,73.6,53.8,70.7z"/>
		</g>
		<g>
			<path class="st6" d="M27.5,63.5l7.6,9.5l-0.7,2.4L23,78.7c0,0-1.3-4.2,0.6-9.3C23.6,69.4,25.5,65.7,27.5,63.5z"/>
		</g>
		<g>
			<circle cx="47.9" cy="40.7" r="4"/>
		</g>
		<g>
			<path class="st6" d="M63.3,36.3l-11.4,4.3L51.2,43l8.2,8.8c0,0,3.2-3,4.3-8.3C63.7,43.4,63.9,39.2,63.3,36.3z"/>
		</g>
		<g>
			<path class="st6" d="M37,29l7.6,9.5L44,40.9l-11.5,3.4c0,0-1.3-4.2,0.6-9.3C33.1,35,35.1,31.2,37,29z"/>
		</g>
	</g>
	<g class="st7">
		<g>
			<path class="st8" d="M68.4,32.4c1.2,2,1.9,4.2,2.2,6.4c0.3,2.3,0.3,4.7-0.4,7c-0.6,2.3-1.9,4.5-3.4,6.2c-1.6,1.7-3.4,3-5.4,4.1
				c1.2-1.9,2.6-3.7,3.7-5.5s2-3.6,2.5-5.5s0.8-4,0.9-6.1C68.5,36.8,68.4,34.7,68.4,32.4z"/>
		</g>
	</g>
	<g class="st7">
		<g>
			<path class="st8" d="M36.4,22.4c-2.7,1.5-4.9,3.6-6.5,6c-1.6,2.4-2.6,5.1-3,8c-0.4,2.8-0.4,5.8,0.1,8.7s1.3,5.8,3.3,8.3
				c-1.4-0.8-2.5-2-3.4-3.3c-0.9-1.4-1.6-2.9-2-4.4c-1-3.1-1.3-6.4-0.8-9.7s1.9-6.4,4.1-8.9C30.3,24.6,33.3,22.8,36.4,22.4z"/>
		</g>
	</g>
	<g class="st7">
		<g>
			<path class="st8" d="M33,19.8c-2,1.1-3.8,2-5.6,3.1c-0.9,0.5-1.8,1.1-2.6,1.6c-0.9,0.6-1.6,1.1-1.8,1.6c-0.3,0.4-0.5,1.1-0.8,2.2
				c-0.3,1-0.6,1.9-0.8,2.9c-0.5,1.9-0.9,3.9-1.1,5.8c-0.4,3.9-0.3,7.7,0.8,11.3c1.1,3.7,3.1,7.2,6.5,10c-2.2-0.3-4.3-1.4-6.1-2.8
				c-1.8-1.5-3.3-3.3-4.5-5.4c-0.3-0.5-0.5-1.1-0.8-1.6c-0.2-0.6-0.5-1.1-0.6-1.7c-0.4-1.1-0.6-2.3-0.8-3.5
				c-0.2-1.2-0.3-2.4-0.3-3.5c0-1.2,0.1-2.3,0.2-3.5c0.2-1.2,0.4-2.3,0.6-3.4c0.3-1.1,0.6-2.2,1-3.3c0.4-1.1,0.8-2.1,1.3-3.1
				c0.2-0.5,0.5-1,0.8-1.6s0.8-1.2,1.4-1.8c0.6-0.5,1.2-0.9,1.8-1.2c0.6-0.3,1.2-0.5,1.7-0.7c1.1-0.3,2.1-0.6,3.2-0.9
				C28.5,19.8,30.8,19.6,33,19.8z"/>
		</g>
	</g>
	<g class="st7">
		<g>
			<path class="st8" d="M75.5,29.8c2.2,2.7,3.7,5.7,4.8,9.1c1.1,3.3,1.5,7,0.8,10.8c-0.7,3.7-2.7,7.2-5.5,9.6
				c-2.7,2.4-6.2,4-9.8,3.9c2.7-2.2,4.8-4.4,6.4-6.9s2.7-5.1,3.3-7.8c0.6-2.7,0.6-5.7,0.4-8.8C75.9,36.6,75.4,33.3,75.5,29.8z"/>
		</g>
	</g>
	<g class="st7">
		<g>
			<path class="st8" d="M29.3,11.3c-1.2,0.7-2.4,1.4-3.4,2.2s-1.9,1.7-2.8,2.6c-1.7,1.8-3.2,3.8-4.6,6c-0.7,1-1.4,2.1-2.1,3.2
				s-1.4,2.2-2,3.3c-0.6,1.1-1.2,2.1-1.7,3.2c-0.5,1-0.9,2.1-1.2,3.1c-1.3,4.3-1.5,9.1-0.7,13.9c0.8,4.9,2.6,9.7,4.6,14.9
				c-4.6-3.2-8.3-7.8-10.5-13.2C2.7,45,2.2,38.6,4.1,32.6c0.5-1.5,1.1-3,1.8-4.3s1.5-2.6,2.4-3.8c0.9-1.2,1.7-2.2,2.6-3.3
				c0.9-1.1,1.9-2.1,2.9-3.1c2.1-2,4.4-3.8,7-5.1C23.5,11.7,26.5,10.9,29.3,11.3z"/>
		</g>
	</g>
	<g class="st7">
		<g>
			<path class="st8" d="M77.4,21.1c2.9,0.9,5.6,2.7,7.8,5c2.2,2.3,3.9,5.1,5.1,8c0.6,1.5,1.1,3,1.5,4.5c0.2,0.8,0.4,1.5,0.5,2.3
				s0.3,1.6,0.4,2.3c0.2,1.6,0.3,3.1,0.3,4.8s-0.2,3.4-0.6,5.1c-0.4,1.7-1.2,3.5-2.1,5s-1.9,2.8-2.9,3.9c-2,2.3-4.2,4.5-6.8,6.4
				c-2.6,1.8-5.5,3.4-8.6,4.1c-3.1,0.8-6.4,0.8-9.2-0.2c2.9-0.7,5.5-1.8,7.8-3.3s4.2-3.2,6.1-5.2c1.8-2,3.5-4.1,5.1-6.3
				c0.8-1.1,1.6-2.2,2.1-3.2c0.6-1,0.9-1.9,1.2-3c0.3-1.1,0.4-2.3,0.5-3.5s0.1-2.6,0-3.9c-0.1-2.7-0.4-5.3-0.9-7.9
				c-0.5-2.6-1.3-5.2-2.4-7.7C80.9,25.7,79.4,23.4,77.4,21.1z"/>
		</g>
	</g>
	<g class="st7">
		<g>
			<path class="st8" d="M58,71c1.6,1.5,2.6,3.4,3.1,5.5s0.5,4.3,0.1,6.5c-0.4,2.1-1.5,4.2-2.7,5.8L57.6,90c-0.3,0.4-0.6,0.8-1,1.2
				c-0.7,0.8-1.7,1.6-2.9,1.6c0.8-0.7,1.1-1.6,1.3-2.5l0.4-1.4c0.1-0.5,0.3-1,0.5-1.5c0.7-1.9,1.3-3.5,1.7-5.3
				c0.4-1.7,0.6-3.5,0.6-5.4C58.3,75,58.2,73.1,58,71z"/>
		</g>
	</g>
	<g class="st7">
		<g>
			<path class="st8" d="M64.8,76.9c1.3,1,2.1,2.3,2.6,3.8s0.6,3,0.3,4.5c-0.2,1.5-0.8,3-1.6,4.2c-0.9,1.3-2,2.3-3.5,2.9
				c0.1-1.6,0.3-2.9,0.4-4.2l0.5-3.6l0.5-3.6C64.2,79.8,64.4,78.5,64.8,76.9z"/>
		</g>
	</g>
	<g class="st7">
		<g>
			<path class="st8" d="M71.4,76.1c0.7-0.1,1.4,0.2,1.9,0.7s0.8,1.1,1,1.7s0.3,1.2,0.4,1.7s0.1,1,0,1.5c0,0.5-0.1,1-0.2,1.5
				s-0.2,1.1-0.5,1.6c-0.2,0.6-0.6,1.1-1.1,1.6s-1.3,0.8-1.9,0.5c0.1-0.3,0.2-0.6,0.2-0.8c0-0.3,0-0.5-0.1-0.7l-0.3-1.2
				c-0.2-0.7-0.3-1.8-0.3-2.8c0-0.5,0.1-1,0.2-1.5c0.1-0.4,0.2-0.8,0.3-1.2c0.1-0.4,0.3-0.8,0.4-1.2C71.5,77.2,71.6,76.7,71.4,76.1z
				"/>
		</g>
	</g>
	<g class="st7">
		<g>
			<path class="st8" d="M79.1,72.7c1.2,0.6,2,1.5,2.5,2.6c0.5,1,0.8,2.2,0.8,3.4c0,1.2-0.3,2.3-0.8,3.3c-0.6,1-1.4,2-2.6,2.5
				c-0.4-1.3-0.5-2.3-0.7-3.2c-0.1-0.9-0.2-1.8-0.2-2.7c0-0.9,0.1-1.7,0.2-2.7C78.6,75,78.7,74,79.1,72.7z"/>
		</g>
	</g>
	<g class="st7">
		<g>
			<path class="st8" d="M87.6,66.4c0.8,0.8,1.2,1.6,1.3,2.4c0.2,0.8,0.1,1.6-0.1,2.4c-0.2,0.7-0.7,1.4-1.3,2c-0.6,0.6-1.4,1-2.5,1.1
				c-0.4-1.1-0.5-1.8-0.5-2.5s0.1-1.3,0.3-1.9c0.2-0.6,0.5-1.1,0.9-1.7C86.1,67.6,86.7,67,87.6,66.4z"/>
		</g>
	</g>
	<g class="st7">
		<g>
			<path class="st8" d="M23.2,63.2c-0.6,0.8-1.2,1.6-1.7,2.4s-0.9,1.6-1.2,2.4c-0.7,1.6-1.1,3.2-1.2,4.9c-0.1,1.7,0,3.2,0.5,5
				c0.4,1.7,1.2,3.5,1.7,5.5c-1.7-1.1-3.2-2.6-4.3-4.4c-1.1-1.8-1.7-4.1-1.5-6.3c0.2-2.2,1-4.3,2.3-6c0.7-0.8,1.5-1.6,2.3-2.2
				C21.2,63.8,22.2,63.4,23.2,63.2z"/>
		</g>
	</g>
	<g class="st7">
		<g>
			<path class="st8" d="M11.9,66c0.1,1.4,0.3,2.3,0.4,3.2l0.4,2.5c0.1,0.8,0.2,1.6,0.3,2.5c0.1,0.9,0.2,1.9,0.4,3.2
				c-1.4,0-2.6-0.7-3.4-1.7c-0.9-1-1.4-2.2-1.6-3.5c-0.2-1.3,0-2.6,0.6-3.7C9.6,67.3,10.6,66.3,11.9,66z"/>
		</g>
	</g>
	<g class="st7">
		<g>
			<path class="st8" d="M0.9,49.8c1.1,0.9,1.8,1.8,2.3,2.7s1,1.8,1.3,2.7S5.1,57,5.3,58s0.4,2,0.5,3.4c-1.4-0.1-2.5-0.8-3.4-1.7
				s-1.5-1.9-1.9-3C0.1,55.6,0,54.5,0,53.3C0.1,52.2,0.3,51,0.9,49.8z"/>
		</g>
	</g>
</g>
</svg>
