<?xml version="1.0" encoding="utf-8"?>
<!-- Generator: Adobe Illustrator 22.1.0, SVG Export Plug-In . SVG Version: 6.00 Build 0)  -->
<svg version="1.1" id="Camada_1" xmlns="http://www.w3.org/2000/svg" xmlns:xlink="http://www.w3.org/1999/xlink" x="0px" y="0px"
	 viewBox="0 0 94.6 94.3" style="enable-background:new 0 0 94.6 94.3;" xml:space="preserve">
<style type="text/css">
	.st0{fill:#7F4404;}
	.st1{fill:#EAB90D;}
</style>
<g>
	<g>
		<path class="st0" d="M74,49.9l11-12.5c0,0,0.1-12.3-2.2-16.7C80.4,16.4,67.4,7,66.8,6.6c-0.7-0.5-7.9-5.9-7.9-5.9L37.2,0
			c0,0-12.2,3.7-16.8,9.4l-2,8.6l7.5-5.2l8.8-2.6l3.4,2.5l4.9-1.4l5.4,3.9l-3,7.2l-6-0.7l-8,1.2l-7.6,2c0,0-3.9-0.3-4.5-1.1
			c-0.5-0.8,0.3,6.2,4.2,6.3c0,0,18.3,4.9,28.8,0l6.6-8.8L78,25.9l3.4,6.5v5.3l-7,7.1L74,49.9z"/>
		<path class="st0" d="M19.3,43.5H75c0,0,0.7,12-7.8,20H27.7C27.7,63.4,17.3,57.7,19.3,43.5z"/>
		<g>
			<polygon class="st0" points="54.4,45.2 51.7,44.8 55.6,36.7 58.2,37.1 			"/>
		</g>
		<g>
			<polygon class="st0" points="39.4,45.3 36.5,36.9 39.2,36.6 42.1,45 			"/>
		</g>
		<path class="st0" d="M21.4,51.6l-11,10.7c0,0-0.1,10.5,2.2,14.2c2.4,3.7,15.4,11.7,16,12.1c0.7,0.4,7.9,5,7.9,5l21.7,0.7
			c0,0,12.2-3.2,16.8-8l2-7.4l-7.5,4.5l-8.8,2.2l-3.4-2.1l-4.9,1.1L47,81.3l3-6.2l5.9,0.5l8-1.1l7.6-1.7c0,0,3.9,0.3,4.5,0.9
			c0.5,0.7-0.3-5.3-4.2-5.4c0,0-18.3-4.2-28.8,0l-6.6,7.5l-19.1-3.9l-3.4-5.5v-4.5l7-6L21.4,51.6z"/>
		<ellipse transform="matrix(0.8951 -0.4459 0.4459 0.8951 -12.1511 20.4037)" class="st0" cx="37.3" cy="36" rx="1.9" ry="3.4"/>
		<ellipse transform="matrix(0.5 -0.866 0.866 0.5 -2.367 67.8339)" class="st0" cx="57.6" cy="36" rx="3.1" ry="1.7"/>
	</g>
	<g>
		<path class="st1" d="M88,48c0,8.2-2.1,14.5-4.6,19c-0.7-1.6-1.6-3.1-2.4-4.3c0.7-1.6,1.4-3.5,2.1-5.8c0.6-1.8,1-3.6,1.3-4.8
			C85.5,51,86.8,49.5,88,48 M85.6,17.8c0,0,0.6,9.6,1.2,15c0.7,6.1,0,5.4-1.8,8.4c-1.3,2.2-6.6,7.8-6.6,7.8S76,60.4,73,63.4
			c0,0,4.8,4.8,5.4,9.6c0.6,4.8,0,9.6,0,9.6s21.6-13.2,15-46.7C93.4,35.8,91.6,26.2,85.6,17.8L85.6,17.8z"/>
		<path class="st1" d="M69.2,32.3l3.3,0.7l0.3,0.6v0.1l-0.7,0.7h-2.6C69.5,33.8,69.4,33.1,69.2,32.3 M61,23.8L59.8,31
			c0,0,3.6,1.8,3,4.2c-0.6,2.4-2.4,6-2.4,6h14.4L79,37l0.6-4.2l-2.4-5.4L61,23.8L61,23.8z"/>
		<path class="st1" d="M11.5,27.5c1,3.1,2.5,5.7,3.9,7.7h-2.9L11,39.7c-1.1,3.2-1,7.5-0.7,10.6l-3.1,3.4c-1.6-9,0.4-16.6,3-23.3
			C10.6,29.3,11.1,28.4,11.5,27.5 M19.1,10c0,0-9.6,4.2-15,18s-7.2,29.4,6,48.5l0,0c0.3,0-1.8-14.4-1.8-14.4l9-9.6
			c0,0-1.2-7.2,0-10.8h16.2c0,0-3.6-6.6-2.4-7.8l-9.6-1.8c0,0-7.8-8.4-3-19.8L19.1,10L19.1,10z"/>
	</g>
</g>
</svg>
