<?xml version="1.0" encoding="utf-8"?>
<!-- Generator: Adobe Illustrator 22.1.0, SVG Export Plug-In . SVG Version: 6.00 Build 0)  -->
<svg version="1.1" id="Camada_1" xmlns="http://www.w3.org/2000/svg" xmlns:xlink="http://www.w3.org/1999/xlink" x="0px" y="0px"
	 viewBox="0 0 98 98" style="enable-background:new 0 0 98 98;" xml:space="preserve">
<style type="text/css">
	.st0{clip-path:url(#SVGID_2_);}
	.st1{fill:#FFFFFF;}
	.st2{clip-path:url(#SVGID_4_);}
	.st3{clip-path:url(#SVGID_6_);}
	.st4{clip-path:url(#SVGID_8_);}
	.st5{clip-path:url(#SVGID_10_);}
	.st6{fill:#C90000;}
	.st7{fill:#111182;}
	.st8{fill:#E5C403;}
	.st9{fill:#1DAA00;}
	.st10{clip-path:url(#SVGID_12_);}
	.st11{clip-path:url(#SVGID_14_);}
	.st12{clip-path:url(#SVGID_16_);}
	.st13{clip-path:url(#SVGID_18_);}
</style>
<g>
	<g>
		<defs>
			<circle id="SVGID_1_" cx="49" cy="49" r="49"/>
		</defs>
		<clipPath id="SVGID_2_">
			<use xlink:href="#SVGID_1_"  style="overflow:visible;"/>
		</clipPath>
		<g class="st0">
			<g>
				<circle class="st1" cx="44.7" cy="5.3" r="1.5"/>
			</g>
			<g>
				<circle class="st1" cx="44.7" cy="16.1" r="1.5"/>
			</g>
			<g>
				<circle class="st1" cx="44.7" cy="26.8" r="1.5"/>
			</g>
			<g>
				<circle class="st1" cx="44.7" cy="37.6" r="1.5"/>
			</g>
			<g>
				<circle class="st1" cx="44.7" cy="48.4" r="1.5"/>
			</g>
			<g>
				<circle class="st1" cx="44.7" cy="59.2" r="1.5"/>
			</g>
			<g>
				<circle class="st1" cx="31.6" cy="5.3" r="1.5"/>
			</g>
			<g>
				<circle class="st1" cx="31.6" cy="16.1" r="1.5"/>
			</g>
			<g>
				<circle class="st1" cx="31.6" cy="26.8" r="1.5"/>
			</g>
			<g>
				<circle class="st1" cx="31.6" cy="37.6" r="1.5"/>
			</g>
			<g>
				<circle class="st1" cx="31.6" cy="48.4" r="1.5"/>
			</g>
			<g>
				<circle class="st1" cx="31.6" cy="59.2" r="1.5"/>
			</g>
			<g>
				<circle class="st1" cx="18.5" cy="5.3" r="1.5"/>
			</g>
			<g>
				<circle class="st1" cx="18.5" cy="16.1" r="1.5"/>
			</g>
			<g>
				<circle class="st1" cx="18.5" cy="26.8" r="1.5"/>
			</g>
			<g>
				<circle class="st1" cx="18.5" cy="37.6" r="1.5"/>
			</g>
			<g>
				<circle class="st1" cx="18.5" cy="48.4" r="1.5"/>
			</g>
			<g>
				<circle class="st1" cx="18.5" cy="59.2" r="1.5"/>
			</g>
			<g>
				<circle class="st1" cx="5.3" cy="5.3" r="1.5"/>
			</g>
			<g>
				<circle class="st1" cx="5.3" cy="16.1" r="1.5"/>
			</g>
			<g>
				<circle class="st1" cx="5.3" cy="26.8" r="1.5"/>
			</g>
			<g>
				<circle class="st1" cx="5.3" cy="37.6" r="1.5"/>
			</g>
			<g>
				<circle class="st1" cx="5.3" cy="48.4" r="1.5"/>
			</g>
			<g>
				<circle class="st1" cx="5.3" cy="59.2" r="1.5"/>
			</g>
		</g>
	</g>
	<g>
		<defs>
			<circle id="SVGID_3_" cx="49" cy="49" r="49"/>
		</defs>
		<clipPath id="SVGID_4_">
			<use xlink:href="#SVGID_3_"  style="overflow:visible;"/>
		</clipPath>
		<g class="st2">
			<g>
				<circle class="st1" cx="96.4" cy="5.3" r="1.5"/>
			</g>
			<g>
				<circle class="st1" cx="96.4" cy="16.1" r="1.5"/>
			</g>
			<g>
				<circle class="st1" cx="96.4" cy="26.8" r="1.5"/>
			</g>
			<g>
				<circle class="st1" cx="96.4" cy="37.6" r="1.5"/>
			</g>
			<g>
				<circle class="st1" cx="96.4" cy="48.4" r="1.5"/>
			</g>
			<g>
				<circle class="st1" cx="96.4" cy="59.2" r="1.5"/>
			</g>
			<g>
				<circle class="st1" cx="83.3" cy="5.3" r="1.5"/>
			</g>
			<g>
				<circle class="st1" cx="83.3" cy="16.1" r="1.5"/>
			</g>
			<g>
				<circle class="st1" cx="83.3" cy="26.8" r="1.5"/>
			</g>
			<g>
				<circle class="st1" cx="83.3" cy="37.6" r="1.5"/>
			</g>
			<g>
				<circle class="st1" cx="83.3" cy="48.4" r="1.5"/>
			</g>
			<g>
				<circle class="st1" cx="83.3" cy="59.2" r="1.5"/>
			</g>
			<g>
				<circle class="st1" cx="70.2" cy="5.3" r="1.5"/>
			</g>
			<g>
				<circle class="st1" cx="70.2" cy="16.1" r="1.5"/>
			</g>
			<g>
				<circle class="st1" cx="70.2" cy="26.8" r="1.5"/>
			</g>
			<g>
				<circle class="st1" cx="70.2" cy="37.6" r="1.5"/>
			</g>
			<g>
				<circle class="st1" cx="70.2" cy="48.4" r="1.5"/>
			</g>
			<g>
				<circle class="st1" cx="70.2" cy="59.2" r="1.5"/>
			</g>
			<g>
				<circle class="st1" cx="57" cy="5.3" r="1.5"/>
			</g>
			<g>
				<circle class="st1" cx="57" cy="16.1" r="1.5"/>
			</g>
			<g>
				<circle class="st1" cx="57" cy="26.8" r="1.5"/>
			</g>
			<g>
				<circle class="st1" cx="57" cy="37.6" r="1.5"/>
			</g>
			<g>
				<circle class="st1" cx="57" cy="48.4" r="1.5"/>
			</g>
			<g>
				<circle class="st1" cx="57" cy="59.2" r="1.5"/>
			</g>
		</g>
	</g>
	<g>
		<defs>
			<circle id="SVGID_5_" cx="49" cy="49" r="49"/>
		</defs>
		<clipPath id="SVGID_6_">
			<use xlink:href="#SVGID_5_"  style="overflow:visible;"/>
		</clipPath>
		<g class="st3">
			<g>
				<circle class="st1" cx="44.7" cy="69" r="1.5"/>
			</g>
			<g>
				<circle class="st1" cx="44.7" cy="79.8" r="1.5"/>
			</g>
			<g>
				<circle class="st1" cx="44.7" cy="90.6" r="1.5"/>
			</g>
			<g>
				<circle class="st1" cx="44.7" cy="101.4" r="1.5"/>
			</g>
			<g>
				<circle class="st1" cx="44.7" cy="112.2" r="1.5"/>
			</g>
			<g>
				<circle class="st1" cx="44.7" cy="123" r="1.5"/>
			</g>
			<g>
				<circle class="st1" cx="31.6" cy="69" r="1.5"/>
			</g>
			<g>
				<circle class="st1" cx="31.6" cy="79.8" r="1.5"/>
			</g>
			<g>
				<circle class="st1" cx="31.6" cy="90.6" r="1.5"/>
			</g>
			<g>
				<circle class="st1" cx="31.6" cy="101.4" r="1.5"/>
			</g>
			<g>
				<circle class="st1" cx="31.6" cy="112.2" r="1.5"/>
			</g>
			<g>
				<circle class="st1" cx="31.6" cy="123" r="1.5"/>
			</g>
			<g>
				<circle class="st1" cx="18.5" cy="69" r="1.5"/>
			</g>
			<g>
				<circle class="st1" cx="18.5" cy="79.8" r="1.5"/>
			</g>
			<g>
				<circle class="st1" cx="18.5" cy="90.6" r="1.5"/>
			</g>
			<g>
				<circle class="st1" cx="18.5" cy="101.4" r="1.5"/>
			</g>
			<g>
				<circle class="st1" cx="18.5" cy="112.2" r="1.5"/>
			</g>
			<g>
				<circle class="st1" cx="18.5" cy="123" r="1.5"/>
			</g>
			<g>
				<circle class="st1" cx="5.3" cy="69" r="1.5"/>
			</g>
			<g>
				<circle class="st1" cx="5.3" cy="79.8" r="1.5"/>
			</g>
			<g>
				<circle class="st1" cx="5.3" cy="90.6" r="1.5"/>
			</g>
			<g>
				<circle class="st1" cx="5.3" cy="101.4" r="1.5"/>
			</g>
			<g>
				<circle class="st1" cx="5.3" cy="112.2" r="1.5"/>
			</g>
			<g>
				<circle class="st1" cx="5.3" cy="123" r="1.5"/>
			</g>
		</g>
	</g>
	<g>
		<defs>
			<circle id="SVGID_7_" cx="49" cy="49" r="49"/>
		</defs>
		<clipPath id="SVGID_8_">
			<use xlink:href="#SVGID_7_"  style="overflow:visible;"/>
		</clipPath>
		<g class="st4">
			<g>
				<circle class="st1" cx="96.4" cy="69" r="1.5"/>
			</g>
			<g>
				<circle class="st1" cx="96.4" cy="79.8" r="1.5"/>
			</g>
			<g>
				<circle class="st1" cx="96.4" cy="90.6" r="1.5"/>
			</g>
			<g>
				<circle class="st1" cx="96.4" cy="101.4" r="1.5"/>
			</g>
			<g>
				<circle class="st1" cx="96.4" cy="112.2" r="1.5"/>
			</g>
			<g>
				<circle class="st1" cx="96.4" cy="123" r="1.5"/>
			</g>
			<g>
				<circle class="st1" cx="83.3" cy="69" r="1.5"/>
			</g>
			<g>
				<circle class="st1" cx="83.3" cy="79.8" r="1.5"/>
			</g>
			<g>
				<circle class="st1" cx="83.3" cy="90.6" r="1.5"/>
			</g>
			<g>
				<circle class="st1" cx="83.3" cy="101.4" r="1.5"/>
			</g>
			<g>
				<circle class="st1" cx="83.3" cy="112.2" r="1.5"/>
			</g>
			<g>
				<circle class="st1" cx="83.3" cy="123" r="1.5"/>
			</g>
			<g>
				<circle class="st1" cx="70.2" cy="69" r="1.5"/>
			</g>
			<g>
				<circle class="st1" cx="70.2" cy="79.8" r="1.5"/>
			</g>
			<g>
				<circle class="st1" cx="70.2" cy="90.6" r="1.5"/>
			</g>
			<g>
				<circle class="st1" cx="70.2" cy="101.4" r="1.5"/>
			</g>
			<g>
				<circle class="st1" cx="70.2" cy="112.2" r="1.5"/>
			</g>
			<g>
				<circle class="st1" cx="70.2" cy="123" r="1.5"/>
			</g>
			<g>
				<circle class="st1" cx="57" cy="69" r="1.5"/>
			</g>
			<g>
				<circle class="st1" cx="57" cy="79.8" r="1.5"/>
			</g>
			<g>
				<circle class="st1" cx="57" cy="90.6" r="1.5"/>
			</g>
			<g>
				<circle class="st1" cx="57" cy="101.4" r="1.5"/>
			</g>
			<g>
				<circle class="st1" cx="57" cy="112.2" r="1.5"/>
			</g>
			<g>
				<circle class="st1" cx="57" cy="123" r="1.5"/>
			</g>
		</g>
	</g>
	<g>
		<defs>
			<circle id="SVGID_9_" cx="49" cy="49" r="49"/>
		</defs>
		<clipPath id="SVGID_10_">
			<use xlink:href="#SVGID_9_"  style="overflow:visible;"/>
		</clipPath>
		<g class="st5">
			<g>
				<path class="st6" d="M21.5,34.6c0,0,14,14.4,18.1,21c0,0,20.4-19.9,24.7-21C64.3,34.6,51.3,25.9,21.5,34.6z"/>
			</g>
			<g>
				<path class="st7" d="M62.8,72.2c0,0-15.4-12.7-23.2-16.5c0,0,19.5-19.3,24.7-21C64.3,34.6,68.8,57.4,62.8,72.2z"/>
			</g>
			<g>
				<path class="st8" d="M85,80.6c0,0-7-4.9-22.2-8.4l1.6-37.6C64.3,34.6,81.5,47.9,85,80.6z"/>
			</g>
			<g>
				<path class="st9" d="M13.9,15.2c0,0,4.7,5.3,7.6,19.5c0,0,26.3-8.6,42.8,0C64.3,34.6,51.9,19.3,13.9,15.2z"/>
			</g>
			<g>
				<polygon points="42.4,57.2 29.5,72.2 30.5,73.2 43.7,58 				"/>
			</g>
			<g>
				<path d="M29.3,71.8c0,0-1.8,4.3-5.4,4.3s-2.7-5.3-2.7-5.3l2.3-2.1c0,0,0.6-2.5-2.5-0.6c-2.7,4.5-1.6,6.8,0,8.2s4.7,1.8,6.4,0.6
					c1.8-1.2,4.1-4.5,4.1-4.5l-1.6-1.2L29.3,71.8z"/>
			</g>
		</g>
	</g>
	<g>
		<defs>
			<circle id="SVGID_11_" cx="49" cy="49" r="49"/>
		</defs>
		<clipPath id="SVGID_12_">
			<use xlink:href="#SVGID_11_"  style="overflow:visible;"/>
		</clipPath>
		<g class="st10">
			<g>
				<circle class="st1" cx="-362.9" cy="-30.9" r="1.5"/>
				<path class="st1" d="M-362.9-29.2c-0.9,0-1.6-0.7-1.6-1.6s0.7-1.6,1.6-1.6s1.6,0.7,1.6,1.6C-361.2-30-362-29.2-362.9-29.2z
					 M-362.9-32.3c-0.8,0-1.4,0.6-1.4,1.4s0.6,1.4,1.4,1.4s1.4-0.6,1.4-1.4S-362.1-32.3-362.9-32.3z"/>
			</g>
			<g>
				<circle class="st1" cx="-362.9" cy="-20.1" r="1.5"/>
				<path class="st1" d="M-362.9-18.5c-0.9,0-1.6-0.7-1.6-1.6s0.7-1.6,1.6-1.6s1.6,0.7,1.6,1.6S-362-18.5-362.9-18.5z M-362.9-21.5
					c-0.8,0-1.4,0.6-1.4,1.4s0.6,1.4,1.4,1.4s1.4-0.6,1.4-1.4S-362.1-21.5-362.9-21.5z"/>
			</g>
			<g>
				<circle class="st1" cx="-362.9" cy="-9.3" r="1.5"/>
				<path class="st1" d="M-362.9-7.7c-0.9,0-1.6-0.7-1.6-1.6s0.7-1.6,1.6-1.6s1.6,0.7,1.6,1.6S-362-7.7-362.9-7.7z M-362.9-10.7
					c-0.8,0-1.4,0.6-1.4,1.4c0,0.8,0.6,1.4,1.4,1.4s1.4-0.6,1.4-1.4C-361.4-10.1-362.1-10.7-362.9-10.7z"/>
			</g>
			<g>
				<circle class="st1" cx="-362.9" cy="1.5" r="1.5"/>
				<path class="st1" d="M-362.9,3.1c-0.9,0-1.6-0.7-1.6-1.6s0.7-1.6,1.6-1.6s1.6,0.7,1.6,1.6S-362,3.1-362.9,3.1z M-362.9,0.1
					c-0.8,0-1.4,0.6-1.4,1.4s0.6,1.4,1.4,1.4s1.4-0.6,1.4-1.4S-362.1,0.1-362.9,0.1z"/>
			</g>
			<g>
				<circle class="st1" cx="-362.9" cy="12.3" r="1.5"/>
				<path class="st1" d="M-362.9,13.9c-0.9,0-1.6-0.7-1.6-1.6c0-0.9,0.7-1.6,1.6-1.6s1.6,0.7,1.6,1.6
					C-361.2,13.2-362,13.9-362.9,13.9z M-362.9,10.8c-0.8,0-1.4,0.6-1.4,1.4c0,0.8,0.6,1.4,1.4,1.4s1.4-0.6,1.4-1.4
					C-361.4,11.5-362.1,10.8-362.9,10.8z"/>
			</g>
			<g>
				<circle class="st1" cx="-362.9" cy="23" r="1.5"/>
				<path class="st1" d="M-362.9,24.7c-0.9,0-1.6-0.7-1.6-1.6s0.7-1.6,1.6-1.6s1.6,0.7,1.6,1.6C-361.2,23.9-362,24.7-362.9,24.7z
					 M-362.9,21.6c-0.8,0-1.4,0.6-1.4,1.4s0.6,1.4,1.4,1.4s1.4-0.6,1.4-1.4C-361.4,22.3-362.1,21.6-362.9,21.6z"/>
			</g>
			<g>
				<circle class="st1" cx="-376" cy="-30.9" r="1.5"/>
				<path class="st1" d="M-376-29.2c-0.9,0-1.6-0.7-1.6-1.6s0.7-1.6,1.6-1.6s1.6,0.7,1.6,1.6C-374.4-30-375.1-29.2-376-29.2z
					 M-376-32.3c-0.8,0-1.4,0.6-1.4,1.4s0.6,1.4,1.4,1.4s1.4-0.6,1.4-1.4S-375.2-32.3-376-32.3z"/>
			</g>
			<g>
				<circle class="st1" cx="-376" cy="-20.1" r="1.5"/>
				<path class="st1" d="M-376-18.5c-0.9,0-1.6-0.7-1.6-1.6s0.7-1.6,1.6-1.6s1.6,0.7,1.6,1.6S-375.1-18.5-376-18.5z M-376-21.5
					c-0.8,0-1.4,0.6-1.4,1.4s0.6,1.4,1.4,1.4s1.4-0.6,1.4-1.4S-375.2-21.5-376-21.5z"/>
			</g>
			<g>
				<circle class="st1" cx="-376" cy="-9.3" r="1.5"/>
				<path class="st1" d="M-376-7.7c-0.9,0-1.6-0.7-1.6-1.6s0.7-1.6,1.6-1.6s1.6,0.7,1.6,1.6S-375.1-7.7-376-7.7z M-376-10.7
					c-0.8,0-1.4,0.6-1.4,1.4c0,0.8,0.6,1.4,1.4,1.4s1.4-0.6,1.4-1.4C-374.6-10.1-375.2-10.7-376-10.7z"/>
			</g>
			<g>
				<circle class="st1" cx="-376" cy="1.5" r="1.5"/>
				<path class="st1" d="M-376,3.1c-0.9,0-1.6-0.7-1.6-1.6s0.7-1.6,1.6-1.6s1.6,0.7,1.6,1.6S-375.1,3.1-376,3.1z M-376,0.1
					c-0.8,0-1.4,0.6-1.4,1.4s0.6,1.4,1.4,1.4s1.4-0.6,1.4-1.4S-375.2,0.1-376,0.1z"/>
			</g>
			<g>
				<circle class="st1" cx="-376" cy="12.3" r="1.5"/>
				<path class="st1" d="M-376,13.9c-0.9,0-1.6-0.7-1.6-1.6c0-0.9,0.7-1.6,1.6-1.6s1.6,0.7,1.6,1.6S-375.1,13.9-376,13.9z
					 M-376,10.8c-0.8,0-1.4,0.6-1.4,1.4c0,0.8,0.6,1.4,1.4,1.4s1.4-0.6,1.4-1.4C-374.6,11.5-375.2,10.8-376,10.8z"/>
			</g>
			<g>
				<circle class="st1" cx="-376" cy="23" r="1.5"/>
				<path class="st1" d="M-376,24.7c-0.9,0-1.6-0.7-1.6-1.6s0.7-1.6,1.6-1.6s1.6,0.7,1.6,1.6C-374.4,23.9-375.1,24.7-376,24.7z
					 M-376,21.6c-0.8,0-1.4,0.6-1.4,1.4s0.6,1.4,1.4,1.4s1.4-0.6,1.4-1.4C-374.6,22.3-375.2,21.6-376,21.6z"/>
			</g>
			<g>
				<circle class="st1" cx="-389.1" cy="-30.9" r="1.5"/>
				<path class="st1" d="M-389.1-29.2c-0.9,0-1.6-0.7-1.6-1.6s0.7-1.6,1.6-1.6s1.6,0.7,1.6,1.6C-387.5-30-388.2-29.2-389.1-29.2z
					 M-389.1-32.3c-0.8,0-1.4,0.6-1.4,1.4s0.6,1.4,1.4,1.4s1.4-0.6,1.4-1.4S-388.3-32.3-389.1-32.3z"/>
			</g>
			<g>
				<circle class="st1" cx="-389.1" cy="-20.1" r="1.5"/>
				<path class="st1" d="M-389.1-18.5c-0.9,0-1.6-0.7-1.6-1.6s0.7-1.6,1.6-1.6s1.6,0.7,1.6,1.6S-388.2-18.5-389.1-18.5z
					 M-389.1-21.5c-0.8,0-1.4,0.6-1.4,1.4s0.6,1.4,1.4,1.4s1.4-0.6,1.4-1.4S-388.3-21.5-389.1-21.5z"/>
			</g>
			<g>
				<circle class="st1" cx="-389.1" cy="-9.3" r="1.5"/>
				<path class="st1" d="M-389.1-7.7c-0.9,0-1.6-0.7-1.6-1.6s0.7-1.6,1.6-1.6s1.6,0.7,1.6,1.6S-388.2-7.7-389.1-7.7z M-389.1-10.7
					c-0.8,0-1.4,0.6-1.4,1.4c0,0.8,0.6,1.4,1.4,1.4s1.4-0.6,1.4-1.4S-388.3-10.7-389.1-10.7z"/>
			</g>
			<g>
				<circle class="st1" cx="-389.1" cy="1.5" r="1.5"/>
				<path class="st1" d="M-389.1,3.1c-0.9,0-1.6-0.7-1.6-1.6s0.7-1.6,1.6-1.6s1.6,0.7,1.6,1.6S-388.2,3.1-389.1,3.1z M-389.1,0.1
					c-0.8,0-1.4,0.6-1.4,1.4s0.6,1.4,1.4,1.4s1.4-0.6,1.4-1.4S-388.3,0.1-389.1,0.1z"/>
			</g>
			<g>
				<circle class="st1" cx="-389.1" cy="12.3" r="1.5"/>
				<path class="st1" d="M-389.1,13.9c-0.9,0-1.6-0.7-1.6-1.6c0-0.9,0.7-1.6,1.6-1.6s1.6,0.7,1.6,1.6
					C-387.5,13.2-388.2,13.9-389.1,13.9z M-389.1,10.8c-0.8,0-1.4,0.6-1.4,1.4c0,0.8,0.6,1.4,1.4,1.4s1.4-0.6,1.4-1.4
					C-387.7,11.5-388.3,10.8-389.1,10.8z"/>
			</g>
			<g>
				<circle class="st1" cx="-389.1" cy="23" r="1.5"/>
				<path class="st1" d="M-389.1,24.7c-0.9,0-1.6-0.7-1.6-1.6s0.7-1.6,1.6-1.6s1.6,0.7,1.6,1.6C-387.5,23.9-388.2,24.7-389.1,24.7z
					 M-389.1,21.6c-0.8,0-1.4,0.6-1.4,1.4s0.6,1.4,1.4,1.4s1.4-0.6,1.4-1.4C-387.7,22.3-388.3,21.6-389.1,21.6z"/>
			</g>
			<g>
				<circle class="st1" cx="-402.3" cy="-30.9" r="1.5"/>
				<path class="st1" d="M-402.3-29.2c-0.9,0-1.6-0.7-1.6-1.6s0.7-1.6,1.6-1.6s1.6,0.7,1.6,1.6C-400.6-30-401.4-29.2-402.3-29.2z
					 M-402.3-32.3c-0.8,0-1.4,0.6-1.4,1.4s0.6,1.4,1.4,1.4s1.4-0.6,1.4-1.4S-401.5-32.3-402.3-32.3z"/>
			</g>
			<g>
				<circle class="st1" cx="-402.3" cy="-20.1" r="1.5"/>
				<path class="st1" d="M-402.3-18.5c-0.9,0-1.6-0.7-1.6-1.6s0.7-1.6,1.6-1.6s1.6,0.7,1.6,1.6S-401.4-18.5-402.3-18.5z
					 M-402.3-21.5c-0.8,0-1.4,0.6-1.4,1.4s0.6,1.4,1.4,1.4s1.4-0.6,1.4-1.4S-401.5-21.5-402.3-21.5z"/>
			</g>
			<g>
				<circle class="st1" cx="-402.3" cy="-9.3" r="1.5"/>
				<path class="st1" d="M-402.3-7.7c-0.9,0-1.6-0.7-1.6-1.6s0.7-1.6,1.6-1.6s1.6,0.7,1.6,1.6S-401.4-7.7-402.3-7.7z M-402.3-10.7
					c-0.8,0-1.4,0.6-1.4,1.4c0,0.8,0.6,1.4,1.4,1.4s1.4-0.6,1.4-1.4C-400.8-10.1-401.5-10.7-402.3-10.7z"/>
			</g>
			<g>
				<circle class="st1" cx="-402.3" cy="1.5" r="1.5"/>
				<path class="st1" d="M-402.3,3.1c-0.9,0-1.6-0.7-1.6-1.6s0.7-1.6,1.6-1.6s1.6,0.7,1.6,1.6S-401.4,3.1-402.3,3.1z M-402.3,0.1
					c-0.8,0-1.4,0.6-1.4,1.4s0.6,1.4,1.4,1.4s1.4-0.6,1.4-1.4S-401.5,0.1-402.3,0.1z"/>
			</g>
			<g>
				<circle class="st1" cx="-402.3" cy="12.3" r="1.5"/>
				<path class="st1" d="M-402.3,13.9c-0.9,0-1.6-0.7-1.6-1.6c0-0.9,0.7-1.6,1.6-1.6s1.6,0.7,1.6,1.6
					C-400.6,13.2-401.4,13.9-402.3,13.9z M-402.3,10.8c-0.8,0-1.4,0.6-1.4,1.4c0,0.8,0.6,1.4,1.4,1.4s1.4-0.6,1.4-1.4
					C-400.8,11.5-401.5,10.8-402.3,10.8z"/>
			</g>
			<g>
				<circle class="st1" cx="-402.3" cy="23" r="1.5"/>
				<path class="st1" d="M-402.3,24.7c-0.9,0-1.6-0.7-1.6-1.6s0.7-1.6,1.6-1.6s1.6,0.7,1.6,1.6C-400.6,23.9-401.4,24.7-402.3,24.7z
					 M-402.3,21.6c-0.8,0-1.4,0.6-1.4,1.4s0.6,1.4,1.4,1.4s1.4-0.6,1.4-1.4C-400.8,22.3-401.5,21.6-402.3,21.6z"/>
			</g>
		</g>
	</g>
	<g>
		<defs>
			<circle id="SVGID_13_" cx="49" cy="49" r="49"/>
		</defs>
		<clipPath id="SVGID_14_">
			<use xlink:href="#SVGID_13_"  style="overflow:visible;"/>
		</clipPath>
		<g class="st11">
			<g>
				<circle class="st1" cx="-311.2" cy="-30.9" r="1.5"/>
				<path class="st1" d="M-311.2-29.2c-0.9,0-1.6-0.7-1.6-1.6s0.7-1.6,1.6-1.6s1.6,0.7,1.6,1.6C-309.5-30-310.3-29.2-311.2-29.2z
					 M-311.2-32.3c-0.8,0-1.4,0.6-1.4,1.4s0.6,1.4,1.4,1.4s1.4-0.6,1.4-1.4S-310.4-32.3-311.2-32.3z"/>
			</g>
			<g>
				<circle class="st1" cx="-311.2" cy="-20.1" r="1.5"/>
				<path class="st1" d="M-311.2-18.5c-0.9,0-1.6-0.7-1.6-1.6s0.7-1.6,1.6-1.6s1.6,0.7,1.6,1.6S-310.3-18.5-311.2-18.5z
					 M-311.2-21.5c-0.8,0-1.4,0.6-1.4,1.4s0.6,1.4,1.4,1.4s1.4-0.6,1.4-1.4S-310.4-21.5-311.2-21.5z"/>
			</g>
			<g>
				<circle class="st1" cx="-311.2" cy="-9.3" r="1.5"/>
				<path class="st1" d="M-311.2-7.7c-0.9,0-1.6-0.7-1.6-1.6s0.7-1.6,1.6-1.6s1.6,0.7,1.6,1.6S-310.3-7.7-311.2-7.7z M-311.2-10.7
					c-0.8,0-1.4,0.6-1.4,1.4c0,0.8,0.6,1.4,1.4,1.4s1.4-0.6,1.4-1.4S-310.4-10.7-311.2-10.7z"/>
			</g>
			<g>
				<circle class="st1" cx="-311.2" cy="1.5" r="1.5"/>
				<path class="st1" d="M-311.2,3.1c-0.9,0-1.6-0.7-1.6-1.6s0.7-1.6,1.6-1.6s1.6,0.7,1.6,1.6S-310.3,3.1-311.2,3.1z M-311.2,0.1
					c-0.8,0-1.4,0.6-1.4,1.4s0.6,1.4,1.4,1.4s1.4-0.6,1.4-1.4S-310.4,0.1-311.2,0.1z"/>
			</g>
			<g>
				<circle class="st1" cx="-311.2" cy="12.3" r="1.5"/>
				<path class="st1" d="M-311.2,13.9c-0.9,0-1.6-0.7-1.6-1.6c0-0.9,0.7-1.6,1.6-1.6s1.6,0.7,1.6,1.6
					C-309.5,13.2-310.3,13.9-311.2,13.9z M-311.2,10.8c-0.8,0-1.4,0.6-1.4,1.4c0,0.8,0.6,1.4,1.4,1.4s1.4-0.6,1.4-1.4
					C-309.8,11.5-310.4,10.8-311.2,10.8z"/>
			</g>
			<g>
				<circle class="st1" cx="-311.2" cy="23" r="1.5"/>
				<path class="st1" d="M-311.2,24.7c-0.9,0-1.6-0.7-1.6-1.6s0.7-1.6,1.6-1.6s1.6,0.7,1.6,1.6C-309.5,23.9-310.3,24.7-311.2,24.7z
					 M-311.2,21.6c-0.8,0-1.4,0.6-1.4,1.4s0.6,1.4,1.4,1.4s1.4-0.6,1.4-1.4C-309.8,22.3-310.4,21.6-311.2,21.6z"/>
			</g>
			<g>
				<circle class="st1" cx="-324.3" cy="-30.9" r="1.5"/>
				<path class="st1" d="M-324.3-29.2c-0.9,0-1.6-0.7-1.6-1.6s0.7-1.6,1.6-1.6s1.6,0.7,1.6,1.6C-322.7-30-323.4-29.2-324.3-29.2z
					 M-324.3-32.3c-0.8,0-1.4,0.6-1.4,1.4s0.6,1.4,1.4,1.4s1.4-0.6,1.4-1.4S-323.5-32.3-324.3-32.3z"/>
			</g>
			<g>
				<circle class="st1" cx="-324.3" cy="-20.1" r="1.5"/>
				<path class="st1" d="M-324.3-18.5c-0.9,0-1.6-0.7-1.6-1.6s0.7-1.6,1.6-1.6s1.6,0.7,1.6,1.6S-323.4-18.5-324.3-18.5z
					 M-324.3-21.5c-0.8,0-1.4,0.6-1.4,1.4s0.6,1.4,1.4,1.4s1.4-0.6,1.4-1.4S-323.5-21.5-324.3-21.5z"/>
			</g>
			<g>
				<circle class="st1" cx="-324.3" cy="-9.3" r="1.5"/>
				<path class="st1" d="M-324.3-7.7c-0.9,0-1.6-0.7-1.6-1.6s0.7-1.6,1.6-1.6s1.6,0.7,1.6,1.6S-323.4-7.7-324.3-7.7z M-324.3-10.7
					c-0.8,0-1.4,0.6-1.4,1.4c0,0.8,0.6,1.4,1.4,1.4s1.4-0.6,1.4-1.4S-323.5-10.7-324.3-10.7z"/>
			</g>
			<g>
				<circle class="st1" cx="-324.3" cy="1.5" r="1.5"/>
				<path class="st1" d="M-324.3,3.1c-0.9,0-1.6-0.7-1.6-1.6s0.7-1.6,1.6-1.6s1.6,0.7,1.6,1.6S-323.4,3.1-324.3,3.1z M-324.3,0.1
					c-0.8,0-1.4,0.6-1.4,1.4s0.6,1.4,1.4,1.4s1.4-0.6,1.4-1.4S-323.5,0.1-324.3,0.1z"/>
			</g>
			<g>
				<circle class="st1" cx="-324.3" cy="12.3" r="1.5"/>
				<path class="st1" d="M-324.3,13.9c-0.9,0-1.6-0.7-1.6-1.6c0-0.9,0.7-1.6,1.6-1.6s1.6,0.7,1.6,1.6S-323.4,13.9-324.3,13.9z
					 M-324.3,10.8c-0.8,0-1.4,0.6-1.4,1.4c0,0.8,0.6,1.4,1.4,1.4s1.4-0.6,1.4-1.4C-322.9,11.5-323.5,10.8-324.3,10.8z"/>
			</g>
			<g>
				<circle class="st1" cx="-324.3" cy="23" r="1.5"/>
				<path class="st1" d="M-324.3,24.7c-0.9,0-1.6-0.7-1.6-1.6s0.7-1.6,1.6-1.6s1.6,0.7,1.6,1.6C-322.7,23.9-323.4,24.7-324.3,24.7z
					 M-324.3,21.6c-0.8,0-1.4,0.6-1.4,1.4s0.6,1.4,1.4,1.4s1.4-0.6,1.4-1.4C-322.9,22.3-323.5,21.6-324.3,21.6z"/>
			</g>
			<g>
				<circle class="st1" cx="-337.4" cy="-30.9" r="1.5"/>
				<path class="st1" d="M-337.4-29.2c-0.9,0-1.6-0.7-1.6-1.6s0.7-1.6,1.6-1.6s1.6,0.7,1.6,1.6C-335.8-30-336.5-29.2-337.4-29.2z
					 M-337.4-32.3c-0.8,0-1.4,0.6-1.4,1.4s0.6,1.4,1.4,1.4s1.4-0.6,1.4-1.4S-336.7-32.3-337.4-32.3z"/>
			</g>
			<g>
				<circle class="st1" cx="-337.4" cy="-20.1" r="1.5"/>
				<path class="st1" d="M-337.4-18.5c-0.9,0-1.6-0.7-1.6-1.6s0.7-1.6,1.6-1.6s1.6,0.7,1.6,1.6S-336.5-18.5-337.4-18.5z
					 M-337.4-21.5c-0.8,0-1.4,0.6-1.4,1.4s0.6,1.4,1.4,1.4s1.4-0.6,1.4-1.4S-336.7-21.5-337.4-21.5z"/>
			</g>
			<g>
				<circle class="st1" cx="-337.4" cy="-9.3" r="1.5"/>
				<path class="st1" d="M-337.4-7.7c-0.9,0-1.6-0.7-1.6-1.6s0.7-1.6,1.6-1.6s1.6,0.7,1.6,1.6S-336.5-7.7-337.4-7.7z M-337.4-10.7
					c-0.8,0-1.4,0.6-1.4,1.4c0,0.8,0.6,1.4,1.4,1.4s1.4-0.6,1.4-1.4S-336.7-10.7-337.4-10.7z"/>
			</g>
			<g>
				<circle class="st1" cx="-337.4" cy="1.5" r="1.5"/>
				<path class="st1" d="M-337.4,3.1c-0.9,0-1.6-0.7-1.6-1.6s0.7-1.6,1.6-1.6s1.6,0.7,1.6,1.6S-336.5,3.1-337.4,3.1z M-337.4,0.1
					c-0.8,0-1.4,0.6-1.4,1.4s0.6,1.4,1.4,1.4s1.4-0.6,1.4-1.4S-336.7,0.1-337.4,0.1z"/>
			</g>
			<g>
				<circle class="st1" cx="-337.4" cy="12.3" r="1.5"/>
				<path class="st1" d="M-337.4,13.9c-0.9,0-1.6-0.7-1.6-1.6c0-0.9,0.7-1.6,1.6-1.6s1.6,0.7,1.6,1.6S-336.5,13.9-337.4,13.9z
					 M-337.4,10.8c-0.8,0-1.4,0.6-1.4,1.4c0,0.8,0.6,1.4,1.4,1.4s1.4-0.6,1.4-1.4C-336,11.5-336.7,10.8-337.4,10.8z"/>
			</g>
			<g>
				<circle class="st1" cx="-337.4" cy="23" r="1.5"/>
				<path class="st1" d="M-337.4,24.7c-0.9,0-1.6-0.7-1.6-1.6s0.7-1.6,1.6-1.6s1.6,0.7,1.6,1.6C-335.8,23.9-336.5,24.7-337.4,24.7z
					 M-337.4,21.6c-0.8,0-1.4,0.6-1.4,1.4s0.6,1.4,1.4,1.4s1.4-0.6,1.4-1.4C-336,22.3-336.7,21.6-337.4,21.6z"/>
			</g>
			<g>
				<circle class="st1" cx="-350.6" cy="-30.9" r="1.5"/>
				<path class="st1" d="M-350.6-29.2c-0.9,0-1.6-0.7-1.6-1.6s0.7-1.6,1.6-1.6s1.6,0.7,1.6,1.6C-348.9-30-349.7-29.2-350.6-29.2z
					 M-350.6-32.3c-0.8,0-1.4,0.6-1.4,1.4s0.6,1.4,1.4,1.4s1.4-0.6,1.4-1.4S-349.8-32.3-350.6-32.3z"/>
			</g>
			<g>
				<circle class="st1" cx="-350.6" cy="-20.1" r="1.5"/>
				<path class="st1" d="M-350.6-18.5c-0.9,0-1.6-0.7-1.6-1.6s0.7-1.6,1.6-1.6s1.6,0.7,1.6,1.6S-349.7-18.5-350.6-18.5z
					 M-350.6-21.5c-0.8,0-1.4,0.6-1.4,1.4s0.6,1.4,1.4,1.4s1.4-0.6,1.4-1.4S-349.8-21.5-350.6-21.5z"/>
			</g>
			<g>
				<circle class="st1" cx="-350.6" cy="-9.3" r="1.5"/>
				<path class="st1" d="M-350.6-7.7c-0.9,0-1.6-0.7-1.6-1.6s0.7-1.6,1.6-1.6s1.6,0.7,1.6,1.6S-349.7-7.7-350.6-7.7z M-350.6-10.7
					c-0.8,0-1.4,0.6-1.4,1.4c0,0.8,0.6,1.4,1.4,1.4s1.4-0.6,1.4-1.4S-349.8-10.7-350.6-10.7z"/>
			</g>
			<g>
				<circle class="st1" cx="-350.6" cy="1.5" r="1.5"/>
				<path class="st1" d="M-350.6,3.1c-0.9,0-1.6-0.7-1.6-1.6s0.7-1.6,1.6-1.6s1.6,0.7,1.6,1.6S-349.7,3.1-350.6,3.1z M-350.6,0.1
					c-0.8,0-1.4,0.6-1.4,1.4s0.6,1.4,1.4,1.4s1.4-0.6,1.4-1.4S-349.8,0.1-350.6,0.1z"/>
			</g>
			<g>
				<circle class="st1" cx="-350.6" cy="12.3" r="1.5"/>
				<path class="st1" d="M-350.6,13.9c-0.9,0-1.6-0.7-1.6-1.6c0-0.9,0.7-1.6,1.6-1.6s1.6,0.7,1.6,1.6
					C-348.9,13.2-349.7,13.9-350.6,13.9z M-350.6,10.8c-0.8,0-1.4,0.6-1.4,1.4c0,0.8,0.6,1.4,1.4,1.4s1.4-0.6,1.4-1.4
					C-349.2,11.5-349.8,10.8-350.6,10.8z"/>
			</g>
			<g>
				<circle class="st1" cx="-350.6" cy="23" r="1.5"/>
				<path class="st1" d="M-350.6,24.7c-0.9,0-1.6-0.7-1.6-1.6s0.7-1.6,1.6-1.6s1.6,0.7,1.6,1.6C-348.9,23.9-349.7,24.7-350.6,24.7z
					 M-350.6,21.6c-0.8,0-1.4,0.6-1.4,1.4s0.6,1.4,1.4,1.4s1.4-0.6,1.4-1.4C-349.2,22.3-349.8,21.6-350.6,21.6z"/>
			</g>
		</g>
	</g>
	<g>
		<defs>
			<circle id="SVGID_15_" cx="49" cy="49" r="49"/>
		</defs>
		<clipPath id="SVGID_16_">
			<use xlink:href="#SVGID_15_"  style="overflow:visible;"/>
		</clipPath>
		<g class="st12">
			<g>
				<circle class="st1" cx="-362.9" cy="32.9" r="1.5"/>
				<path class="st1" d="M-362.9,34.5c-0.9,0-1.6-0.7-1.6-1.6s0.7-1.6,1.6-1.6s1.6,0.7,1.6,1.6S-362,34.5-362.9,34.5z M-362.9,31.5
					c-0.8,0-1.4,0.6-1.4,1.4c0,0.8,0.6,1.4,1.4,1.4s1.4-0.6,1.4-1.4C-361.4,32.1-362.1,31.5-362.9,31.5z"/>
			</g>
			<g>
				<circle class="st1" cx="-362.9" cy="43.7" r="1.5"/>
				<path class="st1" d="M-362.9,45.3c-0.9,0-1.6-0.7-1.6-1.6s0.7-1.6,1.6-1.6s1.6,0.7,1.6,1.6S-362,45.3-362.9,45.3z M-362.9,42.3
					c-0.8,0-1.4,0.6-1.4,1.4c0,0.8,0.6,1.4,1.4,1.4s1.4-0.6,1.4-1.4C-361.4,42.9-362.1,42.3-362.9,42.3z"/>
			</g>
			<g>
				<circle class="st1" cx="-362.9" cy="54.5" r="1.5"/>
				<path class="st1" d="M-362.9,56.1c-0.9,0-1.6-0.7-1.6-1.6s0.7-1.6,1.6-1.6s1.6,0.7,1.6,1.6S-362,56.1-362.9,56.1z M-362.9,53
					c-0.8,0-1.4,0.6-1.4,1.4c0,0.8,0.6,1.4,1.4,1.4s1.4-0.6,1.4-1.4C-361.4,53.7-362.1,53-362.9,53z"/>
			</g>
			<g>
				<circle class="st1" cx="-362.9" cy="65.2" r="1.5"/>
				<path class="st1" d="M-362.9,66.9c-0.9,0-1.6-0.7-1.6-1.6s0.7-1.6,1.6-1.6s1.6,0.7,1.6,1.6C-361.2,66.1-362,66.9-362.9,66.9z
					 M-362.9,63.8c-0.8,0-1.4,0.6-1.4,1.4s0.6,1.4,1.4,1.4s1.4-0.6,1.4-1.4C-361.4,64.5-362.1,63.8-362.9,63.8z"/>
			</g>
			<g>
				<circle class="st1" cx="-362.9" cy="76" r="1.5"/>
				<path class="st1" d="M-362.9,77.7c-0.9,0-1.6-0.7-1.6-1.6s0.7-1.6,1.6-1.6s1.6,0.7,1.6,1.6C-361.2,76.9-362,77.7-362.9,77.7z
					 M-362.9,74.6c-0.8,0-1.4,0.6-1.4,1.4s0.6,1.4,1.4,1.4s1.4-0.6,1.4-1.4S-362.1,74.6-362.9,74.6z"/>
			</g>
			<g>
				<circle class="st1" cx="-362.9" cy="86.8" r="1.5"/>
				<path class="st1" d="M-362.9,88.4c-0.9,0-1.6-0.7-1.6-1.6s0.7-1.6,1.6-1.6s1.6,0.7,1.6,1.6C-361.2,87.7-362,88.4-362.9,88.4z
					 M-362.9,85.4c-0.8,0-1.4,0.6-1.4,1.4s0.6,1.4,1.4,1.4s1.4-0.6,1.4-1.4C-361.4,86-362.1,85.4-362.9,85.4z"/>
			</g>
			<g>
				<circle class="st1" cx="-376" cy="32.9" r="1.5"/>
				<path class="st1" d="M-376,34.5c-0.9,0-1.6-0.7-1.6-1.6s0.7-1.6,1.6-1.6s1.6,0.7,1.6,1.6S-375.1,34.5-376,34.5z M-376,31.5
					c-0.8,0-1.4,0.6-1.4,1.4c0,0.8,0.6,1.4,1.4,1.4s1.4-0.6,1.4-1.4C-374.6,32.1-375.2,31.5-376,31.5z"/>
			</g>
			<g>
				<circle class="st1" cx="-376" cy="43.7" r="1.5"/>
				<path class="st1" d="M-376,45.3c-0.9,0-1.6-0.7-1.6-1.6s0.7-1.6,1.6-1.6s1.6,0.7,1.6,1.6S-375.1,45.3-376,45.3z M-376,42.3
					c-0.8,0-1.4,0.6-1.4,1.4c0,0.8,0.6,1.4,1.4,1.4s1.4-0.6,1.4-1.4C-374.6,42.9-375.2,42.3-376,42.3z"/>
			</g>
			<g>
				<circle class="st1" cx="-376" cy="54.5" r="1.5"/>
				<path class="st1" d="M-376,56.1c-0.9,0-1.6-0.7-1.6-1.6s0.7-1.6,1.6-1.6s1.6,0.7,1.6,1.6S-375.1,56.1-376,56.1z M-376,53
					c-0.8,0-1.4,0.6-1.4,1.4c0,0.8,0.6,1.4,1.4,1.4s1.4-0.6,1.4-1.4C-374.6,53.7-375.2,53-376,53z"/>
			</g>
			<g>
				<circle class="st1" cx="-376" cy="65.2" r="1.5"/>
				<path class="st1" d="M-376,66.9c-0.9,0-1.6-0.7-1.6-1.6s0.7-1.6,1.6-1.6s1.6,0.7,1.6,1.6C-374.4,66.1-375.1,66.9-376,66.9z
					 M-376,63.8c-0.8,0-1.4,0.6-1.4,1.4s0.6,1.4,1.4,1.4s1.4-0.6,1.4-1.4C-374.6,64.5-375.2,63.8-376,63.8z"/>
			</g>
			<g>
				<circle class="st1" cx="-376" cy="76" r="1.5"/>
				<path class="st1" d="M-376,77.7c-0.9,0-1.6-0.7-1.6-1.6s0.7-1.6,1.6-1.6s1.6,0.7,1.6,1.6C-374.4,76.9-375.1,77.7-376,77.7z
					 M-376,74.6c-0.8,0-1.4,0.6-1.4,1.4s0.6,1.4,1.4,1.4s1.4-0.6,1.4-1.4S-375.2,74.6-376,74.6z"/>
			</g>
			<g>
				<circle class="st1" cx="-376" cy="86.8" r="1.5"/>
				<path class="st1" d="M-376,88.4c-0.9,0-1.6-0.7-1.6-1.6s0.7-1.6,1.6-1.6s1.6,0.7,1.6,1.6C-374.4,87.7-375.1,88.4-376,88.4z
					 M-376,85.4c-0.8,0-1.4,0.6-1.4,1.4s0.6,1.4,1.4,1.4s1.4-0.6,1.4-1.4C-374.6,86-375.2,85.4-376,85.4z"/>
			</g>
			<g>
				<circle class="st1" cx="-389.1" cy="32.9" r="1.5"/>
				<path class="st1" d="M-389.1,34.5c-0.9,0-1.6-0.7-1.6-1.6s0.7-1.6,1.6-1.6s1.6,0.7,1.6,1.6S-388.2,34.5-389.1,34.5z
					 M-389.1,31.5c-0.8,0-1.4,0.6-1.4,1.4c0,0.8,0.6,1.4,1.4,1.4s1.4-0.6,1.4-1.4S-388.3,31.5-389.1,31.5z"/>
			</g>
			<g>
				<circle class="st1" cx="-389.1" cy="43.7" r="1.5"/>
				<path class="st1" d="M-389.1,45.3c-0.9,0-1.6-0.7-1.6-1.6s0.7-1.6,1.6-1.6s1.6,0.7,1.6,1.6S-388.2,45.3-389.1,45.3z
					 M-389.1,42.3c-0.8,0-1.4,0.6-1.4,1.4c0,0.8,0.6,1.4,1.4,1.4s1.4-0.6,1.4-1.4C-387.7,42.9-388.3,42.3-389.1,42.3z"/>
			</g>
			<g>
				<circle class="st1" cx="-389.1" cy="54.5" r="1.5"/>
				<path class="st1" d="M-389.1,56.1c-0.9,0-1.6-0.7-1.6-1.6s0.7-1.6,1.6-1.6s1.6,0.7,1.6,1.6S-388.2,56.1-389.1,56.1z M-389.1,53
					c-0.8,0-1.4,0.6-1.4,1.4c0,0.8,0.6,1.4,1.4,1.4s1.4-0.6,1.4-1.4C-387.7,53.7-388.3,53-389.1,53z"/>
			</g>
			<g>
				<circle class="st1" cx="-389.1" cy="65.2" r="1.5"/>
				<path class="st1" d="M-389.1,66.9c-0.9,0-1.6-0.7-1.6-1.6s0.7-1.6,1.6-1.6s1.6,0.7,1.6,1.6C-387.5,66.1-388.2,66.9-389.1,66.9z
					 M-389.1,63.8c-0.8,0-1.4,0.6-1.4,1.4s0.6,1.4,1.4,1.4s1.4-0.6,1.4-1.4C-387.7,64.5-388.3,63.8-389.1,63.8z"/>
			</g>
			<g>
				<circle class="st1" cx="-389.1" cy="76" r="1.5"/>
				<path class="st1" d="M-389.1,77.7c-0.9,0-1.6-0.7-1.6-1.6s0.7-1.6,1.6-1.6s1.6,0.7,1.6,1.6C-387.5,76.9-388.2,77.7-389.1,77.7z
					 M-389.1,74.6c-0.8,0-1.4,0.6-1.4,1.4s0.6,1.4,1.4,1.4s1.4-0.6,1.4-1.4S-388.3,74.6-389.1,74.6z"/>
			</g>
			<g>
				<circle class="st1" cx="-389.1" cy="86.8" r="1.5"/>
				<path class="st1" d="M-389.1,88.4c-0.9,0-1.6-0.7-1.6-1.6s0.7-1.6,1.6-1.6s1.6,0.7,1.6,1.6C-387.5,87.7-388.2,88.4-389.1,88.4z
					 M-389.1,85.4c-0.8,0-1.4,0.6-1.4,1.4s0.6,1.4,1.4,1.4s1.4-0.6,1.4-1.4S-388.3,85.4-389.1,85.4z"/>
			</g>
			<g>
				<circle class="st1" cx="-402.3" cy="32.9" r="1.5"/>
				<path class="st1" d="M-402.3,34.5c-0.9,0-1.6-0.7-1.6-1.6s0.7-1.6,1.6-1.6s1.6,0.7,1.6,1.6S-401.4,34.5-402.3,34.5z
					 M-402.3,31.5c-0.8,0-1.4,0.6-1.4,1.4c0,0.8,0.6,1.4,1.4,1.4s1.4-0.6,1.4-1.4C-400.8,32.1-401.5,31.5-402.3,31.5z"/>
			</g>
			<g>
				<circle class="st1" cx="-402.3" cy="43.7" r="1.5"/>
				<path class="st1" d="M-402.3,45.3c-0.9,0-1.6-0.7-1.6-1.6s0.7-1.6,1.6-1.6s1.6,0.7,1.6,1.6S-401.4,45.3-402.3,45.3z
					 M-402.3,42.3c-0.8,0-1.4,0.6-1.4,1.4c0,0.8,0.6,1.4,1.4,1.4s1.4-0.6,1.4-1.4C-400.8,42.9-401.5,42.3-402.3,42.3z"/>
			</g>
			<g>
				<circle class="st1" cx="-402.3" cy="54.5" r="1.5"/>
				<path class="st1" d="M-402.3,56.1c-0.9,0-1.6-0.7-1.6-1.6s0.7-1.6,1.6-1.6s1.6,0.7,1.6,1.6S-401.4,56.1-402.3,56.1z M-402.3,53
					c-0.8,0-1.4,0.6-1.4,1.4c0,0.8,0.6,1.4,1.4,1.4s1.4-0.6,1.4-1.4C-400.8,53.7-401.5,53-402.3,53z"/>
			</g>
			<g>
				<circle class="st1" cx="-402.3" cy="65.2" r="1.5"/>
				<path class="st1" d="M-402.3,66.9c-0.9,0-1.6-0.7-1.6-1.6s0.7-1.6,1.6-1.6s1.6,0.7,1.6,1.6C-400.6,66.1-401.4,66.9-402.3,66.9z
					 M-402.3,63.8c-0.8,0-1.4,0.6-1.4,1.4s0.6,1.4,1.4,1.4s1.4-0.6,1.4-1.4C-400.8,64.5-401.5,63.8-402.3,63.8z"/>
			</g>
			<g>
				<circle class="st1" cx="-402.3" cy="76" r="1.5"/>
				<path class="st1" d="M-402.3,77.7c-0.9,0-1.6-0.7-1.6-1.6s0.7-1.6,1.6-1.6s1.6,0.7,1.6,1.6C-400.6,76.9-401.4,77.7-402.3,77.7z
					 M-402.3,74.6c-0.8,0-1.4,0.6-1.4,1.4s0.6,1.4,1.4,1.4s1.4-0.6,1.4-1.4S-401.5,74.6-402.3,74.6z"/>
			</g>
			<g>
				<circle class="st1" cx="-402.3" cy="86.8" r="1.5"/>
				<path class="st1" d="M-402.3,88.4c-0.9,0-1.6-0.7-1.6-1.6s0.7-1.6,1.6-1.6s1.6,0.7,1.6,1.6C-400.6,87.7-401.4,88.4-402.3,88.4z
					 M-402.3,85.4c-0.8,0-1.4,0.6-1.4,1.4s0.6,1.4,1.4,1.4s1.4-0.6,1.4-1.4C-400.8,86-401.5,85.4-402.3,85.4z"/>
			</g>
		</g>
	</g>
	<g>
		<defs>
			<circle id="SVGID_17_" cx="49" cy="49" r="49"/>
		</defs>
		<clipPath id="SVGID_18_">
			<use xlink:href="#SVGID_17_"  style="overflow:visible;"/>
		</clipPath>
		<g class="st13">
			<g>
				<circle class="st1" cx="-311.2" cy="32.9" r="1.5"/>
				<path class="st1" d="M-311.2,34.5c-0.9,0-1.6-0.7-1.6-1.6s0.7-1.6,1.6-1.6s1.6,0.7,1.6,1.6S-310.3,34.5-311.2,34.5z
					 M-311.2,31.5c-0.8,0-1.4,0.6-1.4,1.4c0,0.8,0.6,1.4,1.4,1.4s1.4-0.6,1.4-1.4S-310.4,31.5-311.2,31.5z"/>
			</g>
			<g>
				<circle class="st1" cx="-311.2" cy="43.7" r="1.5"/>
				<path class="st1" d="M-311.2,45.3c-0.9,0-1.6-0.7-1.6-1.6s0.7-1.6,1.6-1.6s1.6,0.7,1.6,1.6S-310.3,45.3-311.2,45.3z
					 M-311.2,42.3c-0.8,0-1.4,0.6-1.4,1.4c0,0.8,0.6,1.4,1.4,1.4s1.4-0.6,1.4-1.4C-309.8,42.9-310.4,42.3-311.2,42.3z"/>
			</g>
			<g>
				<circle class="st1" cx="-311.2" cy="54.5" r="1.5"/>
				<path class="st1" d="M-311.2,56.1c-0.9,0-1.6-0.7-1.6-1.6s0.7-1.6,1.6-1.6s1.6,0.7,1.6,1.6S-310.3,56.1-311.2,56.1z M-311.2,53
					c-0.8,0-1.4,0.6-1.4,1.4c0,0.8,0.6,1.4,1.4,1.4s1.4-0.6,1.4-1.4C-309.8,53.7-310.4,53-311.2,53z"/>
			</g>
			<g>
				<circle class="st1" cx="-311.2" cy="65.2" r="1.5"/>
				<path class="st1" d="M-311.2,66.9c-0.9,0-1.6-0.7-1.6-1.6s0.7-1.6,1.6-1.6s1.6,0.7,1.6,1.6C-309.5,66.1-310.3,66.9-311.2,66.9z
					 M-311.2,63.8c-0.8,0-1.4,0.6-1.4,1.4s0.6,1.4,1.4,1.4s1.4-0.6,1.4-1.4C-309.8,64.5-310.4,63.8-311.2,63.8z"/>
			</g>
			<g>
				<circle class="st1" cx="-311.2" cy="76" r="1.5"/>
				<path class="st1" d="M-311.2,77.7c-0.9,0-1.6-0.7-1.6-1.6s0.7-1.6,1.6-1.6s1.6,0.7,1.6,1.6C-309.5,76.9-310.3,77.7-311.2,77.7z
					 M-311.2,74.6c-0.8,0-1.4,0.6-1.4,1.4s0.6,1.4,1.4,1.4s1.4-0.6,1.4-1.4S-310.4,74.6-311.2,74.6z"/>
			</g>
			<g>
				<circle class="st1" cx="-311.2" cy="86.8" r="1.5"/>
				<path class="st1" d="M-311.2,88.4c-0.9,0-1.6-0.7-1.6-1.6s0.7-1.6,1.6-1.6s1.6,0.7,1.6,1.6C-309.5,87.7-310.3,88.4-311.2,88.4z
					 M-311.2,85.4c-0.8,0-1.4,0.6-1.4,1.4s0.6,1.4,1.4,1.4s1.4-0.6,1.4-1.4S-310.4,85.4-311.2,85.4z"/>
			</g>
			<g>
				<circle class="st1" cx="-324.3" cy="32.9" r="1.5"/>
				<path class="st1" d="M-324.3,34.5c-0.9,0-1.6-0.7-1.6-1.6s0.7-1.6,1.6-1.6s1.6,0.7,1.6,1.6S-323.4,34.5-324.3,34.5z
					 M-324.3,31.5c-0.8,0-1.4,0.6-1.4,1.4c0,0.8,0.6,1.4,1.4,1.4s1.4-0.6,1.4-1.4S-323.5,31.5-324.3,31.5z"/>
			</g>
			<g>
				<circle class="st1" cx="-324.3" cy="43.7" r="1.5"/>
				<path class="st1" d="M-324.3,45.3c-0.9,0-1.6-0.7-1.6-1.6s0.7-1.6,1.6-1.6s1.6,0.7,1.6,1.6S-323.4,45.3-324.3,45.3z
					 M-324.3,42.3c-0.8,0-1.4,0.6-1.4,1.4c0,0.8,0.6,1.4,1.4,1.4s1.4-0.6,1.4-1.4C-322.9,42.9-323.5,42.3-324.3,42.3z"/>
			</g>
			<g>
				<circle class="st1" cx="-324.3" cy="54.5" r="1.5"/>
				<path class="st1" d="M-324.3,56.1c-0.9,0-1.6-0.7-1.6-1.6s0.7-1.6,1.6-1.6s1.6,0.7,1.6,1.6S-323.4,56.1-324.3,56.1z M-324.3,53
					c-0.8,0-1.4,0.6-1.4,1.4c0,0.8,0.6,1.4,1.4,1.4s1.4-0.6,1.4-1.4C-322.9,53.7-323.5,53-324.3,53z"/>
			</g>
			<g>
				<circle class="st1" cx="-324.3" cy="65.2" r="1.5"/>
				<path class="st1" d="M-324.3,66.9c-0.9,0-1.6-0.7-1.6-1.6s0.7-1.6,1.6-1.6s1.6,0.7,1.6,1.6C-322.7,66.1-323.4,66.9-324.3,66.9z
					 M-324.3,63.8c-0.8,0-1.4,0.6-1.4,1.4s0.6,1.4,1.4,1.4s1.4-0.6,1.4-1.4C-322.9,64.5-323.5,63.8-324.3,63.8z"/>
			</g>
			<g>
				<circle class="st1" cx="-324.3" cy="76" r="1.5"/>
				<path class="st1" d="M-324.3,77.7c-0.9,0-1.6-0.7-1.6-1.6s0.7-1.6,1.6-1.6s1.6,0.7,1.6,1.6C-322.7,76.9-323.4,77.7-324.3,77.7z
					 M-324.3,74.6c-0.8,0-1.4,0.6-1.4,1.4s0.6,1.4,1.4,1.4s1.4-0.6,1.4-1.4S-323.5,74.6-324.3,74.6z"/>
			</g>
			<g>
				<circle class="st1" cx="-324.3" cy="86.8" r="1.5"/>
				<path class="st1" d="M-324.3,88.4c-0.9,0-1.6-0.7-1.6-1.6s0.7-1.6,1.6-1.6s1.6,0.7,1.6,1.6C-322.7,87.7-323.4,88.4-324.3,88.4z
					 M-324.3,85.4c-0.8,0-1.4,0.6-1.4,1.4s0.6,1.4,1.4,1.4s1.4-0.6,1.4-1.4S-323.5,85.4-324.3,85.4z"/>
			</g>
			<g>
				<circle class="st1" cx="-337.4" cy="32.9" r="1.5"/>
				<path class="st1" d="M-337.4,34.5c-0.9,0-1.6-0.7-1.6-1.6s0.7-1.6,1.6-1.6s1.6,0.7,1.6,1.6S-336.5,34.5-337.4,34.5z
					 M-337.4,31.5c-0.8,0-1.4,0.6-1.4,1.4c0,0.8,0.6,1.4,1.4,1.4s1.4-0.6,1.4-1.4S-336.7,31.5-337.4,31.5z"/>
			</g>
			<g>
				<circle class="st1" cx="-337.4" cy="43.7" r="1.5"/>
				<path class="st1" d="M-337.4,45.3c-0.9,0-1.6-0.7-1.6-1.6s0.7-1.6,1.6-1.6s1.6,0.7,1.6,1.6S-336.5,45.3-337.4,45.3z
					 M-337.4,42.3c-0.8,0-1.4,0.6-1.4,1.4c0,0.8,0.6,1.4,1.4,1.4s1.4-0.6,1.4-1.4C-336,42.9-336.7,42.3-337.4,42.3z"/>
			</g>
			<g>
				<circle class="st1" cx="-337.4" cy="54.5" r="1.5"/>
				<path class="st1" d="M-337.4,56.1c-0.9,0-1.6-0.7-1.6-1.6s0.7-1.6,1.6-1.6s1.6,0.7,1.6,1.6S-336.5,56.1-337.4,56.1z M-337.4,53
					c-0.8,0-1.4,0.6-1.4,1.4c0,0.8,0.6,1.4,1.4,1.4s1.4-0.6,1.4-1.4C-336,53.7-336.7,53-337.4,53z"/>
			</g>
			<g>
				<circle class="st1" cx="-337.4" cy="65.2" r="1.5"/>
				<path class="st1" d="M-337.4,66.9c-0.9,0-1.6-0.7-1.6-1.6s0.7-1.6,1.6-1.6s1.6,0.7,1.6,1.6C-335.8,66.1-336.5,66.9-337.4,66.9z
					 M-337.4,63.8c-0.8,0-1.4,0.6-1.4,1.4s0.6,1.4,1.4,1.4s1.4-0.6,1.4-1.4C-336,64.5-336.7,63.8-337.4,63.8z"/>
			</g>
			<g>
				<circle class="st1" cx="-337.4" cy="76" r="1.5"/>
				<path class="st1" d="M-337.4,77.7c-0.9,0-1.6-0.7-1.6-1.6s0.7-1.6,1.6-1.6s1.6,0.7,1.6,1.6C-335.8,76.9-336.5,77.7-337.4,77.7z
					 M-337.4,74.6c-0.8,0-1.4,0.6-1.4,1.4s0.6,1.4,1.4,1.4s1.4-0.6,1.4-1.4S-336.7,74.6-337.4,74.6z"/>
			</g>
			<g>
				<circle class="st1" cx="-337.4" cy="86.8" r="1.5"/>
				<path class="st1" d="M-337.4,88.4c-0.9,0-1.6-0.7-1.6-1.6s0.7-1.6,1.6-1.6s1.6,0.7,1.6,1.6C-335.8,87.7-336.5,88.4-337.4,88.4z
					 M-337.4,85.4c-0.8,0-1.4,0.6-1.4,1.4s0.6,1.4,1.4,1.4s1.4-0.6,1.4-1.4S-336.7,85.4-337.4,85.4z"/>
			</g>
			<g>
				<circle class="st1" cx="-350.6" cy="32.9" r="1.5"/>
				<path class="st1" d="M-350.6,34.5c-0.9,0-1.6-0.7-1.6-1.6s0.7-1.6,1.6-1.6s1.6,0.7,1.6,1.6S-349.7,34.5-350.6,34.5z
					 M-350.6,31.5c-0.8,0-1.4,0.6-1.4,1.4c0,0.8,0.6,1.4,1.4,1.4s1.4-0.6,1.4-1.4S-349.8,31.5-350.6,31.5z"/>
			</g>
			<g>
				<circle class="st1" cx="-350.6" cy="43.7" r="1.5"/>
				<path class="st1" d="M-350.6,45.3c-0.9,0-1.6-0.7-1.6-1.6s0.7-1.6,1.6-1.6s1.6,0.7,1.6,1.6S-349.7,45.3-350.6,45.3z
					 M-350.6,42.3c-0.8,0-1.4,0.6-1.4,1.4c0,0.8,0.6,1.4,1.4,1.4s1.4-0.6,1.4-1.4C-349.2,42.9-349.8,42.3-350.6,42.3z"/>
			</g>
			<g>
				<circle class="st1" cx="-350.6" cy="54.5" r="1.5"/>
				<path class="st1" d="M-350.6,56.1c-0.9,0-1.6-0.7-1.6-1.6s0.7-1.6,1.6-1.6s1.6,0.7,1.6,1.6S-349.7,56.1-350.6,56.1z M-350.6,53
					c-0.8,0-1.4,0.6-1.4,1.4c0,0.8,0.6,1.4,1.4,1.4s1.4-0.6,1.4-1.4C-349.2,53.7-349.8,53-350.6,53z"/>
			</g>
			<g>
				<circle class="st1" cx="-350.6" cy="65.2" r="1.5"/>
				<path class="st1" d="M-350.6,66.9c-0.9,0-1.6-0.7-1.6-1.6s0.7-1.6,1.6-1.6s1.6,0.7,1.6,1.6C-348.9,66.1-349.7,66.9-350.6,66.9z
					 M-350.6,63.8c-0.8,0-1.4,0.6-1.4,1.4s0.6,1.4,1.4,1.4s1.4-0.6,1.4-1.4C-349.2,64.5-349.8,63.8-350.6,63.8z"/>
			</g>
			<g>
				<circle class="st1" cx="-350.6" cy="76" r="1.5"/>
				<path class="st1" d="M-350.6,77.7c-0.9,0-1.6-0.7-1.6-1.6s0.7-1.6,1.6-1.6s1.6,0.7,1.6,1.6C-348.9,76.9-349.7,77.7-350.6,77.7z
					 M-350.6,74.6c-0.8,0-1.4,0.6-1.4,1.4s0.6,1.4,1.4,1.4s1.4-0.6,1.4-1.4S-349.8,74.6-350.6,74.6z"/>
			</g>
			<g>
				<circle class="st1" cx="-350.6" cy="86.8" r="1.5"/>
				<path class="st1" d="M-350.6,88.4c-0.9,0-1.6-0.7-1.6-1.6s0.7-1.6,1.6-1.6s1.6,0.7,1.6,1.6C-348.9,87.7-349.7,88.4-350.6,88.4z
					 M-350.6,85.4c-0.8,0-1.4,0.6-1.4,1.4s0.6,1.4,1.4,1.4s1.4-0.6,1.4-1.4S-349.8,85.4-350.6,85.4z"/>
			</g>
		</g>
	</g>
</g>
</svg>
