<?xml version="1.0" encoding="utf-8"?>
<!-- Generator: Adobe Illustrator 22.1.0, SVG Export Plug-In . SVG Version: 6.00 Build 0)  -->
<svg version="1.1" id="Camada_1" xmlns="http://www.w3.org/2000/svg" xmlns:xlink="http://www.w3.org/1999/xlink" x="0px" y="0px"
	 viewBox="0 0 91.1 96.7" style="enable-background:new 0 0 91.1 96.7;" xml:space="preserve">
<style type="text/css">
	.st0{fill:#6B4C1F;}
	.st1{fill:#513F03;}
	.st2{fill:#C4AA60;}
</style>
<g>
	<path class="st0" d="M13.3,58c0,0,2.1-15.2,23.7-22.6h7.7c0,0,3.6-2.3,3.4,16.4c0,0-0.8,20.4-3.3,28.5s-4.3,10.9-4.3,10.9
		s-11.7-2.6-14.9-6.3s-9.6-6-12.4-22.4C13.2,62.5,13,59.3,13.3,58z"/>
	<g>
		<path class="st1" d="M40.4,90.4c-0.4-0.2-1.4-1.9-1.7-8c-0.3-5.4-0.1-12.5,0.8-19.9c0.9-8.6,1.8-14.9,2.8-19.2
			c1.5-6.9,2.6-7,2.6-7c0.2,0,0.3,0.2,0.5,0.3c1.3,1.5,3.2,8.6,1.4,25.5c-0.7,6.7-1.8,13.6-3,18.9C41.8,89.3,40.6,90.3,40.4,90.4z"
			/>
		<path class="st2" d="M44.8,37.5c0.4,0.7,1.1,2.5,1.5,6.2c0.5,4.7,0.3,11.1-0.5,18.5c-0.7,6.3-1.7,12.9-2.8,18.1
			c-1.1,5.2-2,7.7-2.6,8.7c-0.4-1-0.8-3.2-1-7.5c-0.2-5.2,0.1-11.9,0.8-18.8c0.8-7.8,1.7-13.6,2.5-17.9
			C43.6,39.9,44.4,38.1,44.8,37.5 M44.8,35.6c-2.5,0-4.5,11.3-6.2,26.9c-1.8,16.3-0.8,28.8,1.8,28.8c2.5,0,5.6-15.6,7.1-29
			C49.3,44.4,47.3,35.6,44.8,35.6L44.8,35.6z"/>
	</g>
	<path class="st0" d="M89.9,39.6c0,0,4.2-14.8-12.7-30.2l-7.1-3c0,0-2.4-3.5-9.6,13.7c0,0-7.4,19.1-8.4,27.5s-0.4,11.7-0.4,11.7
		s11.7,2.2,16.2,0.1c4.4-2.3,11.2-1.8,20.3-15.7C88.2,43.7,89.7,40.9,89.9,39.6z"/>
	<g>
		<path class="st1" d="M52.1,58.5c-0.1-0.2-0.9-1.7,0.7-9.9c1-5.4,2.8-12.1,4.8-18.5c5.5-17.4,10.4-23,11.9-23c0.1,0,0.1,0,0.1,0
			s1,0.5-0.4,7.4c-0.9,4.4-2.6,10.5-5.1,18.7c-2.2,7.1-4.8,13.6-7.2,18.4C53.8,58,52.3,58.5,52.1,58.5z"/>
		<path class="st2" d="M69.2,8.1c0.1,0.8,0.1,2.8-0.9,7.5c-0.9,4.3-2.5,10-4.9,17.4c-2.1,6.6-4.5,12.8-6.8,17.5
			c-1.9,3.9-3.2,5.7-4,6.5c-0.1-1.2,0.1-3.8,1.1-9c1.1-5.2,2.8-11.7,4.7-17.7c2.2-7.1,4.6-13,6.9-17.1C67.2,10,68.5,8.6,69.2,8.1
			 M69.5,6.3c-2.5,0-7.5,7.4-12.6,23.5c-4.1,12.8-7.4,28.4-5.1,29.4c0.1,0,0.2,0.1,0.3,0.1c2.5,0,8.1-10.8,12.8-25.7
			c4.7-15,7.4-26.1,5.1-27.2C69.8,6.4,69.7,6.3,69.5,6.3L69.5,6.3z"/>
	</g>
	<path class="st1" d="M47,33.1c0.1-0.6,0.3-1.2,0.7-1.7s0.8-0.9,1.4-1.2c0.5-0.3,1.1-0.5,1.7-0.6c0.6-0.1,1.2,0,1.8,0.3
		c-0.6,0.2-1.1,0.4-1.6,0.6s-0.9,0.4-1.4,0.7c-0.4,0.2-0.9,0.5-1.3,0.8C47.9,32.4,47.5,32.7,47,33.1z"/>
	<path class="st1" d="M40.9,33c0.1-0.7,0.3-1.4,0.5-2.1c0.2-0.7,0.5-1.4,0.9-2c0.8-1.3,2-2.3,3.4-3c0.7-0.3,1.4-0.6,2.1-0.7
		c0.7-0.1,1.5-0.2,2.2-0.2c0.4,0,0.7,0,1.1,0.1c0.2,0,0.4,0.1,0.5,0.1c0.2,0,0.4,0.1,0.5,0.1l0.5,0.1c0.2,0.1,0.3,0.1,0.5,0.2
		c0.3,0.1,0.7,0.3,1,0.5c-1.4,0.1-2.8,0.2-4.1,0.4c-0.6,0.1-1.3,0.3-1.9,0.5c-0.2,0.1-0.3,0.1-0.5,0.2c-0.2,0-0.3,0.1-0.4,0.2
		c-0.3,0.1-0.6,0.2-0.9,0.4c-1.1,0.6-2.2,1.3-3.1,2.2C42.6,30.8,41.9,31.9,40.9,33z"/>
	<path class="st1" d="M29.3,34.9c0.8-1.1,1.4-2.3,2-3.4c0.6-1.2,1.1-2.4,1.8-3.6c0.3-0.6,0.7-1.2,1.1-1.8c0.2-0.3,0.4-0.6,0.6-0.8
		c0.1-0.1,0.2-0.3,0.4-0.4c0.1-0.1,0.2-0.3,0.4-0.4c0.5-0.5,1.1-1,1.7-1.4c0.6-0.4,1.2-0.7,1.9-1c0.6-0.3,1.3-0.5,1.9-0.8
		c0.3-0.1,0.7-0.2,1-0.3c0.3-0.1,0.7-0.2,1-0.3c1.3-0.4,2.6-0.6,4-0.8c2.7-0.4,5.4-0.4,8.1,0.1c-1.3,0.3-2.6,0.5-3.9,0.8
		c-1.3,0.3-2.6,0.6-3.8,0.9c-1.3,0.3-2.5,0.7-3.7,1.1c-0.6,0.2-1.2,0.4-1.8,0.6s-1.2,0.5-1.7,0.7c-0.6,0.3-1.1,0.5-1.6,0.9
		c-0.3,0.2-0.5,0.3-0.7,0.5s-0.5,0.4-0.7,0.6c-0.9,0.8-1.7,1.8-2.5,2.8s-1.5,2.1-2.4,3.2C31.3,33.2,30.4,34.2,29.3,34.9z"/>
	<path class="st1" d="M16.7,40.4c0.1-0.5,0.3-1.1,0.4-1.6c0.2-0.5,0.3-1,0.5-1.6c0.3-1,0.7-2.1,1.1-3.1c0.8-2,1.8-4,3.1-5.9
		c1.3-1.9,2.8-3.6,4.7-4.9c0.9-0.7,1.9-1.3,2.8-1.8c0.5-0.3,1-0.5,1.4-0.8c0.5-0.3,0.9-0.5,1.4-0.8c0.9-0.5,1.9-1.1,2.9-1.6
		c1.1-0.5,2.2-0.9,3.2-1.2c1.1-0.3,2.2-0.5,3.3-0.7s2.2-0.4,3.3-0.5c4.4-0.6,8.8-0.7,13.1-0.3c-4.3,0.6-8.6,1.2-12.8,2.2
		c-0.5,0.1-1,0.2-1.6,0.4c-0.5,0.1-1,0.2-1.6,0.4c-1,0.3-2.1,0.5-3.1,0.8s-1.9,0.7-2.8,1.1c-0.9,0.4-1.8,1-2.8,1.5
		c-0.5,0.3-1,0.5-1.4,0.8l-1.2,0.8c-0.9,0.5-1.8,1-2.7,1.6c-1.7,1.1-3.2,2.6-4.5,4.2s-2.5,3.4-3.5,5.3c-0.5,0.9-1.1,1.9-1.6,2.8
		c-0.3,0.5-0.5,1-0.8,1.4C17.2,39.4,17,39.9,16.7,40.4z"/>
	<path class="st1" d="M7.3,55.1c-0.2-0.8-0.4-1.7-0.5-2.5c-0.1-0.9-0.2-1.7-0.2-2.6c-0.1-1.7,0-3.5,0.1-5.2s0.3-3.4,0.5-5.1
		c0.1-0.9,0.2-1.7,0.3-2.6c0.1-0.9,0.3-1.7,0.5-2.6c0.2-0.9,0.5-1.7,0.8-2.6c0.3-0.9,0.7-1.7,1.1-2.5c0.8-1.6,1.8-3.2,2.9-4.6
		s2.3-2.8,3.5-4c0.6-0.6,1.3-1.2,1.9-1.8c0.6-0.6,1.3-1.2,2-1.7c0.7-0.6,1.4-1.1,2.2-1.6c0.8-0.5,1.6-1,2.4-1.4
		c1.6-0.8,3.3-1.5,4.8-2.1c1.6-0.6,3.2-1.2,4.9-1.8c0.8-0.3,1.7-0.5,2.6-0.7c0.9-0.2,1.8-0.4,2.7-0.5S41.6,9,42.5,9s1.8,0,2.6,0
		c1.7,0,3.4,0.1,5.1,0.2c1.7,0.1,3.4,0.2,5.1,0.4c1.7,0.2,3.4,0.3,5.1,0.6c-1.7,0.2-3.4,0.4-5.1,0.6c-1.7,0.2-3.4,0.3-5.1,0.5
		l-5.1,0.3c-0.8,0.1-1.7,0.2-2.5,0.3s-1.6,0.3-2.4,0.4c-0.8,0.2-1.5,0.4-2.3,0.7s-1.5,0.5-2.3,0.8c-1.5,0.6-3.1,1.3-4.6,2
		c-1.5,0.7-3.1,1.3-4.4,2.1c-0.7,0.4-1.4,0.8-2,1.2c-0.6,0.4-1.3,0.9-1.9,1.4c-1.2,1-2.5,2.1-3.7,3.3c-1.2,1.1-2.3,2.3-3.3,3.5
		s-2,2.5-2.8,3.9c-0.4,0.7-0.8,1.4-1.1,2.1c-0.3,0.7-0.6,1.4-0.9,2.2c-0.3,0.8-0.5,1.5-0.7,2.3s-0.4,1.6-0.6,2.4l-0.5,2.4
		c-0.2,0.8-0.4,1.7-0.6,2.5c-0.4,1.6-0.7,3.3-0.9,5c-0.1,0.8-0.2,1.7-0.3,2.5C7.3,53.4,7.3,54.3,7.3,55.1z"/>
	<path class="st1" d="M8,72c-0.9-0.8-1.6-1.9-2.1-3S5,66.7,4.6,65.5c-0.7-2.3-1.4-4.7-2.1-7c-0.3-1.2-0.6-2.4-0.9-3.6
		c-0.2-1.3-0.5-2.5-0.7-3.7l-0.2-0.9l-0.1-0.9l-0.1-0.9L0.4,48l-0.1-0.5c-0.1-0.6-0.1-1.2-0.2-1.9L0,43.7c0-0.3,0-0.6,0-0.9v-0.9
		c0-0.6,0-1.3,0-1.9v-0.9c0-0.3,0-0.6,0.1-0.9l0.1-1v-0.5c0-0.2,0-0.3,0.1-0.5c0.3-2.5,0.9-5,1.8-7.5c0.9-2.4,2-4.7,3.4-6.9
		c1.3-2.2,2.9-4.2,4.5-6.1c1.7-1.9,3.5-3.7,5.5-5.3c1-0.8,2.1-1.6,3.2-2.2c1.1-0.7,2.3-1.3,3.5-1.8c2.4-1,4.8-1.8,7.1-2.4
		c1.2-0.3,2.3-0.7,3.5-1c1.1-0.4,2.3-0.7,3.5-1C41.1,0.8,46-0.1,51,0c1.2,0,2.5,0.1,3.7,0.2s2.5,0.3,3.7,0.6
		c2.4,0.5,4.8,1.4,6.9,2.5c-1.2-0.4-2.3-0.7-3.5-0.9c-1.2-0.2-2.4-0.4-3.6-0.5c-2.4-0.2-4.8-0.1-7.1,0.1c-4.7,0.6-9.3,1.9-13.9,3.3
		c-1.1,0.4-2.3,0.7-3.4,1.1l-3.5,1.2c-2.3,0.8-4.5,1.5-6.6,2.5c-1,0.5-2,1-2.9,1.6s-1.8,1.3-2.7,2c-1.8,1.4-3.4,3.1-4.9,4.9
		c-1.5,1.7-3,3.6-4.2,5.5c-1.3,1.9-2.3,4-3.2,6.1C5,32.3,4.3,34.5,4,36.8c0,0.1-0.1,0.3-0.1,0.4l-0.1,0.4l-0.1,0.9
		c0,0.3-0.1,0.6-0.1,0.9l-0.1,0.9c-0.1,0.6-0.1,1.2-0.1,1.7v0.9c0,0.3,0,0.6,0,0.9c0,2.3,0.1,4.7,0.3,7.1c0.2,2.4,0.5,4.8,0.9,7.1
		c0.4,2.4,0.8,4.8,1.2,7.2c0.2,1.2,0.4,2.4,0.7,3.5C6.8,69.8,7.3,71,8,72z"/>
	<path class="st1" d="M53.1,62.4c0.3,0.1,0.6,0.3,0.8,0.5c0.2,0.3,0.4,0.6,0.5,0.9s0.1,0.7,0,1.1s-0.2,0.7-0.4,1
		c-0.4,0.6-0.9,1-1.6,1.3c-0.6,0.2-1.3,0.3-1.9,0c0.6-0.2,1.1-0.5,1.5-0.8s0.8-0.7,1-1.1s0.4-0.8,0.4-1.3
		C53.5,63.4,53.5,62.9,53.1,62.4z"/>
	<path class="st1" d="M57.2,62.5c0.5,0.5,0.8,1.1,1,1.7s0.3,1.3,0.4,1.9c0.1,0.7,0.1,1.4-0.1,2.1c-0.1,0.4-0.2,0.7-0.4,1.1
		c-0.2,0.3-0.4,0.6-0.6,0.9c-0.2,0.3-0.5,0.5-0.8,0.8c-0.3,0.2-0.6,0.4-0.9,0.6c-0.3,0.2-0.6,0.3-1,0.4c-0.3,0.1-0.7,0.2-1,0.3
		c-1.4,0.2-2.7,0.1-3.9-0.4c1.3-0.3,2.5-0.6,3.5-1.1c0.3-0.1,0.5-0.2,0.8-0.4c0.2-0.1,0.5-0.3,0.7-0.4c0.2-0.2,0.4-0.3,0.6-0.5
		c0.2-0.2,0.4-0.4,0.5-0.6c0.2-0.2,0.3-0.4,0.4-0.6c0.1-0.2,0.2-0.4,0.3-0.7c0.2-0.5,0.3-1,0.3-1.6c0.1-0.6,0.1-1.2,0.2-1.8
		C57.4,63.7,57.3,63.1,57.2,62.5z"/>
	<path class="st1" d="M62.5,62.6c0.6,0.8,1,1.8,1.3,2.8c0.2,1,0.3,2.1,0.2,3.1c-0.2,2.1-1.1,4.2-2.7,5.8c-0.8,0.8-1.7,1.4-2.6,1.9
		c-1,0.5-2,0.8-3,1s-2,0.3-3,0.3s-2,0-3-0.2c1.9-0.6,3.8-1.1,5.5-1.9c0.9-0.4,1.7-0.7,2.4-1.2c0.8-0.5,1.4-1,2-1.6
		c1.2-1.2,2.1-2.8,2.6-4.5C62.8,66.5,62.9,64.6,62.5,62.6z"/>
	<path class="st1" d="M48.8,83.7c2.9,0.4,5.5-0.3,8-1.5c1.2-0.6,2.4-1.2,3.6-2l1.8-1.1c0.6-0.4,1.2-0.7,1.6-1.1
		c0.5-0.4,0.8-0.7,1.1-1.2c0.3-0.5,0.6-1.1,0.8-1.8c0.6-1.3,1.1-2.6,1.6-3.9c1-2.6,1.8-5.2,1.8-8.1c0.2,0.7,0.4,1.4,0.5,2.1v0.3
		c0,0.1,0,0.2,0,0.3v0.6c0,0.2,0,0.4,0,0.6s0,0.4,0,0.6c0,0.7-0.1,1.5-0.2,2.2s-0.3,1.4-0.4,2.2c-0.4,1.4-0.8,2.8-1.3,4.1
		c-0.2,0.7-0.5,1.4-0.9,2.1c-0.2,0.4-0.4,0.7-0.7,1.1c-0.3,0.3-0.6,0.6-0.9,0.9c-0.7,0.5-1.3,0.9-1.9,1.2c-0.6,0.3-1.3,0.7-1.9,1
		c-1.3,0.7-2.6,1.3-4.1,1.7c-1.4,0.4-2.9,0.7-4.4,0.7C51.6,84.7,50.1,84.4,48.8,83.7z"/>
	<path class="st1" d="M47.8,88.2c4.1,0.7,7.9,0,11.5-1.1c0.5-0.2,0.9-0.3,1.4-0.5c0.2-0.1,0.5-0.2,0.7-0.2l0.7-0.3
		c0.9-0.4,1.8-0.7,2.6-1.1c0.8-0.4,1.6-0.8,2.3-1.3c0.3-0.2,0.6-0.5,0.9-0.7c0.3-0.3,0.5-0.6,0.8-0.9c0.5-0.6,0.9-1.4,1.4-2.2
		c0.4-0.8,0.8-1.7,1.2-2.6c0.4-0.9,0.8-1.8,1.2-2.7c0.2-0.5,0.4-0.9,0.6-1.4s0.4-0.9,0.5-1.4c0.7-1.8,1.4-3.7,2-5.6
		c0.2-0.5,0.3-0.9,0.5-1.4s0.3-1,0.4-1.4c0.3-1,0.5-1.9,0.6-2.9c0.4,1,0.5,2,0.5,3.1c0,1,0,2.1-0.1,3.1c-0.1,2.1-0.4,4.1-0.9,6.1
		c-0.1,0.5-0.2,1-0.4,1.5c-0.1,0.5-0.3,1-0.4,1.5c-0.3,1-0.6,2-1,3s-0.7,1.9-1.2,2.9s-1,2-1.8,2.9c-0.4,0.5-0.8,0.9-1.2,1.4
		c-0.5,0.4-1,0.8-1.5,1.1c-1,0.7-2,1.1-3,1.5c-2,0.8-4,1.3-6.1,1.7c-0.3,0-0.5,0.1-0.8,0.1s-0.5,0.1-0.8,0.1l-0.8,0.1
		c-0.3,0-0.5,0-0.8,0h-0.4H56c-0.3,0-0.5,0-0.8,0c-0.5-0.1-1.1-0.1-1.6-0.2C51.5,90.1,49.5,89.4,47.8,88.2z"/>
	<path class="st1" d="M49.1,94.7c1.5,0.2,3,0.3,4.4,0.3c1.5,0,2.9-0.1,4.3-0.4c0.4-0.1,0.7-0.1,1.1-0.2c0.3-0.1,0.7-0.2,1-0.3
		c0.3-0.1,0.7-0.2,1-0.3c0.3-0.1,0.7-0.2,1-0.3c0.7-0.2,1.3-0.5,1.9-0.8c0.6-0.3,1.3-0.6,1.9-1c2.6-1.4,5.1-2.8,7.4-4.5
		s4.5-3.5,6.3-5.6c0.9-1,1.8-2.1,2.5-3.3c0.4-0.6,0.7-1.2,1.1-1.8c0.3-0.6,0.6-1.2,0.9-1.9c0.6-1.3,1.1-2.6,1.7-4l0.8-2.1
		c0.3-0.7,0.5-1.4,0.8-2.1c0.2-0.7,0.5-1.3,0.7-2s0.3-1.3,0.5-2c0.2-1.4,0.4-2.8,0.4-4.3l0.1-2.2c0-0.7,0.1-1.5,0.1-2.2
		c0.1-1.5,0.2-3,0.4-4.5c0.3,1.5,0.6,3,0.8,4.5c0.2,1.5,0.5,3,0.6,4.5c0.2,1.5,0.3,3.1,0.3,4.6c0,0.8-0.1,1.6-0.2,2.4
		s-0.3,1.6-0.5,2.3c-0.2,0.8-0.4,1.5-0.6,2.2s-0.4,1.4-0.6,2.2c-0.4,1.5-0.9,2.9-1.5,4.4s-1.3,2.9-2.2,4.3c-0.1,0.2-0.2,0.3-0.3,0.5
		l-0.3,0.5c-0.2,0.3-0.4,0.7-0.7,1l-0.7,1l-0.8,0.9c-1.1,1.2-2.2,2.3-3.4,3.3c-1.2,1-2.5,1.9-3.8,2.8c-1.3,0.8-2.7,1.6-4.1,2.3
		c-0.7,0.4-1.4,0.7-2.1,1s-1.4,0.6-2.1,0.9s-1.5,0.5-2.2,0.8c-0.7,0.2-1.5,0.5-2.3,0.6c-1.6,0.3-3.1,0.5-4.7,0.5
		C54.9,96.7,51.8,96,49.1,94.7z"/>
</g>
</svg>
