<?xml version="1.0" encoding="utf-8"?>
<!-- Generator: Adobe Illustrator 22.1.0, SVG Export Plug-In . SVG Version: 6.00 Build 0)  -->
<svg version="1.1" id="Camada_1" xmlns="http://www.w3.org/2000/svg" xmlns:xlink="http://www.w3.org/1999/xlink" x="0px" y="0px"
	 viewBox="0 0 85.8 85.9" style="enable-background:new 0 0 85.8 85.9;" xml:space="preserve">
<style type="text/css">
	.st0{fill:#FFFFFF;}
</style>
<g>
	<path class="st0" d="M65.2,5.1c8.5,0,15.5,6.9,15.5,15.5v44.6c0,8.5-6.9,15.5-15.5,15.5H20.6c-8.5,0-15.5-6.9-15.5-15.5V20.6
		c0-8.5,6.9-15.5,15.5-15.5H65.2 M65.2,0.1H20.6C9.3,0.1,0,9.3,0,20.6v44.6c0,11.3,9.3,20.6,20.6,20.6h44.6
		c11.3,0,20.6-9.3,20.6-20.6V20.6C85.9,9.3,76.6,0.1,65.2,0.1L65.2,0.1z"/>
	<path class="st0" d="M42.9,29.3c7.6,0,13.7,6.2,13.7,13.7s-6.2,13.7-13.7,13.7S29.2,50.5,29.2,43S35.4,29.3,42.9,29.3 M42.9,24
		C32.5,24,24,32.5,24,42.9s8.5,18.9,18.9,18.9s18.9-8.5,18.9-18.9S53.4,24,42.9,24L42.9,24z"/>
	<path class="st0" d="M67,15.5c-1.9,0-3.4,1.5-3.4,3.4s1.5,3.4,3.4,3.4s3.4-1.5,3.4-3.4C70.4,17,68.9,15.5,67,15.5L67,15.5z"/>
</g>
</svg>
