<?xml version="1.0" encoding="utf-8"?>
<!-- Generator: Adobe Illustrator 22.1.0, SVG Export Plug-In . SVG Version: 6.00 Build 0)  -->
<svg version="1.1" id="Camada_1" xmlns="http://www.w3.org/2000/svg" xmlns:xlink="http://www.w3.org/1999/xlink" x="0px" y="0px"
	 viewBox="0 0 87.5 82.8" style="enable-background:new 0 0 87.5 82.8;" xml:space="preserve">
<style type="text/css">
	.st0{fill:#FFFFFF;}
</style>
<g>
	<path class="st0" d="M19,9c0,5-3.7,9-9.7,9C3.6,18,0,14,0,9c0-5.1,3.8-9,9.6-9S18.9,4,19,9z M0.5,82.7V25.1h17.9v57.7L0.5,82.7
		L0.5,82.7z"/>
	<path class="st0" d="M32.8,43.5c0-7.2-0.2-13.2-0.5-18.4h15.6l0.8,8h0.4c2.4-3.8,8.1-9.3,17.8-9.3c11.8,0,20.6,7.9,20.6,24.9v34.1
		H69.6v-32c0-7.4-2.6-12.5-9.1-12.5c-5,0-7.9,3.4-9.2,6.7c-0.5,1.2-0.6,2.8-0.6,4.5v33.2H32.8V43.5z"/>
</g>
</svg>
