<?xml version="1.0" encoding="utf-8"?>
<!-- Generator: Adobe Illustrator 22.1.0, SVG Export Plug-In . SVG Version: 6.00 Build 0)  -->
<svg version="1.1" id="Camada_1" xmlns="http://www.w3.org/2000/svg" xmlns:xlink="http://www.w3.org/1999/xlink" x="0px" y="0px"
	 viewBox="0 0 90.1 90.2" style="enable-background:new 0 0 90.1 90.2;" xml:space="preserve">
<style type="text/css">
	.st0{fill:#FFFFFF;}
</style>
<g>
	<g>
		<path class="st0" d="M68.5,5.4c8.9,0,16.2,7.3,16.2,16.2v46.9c0,8.9-7.3,16.2-16.2,16.2H21.6c-8.9,0-16.2-7.3-16.2-16.2V21.6
			c0-8.9,7.3-16.2,16.2-16.2L68.5,5.4 M68.5,0H21.6C9.7,0,0,9.7,0,21.6v46.9c0,11.9,9.7,21.6,21.6,21.6h46.9
			c11.9,0,21.6-9.7,21.6-21.6V21.6C90.1,9.7,80.4,0,68.5,0L68.5,0z"/>
	</g>
	<path class="st0" d="M67.7,30.2c0,0,2,0,2-2V20c0,0-0.2-1.5-2-1.2h-9.9c0,0-11.6,0.7-12.9,13.8v11.2h-8.2c0,0-1.2,0-1.2,2.5v8.9
		c0,0,0.2,1.5,2,1.5H45v28.9h12.4V56.7H68c0,0,1.2-0.5,1.2-1.7l1-9.4c0,0-0.2-1.7-1.7-1.7H57.3v-9.6c0,0,0.2-4.2,5.2-4
		C62.5,30.2,67.6,30.2,67.7,30.2z"/>
</g>
</svg>
