<?xml version="1.0" encoding="utf-8"?>
<!-- Generator: Adobe Illustrator 22.1.0, SVG Export Plug-In . SVG Version: 6.00 Build 0)  -->
<svg version="1.1" id="Camada_1" xmlns="http://www.w3.org/2000/svg" xmlns:xlink="http://www.w3.org/1999/xlink" x="0px" y="0px"
	 viewBox="0 0 73.5 98.6" style="enable-background:new 0 0 73.5 98.6;" xml:space="preserve">
<style type="text/css">
	.st0{opacity:0.5;}
	.st1{fill:#E89191;}
</style>
<g class="st0">
	<circle class="st1" cx="70.9" cy="2.6" r="2.6"/>
	<circle class="st1" cx="70.9" cy="21.2" r="2.6"/>
	<circle class="st1" cx="70.9" cy="39.9" r="2.6"/>
	<circle class="st1" cx="70.9" cy="58.6" r="2.6"/>
	<circle class="st1" cx="70.9" cy="77.3" r="2.6"/>
	<circle class="st1" cx="70.9" cy="96" r="2.6"/>
	<circle class="st1" cx="48.1" cy="2.6" r="2.6"/>
	<circle class="st1" cx="48.1" cy="21.2" r="2.6"/>
	<circle class="st1" cx="48.1" cy="39.9" r="2.6"/>
	<circle class="st1" cx="48.1" cy="58.6" r="2.6"/>
	<circle class="st1" cx="48.1" cy="77.3" r="2.6"/>
	<circle class="st1" cx="48.1" cy="96" r="2.6"/>
	<circle class="st1" cx="25.4" cy="2.6" r="2.6"/>
	<circle class="st1" cx="25.4" cy="21.2" r="2.6"/>
	<circle class="st1" cx="25.4" cy="39.9" r="2.6"/>
	<circle class="st1" cx="25.4" cy="58.6" r="2.6"/>
	<circle class="st1" cx="25.4" cy="77.3" r="2.6"/>
	<circle class="st1" cx="25.4" cy="96" r="2.6"/>
	<circle class="st1" cx="2.6" cy="2.6" r="2.6"/>
	<circle class="st1" cx="2.6" cy="21.2" r="2.6"/>
	<circle class="st1" cx="2.6" cy="39.9" r="2.6"/>
	<circle class="st1" cx="2.6" cy="58.6" r="2.6"/>
	<circle class="st1" cx="2.6" cy="77.3" r="2.6"/>
	<circle class="st1" cx="2.6" cy="96" r="2.6"/>
</g>
</svg>
