<?xml version="1.0" encoding="utf-8"?>
<!-- Generator: Adobe Illustrator 22.1.0, SVG Export Plug-In . SVG Version: 6.00 Build 0)  -->
<svg version="1.1" id="Camada_1" xmlns="http://www.w3.org/2000/svg" xmlns:xlink="http://www.w3.org/1999/xlink" x="0px" y="0px"
	 viewBox="0 0 72.2 96.9" style="enable-background:new 0 0 72.2 96.9;" xml:space="preserve">
<style type="text/css">
	.st0{opacity:0.5;}
	.st1{fill:#91E3E5;}
</style>
<g class="st0">
	<circle class="st1" cx="69.6" cy="2.6" r="2.6"/>
	<circle class="st1" cx="69.6" cy="20.9" r="2.6"/>
	<circle class="st1" cx="69.6" cy="39.3" r="2.6"/>
	<circle class="st1" cx="69.6" cy="57.6" r="2.6"/>
	<circle class="st1" cx="69.6" cy="75.9" r="2.6"/>
	<circle class="st1" cx="69.6" cy="94.3" r="2.6"/>
	<circle class="st1" cx="47.3" cy="2.6" r="2.6"/>
	<circle class="st1" cx="47.3" cy="20.9" r="2.6"/>
	<circle class="st1" cx="47.3" cy="39.3" r="2.6"/>
	<circle class="st1" cx="47.3" cy="57.6" r="2.6"/>
	<circle class="st1" cx="47.3" cy="75.9" r="2.6"/>
	<circle class="st1" cx="47.3" cy="94.3" r="2.6"/>
	<circle class="st1" cx="25" cy="2.6" r="2.6"/>
	<circle class="st1" cx="25" cy="20.9" r="2.6"/>
	<circle class="st1" cx="25" cy="39.3" r="2.6"/>
	<circle class="st1" cx="25" cy="57.6" r="2.6"/>
	<circle class="st1" cx="25" cy="75.9" r="2.6"/>
	<circle class="st1" cx="25" cy="94.3" r="2.6"/>
	<circle class="st1" cx="2.6" cy="2.6" r="2.6"/>
	<circle class="st1" cx="2.6" cy="20.9" r="2.6"/>
	<circle class="st1" cx="2.6" cy="39.3" r="2.6"/>
	<circle class="st1" cx="2.6" cy="57.6" r="2.6"/>
	<circle class="st1" cx="2.6" cy="75.9" r="2.6"/>
	<circle class="st1" cx="2.6" cy="94.3" r="2.6"/>
</g>
</svg>
