<?xml version="1.0" encoding="utf-8"?>
<!-- Generator: Adobe Illustrator 22.1.0, SVG Export Plug-In . SVG Version: 6.00 Build 0)  -->
<svg version="1.1" id="Camada_1" xmlns="http://www.w3.org/2000/svg" xmlns:xlink="http://www.w3.org/1999/xlink" x="0px" y="0px"
	 viewBox="0 0 72.9 97.9" style="enable-background:new 0 0 72.9 97.9;" xml:space="preserve">
<style type="text/css">
	.st0{opacity:0.5;}
	.st1{fill:#9DE591;}
</style>
<g class="st0">
	<circle class="st1" cx="70.3" cy="2.6" r="2.6"/>
	<circle class="st1" cx="70.3" cy="21.2" r="2.6"/>
	<circle class="st1" cx="70.3" cy="39.7" r="2.6"/>
	<circle class="st1" cx="70.3" cy="58.3" r="2.6"/>
	<circle class="st1" cx="70.3" cy="76.8" r="2.6"/>
	<circle class="st1" cx="70.3" cy="95.3" r="2.6"/>
	<circle class="st1" cx="47.7" cy="2.6" r="2.6"/>
	<circle class="st1" cx="47.7" cy="21.2" r="2.6"/>
	<circle class="st1" cx="47.7" cy="39.7" r="2.6"/>
	<circle class="st1" cx="47.7" cy="58.3" r="2.6"/>
	<circle class="st1" cx="47.7" cy="76.8" r="2.6"/>
	<circle class="st1" cx="47.7" cy="95.3" r="2.6"/>
	<circle class="st1" cx="25.2" cy="2.6" r="2.6"/>
	<circle class="st1" cx="25.2" cy="21.2" r="2.6"/>
	<circle class="st1" cx="25.2" cy="39.7" r="2.6"/>
	<circle class="st1" cx="25.2" cy="58.3" r="2.6"/>
	<circle class="st1" cx="25.2" cy="76.8" r="2.6"/>
	<circle class="st1" cx="25.2" cy="95.3" r="2.6"/>
	<circle class="st1" cx="2.6" cy="2.6" r="2.6"/>
	<circle class="st1" cx="2.6" cy="21.2" r="2.6"/>
	<circle class="st1" cx="2.6" cy="39.7" r="2.6"/>
	<circle class="st1" cx="2.6" cy="58.3" r="2.6"/>
	<circle class="st1" cx="2.6" cy="76.8" r="2.6"/>
	<circle class="st1" cx="2.6" cy="95.3" r="2.6"/>
</g>
</svg>
