<?xml version="1.0" encoding="utf-8"?>
<!-- Generator: Adobe Illustrator 22.1.0, SVG Export Plug-In . SVG Version: 6.00 Build 0)  -->
<svg version="1.1" id="Camada_1" xmlns="http://www.w3.org/2000/svg" xmlns:xlink="http://www.w3.org/1999/xlink" x="0px" y="0px"
	 viewBox="0 0 100 100" style="enable-background:new 0 0 100 100;" xml:space="preserve">
<style type="text/css">
	.st0{opacity:0.5;}
	.st1{fill:#E89191;}
</style>
<g class="st0">
	<circle class="st1" cx="85.4" cy="3.5" r="2.6"/>
	<circle class="st1" cx="85.4" cy="22.1" r="2.6"/>
	<circle class="st1" cx="85.4" cy="40.8" r="2.6"/>
	<circle class="st1" cx="85.4" cy="59.5" r="2.6"/>
	<circle class="st1" cx="85.4" cy="78.2" r="2.6"/>
	<circle class="st1" cx="85.4" cy="96.9" r="2.6"/>
	<circle class="st1" cx="62.6" cy="3.5" r="2.6"/>
	<circle class="st1" cx="62.6" cy="22.1" r="2.6"/>
	<circle class="st1" cx="62.6" cy="40.8" r="2.6"/>
	<circle class="st1" cx="62.6" cy="59.5" r="2.6"/>
	<circle class="st1" cx="62.6" cy="78.2" r="2.6"/>
	<circle class="st1" cx="62.6" cy="96.9" r="2.6"/>
	<circle class="st1" cx="39.9" cy="3.5" r="2.6"/>
	<circle class="st1" cx="39.9" cy="22.1" r="2.6"/>
	<circle class="st1" cx="39.9" cy="40.8" r="2.6"/>
	<circle class="st1" cx="39.9" cy="59.5" r="2.6"/>
	<circle class="st1" cx="39.9" cy="78.2" r="2.6"/>
	<circle class="st1" cx="39.9" cy="96.9" r="2.6"/>
	<circle class="st1" cx="17.1" cy="3.5" r="2.6"/>
	<circle class="st1" cx="17.1" cy="22.1" r="2.6"/>
	<circle class="st1" cx="17.1" cy="40.8" r="2.6"/>
	<circle class="st1" cx="17.1" cy="59.5" r="2.6"/>
	<circle class="st1" cx="17.1" cy="78.2" r="2.6"/>
	<circle class="st1" cx="17.1" cy="96.9" r="2.6"/>
</g>
</svg>
