<?xml version="1.0" encoding="utf-8"?>
<!-- Generator: Adobe Illustrator 22.1.0, SVG Export Plug-In . SVG Version: 6.00 Build 0)  -->
<svg version="1.1" id="Camada_1" xmlns="http://www.w3.org/2000/svg" xmlns:xlink="http://www.w3.org/1999/xlink" x="0px" y="0px"
	 viewBox="0 0 100 100" style="enable-background:new 0 0 100 100;" xml:space="preserve">
<style type="text/css">
	.st0{opacity:0.5;}
	.st1{fill:#91E3E5;}
</style>
<g class="st0">
	<circle class="st1" cx="83.6" cy="4.6" r="2.6"/>
	<circle class="st1" cx="83.6" cy="22.9" r="2.6"/>
	<circle class="st1" cx="83.6" cy="41.3" r="2.6"/>
	<circle class="st1" cx="83.6" cy="59.6" r="2.6"/>
	<circle class="st1" cx="83.6" cy="77.9" r="2.6"/>
	<circle class="st1" cx="83.6" cy="96.3" r="2.6"/>
	<circle class="st1" cx="61.3" cy="4.6" r="2.6"/>
	<circle class="st1" cx="61.3" cy="22.9" r="2.6"/>
	<circle class="st1" cx="61.3" cy="41.3" r="2.6"/>
	<circle class="st1" cx="61.3" cy="59.6" r="2.6"/>
	<circle class="st1" cx="61.3" cy="77.9" r="2.6"/>
	<circle class="st1" cx="61.3" cy="96.3" r="2.6"/>
	<circle class="st1" cx="39" cy="4.6" r="2.6"/>
	<circle class="st1" cx="39" cy="22.9" r="2.6"/>
	<circle class="st1" cx="39" cy="41.3" r="2.6"/>
	<circle class="st1" cx="39" cy="59.6" r="2.6"/>
	<circle class="st1" cx="39" cy="77.9" r="2.6"/>
	<circle class="st1" cx="39" cy="96.3" r="2.6"/>
	<circle class="st1" cx="16.6" cy="4.6" r="2.6"/>
	<circle class="st1" cx="16.6" cy="22.9" r="2.6"/>
	<circle class="st1" cx="16.6" cy="41.3" r="2.6"/>
	<circle class="st1" cx="16.6" cy="59.6" r="2.6"/>
	<circle class="st1" cx="16.6" cy="77.9" r="2.6"/>
	<circle class="st1" cx="16.6" cy="96.3" r="2.6"/>
</g>
</svg>
