<?xml version="1.0" encoding="utf-8"?>
<!-- Generator: Adobe Illustrator 22.1.0, SVG Export Plug-In . SVG Version: 6.00 Build 0)  -->
<svg version="1.1" id="Camada_1" xmlns="http://www.w3.org/2000/svg" xmlns:xlink="http://www.w3.org/1999/xlink" x="0px" y="0px"
	 viewBox="0 0 19.4 94.8" style="enable-background:new 0 0 19.4 94.8;" xml:space="preserve">
<style type="text/css">
	.st0{fill:#1B234B;}
	.st1{opacity:0.4;}
	.st2{fill:#CAE6FF;}
	.st3{fill:#122F49;}
	.st4{fill:#36F400;}
</style>
<g>
	<g>
		<path class="st0" d="M5.6,37.1v-4.5l0.6-0.4v-0.3c0,0-0.4,0-0.6-0.1S5,31.9,5,31.9s-1.3,0-1.3-0.1s-1.6-1-2.2-0.4
			c-0.6,0.6-1,0.3-1,0.3s0.7-0.6,0.6-0.7S0,30.3,0,30.3s0.6-0.4,1.4,0c0.9,0.4,1.3-0.1,1.3-0.1s0.7,0,1.1,0.4
			c0.4,0.4,1.4,0.1,1.4,0.1s0.6-0.6,0.9-0.4c0.3,0.1,0-0.4,0-0.4l-0.5-0.7l0.1-1.9c0,0,0.4-0.6,0.4-0.7s0-3,0-3s-0.7-1.7-0.7-2
			s0-4.3,0-4.3v-0.6c0,0-1.6-2.7-0.9-4.6s0.6-6.2,3.6-9.5l0.5-0.4V1.3V1.1H8.3V0.8h0.3V0.3H9v0.4h0.4V1H9v1.1c0,0,4.7,5,4.9,8.6
			c0.1,3.6,0.3,4.5-1,5.5l-0.2,0.6L12.8,29l-0.4,0.6V30l0.4,0.1c0,0,0.9,0.4,1.3,0.4s1-0.7,1.6-0.7s0.9,0.4,0.9,0.4s0.4-0.6,0.6-0.6
			s1.4,0.4,1.4,0.4l-0.9,0.7c0,0-0.4,0.1,0.1,0.7c0,0,0,0.6-1.4-0.3c0,0-0.7,0-1.7,0.7c-1.1,0-2.3-0.1-2.3-0.1v0.6l0.4,0.3V34
			l-0.4,0.9V37L5.6,37.1z"/>
	</g>
	<g class="st1">
		<path class="st2" d="M10.4,15.9v2.3c0,0-1.1,3.3-2.7,4.6l-1.9-2.9v-2.4l-0.4-0.9v4.9l0.7,2v3l-0.4,0.7l-0.1,1.9l4-0.1l3.3,0.1v-2
			c0,0-0.4,1.6-1.4,1.6c-2.2-0.9-2.2-2.6-2.2-2.6V23l2.2-3c0,0,0.6-3.2,0.4-4h-1.5V15.9z"/>
	</g>
	<g>
		<path class="st3" d="M7.5,24.3c0,0-0.7,0.7-0.1,2C8,27.3,8.2,24.3,7.5,24.3z"/>
	</g>
	<g>
		<polygon class="st0" points="5.6,37.1 5.6,85.4 12.4,85.4 12.4,37 		"/>
	</g>
	<g class="st1">
		<path class="st2" d="M10,32.5v2.3c0,0-1,3.3-2.4,4.6l-1.7-2.9v-2.4l-0.3-0.9v4.9l0.6,2v3l-0.4,0.7l-0.1,1.9l3.6-0.1l2.9,0.1v-2
			c0,0-0.4,1.6-1.2,1.6c-1.9-0.9-1.9-2.6-1.9-2.6v-3.2l1.9-3c0,0,0.5-3.2,0.4-4C11.4,32.5,10,32.5,10,32.5z"/>
	</g>
	<g class="st1">
		<path class="st2" d="M7.9,45.6v2.3c0,0,1,3.3,2.4,4.6l1.6-2.9v-2.4l0.4-0.9v4.9l-0.6,2v3l0.4,0.7l0.1,1.9l-3.6-0.1l-2.9,0.1v-2
			c0,0,0.4,1.6,1.2,1.6c1.9-0.9,1.9-2.6,1.9-2.6v-3.2l-1.9-3c0,0-0.5-3.2-0.4-4H7.9z"/>
	</g>
	<g class="st1">
		<path class="st2" d="M10.1,58.8v2.3c0,0-1,3.3-2.4,4.6l-1.6-2.9v-2.4l-0.4-0.9v4.9l0.6,2v3l-0.4,0.7l0,1.9l3.5-0.1l2.9,0.1v-2
			c0,0-0.4,1.6-1.2,1.6C9.2,70.7,9.2,69,9.2,69v-3.2l1.9-3c0,0,0.5-3.2,0.4-4C11.5,58.8,10.1,58.8,10.1,58.8z"/>
	</g>
	<g class="st1">
		<path class="st2" d="M7.9,72.2v2.3c0,0,1,3.3,2.4,4.6l1.6-2.9v-2.4l0.4-0.9v4.9l-0.6,2v3l0.4,0.7l0.1,1.9l-3.6-0.2l-2.9,0.1v-2
			c0,0,0.4,1.6,1.2,1.6c1.9-0.9,1.9-2.6,1.9-2.6v-3.2l-1.9-3c0,0-0.5-3.2-0.4-4L7.9,72.2L7.9,72.2z"/>
	</g>
	<g class="st1">
		<circle class="st2" cx="9.9" cy="48.2" r="1.4"/>
	</g>
	<g class="st1">
		<circle class="st2" cx="7.8" cy="62" r="1.4"/>
	</g>
	<g class="st1">
		<circle class="st2" cx="7.8" cy="35.1" r="1.4"/>
	</g>
	<g class="st1">
		<circle class="st2" cx="9.9" cy="74.6" r="1.4"/>
	</g>
	<g>
		<path class="st0" d="M12.4,85.4c0,0-1.1,2.7-0.1,3.9v5.5H6v-5.2c0,0,1-2.3-0.1-4.2"/>
	</g>
	<g>
		<path class="st0" d="M11.3,87v1.6c0,0,1,0.3,2.3,0.1c0,0,1-0.6,1.7-0.7c0,0,1.4,0.9,1.4,0.3c0,0-0.4-0.3-0.1-0.7
			c0,0,0.9-0.4,0.9-0.7c0,0-1.2-0.5-1.9,0.5c0,0-0.8-1-2.2,0.3C13.3,87.6,12.7,87.7,11.3,87z"/>
	</g>
	<g>
		<path class="st0" d="M7,87v1.6c0,0-1,0.3-2.3,0.1c0,0-1-0.6-1.7-0.7c0,0-1.4,0.9-1.4,0.3c0,0,0.4-0.3,0.1-0.7c0,0-0.9-0.4-0.9-0.7
			c0,0,1.2-0.5,1.9,0.5c0,0,0.8-1,2.2,0.3C5.1,87.6,5.7,87.7,7,87z"/>
	</g>
	<g>
		<path class="st0" d="M8.6,2.2c0,0-7.6,6.6-3.2,14.4c0,0.1,2.9-1.3,3.4-1.4c0.6-0.1,4,1.1,4,1.1S18.2,9.2,8.6,2.2z"/>
	</g>
	<g>
		<g>
			<path class="st4" d="M6.3,36.9v-4.5L6.9,32v-0.2c-0.1,0-0.4,0-0.6-0.2c-0.1-0.1-0.4,0.1-0.5,0.2l0,0l0,0c-1.3,0-1.3-0.1-1.3-0.2
				c0-0.1-0.6-0.4-1.2-0.5c-0.3,0-0.6-0.1-0.8,0.2c-0.6,0.6-1.1,0.3-1.1,0.3H1.3h0.1C1.6,31.4,2,31.1,2,31l0,0
				c-0.1-0.1-0.9-0.6-1.1-0.7H0.8h0.1c0,0,0.6-0.4,1.5,0c0.8,0.4,1.2-0.1,1.2-0.1l0,0l0,0c0,0,0.7,0,1.2,0.4
				c0.4,0.4,1.3,0.2,1.4,0.1c0.1-0.1,0.6-0.6,0.9-0.4h0.1c0,0,0-0.2-0.1-0.4l-0.6-0.6l0.1-1.9l0,0C6.8,27.1,7,26.8,7,26.7v-3
				c-0.1-0.2-0.7-1.7-0.7-2v-4.9c-0.1-0.2-1.6-2.8-0.9-4.6c0.2-0.5,0.3-1.2,0.5-2.1C6.3,8,6.8,5.1,9,2.7l0.4-0.4V0.8H9.1V0.4h0.3V0
				h0.5v0.4h0.4v0.4H9.9v1.1c0.3,0.3,4.7,5.2,4.9,8.6c0,0.3,0,0.5,0,0.8c0.1,3,0.2,3.8-1,4.7l-0.2,0.6v12.3l-0.4,0.6v0.4l0.4,0.1
				c0,0,0.9,0.4,1.3,0.4c0.2,0,0.4-0.2,0.6-0.3c0.3-0.2,0.6-0.4,0.9-0.4c0.5,0,0.8,0.3,0.9,0.4c0.1-0.2,0.4-0.5,0.6-0.5
				c0.1,0,1.4,0.1,1.4,0.1h0.1l-1,0.8c0,0-0.1,0-0.1,0.1s0,0.2,0.3,0.5l0,0l0,0c0,0,0,0.1-0.1,0.2c-0.2,0.1-0.7,0-1.4-0.4
				c-0.1,0-0.8,0.1-1.7,0.7l0,0l0,0c-1,0-2-0.1-2.2-0.1V32l0.4,0.3v1.5l-0.4,0.9v2.2H6.3z M6.4,32.4v4.4l6.7-0.1v-2.1l0.4-0.9v-1.4
				L13.1,32v-0.7h0.1c0,0,1.1,0.1,2.3,0.1c1-0.7,1.7-0.7,1.7-0.7l0,0l0,0c0.9,0.5,1.2,0.5,1.3,0.4l0.1-0.1c-0.2-0.2-0.3-0.4-0.3-0.6
				c0-0.1,0.1-0.2,0.2-0.2l0.8-0.6c-0.5-0.1-1.2-0.1-1.3-0.1c-0.1,0-0.3,0.3-0.5,0.6v0.1v-0.1c0,0-0.3-0.4-0.8-0.4
				c-0.3,0-0.6,0.2-0.9,0.4c-0.3,0.2-0.5,0.3-0.7,0.3c-0.4,0-1.3-0.4-1.3-0.4l-0.5-0.2v-0.5l0.4-0.6l-0.1-12.2l0-0.5l0,0
				c1.2-0.9,1.1-1.7,1-4.7c0-0.2,0-0.5,0-0.8C14.5,7,9.8,2,9.7,2l0,0V0.7h0.4V0.5H9.7V0.1H9.4v0.4H9.1v0.2h0.3v1.2L9,2.3
				C6.8,4.7,6.3,7.6,5.9,9.7c-0.2,0.8-0.3,1.6-0.5,2.1c-0.7,1.8,0.8,4.5,0.9,4.6l0,0v4.9c0,0.2,0.5,1.5,0.7,2l0,0v3
				c0,0.1-0.3,0.6-0.4,0.7l-0.1,1.8l0.6,0.6c0.1,0.2,0.2,0.4,0.1,0.5c0,0-0.1,0-0.2,0c-0.2-0.1-0.6,0.3-0.8,0.4l0,0l0,0
				c0,0-1,0.3-1.5-0.2c-0.4-0.4-1-0.4-1.1-0.4c-0.1,0.1-0.5,0.5-1.3,0.1c-0.7-0.3-1.1-0.1-1.3,0c0.2,0.1,1,0.6,1.1,0.7v0.1
				c0,0.2-0.4,0.5-0.5,0.6c0.1,0,0.5,0.1,0.9-0.3c0.4-0.4,1.2-0.1,1.5,0c0.2,0.1,0.7,0.3,0.7,0.4c0.1,0.1,0.7,0.1,1.2,0.1
				c0.1-0.1,0.5-0.3,0.6-0.1c0.1,0.1,0.4,0.1,0.5,0.1h0.1V32L6.4,32.4z M4.5,31.5L4.5,31.5L4.5,31.5z"/>
		</g>
		<g class="st1">
			<path class="st4" d="M13.6,28.9l-3.4-0.1l-4.1,0.1L6.2,27l0.4-0.7v-3l-0.7-2v-5.1l0.5,1.1v2.4l1.8,2.8c1.5-1.3,2.6-4.3,2.7-4.5
				v-2.3h1.7l0,0c0.1,0.9-0.4,3.9-0.4,4l0,0l-2.1,3v3.1c0,0,0,1.7,2.1,2.5c0.9,0,1.3-1.5,1.4-1.5l0.1-0.4L13.6,28.9z M6.5,27
				l-0.1,1.8l4-0.1l3.3,0.1v-1.6c-0.2,0.5-0.6,1.3-1.4,1.3l0,0c-2.2-0.9-2.2-2.6-2.2-2.6v-3.2l2.2-3c0-0.2,0.5-3.1,0.4-3.9h-1.3v2.3
				c0,0-1.2,3.3-2.7,4.6l0,0l-1.9-2.9v-2.4l-0.3-0.6v4.6l0.7,2v3L6.5,27z"/>
		</g>
		<g class="st1">
			<path class="st4" d="M8.3,26.4c-0.1,0-0.2-0.1-0.3-0.3l0,0c-0.7-1.5,0.2-2.3,0.2-2.3l0,0l0,0c0.2,0,0.4,0.2,0.5,0.7
				C8.8,25.3,8.7,26.3,8.3,26.4L8.3,26.4z M8,26.1c0.1,0.1,0.2,0.2,0.3,0.2c0.3-0.1,0.4-1,0.2-1.8c-0.1-0.4-0.2-0.6-0.4-0.6
				C8,24.1,7.4,24.8,8,26.1z"/>
		</g>
		<g>
			<path class="st4" d="M8.3,26.3c-0.1,0-0.2-0.1-0.3-0.2l0,0C7.4,24.8,8.1,24,8.2,24l0,0l0,0c0.2,0,0.4,0.2,0.5,0.6
				C8.8,25.2,8.7,26.1,8.3,26.3C8.4,26.3,8.4,26.3,8.3,26.3z M8.1,26c0.1,0.1,0.2,0.2,0.3,0.2c0.2-0.1,0.3-0.9,0.2-1.6
				c-0.1-0.3-0.2-0.5-0.3-0.5C8.1,24.2,7.6,24.9,8.1,26z"/>
		</g>
		<g>
			<path class="st4" d="M13.1,85.1H6.2V36.7l6.9-0.1V85.1z M6.4,85H13V36.7l-6.6,0.1V85z"/>
		</g>
		<g class="st1">
			<path class="st4" d="M13,45.5l-3-0.1l-3.6,0.1l0.1-1.9l0.4-0.7v-3l-0.6-2v-5.1l0.5,1.1v2.4l1.6,2.8c1.3-1.3,2.3-4.3,2.3-4.5v-2.3
				h1.4l0,0c0.1,0.9-0.4,3.9-0.4,4l0,0l-1.9,3v3.1c0,0,0,1.7,1.9,2.5c0.8,0,1.2-1.5,1.2-1.5L13,43V45.5z M6.6,43.6l-0.1,1.8l3.5-0.1
				l2.9,0.1v-1.6c-0.2,0.5-0.5,1.3-1.2,1.3l0,0c-1.9-0.9-1.9-2.6-1.9-2.6v-3.2l1.9-3c0-0.2,0.5-3.1,0.4-3.9h-1.2v2.3
				c0,0-1,3.3-2.4,4.6l0,0l-1.7-2.9V34l-0.3-0.6V38l0.6,2v3L6.6,43.6z"/>
		</g>
		<g class="st1">
			<path class="st4" d="M6.4,58.6v-2.5l0.1,0.5c0,0,0.3,1.5,1.2,1.5c1.8-0.8,1.8-2.5,1.8-2.5v-3.1l-1.9-3l0,0c0-0.1-0.5-3.2-0.4-4
				l0,0h1.3v2.3c0.1,0.2,1,3.2,2.3,4.5l1.6-2.8v-2.4l0.5-1.1v5.2l-0.6,2v3l0.4,0.7l0.1,1.9l-3.5-0.1L6.4,58.6z M9.3,58.3l3.4,0.1
				l-0.1-1.7L12.2,56v-3l0.6-2v-4.6l-0.2,0.5v2.4l-1.7,2.9h-0.1c-1.4-1.3-2.4-4.6-2.4-4.6l0,0v-2.2H7.3c-0.1,0.9,0.3,3.7,0.4,3.9
				l1.9,3v3.2c0,0,0,1.8-1.9,2.6l0,0c-0.6,0-1-0.8-1.2-1.3v1.6L9.3,58.3z"/>
		</g>
		<g class="st1">
			<path class="st4" d="M13,71.8l-2.9-0.1l-3.5,0.1l0.1-1.9l0.4-0.7v-3l-0.6-2V59L7,60.1v2.4l1.6,2.8c1.3-1.3,2.2-4.3,2.3-4.5v-2.3
				h1.3l0,0c0.1,0.9-0.4,3.9-0.4,4l0,0l-1.9,3v3.1c0,0,0,1.7,1.8,2.5c0.8,0,1.2-1.5,1.2-1.5l0.1-0.5V71.8z M6.8,69.9l-0.1,1.8
				l3.4-0.1l2.8,0.1v-1.6c-0.2,0.5-0.5,1.3-1.2,1.3l0,0c-1.9-0.9-1.9-2.6-1.9-2.6v-3.2l1.9-3c0-0.2,0.5-3.1,0.4-3.9H11V61
				c0,0-1,3.3-2.4,4.6H8.5l-1.7-2.9v-2.4l-0.3-0.6v4.6l0.6,2v3L6.8,69.9z"/>
		</g>
		<g class="st1">
			<path class="st4" d="M6.4,85.1v-2.5l0.1,0.5c0,0,0.3,1.5,1.2,1.5c1.8-0.8,1.8-2.5,1.8-2.5V79l-1.9-3l0,0c0-0.1-0.5-3.2-0.4-4l0,0
				h1.3v2.3c0.1,0.2,1,3.2,2.3,4.5l1.6-2.8v-2.4l0.5-1.1v5.2l-0.6,2v3l0.4,0.7l0.1,1.9L9.3,85L6.4,85.1z M9.3,84.9l3.4,0.1l-0.1-1.8
				l-0.4-0.7v-3l0.6-2v-4.6l-0.2,0.6v2.4l0,0L11,78.8h-0.1c-1.4-1.3-2.4-4.6-2.4-4.6l0,0V72H7.4c-0.1,0.9,0.3,3.7,0.4,3.9l1.9,3v3.2
				c0,0,0,1.8-1.9,2.6l0,0c-0.6,0-1-0.8-1.2-1.3V85L9.3,84.9z"/>
		</g>
		<g class="st1">
			<path class="st4" d="M10.6,49.4c-0.8,0-1.5-0.7-1.5-1.5s0.7-1.5,1.5-1.5s1.5,0.7,1.5,1.5S11.5,49.4,10.6,49.4z M10.6,46.5
				c-0.8,0-1.4,0.6-1.4,1.4c0,0.8,0.6,1.4,1.4,1.4s1.4-0.6,1.4-1.4S11.4,46.5,10.6,46.5z"/>
		</g>
		<g class="st1">
			<path class="st4" d="M8.5,63.2c-0.8,0-1.5-0.7-1.5-1.5c0-0.8,0.7-1.5,1.5-1.5s1.5,0.7,1.5,1.5C10,62.5,9.3,63.2,8.5,63.2z
				 M8.5,60.3c-0.8,0-1.4,0.6-1.4,1.4c0,0.8,0.6,1.4,1.4,1.4s1.4-0.6,1.4-1.4C9.9,60.9,9.3,60.3,8.5,60.3z"/>
		</g>
		<g class="st1">
			<path class="st4" d="M8.5,36.3c-0.8,0-1.5-0.7-1.5-1.5s0.7-1.5,1.5-1.5S10,34,10,34.8S9.3,36.3,8.5,36.3z M8.5,33.4
				c-0.8,0-1.4,0.6-1.4,1.4c0,0.8,0.6,1.4,1.4,1.4s1.4-0.6,1.4-1.4S9.3,33.4,8.5,33.4z"/>
		</g>
		<g class="st1">
			<path class="st4" d="M10.6,75.8c-0.8,0-1.5-0.7-1.5-1.5s0.7-1.5,1.5-1.5s1.5,0.7,1.5,1.5C12.1,75.1,11.5,75.8,10.6,75.8z
				 M10.6,72.9c-0.8,0-1.4,0.6-1.4,1.4s0.6,1.4,1.4,1.4s1.4-0.6,1.4-1.4S11.4,72.9,10.6,72.9z"/>
		</g>
		<g>
			<path class="st4" d="M13,94.7H6.6v-5.5c0,0,1-2.3-0.1-4.1L6.6,85c1.1,1.8,0.2,4,0.2,4.2v5.3H13V89c-1-1.2,0.1-3.8,0.1-3.9h0.1
				c0,0-1.1,2.7-0.2,3.8l0,0C13,88.9,13,94.7,13,94.7z"/>
		</g>
		<g>
			<path class="st4" d="M13.7,88.5c-0.9,0-1.6-0.2-1.6-0.2l0,0v-1.7h0.1c1.3,0.8,1.9,0.6,1.9,0.6c0.6-0.5,1.1-0.7,1.6-0.7
				c0.4,0,0.6,0.3,0.7,0.4c0.7-1,1.9-0.5,2-0.5l0,0l0,0c0,0.3-0.7,0.7-0.9,0.8c-0.1,0.2-0.1,0.3,0,0.5c0.1,0.1,0.2,0.2,0.2,0.2l0,0
				l0,0c0,0.1-0.1,0.2-0.1,0.2c-0.3,0.2-1.2-0.3-1.4-0.4c-0.7,0.1-1.7,0.7-1.7,0.7l0,0C14.1,88.5,13.9,88.5,13.7,88.5z M12.1,88.2
				c0.2,0,1.1,0.3,2.2,0.1c0.1-0.1,1-0.6,1.7-0.7l0,0l0,0c0.3,0.2,1.1,0.6,1.3,0.5c0,0,0,0,0.1-0.1c0,0-0.1-0.1-0.2-0.2
				s-0.1-0.3,0-0.6l0,0l0,0c0.3-0.2,0.8-0.4,0.8-0.6c-0.2-0.1-1.2-0.4-1.8,0.5v0.1v-0.1c0,0-0.2-0.3-0.7-0.4c-0.4,0-0.9,0.2-1.5,0.6
				l0,0c-0.1,0-0.6,0.2-2-0.6v1.5H12.1z"/>
		</g>
		<g>
			<path class="st4" d="M6.2,88.5c-0.2,0-0.5,0-0.7,0l0,0c0,0-1-0.6-1.7-0.7c-0.2,0.1-1.1,0.6-1.4,0.4c-0.1,0-0.1-0.1-0.1-0.2l0,0
				l0,0c0,0,0.4-0.3,0.1-0.6c-0.1-0.1-0.9-0.5-0.9-0.8l0,0l0,0c0,0,1.2-0.5,2,0.5c0.1-0.1,0.3-0.3,0.7-0.4c0.5-0.1,1,0.2,1.6,0.7
				c0.1,0,0.6,0.1,1.9-0.6h0.1v1.7l0,0C7.8,88.3,7.1,88.5,6.2,88.5z M5.5,88.3c1.1,0.1,2-0.1,2.2-0.1v-1.4c-1.3,0.8-1.9,0.6-2,0.6
				l0,0c-0.5-0.5-1-0.7-1.5-0.6C3.8,86.7,3.6,87,3.6,87v0.1V87C3,86.1,2,86.4,1.8,86.5c0.1,0.2,0.5,0.5,0.8,0.6l0,0l0,0
				c0.3,0.4,0,0.7-0.1,0.8c0,0.1,0,0.1,0.1,0.1c0.2,0.1,1-0.3,1.3-0.5l0,0l0,0C4.5,87.7,5.4,88.3,5.5,88.3z"/>
		</g>
		<g>
			<path class="st4" d="M6.2,16.3L6.2,16.3L6.2,16.3L6.2,16.3C3.8,12.2,4.8,8.5,6,6.1c1.3-2.6,3.2-4.3,3.3-4.3l0,0l0,0
				C12.7,4.3,14.6,7,15,9.9c0.5,3.5-1.4,6-1.4,6.1l0,0l0,0c-1.2-0.4-3.5-1.3-4-1.1c-0.3,0.1-1.1,0.4-1.8,0.8
				C6.7,16.2,6.3,16.3,6.2,16.3z M9.4,2c-0.3,0.2-2,1.8-3.2,4.2s-2.2,6,0.1,10c0.2,0,0.9-0.4,1.6-0.7c0.8-0.3,1.6-0.7,1.8-0.8
				c0.6-0.1,3.6,1,4,1.1c0.2-0.3,1.8-2.7,1.3-6C14.6,7.1,12.7,4.4,9.4,2z"/>
		</g>
	</g>
</g>
</svg>
