<?xml version="1.0" encoding="utf-8"?>
<!-- Generator: Adobe Illustrator 22.1.0, SVG Export Plug-In . SVG Version: 6.00 Build 0)  -->
<svg version="1.1" id="Camada_1" xmlns="http://www.w3.org/2000/svg" xmlns:xlink="http://www.w3.org/1999/xlink" x="0px" y="0px"
	 viewBox="0 0 100 100" style="enable-background:new 0 0 100 100;" xml:space="preserve">
<style type="text/css">
	.st0{fill:#122F49;}
	.st1{fill:#36F400;}
</style>
<g>
	<g>
		<g>
			<path class="st0" d="M70.3,32.8l2.5,2.5l-0.1,1l2.8,1.5l1,1.2l0.6,0.1l1.1,1.1l-3.2,3.3l0.6,0.7c0,0-3.2,1.5-3.2,1.9
				c0,0-3,0.8-3.1,1c-0.1,0.2-2.5,1.9-2.4,1c0,0,3.7-3.8,2.5-3.9l-21.1-0.4l-14.2-0.4c0,0-1.6,1.8,4.8,6.9c0,0-1.5,3-2.7,4.1
				c0,0,0.1,1.6-0.9,2c0,0,0,1.2-0.4,1.9c0,0,2.8,1.9,4,5.4c0,0,21.2,35.5,46.6,31.5c0,0-2.4-2.5-2.5-4.4c0,0-4.5,2.8-4.6,2.2
				c-0.1-0.6-1.3-2.4-1.3-2.4l-2.8-1.1L73,87.8l-2.3-0.6l0.8-1.5l-2.3-0.6l-0.8-1.9l-2.9-1l-0.2-3.4l-4.2-0.5l-1-3.8l2.9-1.1
				l7.8,3.2l0.3-0.7l3-0.1l2.4,2.8l2.9-1.1l1,1.5l0.7,0.7l1.2-1.2l2.3,2.5l0.7-0.7c0,0-4.7-9.1-28-14.2l-14.7-3.2
				c0,0-1.5-2.4-1.3-4.8l-1-0.5l1.7-1l-0.4-1.6l-2.1,1.7c0,0-1.4-2.3,0.5-3.9l1.3-3c0,0,2.5,2.8,5.5,3.8h13.4c0,0,5.7-1.3,6.9-2.2
				c0,0,3.9-1.3,5.1-2.8l0.6-0.1l0.7-1c0,0,3.7-2,3.9-3.1l0.5-1.1c0,0,2.5-1.8,2.3-3.8c0,0-1.2-5.9-0.8-8L79,24.8
				c0,0,0.2-0.6-0.9-0.7c0,0-2.6-1.9-2.8-2.6c0,0-2.5-1.6-5-0.2c0,0,0.5,0.3,0.6,1c0,0,0,0.1,0,0.1c0,0,1.1,1.7,1.9,1.2
				c0,0,0.9,1.4,1.1,1L74,27c0,0,0.5,0.8,0.7,0.6l0.1,1.4l1.2,0.1c0,0,0,2.3,0.5,2.6l-1.3,1.6c0,0-1.7-0.8-1.9-1.8
				c0,0.3-0.2-3.6-1.2-3.7h-0.8c0,0-2-2.1-1.7-3.2c0.1,0.2,0.3-1.2,0.3-1.2s-2-0.6-2.1,0.1l0.2,0.9c0,0,0.2,3,1.5,4.5
				c0.2,0.1,0.7,2.8,1,3.6"/>
		</g>
		<g>
			<path class="st0" d="M48,44.1l1.2,0.1c-0.5-0.1-0.4-1-0.4-1l-0.7-7.3c0.4-0.3,0.2-0.9,0.2-0.9c-1.5-0.3-1,1-1,1s0.8,6.9,0.7,6.8
				C48.2,44,48,44.1,48,44.1z M47.7,35.7c-0.2,0-0.3-0.1-0.3-0.3c0-0.2,0.1-0.3,0.3-0.3s0.3,0.1,0.3,0.3
				C48,35.6,47.9,35.7,47.7,35.7z"/>
		</g>
		<g>
			<path class="st0" d="M56.1,44.3l1.1,0.5c-0.4-0.3,0-1.1,0-1.1l1.9-7.1c0.5-0.1,0.5-0.7,0.5-0.7c-1.3-0.8-1.2,0.6-1.2,0.6
				s-1.7,6.8-1.8,6.6C56.3,44.2,56.1,44.3,56.1,44.3z M58.8,36.3c-0.1-0.1-0.2-0.2-0.2-0.4s0.2-0.2,0.4-0.2c0.1,0.1,0.2,0.2,0.2,0.4
				S58.9,36.4,58.8,36.3z"/>
		</g>
	</g>
	<g>
		<g>
			<g>
				<polygon class="st0" points="11.9,96.2 11.6,76.1 28.3,54.8 43.7,49.8 43.9,50.7 28.9,55.6 12.5,76.4 12.8,96.1 				"/>
			</g>
		</g>
		<g>
			<g>
				<polygon class="st0" points="4.3,90.9 3.4,90.7 6.3,72.3 26.2,49.2 46.9,52 46.7,52.9 26.5,50.1 7.1,72.7 				"/>
			</g>
		</g>
		<g>
			<g>
				<polygon class="st0" points="1.4,89.8 0.5,89.7 3.6,73.9 3.8,73.8 26.8,58.4 47.9,51.3 48.2,52.2 27.2,59.3 4.4,74.4 				"/>
			</g>
		</g>
		<g>
			<g>
				<polygon class="st0" points="9.4,87.9 8.5,87.9 8.5,73.8 24,51.5 42.7,52.2 42.7,53.1 24.5,52.4 9.4,74.1 				"/>
			</g>
		</g>
		<g>
			<g>
				<polygon class="st0" points="72.8,84.1 71.9,83.6 78,71.5 73.2,53.4 60.2,53.2 60.2,52.3 73.9,52.5 79,71.6 				"/>
			</g>
		</g>
		<g>
			<g>
				<polygon class="st0" points="93.7,85.2 90.7,73.6 75.5,56.6 60.7,53.6 60.8,52.7 76,55.8 76.1,55.9 91.5,73.2 94.6,85 				"/>
			</g>
		</g>
		<g>
			<g>
				<polygon class="st0" points="90.6,88.3 89.7,88.1 92.3,75.3 79.2,57.7 63.7,51.7 64.1,50.8 79.8,57 93.3,75.1 				"/>
			</g>
		</g>
		<g>
			<g>
				<polygon class="st0" points="97.4,86.8 96.5,86.7 97.7,75.8 94.8,61.7 76.7,49.2 66.8,51.5 66.6,50.6 76.9,48.2 95.7,61.2 
					98.7,75.8 				"/>
			</g>
		</g>
	</g>
</g>
<g>
	<path class="st1" d="M12.3,96.2L12,76.1l0,0L22.3,63l-8.5,5.6L10,74.1V88H8.9V73.8l2.5-3.6l-3.5,2.4l-0.2,0.2L4.9,91l-1.1-0.2
		l2.7-17.3l-1.5,1L2,89.9l-1.1-0.2L4,73.8l3.1-2.1l16.7-19.4l0.7-1l0.2,0l2-2.3L39,50.8c0.1-0.1,0.1-0.3,0.2-0.3
		c-4-3.2-4.9-5.1-5-6.1c-0.1-0.6,0.2-0.9,0.2-0.9l0,0l0,0l14.1,0.4c0-0.2,0-0.5,0-1l0-0.2l0,0c0-0.8-0.4-4.3-0.7-6.6
		c0-0.1-0.2-0.6,0-0.9c0.2-0.2,0.5-0.3,1-0.2l0,0l0,0c0,0,0.2,0.6-0.2,0.9l0.7,7.3c0,0,0,0.4,0.1,0.7l7.2,0.1
		c0.1-0.2,0.2-0.5,0.3-0.9l0.1-0.2l0,0c0.2-0.8,1.1-4.1,1.7-6.4c0-0.1,0-0.6,0.3-0.8c0.2-0.1,0.6-0.1,1,0.2l0,0l0,0
		c0,0,0,0.6-0.5,0.8l-1.9,7c0,0-0.1,0.1-0.1,0.3l12,0.2c0.2,0,0.3,0.1,0.3,0.2c0.3,0.7-2.3,3.4-2.7,3.8c0,0.1,0,0.1,0.1,0.1
		c0.4,0.1,2.1-1.1,2.2-1.2c0.1-0.2,1.8-0.6,3.1-1c0.2-0.4,2.3-1.5,3.2-1.9l-0.5-0.6l3.2-3.3l-1.1-1.1l-0.6-0.1l-1.1-1.2l-2.8-1.5
		l0.1-1.1l-2.5-2.5l0.2-0.5c-0.2-0.4-0.4-1.3-0.6-2.1c-0.2-0.6-0.3-1.4-0.4-1.5l0,0c-1.3-1.4-1.5-4.4-1.5-4.5l-0.2-0.9l0,0
		c0-0.1,0.1-0.2,0.2-0.3c0.5-0.3,2,0.1,2,0.1l0.1,0l0,0.1c-0.1,1.1-0.2,1.3-0.3,1.3c-0.2,1,1.5,2.8,1.7,3.1h0.7
		c0.8,0.1,1.2,2,1.3,3.7c0,0,0,0,0,0.1l0,0c0.2,0.9,1.5,1.6,1.8,1.7l1.2-1.5c-0.4-0.4-0.4-2.1-0.4-2.5l-1.2-0.1l-0.1-1.4
		c0,0,0,0,0,0c-0.2,0-0.6-0.5-0.6-0.6l0,0l0.1-2.1c0,0,0,0,0,0c-0.3,0-0.9-0.8-1-1.1c-0.8,0.4-1.9-1.2-1.9-1.3l0,0l0,0
		c0,0,0-0.1,0-0.1c-0.1-0.7-0.6-0.9-0.6-0.9l-0.1-0.1l0.1-0.1c2.6-1.4,5.1,0.2,5.1,0.2l0,0l0,0c0.1,0.5,2,2,2.7,2.5
		c0.4,0,0.7,0.2,0.8,0.4c0.1,0.2,0.1,0.3,0.1,0.4l0.5,6.7l0,0c-0.5,2,0.7,7.9,0.8,7.9c0.2,2-2,3.7-2.3,3.9l-0.5,1.1
		c-0.2,1.1-3.6,3-3.9,3.2l-0.7,1.1l-0.6,0.1c-0.1,0.1-0.3,0.3-0.4,0.4l5-1.2l0,0l18.8,13l0,0l3,14.6L98,86.9l-1.1-0.1l1.2-11
		l-2.9-14.1L77.2,49.3l-8.6,2c-0.5,0.2-0.8,0.3-0.9,0.3c-0.1,0.1-0.2,0.1-0.4,0.2l1.3,0.5l5.8,0.1l0.6,2.4l5.2,2l13.5,18.2l-0.6,2.8
		l1.9,7.2l-1,0.3l-1.3-5l-1.7,8.2l-1.1-0.2l2.1-10.3l-1.1-4.2L76,56.7l-0.4-0.1l4,15l-1,2c5.7,3.5,7.4,6.6,7.4,6.6l0,0.1l-0.8,0.8
		l-2.3-2.5l-1.2,1.2L81,79.2l-1-1.5l-2.8,1.1L76.4,78l-3.1,6.2l-1-0.5l3.3-6.6L74.7,76l-2.9,0.1l-0.3,0.7l-7.8-3.2l-2.8,1.1l0.9,3.7
		l4.2,0.5l0.2,3.4l2.9,0.9l0.8,1.9l2.3,0.6l-0.8,1.5l2.2,0.6l1.2,1.8l2.8,1.1l0,0c0.1,0.1,1.2,1.8,1.3,2.4c0.2,0.2,2.5-1,4.4-2.2
		l0.1-0.1l0,0.1c0.1,1.8,2.4,4.3,2.4,4.3l0.1,0.1l-0.2,0c-5.8,0.9-11.9-0.1-18-3.2c-4.9-2.4-9.9-6.2-14.8-11
		C44.6,72.9,39.3,64,39.2,63.9c-1.2-3.5-3.9-5.4-4-5.4l-0.1,0l0-0.1c0.3-0.5,0.4-1.4,0.4-1.8l-7.8,2.7l-2.6,1.7L13.1,76.5l0.3,19.8
		L12.3,96.2z M12.2,76.2l0.3,19.9l0.7,0l-0.3-19.6l0,0l12.1-15.5l0,0l2.6-1.7l8-2.7l0.1,0.2l0,0c0,0,0,0,0,0c0,0.2,0,1.2-0.4,1.8
		c0.4,0.3,2.8,2.2,4,5.4c0,0.1,5.4,9,13.7,17.2c7.7,7.6,19.6,16.2,32.6,14.2c-0.5-0.5-2.2-2.5-2.4-4.2c-0.8,0.5-3.6,2.2-4.4,2.2
		c0,0-0.1,0-0.1,0c-0.1,0-0.1-0.1-0.1-0.1c-0.1-0.5-1.2-2.1-1.3-2.3l-2.8-1.1l-1.2-1.8l-2.4-0.6l0.8-1.5l-2.2-0.6l-0.8-1.9l-3-1
		L65.7,79l-4.2-0.5l-1-3.9l3-1.2l7.7,3.2l0.3-0.6l3.1-0.1l1.1,1.2l-3.3,6.5l0.7,0.3l3.1-6.2l0.8,0.9l2.9-1.1l1.1,1.6l0.6,0.6
		l1.2-1.2l2.3,2.5l0.6-0.6c-0.2-0.4-2-3.3-7.3-6.5l-0.1,0l1.1-2.1l-4-15.2l0.7,0.1l0,0l15.1,17l1.1,4.3l0,0l-2.1,10.2l0.7,0.1
		l1.8-8.7l1.5,5.6l0.7-0.2l-1.8-7l0.6-2.7L80.2,57L75,55l-0.6-2.4l-5.7-0.1l-1.7-0.7l0.2-0.1c0.2-0.1,0.4-0.2,0.6-0.3l0,0
		c0,0,0.4-0.1,0.9-0.3l8.7-2l0,0l18.1,12.5l0,0l2.9,14.1l-1.2,10.9l0.7,0.1l1.2-11l-3-14.6L77.4,48.3l-5.7,1.3l0.4-0.2
		c0.3-0.2,0.6-0.5,0.8-0.7l0,0l0.6-0.1l0.7-1l0,0c0,0,3.7-2,3.9-3.1l0,0l0.5-1.2l0,0c0,0,2.4-1.8,2.2-3.7c0-0.2-1.2-5.9-0.8-8
		l-0.5-6.8l0,0c0,0,0-0.1,0-0.3c-0.1-0.2-0.4-0.3-0.7-0.3l0,0l0,0c-0.1-0.1-2.5-1.9-2.8-2.6c-0.3-0.2-2.5-1.4-4.8-0.2
		c0.2,0.1,0.5,0.4,0.6,1c0,0,0,0.1,0,0.1c0.3,0.5,1.2,1.5,1.8,1.2l0.1,0l0,0.1c0.2,0.4,0.7,1.1,0.9,1.1c0,0,0,0,0.1,0l0.2-0.2
		L74.6,27c0.1,0.2,0.4,0.5,0.5,0.5c0,0,0,0,0,0l0.1-0.1l0.1,1.5l1.2,0.1v0.1c0,0.9,0.1,2.3,0.4,2.5l0.1,0.1l-1.4,1.7l-0.1,0
		c-0.1,0-1.7-0.8-1.9-1.8c0,0,0-0.1,0-0.1c-0.2-2.2-0.6-3.5-1.1-3.5l-0.8,0l0,0c-0.1-0.1-2-2.1-1.7-3.3l0.1-0.2l0,0.1
		c0.1-0.2,0.1-0.6,0.2-1c-0.4-0.1-1.5-0.3-1.8-0.1c-0.1,0-0.1,0.1-0.1,0.1l0.2,0.8c0,0,0.2,3,1.5,4.4c0.1,0.1,0.2,0.4,0.5,1.5
		c0.2,0.8,0.4,1.7,0.6,2.1l0,0l-0.2,0.5l2.5,2.5l-0.1,1l2.7,1.5l1,1.2l0.6,0.1l1.2,1.2l-3.2,3.3l0.6,0.7l-0.1,0
		c-1.5,0.7-3.1,1.6-3.2,1.8v0.1l-0.1,0c-1.4,0.4-3,0.8-3.1,0.9c-0.1,0.2-1.8,1.5-2.4,1.3c-0.1,0-0.2-0.1-0.2-0.3l0,0l0,0
		c1.1-1.2,2.9-3.2,2.7-3.7c0,0,0-0.1-0.2-0.1l-12.2-0.2l0-0.1c0.1-0.2,0.1-0.4,0.2-0.4l2-7.1l0,0c0.3-0.1,0.4-0.5,0.4-0.6
		c-0.3-0.2-0.5-0.2-0.7-0.2c0,0,0.1,0,0.1,0c0.1,0,0.2,0.1,0.2,0.2c0,0.1,0,0.2,0,0.3c-0.1,0.2-0.3,0.3-0.5,0.2
		c-0.1,0-0.2-0.1-0.2-0.2c0,0.1,0,0.2,0,0.2l0,0l0,0c-1.3,5.3-1.7,6.4-1.8,6.6l0,0c-0.1,0.5-0.3,0.8-0.4,1l0,0L49.4,44l0,0
		c-0.1-0.3-0.1-0.8-0.1-0.8l-0.7-7.3l0,0c0.3-0.2,0.2-0.6,0.2-0.7c-0.3-0.1-0.6,0-0.7,0.1c0,0,0.1,0,0.1,0c0.2,0,0.4,0.2,0.4,0.4
		c0,0.2-0.2,0.4-0.4,0.4c-0.1,0-0.2,0-0.3-0.1c0,0.1,0.1,0.2,0.1,0.2l0,0c0.6,5.4,0.7,6.6,0.7,6.8l0,0c0,0.5,0,0.9,0,1.2l0,0.1
		l-0.1,0l-14.1-0.4c0,0.1-0.2,0.3-0.1,0.7c0.1,1,1,2.9,5,6l0.1,0l0,0.1c0,0-0.1,0.2-0.2,0.4l0,0.1l-12.4-1.7l-2,2.3l-0.2,0l-0.7,0.9
		L7.3,71.9l0,0l-3,2L1.1,89.6l0.7,0.1l3-15.3l1.9-1.2L4,90.6l0.7,0.1l2.8-18.1l0.2-0.2l4.3-2.9l-3,4.3v14h0.7V74.1l3.9-5.6l9.4-6.2
		L12.2,76.2z M59.4,35.9C59.3,35.9,59.3,35.9,59.4,35.9c-0.1,0-0.2,0.1-0.2,0.1l0,0c0,0.1,0,0.2,0.1,0.3c0.1,0,0.2,0,0.3-0.1
		c0-0.1,0-0.1,0-0.2C59.5,35.9,59.5,35.9,59.4,35.9C59.4,35.9,59.4,35.9,59.4,35.9z M48.2,35.2c-0.1,0-0.2,0.1-0.2,0.2
		c0,0.1,0.1,0.2,0.2,0.2c0.1,0,0.2-0.1,0.2-0.2C48.4,35.3,48.3,35.2,48.2,35.2z M92.7,76.2l-0.5-1.8l0.7,0.9L92.7,76.2z M92.6,75.2
		l0.1,0.3l0-0.2L92.6,75.2z M77.7,73.4L77.7,73.4c-5.2-3-11.9-5.4-19.9-7.1L43.1,63l0,0c0,0-1.5-2.4-1.3-4.7l-1-0.5l1.8-1l-0.3-1.4
		L40.1,57L40,56.9c0,0-0.5-0.7-0.5-1.6l0-0.1L46,53l0,0c0.5,0.3,1,0.5,1.4,0.6h13.4c0,0,0.2,0,0.4-0.1l0,0l0,0l13.3,2.7l4.1,15.3
		L77.7,73.4z M43.2,62.9l14.7,3.2c8,1.7,14.6,4.1,19.8,7.1l0.8-1.6l-4-15.2l-13.2-2.7c-0.3,0.1-0.4,0.1-0.4,0.1l0,0H47.4l0,0
		c-0.5-0.2-0.9-0.4-1.4-0.6l-6.3,2.1c0.1,0.7,0.3,1.2,0.4,1.4l2.1-1.7l0.4,1.8L41,57.7l0.9,0.4l0,0.1C41.7,60.4,43,62.6,43.2,62.9z
		 M9.5,70.4l9.2-10.7l0.1,0.1l-5.7,8.2l0,0L9.5,70.4z M17.8,61l-7.3,8.6l2.6-1.7L17.8,61z M87.1,67.9l-10-11.2l2.6,1l7.5,10.1
		L87.1,67.9z M77.8,57l8.2,9.2l-6.3-8.5L77.8,57z M14.9,66.8l9.6-13.9l0.6-0.6l0,0l10.4,0.4l-6.6,2.1l-4.3,5.5L14.9,66.8z
		 M25.1,52.5l-0.5,0.6l-9.1,13.1l8.9-5.9l4.3-5.5l0,0l5.7-1.9L25.1,52.5z M26.5,59.1l2.8-3.6l0,0l8.3-2.7l0.4,0L37.9,53
		c-0.5,0.7-0.9,1.3-1.3,1.7c0,0.1,0,0.4-0.1,0.7l0,0l0,0l-9.2,3.1L26.5,59.1z M29.4,55.7l-2.1,2.7l9.1-3.1c0.1-0.4,0-0.7,0-0.7l0,0
		l0,0c0.4-0.3,0.8-0.8,1.2-1.5l-0.1,0L29.4,55.7z M72.8,55.1l-8.7-1.8l0-0.2l4.4,0.1l4.3,1.7L72.8,55.1z M65.1,53.4l6.8,1.4
		l-3.4-1.3L65.1,53.4z M74.2,54.7l-3.5-1.4l3.2,0L74.2,54.7z M71.6,53.5l2.4,0.9l-0.2-0.9L71.6,53.5z M39.5,54.4l0-0.2
		c0.1-0.5,0.4-0.9,0.8-1.3l0,0l2.7,0.1l0-0.8l1.8,0.3l-1.9,0.6v0L39.5,54.4z M40.5,53.1c-0.3,0.3-0.6,0.6-0.7,1l2.7-0.9L40.5,53.1z
		 M43.3,52.5l0,0.5l1-0.3L43.3,52.5z M66.5,52.5l-1.4,0l0.5-0.2c0.1,0,0.1,0,0.2-0.1l0,0L66.5,52.5z M41.6,52.2l-0.8,0l0.1-0.2
		l0.8,0.1L41.6,52.2z M37.5,52.1L37.5,52.1l-11.8-0.5L27,50l11.7,1.6L37.5,52.1z M26,51.4l11.5,0.5l0.5-0.2l-10.9-1.5L26,51.4z
		 M43.9,51.6L42,51.4l1.1-0.4l0,0c0.1,0.1,0.3,0.3,0.5,0.4L43.9,51.6z M42.8,51.3l0.5,0.1c-0.1-0.1-0.1-0.1-0.2-0.2L42.8,51.3z
		 M41.4,50.8l0.5-1l0.1,0.1c0,0,0.2,0.2,0.5,0.5l0.1,0.1L41.4,50.8z M41.9,50.1l-0.2,0.5l0.5-0.2C42.1,50.2,42,50.1,41.9,50.1z"/>
</g>
</svg>
