<?xml version="1.0" encoding="utf-8"?>
<!-- Generator: Adobe Illustrator 22.1.0, SVG Export Plug-In . SVG Version: 6.00 Build 0)  -->
<svg version="1.1" id="Camada_1" xmlns="http://www.w3.org/2000/svg" xmlns:xlink="http://www.w3.org/1999/xlink" x="0px" y="0px"
	 viewBox="0 0 100 100" style="enable-background:new 0 0 100 100;" xml:space="preserve">
<style type="text/css">
	.st0{opacity:0.4;}
	.st1{fill:#AEDEE9;}
	.st2{fill:#0C2D38;}
</style>
<g class="st0">
	<path class="st1" d="M3.9,51.2L23.5,34l76,10c0,0-33.8,17.4-34.2,17.5C64.9,61.6,3.9,51.2,3.9,51.2z"/>
</g>
<g class="st0">
	<path class="st2" d="M62.2,61.6c-0.9,0-55.2-9.2-61.5-10.3l-0.1,0l19.7-17.3L96.6,44l-0.2,0.1C95,44.8,62.6,61.5,62.2,61.6
		C62.2,61.6,62.2,61.6,62.2,61.6z M0.9,51.2c3.3,0.6,60.5,10.3,61.3,10.3c0,0,0,0,0,0c0.5-0.1,31.2-15.9,34-17.3l-75.8-10L0.9,51.2z
		"/>
</g>
</svg>
