<?xml version="1.0" encoding="utf-8"?>
<!-- Generator: Adobe Illustrator 22.1.0, SVG Export Plug-In . SVG Version: 6.00 Build 0)  -->
<svg version="1.1" id="Camada_1" xmlns="http://www.w3.org/2000/svg" xmlns:xlink="http://www.w3.org/1999/xlink" x="0px" y="0px"
	 viewBox="0 0 100 100" style="enable-background:new 0 0 100 100;" xml:space="preserve">
<style type="text/css">
	.st0{opacity:0.15;}
	.st1{fill:#F6C00F;}
	.st2{opacity:0.51;}
	.st3{fill:#F49911;}
</style>
<g class="st0">
	<path class="st1" d="M14.5,72.2L0.6,41.7L93.5,26c0,0-1.6,23.2-1.6,24C91.9,50.7,14.5,72.2,14.5,72.2z"/>
</g>
<g class="st2">
	<path class="st3" d="M85.6,72.6L85.6,72.6c-0.3-0.1-19.7-5.4-38.8-10.8c-11.2-3.2-20.2-5.7-26.6-7.6c-3.8-1.1-6.8-2-8.8-2.6
		C8,50.5,8,50.4,8,50.3c0-0.7-1.6-23.7-1.6-24v-0.1h0.1l93,15.7L85.6,72.6z M8.2,50.3c1.4,0.9,51,14.8,77.3,22.1l13.8-30.3L6.6,26.5
		C6.7,28.5,8.1,49,8.2,50.3z"/>
</g>
</svg>
