<?xml version="1.0" encoding="utf-8"?>
<!-- Generator: Adobe Illustrator 22.1.0, SVG Export Plug-In . SVG Version: 6.00 Build 0)  -->
<svg version="1.1" id="Camada_1" xmlns="http://www.w3.org/2000/svg" xmlns:xlink="http://www.w3.org/1999/xlink" x="0px" y="0px"
	 viewBox="0 0 92.3 92.4" style="enable-background:new 0 0 92.3 92.4;" xml:space="preserve">
<style type="text/css">
	.st0{opacity:0.31;}
	.st1{fill:#057240;}
</style>
<g class="st0">
	<circle class="st1" cx="39.3" cy="2" r="2"/>
	<circle class="st1" cx="49.5" cy="12.2" r="2"/>
	<circle class="st1" cx="59.7" cy="22.4" r="2"/>
	<circle class="st1" cx="69.9" cy="32.6" r="2"/>
	<circle class="st1" cx="80.1" cy="42.9" r="2"/>
	<circle class="st1" cx="90.3" cy="53.1" r="2"/>
	<circle class="st1" cx="26.9" cy="14.4" r="2"/>
	<circle class="st1" cx="37.1" cy="24.7" r="2"/>
	<circle class="st1" cx="47.3" cy="34.9" r="2"/>
	<circle class="st1" cx="57.5" cy="45.1" r="2"/>
	<circle class="st1" cx="67.7" cy="55.3" r="2"/>
	<circle class="st1" cx="77.9" cy="65.5" r="2"/>
	<circle class="st1" cx="14.4" cy="26.9" r="2"/>
	<circle class="st1" cx="24.6" cy="37.1" r="2"/>
	<circle class="st1" cx="34.8" cy="47.3" r="2"/>
	<circle class="st1" cx="45.1" cy="57.5" r="2"/>
	<circle class="st1" cx="55.3" cy="67.7" r="2"/>
	<circle class="st1" cx="65.5" cy="77.9" r="2"/>
	<circle class="st1" cx="2" cy="39.3" r="2"/>
	<circle class="st1" cx="12.2" cy="49.5" r="2"/>
	<circle class="st1" cx="22.4" cy="59.7" r="2"/>
	<circle class="st1" cx="32.6" cy="69.9" r="2"/>
	<circle class="st1" cx="42.8" cy="80.2" r="2"/>
	<circle class="st1" cx="53" cy="90.4" r="2"/>
</g>
</svg>
