<?xml version="1.0" encoding="utf-8"?>
<!-- Generator: Adobe Illustrator 22.1.0, SVG Export Plug-In . SVG Version: 6.00 Build 0)  -->
<svg version="1.1" id="Camada_1" xmlns="http://www.w3.org/2000/svg" xmlns:xlink="http://www.w3.org/1999/xlink" x="0px" y="0px"
	 viewBox="0 0 96.5 75.2" style="enable-background:new 0 0 96.5 75.2;" xml:space="preserve">
<style type="text/css">
	.st0{opacity:0.31;}
	.st1{fill:#057240;}
</style>
<g class="st0">
	<circle class="st1" cx="41" cy="2.1" r="2.1"/>
	<circle class="st1" cx="51.7" cy="12.8" r="2.1"/>
	<circle class="st1" cx="62.4" cy="23.5" r="2.1"/>
	<circle class="st1" cx="73.1" cy="34.2" r="2.1"/>
	<circle class="st1" cx="83.7" cy="44.8" r="2.1"/>
	<circle class="st1" cx="94.4" cy="55.5" r="2.1"/>
	<circle class="st1" cx="28.1" cy="15.1" r="2.1"/>
	<circle class="st1" cx="38.7" cy="25.8" r="2.1"/>
	<circle class="st1" cx="49.4" cy="36.5" r="2.1"/>
	<circle class="st1" cx="60.1" cy="47.1" r="2.1"/>
	<path class="st1" d="M68.6,58c-0.3-0.8-0.2-1.7,0.5-2.3c0.8-0.8,2.2-0.8,3,0c0.6,0.6,0.8,1.5,0.5,2.3"/>
	<circle class="st1" cx="15.1" cy="28.1" r="2.1"/>
	<circle class="st1" cx="25.7" cy="38.8" r="2.1"/>
	<circle class="st1" cx="36.4" cy="49.5" r="2.1"/>
	<circle class="st1" cx="47.1" cy="60.1" r="2.1"/>
	<circle class="st1" cx="2.1" cy="41.1" r="2.1"/>
	<circle class="st1" cx="12.7" cy="51.8" r="2.1"/>
	<circle class="st1" cx="23.4" cy="62.5" r="2.1"/>
	<circle class="st1" cx="34.1" cy="73.1" r="2.1"/>
</g>
</svg>
