<?xml version="1.0" encoding="utf-8"?>
<!-- Generator: Adobe Illustrator 22.1.0, SVG Export Plug-In . SVG Version: 6.00 Build 0)  -->
<svg version="1.1" id="Camada_1" xmlns="http://www.w3.org/2000/svg" xmlns:xlink="http://www.w3.org/1999/xlink" x="0px" y="0px"
	 viewBox="0 0 98.9 46.6" style="enable-background:new 0 0 98.9 46.6;" xml:space="preserve">
<style type="text/css">
	.st0{opacity:0.15;}
	.st1{fill:#F6C00F;}
	.st2{opacity:0.51;}
	.st3{fill:#F49911;}
</style>
<g class="st0">
	<path class="st1" d="M13.9,46.2L0,15.7L92.9,0c0,0-1.6,23.2-1.6,24C91.3,24.7,13.9,46.2,13.9,46.2z"/>
</g>
<g class="st2">
	<path class="st3" d="M85,46.6L85,46.6c-0.3-0.1-19.7-5.4-38.8-10.8C35,32.6,26,30.1,19.6,28.2c-3.8-1.1-6.8-2-8.8-2.6
		c-3.4-1.1-3.4-1.2-3.4-1.3c0-0.7-1.6-23.7-1.6-24V0.2h0.1l93,15.7L85,46.6z M7.6,24.3c1.4,0.9,51,14.8,77.3,22.1l13.8-30.3L6,0.5
		C6.1,2.5,7.5,23,7.6,24.3z"/>
</g>
</svg>
