<?xml version="1.0" encoding="utf-8"?>
<!-- Generator: Adobe Illustrator 22.1.0, SVG Export Plug-In . SVG Version: 6.00 Build 0)  -->
<svg version="1.1" id="Camada_1" xmlns="http://www.w3.org/2000/svg" xmlns:xlink="http://www.w3.org/1999/xlink" x="0px" y="0px"
	 viewBox="0 0 98.9 27.6" style="enable-background:new 0 0 98.9 27.6;" xml:space="preserve">
<style type="text/css">
	.st0{opacity:0.4;}
	.st1{fill:#AEDEE9;}
	.st2{fill:#0C2D38;}
</style>
<g class="st0">
	<path class="st1" d="M3.3,17.2L22.9,0l76,10c0,0-33.8,17.4-34.2,17.5C64.3,27.6,3.3,17.2,3.3,17.2z"/>
</g>
<g class="st0">
	<path class="st2" d="M61.6,27.6c-0.9,0-55.2-9.2-61.5-10.3H0L19.7,0L96,10l-0.2,0.1C94.4,10.8,62,27.5,61.6,27.6L61.6,27.6z
		 M0.3,17.2c3.3,0.6,60.5,10.3,61.3,10.3l0,0c0.5-0.1,31.2-15.9,34-17.3l-75.8-10L0.3,17.2z"/>
</g>
</svg>
